%TF.GenerationSoftware,KiCad,Pcbnew,(7.0.0)*%
%TF.CreationDate,2023-03-18T14:29:44-05:00*%
%TF.ProjectId,SlopesMain,536c6f70-6573-44d6-9169-6e2e6b696361,rev?*%
%TF.SameCoordinates,Original*%
%TF.FileFunction,Drillmap*%
%TF.FilePolarity,Positive*%
%FSLAX45Y45*%
G04 Gerber Fmt 4.5, Leading zero omitted, Abs format (unit mm)*
G04 Created by KiCad (PCBNEW (7.0.0)) date 2023-03-18 14:29:44*
%MOMM*%
%LPD*%
G01*
G04 APERTURE LIST*
%ADD10C,0.100000*%
%ADD11C,0.200000*%
G04 APERTURE END LIST*
D10*
X30250000Y-2000000D02*
X39750000Y-2000000D01*
X39750000Y-2000000D02*
X39750000Y-14000000D01*
X39750000Y-14000000D02*
X30250000Y-14000000D01*
X30250000Y-14000000D02*
X30250000Y-2000000D01*
D11*
X30492619Y-14298476D02*
X30492619Y-14098476D01*
X30492619Y-14098476D02*
X30540238Y-14098476D01*
X30540238Y-14098476D02*
X30568809Y-14108000D01*
X30568809Y-14108000D02*
X30587857Y-14127048D01*
X30587857Y-14127048D02*
X30597381Y-14146095D01*
X30597381Y-14146095D02*
X30606905Y-14184190D01*
X30606905Y-14184190D02*
X30606905Y-14212762D01*
X30606905Y-14212762D02*
X30597381Y-14250857D01*
X30597381Y-14250857D02*
X30587857Y-14269905D01*
X30587857Y-14269905D02*
X30568809Y-14288952D01*
X30568809Y-14288952D02*
X30540238Y-14298476D01*
X30540238Y-14298476D02*
X30492619Y-14298476D01*
X30692619Y-14298476D02*
X30692619Y-14165143D01*
X30692619Y-14203238D02*
X30702143Y-14184190D01*
X30702143Y-14184190D02*
X30711667Y-14174667D01*
X30711667Y-14174667D02*
X30730714Y-14165143D01*
X30730714Y-14165143D02*
X30749762Y-14165143D01*
X30816428Y-14298476D02*
X30816428Y-14165143D01*
X30816428Y-14098476D02*
X30806905Y-14108000D01*
X30806905Y-14108000D02*
X30816428Y-14117524D01*
X30816428Y-14117524D02*
X30825952Y-14108000D01*
X30825952Y-14108000D02*
X30816428Y-14098476D01*
X30816428Y-14098476D02*
X30816428Y-14117524D01*
X30940238Y-14298476D02*
X30921190Y-14288952D01*
X30921190Y-14288952D02*
X30911667Y-14269905D01*
X30911667Y-14269905D02*
X30911667Y-14098476D01*
X31045000Y-14298476D02*
X31025952Y-14288952D01*
X31025952Y-14288952D02*
X31016428Y-14269905D01*
X31016428Y-14269905D02*
X31016428Y-14098476D01*
X31241190Y-14298476D02*
X31241190Y-14098476D01*
X31241190Y-14098476D02*
X31307857Y-14241333D01*
X31307857Y-14241333D02*
X31374524Y-14098476D01*
X31374524Y-14098476D02*
X31374524Y-14298476D01*
X31555476Y-14298476D02*
X31555476Y-14193714D01*
X31555476Y-14193714D02*
X31545952Y-14174667D01*
X31545952Y-14174667D02*
X31526905Y-14165143D01*
X31526905Y-14165143D02*
X31488809Y-14165143D01*
X31488809Y-14165143D02*
X31469762Y-14174667D01*
X31555476Y-14288952D02*
X31536428Y-14298476D01*
X31536428Y-14298476D02*
X31488809Y-14298476D01*
X31488809Y-14298476D02*
X31469762Y-14288952D01*
X31469762Y-14288952D02*
X31460238Y-14269905D01*
X31460238Y-14269905D02*
X31460238Y-14250857D01*
X31460238Y-14250857D02*
X31469762Y-14231809D01*
X31469762Y-14231809D02*
X31488809Y-14222286D01*
X31488809Y-14222286D02*
X31536428Y-14222286D01*
X31536428Y-14222286D02*
X31555476Y-14212762D01*
X31650714Y-14165143D02*
X31650714Y-14365143D01*
X31650714Y-14174667D02*
X31669762Y-14165143D01*
X31669762Y-14165143D02*
X31707857Y-14165143D01*
X31707857Y-14165143D02*
X31726905Y-14174667D01*
X31726905Y-14174667D02*
X31736428Y-14184190D01*
X31736428Y-14184190D02*
X31745952Y-14203238D01*
X31745952Y-14203238D02*
X31745952Y-14260381D01*
X31745952Y-14260381D02*
X31736428Y-14279428D01*
X31736428Y-14279428D02*
X31726905Y-14288952D01*
X31726905Y-14288952D02*
X31707857Y-14298476D01*
X31707857Y-14298476D02*
X31669762Y-14298476D01*
X31669762Y-14298476D02*
X31650714Y-14288952D01*
X31831667Y-14279428D02*
X31841190Y-14288952D01*
X31841190Y-14288952D02*
X31831667Y-14298476D01*
X31831667Y-14298476D02*
X31822143Y-14288952D01*
X31822143Y-14288952D02*
X31831667Y-14279428D01*
X31831667Y-14279428D02*
X31831667Y-14298476D01*
X31831667Y-14174667D02*
X31841190Y-14184190D01*
X31841190Y-14184190D02*
X31831667Y-14193714D01*
X31831667Y-14193714D02*
X31822143Y-14184190D01*
X31822143Y-14184190D02*
X31831667Y-14174667D01*
X31831667Y-14174667D02*
X31831667Y-14193714D01*
M02*
