%TF.GenerationSoftware,KiCad,Pcbnew,(7.0.0)*%
%TF.CreationDate,2023-03-18T14:29:44-05:00*%
%TF.ProjectId,SlopesMain,536c6f70-6573-44d6-9169-6e2e6b696361,rev?*%
%TF.SameCoordinates,Original*%
%TF.FileFunction,Drillmap*%
%TF.FilePolarity,Positive*%
%FSLAX45Y45*%
G04 Gerber Fmt 4.5, Leading zero omitted, Abs format (unit mm)*
G04 Created by KiCad (PCBNEW (7.0.0)) date 2023-03-18 14:29:44*
%MOMM*%
%LPD*%
G01*
G04 APERTURE LIST*
%ADD10C,0.100000*%
%ADD11C,0.200000*%
%ADD12C,0.040000*%
%ADD13C,0.080000*%
%ADD14C,0.085000*%
%ADD15C,0.101600*%
%ADD16C,0.110000*%
%ADD17C,0.210000*%
G04 APERTURE END LIST*
D10*
X30250000Y-2000000D02*
X39750000Y-2000000D01*
X39750000Y-2000000D02*
X39750000Y-14000000D01*
X39750000Y-14000000D02*
X30250000Y-14000000D01*
X30250000Y-14000000D02*
X30250000Y-2000000D01*
D11*
D12*
X32280000Y-8370000D02*
X32320000Y-8410000D01*
X32320000Y-8370000D02*
X32280000Y-8410000D01*
X32680000Y-12930000D02*
X32720000Y-12970000D01*
X32720000Y-12930000D02*
X32680000Y-12970000D01*
X33744160Y-5516200D02*
X33784160Y-5556200D01*
X33784160Y-5516200D02*
X33744160Y-5556200D01*
X34853410Y-13164290D02*
X34893410Y-13204290D01*
X34893410Y-13164290D02*
X34853410Y-13204290D01*
X35150000Y-13520000D02*
X35190000Y-13560000D01*
X35190000Y-13520000D02*
X35150000Y-13560000D01*
D13*
X30632000Y-9100000D02*
G75*
G03*
X30632000Y-9100000I-40000J0D01*
G01*
X30632000Y-9450000D02*
G75*
G03*
X30632000Y-9450000I-40000J0D01*
G01*
X30682000Y-4850000D02*
G75*
G03*
X30682000Y-4850000I-40000J0D01*
G01*
X30682000Y-5550000D02*
G75*
G03*
X30682000Y-5550000I-40000J0D01*
G01*
X30682000Y-5900000D02*
G75*
G03*
X30682000Y-5900000I-40000J0D01*
G01*
X30682000Y-8200000D02*
G75*
G03*
X30682000Y-8200000I-40000J0D01*
G01*
X30809000Y-3950000D02*
G75*
G03*
X30809000Y-3950000I-40000J0D01*
G01*
X31140000Y-5200000D02*
G75*
G03*
X31140000Y-5200000I-40000J0D01*
G01*
X31444000Y-8200000D02*
G75*
G03*
X31444000Y-8200000I-40000J0D01*
G01*
X31571000Y-3950000D02*
G75*
G03*
X31571000Y-3950000I-40000J0D01*
G01*
X31640000Y-5200000D02*
G75*
G03*
X31640000Y-5200000I-40000J0D01*
G01*
X31648000Y-9100000D02*
G75*
G03*
X31648000Y-9100000I-40000J0D01*
G01*
X31648000Y-9450000D02*
G75*
G03*
X31648000Y-9450000I-40000J0D01*
G01*
X31698000Y-4850000D02*
G75*
G03*
X31698000Y-4850000I-40000J0D01*
G01*
X31698000Y-5550000D02*
G75*
G03*
X31698000Y-5550000I-40000J0D01*
G01*
X31698000Y-5900000D02*
G75*
G03*
X31698000Y-5900000I-40000J0D01*
G01*
X31708240Y-10850000D02*
G75*
G03*
X31708240Y-10850000I-40000J0D01*
G01*
X31721760Y-12500000D02*
G75*
G03*
X31721760Y-12500000I-40000J0D01*
G01*
X31958000Y-8670000D02*
G75*
G03*
X31958000Y-8670000I-40000J0D01*
G01*
X31958000Y-8924000D02*
G75*
G03*
X31958000Y-8924000I-40000J0D01*
G01*
X31958000Y-9178000D02*
G75*
G03*
X31958000Y-9178000I-40000J0D01*
G01*
X31958000Y-9432000D02*
G75*
G03*
X31958000Y-9432000I-40000J0D01*
G01*
X31958240Y-10850000D02*
G75*
G03*
X31958240Y-10850000I-40000J0D01*
G01*
X31971760Y-12500000D02*
G75*
G03*
X31971760Y-12500000I-40000J0D01*
G01*
X32008000Y-4437500D02*
G75*
G03*
X32008000Y-4437500I-40000J0D01*
G01*
X32008000Y-4691500D02*
G75*
G03*
X32008000Y-4691500I-40000J0D01*
G01*
X32008000Y-4945500D02*
G75*
G03*
X32008000Y-4945500I-40000J0D01*
G01*
X32008000Y-5199500D02*
G75*
G03*
X32008000Y-5199500I-40000J0D01*
G01*
X32008000Y-5453500D02*
G75*
G03*
X32008000Y-5453500I-40000J0D01*
G01*
X32008000Y-5707500D02*
G75*
G03*
X32008000Y-5707500I-40000J0D01*
G01*
X32008000Y-5961500D02*
G75*
G03*
X32008000Y-5961500I-40000J0D01*
G01*
X32090000Y-8300000D02*
G75*
G03*
X32090000Y-8300000I-40000J0D01*
G01*
X32090000Y-9800000D02*
G75*
G03*
X32090000Y-9800000I-40000J0D01*
G01*
X32590000Y-8300000D02*
G75*
G03*
X32590000Y-8300000I-40000J0D01*
G01*
X32590000Y-9800000D02*
G75*
G03*
X32590000Y-9800000I-40000J0D01*
G01*
X32720000Y-8670000D02*
G75*
G03*
X32720000Y-8670000I-40000J0D01*
G01*
X32720000Y-8924000D02*
G75*
G03*
X32720000Y-8924000I-40000J0D01*
G01*
X32720000Y-9178000D02*
G75*
G03*
X32720000Y-9178000I-40000J0D01*
G01*
X32720000Y-9432000D02*
G75*
G03*
X32720000Y-9432000I-40000J0D01*
G01*
X32770000Y-4437500D02*
G75*
G03*
X32770000Y-4437500I-40000J0D01*
G01*
X32770000Y-4691500D02*
G75*
G03*
X32770000Y-4691500I-40000J0D01*
G01*
X32770000Y-4945500D02*
G75*
G03*
X32770000Y-4945500I-40000J0D01*
G01*
X32770000Y-5199500D02*
G75*
G03*
X32770000Y-5199500I-40000J0D01*
G01*
X32770000Y-5453500D02*
G75*
G03*
X32770000Y-5453500I-40000J0D01*
G01*
X32770000Y-5707500D02*
G75*
G03*
X32770000Y-5707500I-40000J0D01*
G01*
X32770000Y-5961500D02*
G75*
G03*
X32770000Y-5961500I-40000J0D01*
G01*
X33032000Y-8750000D02*
G75*
G03*
X33032000Y-8750000I-40000J0D01*
G01*
X33032000Y-9100000D02*
G75*
G03*
X33032000Y-9100000I-40000J0D01*
G01*
X33032000Y-9450000D02*
G75*
G03*
X33032000Y-9450000I-40000J0D01*
G01*
X33082000Y-4500000D02*
G75*
G03*
X33082000Y-4500000I-40000J0D01*
G01*
X33082000Y-4850000D02*
G75*
G03*
X33082000Y-4850000I-40000J0D01*
G01*
X33082000Y-5550000D02*
G75*
G03*
X33082000Y-5550000I-40000J0D01*
G01*
X33082000Y-5900000D02*
G75*
G03*
X33082000Y-5900000I-40000J0D01*
G01*
X33082000Y-6250000D02*
G75*
G03*
X33082000Y-6250000I-40000J0D01*
G01*
X33132000Y-7700000D02*
G75*
G03*
X33132000Y-7700000I-40000J0D01*
G01*
X33140000Y-5200000D02*
G75*
G03*
X33140000Y-5200000I-40000J0D01*
G01*
X33159000Y-8200000D02*
G75*
G03*
X33159000Y-8200000I-40000J0D01*
G01*
X33224000Y-12800000D02*
G75*
G03*
X33224000Y-12800000I-40000J0D01*
G01*
X33232000Y-12450000D02*
G75*
G03*
X33232000Y-12450000I-40000J0D01*
G01*
X33340000Y-4150000D02*
G75*
G03*
X33340000Y-4150000I-40000J0D01*
G01*
X33640000Y-5200000D02*
G75*
G03*
X33640000Y-5200000I-40000J0D01*
G01*
X33840000Y-4150000D02*
G75*
G03*
X33840000Y-4150000I-40000J0D01*
G01*
X33921000Y-8200000D02*
G75*
G03*
X33921000Y-8200000I-40000J0D01*
G01*
X34048000Y-8750000D02*
G75*
G03*
X34048000Y-8750000I-40000J0D01*
G01*
X34048000Y-9100000D02*
G75*
G03*
X34048000Y-9100000I-40000J0D01*
G01*
X34048000Y-9450000D02*
G75*
G03*
X34048000Y-9450000I-40000J0D01*
G01*
X34098000Y-4500000D02*
G75*
G03*
X34098000Y-4500000I-40000J0D01*
G01*
X34098000Y-4850000D02*
G75*
G03*
X34098000Y-4850000I-40000J0D01*
G01*
X34098000Y-5550000D02*
G75*
G03*
X34098000Y-5550000I-40000J0D01*
G01*
X34098000Y-5900000D02*
G75*
G03*
X34098000Y-5900000I-40000J0D01*
G01*
X34098000Y-6250000D02*
G75*
G03*
X34098000Y-6250000I-40000J0D01*
G01*
X34148000Y-7700000D02*
G75*
G03*
X34148000Y-7700000I-40000J0D01*
G01*
X34240000Y-12800000D02*
G75*
G03*
X34240000Y-12800000I-40000J0D01*
G01*
X34248000Y-12450000D02*
G75*
G03*
X34248000Y-12450000I-40000J0D01*
G01*
X34558000Y-12170000D02*
G75*
G03*
X34558000Y-12170000I-40000J0D01*
G01*
X34558000Y-12424000D02*
G75*
G03*
X34558000Y-12424000I-40000J0D01*
G01*
X34558000Y-12678000D02*
G75*
G03*
X34558000Y-12678000I-40000J0D01*
G01*
X34558000Y-12932000D02*
G75*
G03*
X34558000Y-12932000I-40000J0D01*
G01*
X34582000Y-10300000D02*
G75*
G03*
X34582000Y-10300000I-40000J0D01*
G01*
X34582000Y-10650000D02*
G75*
G03*
X34582000Y-10650000I-40000J0D01*
G01*
X34582000Y-11000000D02*
G75*
G03*
X34582000Y-11000000I-40000J0D01*
G01*
X34582000Y-11350000D02*
G75*
G03*
X34582000Y-11350000I-40000J0D01*
G01*
X34659000Y-5850000D02*
G75*
G03*
X34659000Y-5850000I-40000J0D01*
G01*
X34659000Y-6250000D02*
G75*
G03*
X34659000Y-6250000I-40000J0D01*
G01*
X34690000Y-11800000D02*
G75*
G03*
X34690000Y-11800000I-40000J0D01*
G01*
X34690000Y-13300000D02*
G75*
G03*
X34690000Y-13300000I-40000J0D01*
G01*
X34826000Y-8246000D02*
G75*
G03*
X34826000Y-8246000I-40000J0D01*
G01*
X34826000Y-8500000D02*
G75*
G03*
X34826000Y-8500000I-40000J0D01*
G01*
X34826000Y-8754000D02*
G75*
G03*
X34826000Y-8754000I-40000J0D01*
G01*
X34840000Y-9050000D02*
G75*
G03*
X34840000Y-9050000I-40000J0D01*
G01*
X34840000Y-9304000D02*
G75*
G03*
X34840000Y-9304000I-40000J0D01*
G01*
X34840000Y-9558000D02*
G75*
G03*
X34840000Y-9558000I-40000J0D01*
G01*
X35190000Y-11800000D02*
G75*
G03*
X35190000Y-11800000I-40000J0D01*
G01*
X35190000Y-13300000D02*
G75*
G03*
X35190000Y-13300000I-40000J0D01*
G01*
X35304000Y-8246000D02*
G75*
G03*
X35304000Y-8246000I-40000J0D01*
G01*
X35304000Y-8500000D02*
G75*
G03*
X35304000Y-8500000I-40000J0D01*
G01*
X35304000Y-8754000D02*
G75*
G03*
X35304000Y-8754000I-40000J0D01*
G01*
X35304000Y-9046000D02*
G75*
G03*
X35304000Y-9046000I-40000J0D01*
G01*
X35304000Y-9300000D02*
G75*
G03*
X35304000Y-9300000I-40000J0D01*
G01*
X35304000Y-9554000D02*
G75*
G03*
X35304000Y-9554000I-40000J0D01*
G01*
X35320000Y-12170000D02*
G75*
G03*
X35320000Y-12170000I-40000J0D01*
G01*
X35320000Y-12424000D02*
G75*
G03*
X35320000Y-12424000I-40000J0D01*
G01*
X35320000Y-12678000D02*
G75*
G03*
X35320000Y-12678000I-40000J0D01*
G01*
X35320000Y-12932000D02*
G75*
G03*
X35320000Y-12932000I-40000J0D01*
G01*
X35421000Y-5850000D02*
G75*
G03*
X35421000Y-5850000I-40000J0D01*
G01*
X35421000Y-6250000D02*
G75*
G03*
X35421000Y-6250000I-40000J0D01*
G01*
X35598000Y-10300000D02*
G75*
G03*
X35598000Y-10300000I-40000J0D01*
G01*
X35598000Y-10650000D02*
G75*
G03*
X35598000Y-10650000I-40000J0D01*
G01*
X35598000Y-11000000D02*
G75*
G03*
X35598000Y-11000000I-40000J0D01*
G01*
X35598000Y-11350000D02*
G75*
G03*
X35598000Y-11350000I-40000J0D01*
G01*
X35632000Y-12100000D02*
G75*
G03*
X35632000Y-12100000I-40000J0D01*
G01*
X35632000Y-12450000D02*
G75*
G03*
X35632000Y-12450000I-40000J0D01*
G01*
X35632000Y-12800000D02*
G75*
G03*
X35632000Y-12800000I-40000J0D01*
G01*
X35932000Y-7650000D02*
G75*
G03*
X35932000Y-7650000I-40000J0D01*
G01*
X35974000Y-9500000D02*
G75*
G03*
X35974000Y-9500000I-40000J0D01*
G01*
X35982000Y-4600000D02*
G75*
G03*
X35982000Y-4600000I-40000J0D01*
G01*
X35982000Y-4950000D02*
G75*
G03*
X35982000Y-4950000I-40000J0D01*
G01*
X35982000Y-5300000D02*
G75*
G03*
X35982000Y-5300000I-40000J0D01*
G01*
X35982000Y-5650000D02*
G75*
G03*
X35982000Y-5650000I-40000J0D01*
G01*
X35982000Y-8800000D02*
G75*
G03*
X35982000Y-8800000I-40000J0D01*
G01*
X36109000Y-4250000D02*
G75*
G03*
X36109000Y-4250000I-40000J0D01*
G01*
X36290000Y-9150000D02*
G75*
G03*
X36290000Y-9150000I-40000J0D01*
G01*
X36648000Y-12100000D02*
G75*
G03*
X36648000Y-12100000I-40000J0D01*
G01*
X36648000Y-12450000D02*
G75*
G03*
X36648000Y-12450000I-40000J0D01*
G01*
X36648000Y-12800000D02*
G75*
G03*
X36648000Y-12800000I-40000J0D01*
G01*
X36790000Y-9150000D02*
G75*
G03*
X36790000Y-9150000I-40000J0D01*
G01*
X36871000Y-4250000D02*
G75*
G03*
X36871000Y-4250000I-40000J0D01*
G01*
X36948000Y-7650000D02*
G75*
G03*
X36948000Y-7650000I-40000J0D01*
G01*
X36990000Y-9500000D02*
G75*
G03*
X36990000Y-9500000I-40000J0D01*
G01*
X36998000Y-4600000D02*
G75*
G03*
X36998000Y-4600000I-40000J0D01*
G01*
X36998000Y-4950000D02*
G75*
G03*
X36998000Y-4950000I-40000J0D01*
G01*
X36998000Y-5300000D02*
G75*
G03*
X36998000Y-5300000I-40000J0D01*
G01*
X36998000Y-5650000D02*
G75*
G03*
X36998000Y-5650000I-40000J0D01*
G01*
X36998000Y-8800000D02*
G75*
G03*
X36998000Y-8800000I-40000J0D01*
G01*
X37258000Y-12470000D02*
G75*
G03*
X37258000Y-12470000I-40000J0D01*
G01*
X37258000Y-12724000D02*
G75*
G03*
X37258000Y-12724000I-40000J0D01*
G01*
X37258000Y-12978000D02*
G75*
G03*
X37258000Y-12978000I-40000J0D01*
G01*
X37258000Y-13232000D02*
G75*
G03*
X37258000Y-13232000I-40000J0D01*
G01*
X37308000Y-4550000D02*
G75*
G03*
X37308000Y-4550000I-40000J0D01*
G01*
X37308000Y-4804000D02*
G75*
G03*
X37308000Y-4804000I-40000J0D01*
G01*
X37308000Y-5058000D02*
G75*
G03*
X37308000Y-5058000I-40000J0D01*
G01*
X37308000Y-5312000D02*
G75*
G03*
X37308000Y-5312000I-40000J0D01*
G01*
X37308000Y-8670000D02*
G75*
G03*
X37308000Y-8670000I-40000J0D01*
G01*
X37308000Y-8924000D02*
G75*
G03*
X37308000Y-8924000I-40000J0D01*
G01*
X37308000Y-9178000D02*
G75*
G03*
X37308000Y-9178000I-40000J0D01*
G01*
X37308000Y-9432000D02*
G75*
G03*
X37308000Y-9432000I-40000J0D01*
G01*
X37390000Y-12100000D02*
G75*
G03*
X37390000Y-12100000I-40000J0D01*
G01*
X37390000Y-13600000D02*
G75*
G03*
X37390000Y-13600000I-40000J0D01*
G01*
X37440000Y-4150000D02*
G75*
G03*
X37440000Y-4150000I-40000J0D01*
G01*
X37440000Y-8300000D02*
G75*
G03*
X37440000Y-8300000I-40000J0D01*
G01*
X37440000Y-9800000D02*
G75*
G03*
X37440000Y-9800000I-40000J0D01*
G01*
X37890000Y-12100000D02*
G75*
G03*
X37890000Y-12100000I-40000J0D01*
G01*
X37890000Y-13600000D02*
G75*
G03*
X37890000Y-13600000I-40000J0D01*
G01*
X37940000Y-4150000D02*
G75*
G03*
X37940000Y-4150000I-40000J0D01*
G01*
X37940000Y-8300000D02*
G75*
G03*
X37940000Y-8300000I-40000J0D01*
G01*
X37940000Y-9800000D02*
G75*
G03*
X37940000Y-9800000I-40000J0D01*
G01*
X38020000Y-12470000D02*
G75*
G03*
X38020000Y-12470000I-40000J0D01*
G01*
X38020000Y-12724000D02*
G75*
G03*
X38020000Y-12724000I-40000J0D01*
G01*
X38020000Y-12978000D02*
G75*
G03*
X38020000Y-12978000I-40000J0D01*
G01*
X38020000Y-13232000D02*
G75*
G03*
X38020000Y-13232000I-40000J0D01*
G01*
X38070000Y-4550000D02*
G75*
G03*
X38070000Y-4550000I-40000J0D01*
G01*
X38070000Y-4804000D02*
G75*
G03*
X38070000Y-4804000I-40000J0D01*
G01*
X38070000Y-5058000D02*
G75*
G03*
X38070000Y-5058000I-40000J0D01*
G01*
X38070000Y-5312000D02*
G75*
G03*
X38070000Y-5312000I-40000J0D01*
G01*
X38070000Y-8670000D02*
G75*
G03*
X38070000Y-8670000I-40000J0D01*
G01*
X38070000Y-8924000D02*
G75*
G03*
X38070000Y-8924000I-40000J0D01*
G01*
X38070000Y-9178000D02*
G75*
G03*
X38070000Y-9178000I-40000J0D01*
G01*
X38070000Y-9432000D02*
G75*
G03*
X38070000Y-9432000I-40000J0D01*
G01*
X38374000Y-8800000D02*
G75*
G03*
X38374000Y-8800000I-40000J0D01*
G01*
X38374000Y-11550000D02*
G75*
G03*
X38374000Y-11550000I-40000J0D01*
G01*
X38374000Y-11900000D02*
G75*
G03*
X38374000Y-11900000I-40000J0D01*
G01*
X38374000Y-12250000D02*
G75*
G03*
X38374000Y-12250000I-40000J0D01*
G01*
X38374000Y-12600000D02*
G75*
G03*
X38374000Y-12600000I-40000J0D01*
G01*
X38374000Y-12950000D02*
G75*
G03*
X38374000Y-12950000I-40000J0D01*
G01*
X38374000Y-13300000D02*
G75*
G03*
X38374000Y-13300000I-40000J0D01*
G01*
X38382000Y-4600000D02*
G75*
G03*
X38382000Y-4600000I-40000J0D01*
G01*
X38382000Y-4950000D02*
G75*
G03*
X38382000Y-4950000I-40000J0D01*
G01*
X38382000Y-5300000D02*
G75*
G03*
X38382000Y-5300000I-40000J0D01*
G01*
X38382000Y-5650000D02*
G75*
G03*
X38382000Y-5650000I-40000J0D01*
G01*
X38382000Y-13650000D02*
G75*
G03*
X38382000Y-13650000I-40000J0D01*
G01*
X38539000Y-4250000D02*
G75*
G03*
X38539000Y-4250000I-40000J0D01*
G01*
X39301000Y-4250000D02*
G75*
G03*
X39301000Y-4250000I-40000J0D01*
G01*
X39390000Y-8800000D02*
G75*
G03*
X39390000Y-8800000I-40000J0D01*
G01*
X39390000Y-11550000D02*
G75*
G03*
X39390000Y-11550000I-40000J0D01*
G01*
X39390000Y-11900000D02*
G75*
G03*
X39390000Y-11900000I-40000J0D01*
G01*
X39390000Y-12250000D02*
G75*
G03*
X39390000Y-12250000I-40000J0D01*
G01*
X39390000Y-12600000D02*
G75*
G03*
X39390000Y-12600000I-40000J0D01*
G01*
X39390000Y-12950000D02*
G75*
G03*
X39390000Y-12950000I-40000J0D01*
G01*
X39390000Y-13300000D02*
G75*
G03*
X39390000Y-13300000I-40000J0D01*
G01*
X39398000Y-4600000D02*
G75*
G03*
X39398000Y-4600000I-40000J0D01*
G01*
X39398000Y-4950000D02*
G75*
G03*
X39398000Y-4950000I-40000J0D01*
G01*
X39398000Y-5300000D02*
G75*
G03*
X39398000Y-5300000I-40000J0D01*
G01*
X39398000Y-5650000D02*
G75*
G03*
X39398000Y-5650000I-40000J0D01*
G01*
X39398000Y-13650000D02*
G75*
G03*
X39398000Y-13650000I-40000J0D01*
G01*
D14*
X30500000Y-10107500D02*
X30500000Y-10192500D01*
X30457500Y-10150000D02*
X30542500Y-10150000D01*
X30550000Y-13207500D02*
X30550000Y-13292500D01*
X30507500Y-13250000D02*
X30592500Y-13250000D01*
X31500000Y-10107500D02*
X31500000Y-10192500D01*
X31457500Y-10150000D02*
X31542500Y-10150000D01*
X31550000Y-13207500D02*
X31550000Y-13292500D01*
X31507500Y-13250000D02*
X31592500Y-13250000D01*
D10*
X31785356Y-7785356D02*
X31785356Y-7714644D01*
X31714644Y-7714644D01*
X31714644Y-7785356D01*
X31785356Y-7785356D01*
X32035356Y-7785356D02*
X32035356Y-7714644D01*
X31964644Y-7714644D01*
X31964644Y-7785356D01*
X32035356Y-7785356D01*
X32285356Y-7785356D02*
X32285356Y-7714644D01*
X32214644Y-7714644D01*
X32214644Y-7785356D01*
X32285356Y-7785356D01*
X32785356Y-3785356D02*
X32785356Y-3714644D01*
X32714644Y-3714644D01*
X32714644Y-3785356D01*
X32785356Y-3785356D01*
X32785356Y-11785356D02*
X32785356Y-11714644D01*
X32714644Y-11714644D01*
X32714644Y-11785356D01*
X32785356Y-11785356D01*
X33035356Y-3785356D02*
X33035356Y-3714644D01*
X32964644Y-3714644D01*
X32964644Y-3785356D01*
X33035356Y-3785356D01*
X33035356Y-11785356D02*
X33035356Y-11714644D01*
X32964644Y-11714644D01*
X32964644Y-11785356D01*
X33035356Y-11785356D01*
X33285356Y-3785356D02*
X33285356Y-3714644D01*
X33214644Y-3714644D01*
X33214644Y-3785356D01*
X33285356Y-3785356D01*
X33285356Y-11785356D02*
X33285356Y-11714644D01*
X33214644Y-11714644D01*
X33214644Y-11785356D01*
X33285356Y-11785356D01*
X33640356Y-13787856D02*
X33640356Y-13717144D01*
X33569644Y-13717144D01*
X33569644Y-13787856D01*
X33640356Y-13787856D01*
X33894356Y-13787856D02*
X33894356Y-13717144D01*
X33823644Y-13717144D01*
X33823644Y-13787856D01*
X33894356Y-13787856D01*
X34148356Y-13787856D02*
X34148356Y-13717144D01*
X34077644Y-13717144D01*
X34077644Y-13787856D01*
X34148356Y-13787856D01*
X34402356Y-13787856D02*
X34402356Y-13717144D01*
X34331644Y-13717144D01*
X34331644Y-13787856D01*
X34402356Y-13787856D01*
X34656356Y-13787856D02*
X34656356Y-13717144D01*
X34585644Y-13717144D01*
X34585644Y-13787856D01*
X34656356Y-13787856D01*
X34785356Y-7785356D02*
X34785356Y-7714644D01*
X34714644Y-7714644D01*
X34714644Y-7785356D01*
X34785356Y-7785356D01*
X34910356Y-13787856D02*
X34910356Y-13717144D01*
X34839644Y-13717144D01*
X34839644Y-13787856D01*
X34910356Y-13787856D01*
X35035356Y-7785356D02*
X35035356Y-7714644D01*
X34964644Y-7714644D01*
X34964644Y-7785356D01*
X35035356Y-7785356D01*
X35164356Y-13787856D02*
X35164356Y-13717144D01*
X35093644Y-13717144D01*
X35093644Y-13787856D01*
X35164356Y-13787856D01*
X35285356Y-7785356D02*
X35285356Y-7714644D01*
X35214644Y-7714644D01*
X35214644Y-7785356D01*
X35285356Y-7785356D01*
X35418356Y-13787856D02*
X35418356Y-13717144D01*
X35347644Y-13717144D01*
X35347644Y-13787856D01*
X35418356Y-13787856D01*
X35672356Y-13787856D02*
X35672356Y-13717144D01*
X35601644Y-13717144D01*
X35601644Y-13787856D01*
X35672356Y-13787856D01*
X35926356Y-13787856D02*
X35926356Y-13717144D01*
X35855644Y-13717144D01*
X35855644Y-13787856D01*
X35926356Y-13787856D01*
X36180356Y-13787856D02*
X36180356Y-13717144D01*
X36109644Y-13717144D01*
X36109644Y-13787856D01*
X36180356Y-13787856D01*
X36434356Y-13787856D02*
X36434356Y-13717144D01*
X36363644Y-13717144D01*
X36363644Y-13787856D01*
X36434356Y-13787856D01*
X36785356Y-3785356D02*
X36785356Y-3714644D01*
X36714644Y-3714644D01*
X36714644Y-3785356D01*
X36785356Y-3785356D01*
X36785356Y-11785356D02*
X36785356Y-11714644D01*
X36714644Y-11714644D01*
X36714644Y-11785356D01*
X36785356Y-11785356D01*
X37035356Y-3785356D02*
X37035356Y-3714644D01*
X36964644Y-3714644D01*
X36964644Y-3785356D01*
X37035356Y-3785356D01*
X37035356Y-11785356D02*
X37035356Y-11714644D01*
X36964644Y-11714644D01*
X36964644Y-11785356D01*
X37035356Y-11785356D01*
X37285356Y-3785356D02*
X37285356Y-3714644D01*
X37214644Y-3714644D01*
X37214644Y-3785356D01*
X37285356Y-3785356D01*
X37285356Y-11785356D02*
X37285356Y-11714644D01*
X37214644Y-11714644D01*
X37214644Y-11785356D01*
X37285356Y-11785356D01*
X37785356Y-7785356D02*
X37785356Y-7714644D01*
X37714644Y-7714644D01*
X37714644Y-7785356D01*
X37785356Y-7785356D01*
X38035356Y-7785356D02*
X38035356Y-7714644D01*
X37964644Y-7714644D01*
X37964644Y-7785356D01*
X38035356Y-7785356D01*
X38285356Y-7785356D02*
X38285356Y-7714644D01*
X38214644Y-7714644D01*
X38214644Y-7785356D01*
X38285356Y-7785356D01*
D15*
X30800000Y-11242800D02*
X30850800Y-11192000D01*
X30800000Y-11141200D01*
X30749200Y-11192000D01*
X30800000Y-11242800D01*
X30800000Y-11496800D02*
X30850800Y-11446000D01*
X30800000Y-11395200D01*
X30749200Y-11446000D01*
X30800000Y-11496800D01*
X30800000Y-11750800D02*
X30850800Y-11700000D01*
X30800000Y-11649200D01*
X30749200Y-11700000D01*
X30800000Y-11750800D01*
X30800000Y-12004800D02*
X30850800Y-11954000D01*
X30800000Y-11903200D01*
X30749200Y-11954000D01*
X30800000Y-12004800D01*
X30800000Y-12258800D02*
X30850800Y-12208000D01*
X30800000Y-12157200D01*
X30749200Y-12208000D01*
X30800000Y-12258800D01*
X31054000Y-11242800D02*
X31104800Y-11192000D01*
X31054000Y-11141200D01*
X31003200Y-11192000D01*
X31054000Y-11242800D01*
X31054000Y-11496800D02*
X31104800Y-11446000D01*
X31054000Y-11395200D01*
X31003200Y-11446000D01*
X31054000Y-11496800D01*
X31054000Y-11750800D02*
X31104800Y-11700000D01*
X31054000Y-11649200D01*
X31003200Y-11700000D01*
X31054000Y-11750800D01*
X31054000Y-12004800D02*
X31104800Y-11954000D01*
X31054000Y-11903200D01*
X31003200Y-11954000D01*
X31054000Y-12004800D01*
X31054000Y-12258800D02*
X31104800Y-12208000D01*
X31054000Y-12157200D01*
X31003200Y-12208000D01*
X31054000Y-12258800D01*
D16*
X30587000Y-4445000D02*
X30697000Y-4555000D01*
X30697000Y-4445000D02*
X30587000Y-4555000D01*
X30697000Y-4500000D02*
G75*
G03*
X30697000Y-4500000I-55000J0D01*
G01*
X30587000Y-6195000D02*
X30697000Y-6305000D01*
X30697000Y-6195000D02*
X30587000Y-6305000D01*
X30697000Y-6250000D02*
G75*
G03*
X30697000Y-6250000I-55000J0D01*
G01*
X31465000Y-6945000D02*
X31575000Y-7055000D01*
X31575000Y-6945000D02*
X31465000Y-7055000D01*
X31575000Y-7000000D02*
G75*
G03*
X31575000Y-7000000I-55000J0D01*
G01*
D11*
X31575000Y-7035000D02*
X31575000Y-6965000D01*
X31575000Y-6965000D02*
G75*
G03*
X31465000Y-6965000I-55000J0D01*
G01*
X31465000Y-6965000D02*
X31465000Y-7035000D01*
X31465000Y-7035000D02*
G75*
G03*
X31575000Y-7035000I55000J0D01*
G01*
D16*
X31603000Y-4445000D02*
X31713000Y-4555000D01*
X31713000Y-4445000D02*
X31603000Y-4555000D01*
X31713000Y-4500000D02*
G75*
G03*
X31713000Y-4500000I-55000J0D01*
G01*
X31603000Y-6195000D02*
X31713000Y-6305000D01*
X31713000Y-6195000D02*
X31603000Y-6305000D01*
X31713000Y-6250000D02*
G75*
G03*
X31713000Y-6250000I-55000J0D01*
G01*
X32425000Y-6945000D02*
X32535000Y-7055000D01*
X32535000Y-6945000D02*
X32425000Y-7055000D01*
X32535000Y-7000000D02*
G75*
G03*
X32535000Y-7000000I-55000J0D01*
G01*
D11*
X32535000Y-7035000D02*
X32535000Y-6965000D01*
X32535000Y-6965000D02*
G75*
G03*
X32425000Y-6965000I-55000J0D01*
G01*
X32425000Y-6965000D02*
X32425000Y-7035000D01*
X32425000Y-7035000D02*
G75*
G03*
X32535000Y-7035000I55000J0D01*
G01*
D16*
X32465000Y-2945000D02*
X32575000Y-3055000D01*
X32575000Y-2945000D02*
X32465000Y-3055000D01*
X32575000Y-3000000D02*
G75*
G03*
X32575000Y-3000000I-55000J0D01*
G01*
D11*
X32575000Y-3035000D02*
X32575000Y-2965000D01*
X32575000Y-2965000D02*
G75*
G03*
X32465000Y-2965000I-55000J0D01*
G01*
X32465000Y-2965000D02*
X32465000Y-3035000D01*
X32465000Y-3035000D02*
G75*
G03*
X32575000Y-3035000I55000J0D01*
G01*
D16*
X32465000Y-10945000D02*
X32575000Y-11055000D01*
X32575000Y-10945000D02*
X32465000Y-11055000D01*
X32575000Y-11000000D02*
G75*
G03*
X32575000Y-11000000I-55000J0D01*
G01*
D11*
X32575000Y-11035000D02*
X32575000Y-10965000D01*
X32575000Y-10965000D02*
G75*
G03*
X32465000Y-10965000I-55000J0D01*
G01*
X32465000Y-10965000D02*
X32465000Y-11035000D01*
X32465000Y-11035000D02*
G75*
G03*
X32575000Y-11035000I55000J0D01*
G01*
D16*
X32837000Y-9795000D02*
X32947000Y-9905000D01*
X32947000Y-9795000D02*
X32837000Y-9905000D01*
X32947000Y-9850000D02*
G75*
G03*
X32947000Y-9850000I-55000J0D01*
G01*
X32837000Y-10195000D02*
X32947000Y-10305000D01*
X32947000Y-10195000D02*
X32837000Y-10305000D01*
X32947000Y-10250000D02*
G75*
G03*
X32947000Y-10250000I-55000J0D01*
G01*
X33425000Y-2945000D02*
X33535000Y-3055000D01*
X33535000Y-2945000D02*
X33425000Y-3055000D01*
X33535000Y-3000000D02*
G75*
G03*
X33535000Y-3000000I-55000J0D01*
G01*
D11*
X33535000Y-3035000D02*
X33535000Y-2965000D01*
X33535000Y-2965000D02*
G75*
G03*
X33425000Y-2965000I-55000J0D01*
G01*
X33425000Y-2965000D02*
X33425000Y-3035000D01*
X33425000Y-3035000D02*
G75*
G03*
X33535000Y-3035000I55000J0D01*
G01*
D16*
X33425000Y-10945000D02*
X33535000Y-11055000D01*
X33535000Y-10945000D02*
X33425000Y-11055000D01*
X33535000Y-11000000D02*
G75*
G03*
X33535000Y-11000000I-55000J0D01*
G01*
D11*
X33535000Y-11035000D02*
X33535000Y-10965000D01*
X33535000Y-10965000D02*
G75*
G03*
X33425000Y-10965000I-55000J0D01*
G01*
X33425000Y-10965000D02*
X33425000Y-11035000D01*
X33425000Y-11035000D02*
G75*
G03*
X33535000Y-11035000I55000J0D01*
G01*
D16*
X33853000Y-9795000D02*
X33963000Y-9905000D01*
X33963000Y-9795000D02*
X33853000Y-9905000D01*
X33963000Y-9850000D02*
G75*
G03*
X33963000Y-9850000I-55000J0D01*
G01*
X33853000Y-10195000D02*
X33963000Y-10305000D01*
X33963000Y-10195000D02*
X33853000Y-10305000D01*
X33963000Y-10250000D02*
G75*
G03*
X33963000Y-10250000I-55000J0D01*
G01*
X34465000Y-6945000D02*
X34575000Y-7055000D01*
X34575000Y-6945000D02*
X34465000Y-7055000D01*
X34575000Y-7000000D02*
G75*
G03*
X34575000Y-7000000I-55000J0D01*
G01*
D11*
X34575000Y-7035000D02*
X34575000Y-6965000D01*
X34575000Y-6965000D02*
G75*
G03*
X34465000Y-6965000I-55000J0D01*
G01*
X34465000Y-6965000D02*
X34465000Y-7035000D01*
X34465000Y-7035000D02*
G75*
G03*
X34575000Y-7035000I55000J0D01*
G01*
D16*
X35425000Y-6945000D02*
X35535000Y-7055000D01*
X35535000Y-6945000D02*
X35425000Y-7055000D01*
X35535000Y-7000000D02*
G75*
G03*
X35535000Y-7000000I-55000J0D01*
G01*
D11*
X35535000Y-7035000D02*
X35535000Y-6965000D01*
X35535000Y-6965000D02*
G75*
G03*
X35425000Y-6965000I-55000J0D01*
G01*
X35425000Y-6965000D02*
X35425000Y-7035000D01*
X35425000Y-7035000D02*
G75*
G03*
X35535000Y-7035000I55000J0D01*
G01*
D16*
X35879000Y-9795000D02*
X35989000Y-9905000D01*
X35989000Y-9795000D02*
X35879000Y-9905000D01*
X35989000Y-9850000D02*
G75*
G03*
X35989000Y-9850000I-55000J0D01*
G01*
X36465000Y-2945000D02*
X36575000Y-3055000D01*
X36575000Y-2945000D02*
X36465000Y-3055000D01*
X36575000Y-3000000D02*
G75*
G03*
X36575000Y-3000000I-55000J0D01*
G01*
D11*
X36575000Y-3035000D02*
X36575000Y-2965000D01*
X36575000Y-2965000D02*
G75*
G03*
X36465000Y-2965000I-55000J0D01*
G01*
X36465000Y-2965000D02*
X36465000Y-3035000D01*
X36465000Y-3035000D02*
G75*
G03*
X36575000Y-3035000I55000J0D01*
G01*
D16*
X36465000Y-10945000D02*
X36575000Y-11055000D01*
X36575000Y-10945000D02*
X36465000Y-11055000D01*
X36575000Y-11000000D02*
G75*
G03*
X36575000Y-11000000I-55000J0D01*
G01*
D11*
X36575000Y-11035000D02*
X36575000Y-10965000D01*
X36575000Y-10965000D02*
G75*
G03*
X36465000Y-10965000I-55000J0D01*
G01*
X36465000Y-10965000D02*
X36465000Y-11035000D01*
X36465000Y-11035000D02*
G75*
G03*
X36575000Y-11035000I55000J0D01*
G01*
D16*
X36895000Y-9795000D02*
X37005000Y-9905000D01*
X37005000Y-9795000D02*
X36895000Y-9905000D01*
X37005000Y-9850000D02*
G75*
G03*
X37005000Y-9850000I-55000J0D01*
G01*
X37425000Y-2945000D02*
X37535000Y-3055000D01*
X37535000Y-2945000D02*
X37425000Y-3055000D01*
X37535000Y-3000000D02*
G75*
G03*
X37535000Y-3000000I-55000J0D01*
G01*
D11*
X37535000Y-3035000D02*
X37535000Y-2965000D01*
X37535000Y-2965000D02*
G75*
G03*
X37425000Y-2965000I-55000J0D01*
G01*
X37425000Y-2965000D02*
X37425000Y-3035000D01*
X37425000Y-3035000D02*
G75*
G03*
X37535000Y-3035000I55000J0D01*
G01*
D16*
X37425000Y-10945000D02*
X37535000Y-11055000D01*
X37535000Y-10945000D02*
X37425000Y-11055000D01*
X37535000Y-11000000D02*
G75*
G03*
X37535000Y-11000000I-55000J0D01*
G01*
D11*
X37535000Y-11035000D02*
X37535000Y-10965000D01*
X37535000Y-10965000D02*
G75*
G03*
X37425000Y-10965000I-55000J0D01*
G01*
X37425000Y-10965000D02*
X37425000Y-11035000D01*
X37425000Y-11035000D02*
G75*
G03*
X37535000Y-11035000I55000J0D01*
G01*
D16*
X37465000Y-6945000D02*
X37575000Y-7055000D01*
X37575000Y-6945000D02*
X37465000Y-7055000D01*
X37575000Y-7000000D02*
G75*
G03*
X37575000Y-7000000I-55000J0D01*
G01*
D11*
X37575000Y-7035000D02*
X37575000Y-6965000D01*
X37575000Y-6965000D02*
G75*
G03*
X37465000Y-6965000I-55000J0D01*
G01*
X37465000Y-6965000D02*
X37465000Y-7035000D01*
X37465000Y-7035000D02*
G75*
G03*
X37575000Y-7035000I55000J0D01*
G01*
D16*
X38425000Y-6945000D02*
X38535000Y-7055000D01*
X38535000Y-6945000D02*
X38425000Y-7055000D01*
X38535000Y-7000000D02*
G75*
G03*
X38535000Y-7000000I-55000J0D01*
G01*
D11*
X38535000Y-7035000D02*
X38535000Y-6965000D01*
X38535000Y-6965000D02*
G75*
G03*
X38425000Y-6965000I-55000J0D01*
G01*
X38425000Y-6965000D02*
X38425000Y-7035000D01*
X38425000Y-7035000D02*
G75*
G03*
X38535000Y-7035000I55000J0D01*
G01*
D17*
X34895000Y-4425000D02*
X35105000Y-4635000D01*
X35105000Y-4425000D02*
X34895000Y-4635000D01*
X35000000Y-4425000D02*
X35000000Y-4635000D01*
X34895000Y-4530000D02*
X35105000Y-4530000D01*
X34895000Y-4895000D02*
X35105000Y-5105000D01*
X35105000Y-4895000D02*
X34895000Y-5105000D01*
X35000000Y-4895000D02*
X35000000Y-5105000D01*
X34895000Y-5000000D02*
X35105000Y-5000000D01*
X34895000Y-5365000D02*
X35105000Y-5575000D01*
X35105000Y-5365000D02*
X34895000Y-5575000D01*
X35000000Y-5365000D02*
X35000000Y-5575000D01*
X34895000Y-5470000D02*
X35105000Y-5470000D01*
D11*
X30492619Y-14298476D02*
X30492619Y-14098476D01*
X30492619Y-14098476D02*
X30540238Y-14098476D01*
X30540238Y-14098476D02*
X30568809Y-14108000D01*
X30568809Y-14108000D02*
X30587857Y-14127048D01*
X30587857Y-14127048D02*
X30597381Y-14146095D01*
X30597381Y-14146095D02*
X30606905Y-14184190D01*
X30606905Y-14184190D02*
X30606905Y-14212762D01*
X30606905Y-14212762D02*
X30597381Y-14250857D01*
X30597381Y-14250857D02*
X30587857Y-14269905D01*
X30587857Y-14269905D02*
X30568809Y-14288952D01*
X30568809Y-14288952D02*
X30540238Y-14298476D01*
X30540238Y-14298476D02*
X30492619Y-14298476D01*
X30692619Y-14298476D02*
X30692619Y-14165143D01*
X30692619Y-14203238D02*
X30702143Y-14184190D01*
X30702143Y-14184190D02*
X30711667Y-14174667D01*
X30711667Y-14174667D02*
X30730714Y-14165143D01*
X30730714Y-14165143D02*
X30749762Y-14165143D01*
X30816428Y-14298476D02*
X30816428Y-14165143D01*
X30816428Y-14098476D02*
X30806905Y-14108000D01*
X30806905Y-14108000D02*
X30816428Y-14117524D01*
X30816428Y-14117524D02*
X30825952Y-14108000D01*
X30825952Y-14108000D02*
X30816428Y-14098476D01*
X30816428Y-14098476D02*
X30816428Y-14117524D01*
X30940238Y-14298476D02*
X30921190Y-14288952D01*
X30921190Y-14288952D02*
X30911667Y-14269905D01*
X30911667Y-14269905D02*
X30911667Y-14098476D01*
X31045000Y-14298476D02*
X31025952Y-14288952D01*
X31025952Y-14288952D02*
X31016428Y-14269905D01*
X31016428Y-14269905D02*
X31016428Y-14098476D01*
X31241190Y-14298476D02*
X31241190Y-14098476D01*
X31241190Y-14098476D02*
X31307857Y-14241333D01*
X31307857Y-14241333D02*
X31374524Y-14098476D01*
X31374524Y-14098476D02*
X31374524Y-14298476D01*
X31555476Y-14298476D02*
X31555476Y-14193714D01*
X31555476Y-14193714D02*
X31545952Y-14174667D01*
X31545952Y-14174667D02*
X31526905Y-14165143D01*
X31526905Y-14165143D02*
X31488809Y-14165143D01*
X31488809Y-14165143D02*
X31469762Y-14174667D01*
X31555476Y-14288952D02*
X31536428Y-14298476D01*
X31536428Y-14298476D02*
X31488809Y-14298476D01*
X31488809Y-14298476D02*
X31469762Y-14288952D01*
X31469762Y-14288952D02*
X31460238Y-14269905D01*
X31460238Y-14269905D02*
X31460238Y-14250857D01*
X31460238Y-14250857D02*
X31469762Y-14231809D01*
X31469762Y-14231809D02*
X31488809Y-14222286D01*
X31488809Y-14222286D02*
X31536428Y-14222286D01*
X31536428Y-14222286D02*
X31555476Y-14212762D01*
X31650714Y-14165143D02*
X31650714Y-14365143D01*
X31650714Y-14174667D02*
X31669762Y-14165143D01*
X31669762Y-14165143D02*
X31707857Y-14165143D01*
X31707857Y-14165143D02*
X31726905Y-14174667D01*
X31726905Y-14174667D02*
X31736428Y-14184190D01*
X31736428Y-14184190D02*
X31745952Y-14203238D01*
X31745952Y-14203238D02*
X31745952Y-14260381D01*
X31745952Y-14260381D02*
X31736428Y-14279428D01*
X31736428Y-14279428D02*
X31726905Y-14288952D01*
X31726905Y-14288952D02*
X31707857Y-14298476D01*
X31707857Y-14298476D02*
X31669762Y-14298476D01*
X31669762Y-14298476D02*
X31650714Y-14288952D01*
X31831667Y-14279428D02*
X31841190Y-14288952D01*
X31841190Y-14288952D02*
X31831667Y-14298476D01*
X31831667Y-14298476D02*
X31822143Y-14288952D01*
X31822143Y-14288952D02*
X31831667Y-14279428D01*
X31831667Y-14279428D02*
X31831667Y-14298476D01*
X31831667Y-14174667D02*
X31841190Y-14184190D01*
X31841190Y-14184190D02*
X31831667Y-14193714D01*
X31831667Y-14193714D02*
X31822143Y-14184190D01*
X31822143Y-14184190D02*
X31831667Y-14174667D01*
X31831667Y-14174667D02*
X31831667Y-14193714D01*
D12*
X30205000Y-14625000D02*
X30245000Y-14665000D01*
X30245000Y-14625000D02*
X30205000Y-14665000D01*
D11*
X30530714Y-14518476D02*
X30549762Y-14518476D01*
X30549762Y-14518476D02*
X30568809Y-14528000D01*
X30568809Y-14528000D02*
X30578333Y-14537524D01*
X30578333Y-14537524D02*
X30587857Y-14556571D01*
X30587857Y-14556571D02*
X30597381Y-14594667D01*
X30597381Y-14594667D02*
X30597381Y-14642286D01*
X30597381Y-14642286D02*
X30587857Y-14680381D01*
X30587857Y-14680381D02*
X30578333Y-14699428D01*
X30578333Y-14699428D02*
X30568809Y-14708952D01*
X30568809Y-14708952D02*
X30549762Y-14718476D01*
X30549762Y-14718476D02*
X30530714Y-14718476D01*
X30530714Y-14718476D02*
X30511667Y-14708952D01*
X30511667Y-14708952D02*
X30502143Y-14699428D01*
X30502143Y-14699428D02*
X30492619Y-14680381D01*
X30492619Y-14680381D02*
X30483095Y-14642286D01*
X30483095Y-14642286D02*
X30483095Y-14594667D01*
X30483095Y-14594667D02*
X30492619Y-14556571D01*
X30492619Y-14556571D02*
X30502143Y-14537524D01*
X30502143Y-14537524D02*
X30511667Y-14528000D01*
X30511667Y-14528000D02*
X30530714Y-14518476D01*
X30683095Y-14699428D02*
X30692619Y-14708952D01*
X30692619Y-14708952D02*
X30683095Y-14718476D01*
X30683095Y-14718476D02*
X30673571Y-14708952D01*
X30673571Y-14708952D02*
X30683095Y-14699428D01*
X30683095Y-14699428D02*
X30683095Y-14718476D01*
X30864048Y-14585143D02*
X30864048Y-14718476D01*
X30816428Y-14508952D02*
X30768809Y-14651809D01*
X30768809Y-14651809D02*
X30892619Y-14651809D01*
X31006905Y-14518476D02*
X31025952Y-14518476D01*
X31025952Y-14518476D02*
X31045000Y-14528000D01*
X31045000Y-14528000D02*
X31054524Y-14537524D01*
X31054524Y-14537524D02*
X31064048Y-14556571D01*
X31064048Y-14556571D02*
X31073571Y-14594667D01*
X31073571Y-14594667D02*
X31073571Y-14642286D01*
X31073571Y-14642286D02*
X31064048Y-14680381D01*
X31064048Y-14680381D02*
X31054524Y-14699428D01*
X31054524Y-14699428D02*
X31045000Y-14708952D01*
X31045000Y-14708952D02*
X31025952Y-14718476D01*
X31025952Y-14718476D02*
X31006905Y-14718476D01*
X31006905Y-14718476D02*
X30987857Y-14708952D01*
X30987857Y-14708952D02*
X30978333Y-14699428D01*
X30978333Y-14699428D02*
X30968809Y-14680381D01*
X30968809Y-14680381D02*
X30959286Y-14642286D01*
X30959286Y-14642286D02*
X30959286Y-14594667D01*
X30959286Y-14594667D02*
X30968809Y-14556571D01*
X30968809Y-14556571D02*
X30978333Y-14537524D01*
X30978333Y-14537524D02*
X30987857Y-14528000D01*
X30987857Y-14528000D02*
X31006905Y-14518476D01*
X31197381Y-14518476D02*
X31216429Y-14518476D01*
X31216429Y-14518476D02*
X31235476Y-14528000D01*
X31235476Y-14528000D02*
X31245000Y-14537524D01*
X31245000Y-14537524D02*
X31254524Y-14556571D01*
X31254524Y-14556571D02*
X31264048Y-14594667D01*
X31264048Y-14594667D02*
X31264048Y-14642286D01*
X31264048Y-14642286D02*
X31254524Y-14680381D01*
X31254524Y-14680381D02*
X31245000Y-14699428D01*
X31245000Y-14699428D02*
X31235476Y-14708952D01*
X31235476Y-14708952D02*
X31216429Y-14718476D01*
X31216429Y-14718476D02*
X31197381Y-14718476D01*
X31197381Y-14718476D02*
X31178333Y-14708952D01*
X31178333Y-14708952D02*
X31168809Y-14699428D01*
X31168809Y-14699428D02*
X31159286Y-14680381D01*
X31159286Y-14680381D02*
X31149762Y-14642286D01*
X31149762Y-14642286D02*
X31149762Y-14594667D01*
X31149762Y-14594667D02*
X31159286Y-14556571D01*
X31159286Y-14556571D02*
X31168809Y-14537524D01*
X31168809Y-14537524D02*
X31178333Y-14528000D01*
X31178333Y-14528000D02*
X31197381Y-14518476D01*
X31349762Y-14718476D02*
X31349762Y-14585143D01*
X31349762Y-14604190D02*
X31359286Y-14594667D01*
X31359286Y-14594667D02*
X31378333Y-14585143D01*
X31378333Y-14585143D02*
X31406905Y-14585143D01*
X31406905Y-14585143D02*
X31425952Y-14594667D01*
X31425952Y-14594667D02*
X31435476Y-14613714D01*
X31435476Y-14613714D02*
X31435476Y-14718476D01*
X31435476Y-14613714D02*
X31445000Y-14594667D01*
X31445000Y-14594667D02*
X31464048Y-14585143D01*
X31464048Y-14585143D02*
X31492619Y-14585143D01*
X31492619Y-14585143D02*
X31511667Y-14594667D01*
X31511667Y-14594667D02*
X31521190Y-14613714D01*
X31521190Y-14613714D02*
X31521190Y-14718476D01*
X31616429Y-14718476D02*
X31616429Y-14585143D01*
X31616429Y-14604190D02*
X31625952Y-14594667D01*
X31625952Y-14594667D02*
X31645000Y-14585143D01*
X31645000Y-14585143D02*
X31673571Y-14585143D01*
X31673571Y-14585143D02*
X31692619Y-14594667D01*
X31692619Y-14594667D02*
X31702143Y-14613714D01*
X31702143Y-14613714D02*
X31702143Y-14718476D01*
X31702143Y-14613714D02*
X31711667Y-14594667D01*
X31711667Y-14594667D02*
X31730714Y-14585143D01*
X31730714Y-14585143D02*
X31759286Y-14585143D01*
X31759286Y-14585143D02*
X31778333Y-14594667D01*
X31778333Y-14594667D02*
X31787857Y-14613714D01*
X31787857Y-14613714D02*
X31787857Y-14718476D01*
X32145952Y-14508952D02*
X31974524Y-14766095D01*
X32370714Y-14518476D02*
X32389762Y-14518476D01*
X32389762Y-14518476D02*
X32408810Y-14528000D01*
X32408810Y-14528000D02*
X32418333Y-14537524D01*
X32418333Y-14537524D02*
X32427857Y-14556571D01*
X32427857Y-14556571D02*
X32437381Y-14594667D01*
X32437381Y-14594667D02*
X32437381Y-14642286D01*
X32437381Y-14642286D02*
X32427857Y-14680381D01*
X32427857Y-14680381D02*
X32418333Y-14699428D01*
X32418333Y-14699428D02*
X32408810Y-14708952D01*
X32408810Y-14708952D02*
X32389762Y-14718476D01*
X32389762Y-14718476D02*
X32370714Y-14718476D01*
X32370714Y-14718476D02*
X32351667Y-14708952D01*
X32351667Y-14708952D02*
X32342143Y-14699428D01*
X32342143Y-14699428D02*
X32332619Y-14680381D01*
X32332619Y-14680381D02*
X32323095Y-14642286D01*
X32323095Y-14642286D02*
X32323095Y-14594667D01*
X32323095Y-14594667D02*
X32332619Y-14556571D01*
X32332619Y-14556571D02*
X32342143Y-14537524D01*
X32342143Y-14537524D02*
X32351667Y-14528000D01*
X32351667Y-14528000D02*
X32370714Y-14518476D01*
X32523095Y-14699428D02*
X32532619Y-14708952D01*
X32532619Y-14708952D02*
X32523095Y-14718476D01*
X32523095Y-14718476D02*
X32513571Y-14708952D01*
X32513571Y-14708952D02*
X32523095Y-14699428D01*
X32523095Y-14699428D02*
X32523095Y-14718476D01*
X32656429Y-14518476D02*
X32675476Y-14518476D01*
X32675476Y-14518476D02*
X32694524Y-14528000D01*
X32694524Y-14528000D02*
X32704048Y-14537524D01*
X32704048Y-14537524D02*
X32713571Y-14556571D01*
X32713571Y-14556571D02*
X32723095Y-14594667D01*
X32723095Y-14594667D02*
X32723095Y-14642286D01*
X32723095Y-14642286D02*
X32713571Y-14680381D01*
X32713571Y-14680381D02*
X32704048Y-14699428D01*
X32704048Y-14699428D02*
X32694524Y-14708952D01*
X32694524Y-14708952D02*
X32675476Y-14718476D01*
X32675476Y-14718476D02*
X32656429Y-14718476D01*
X32656429Y-14718476D02*
X32637381Y-14708952D01*
X32637381Y-14708952D02*
X32627857Y-14699428D01*
X32627857Y-14699428D02*
X32618333Y-14680381D01*
X32618333Y-14680381D02*
X32608810Y-14642286D01*
X32608810Y-14642286D02*
X32608810Y-14594667D01*
X32608810Y-14594667D02*
X32618333Y-14556571D01*
X32618333Y-14556571D02*
X32627857Y-14537524D01*
X32627857Y-14537524D02*
X32637381Y-14528000D01*
X32637381Y-14528000D02*
X32656429Y-14518476D01*
X32913571Y-14718476D02*
X32799286Y-14718476D01*
X32856429Y-14718476D02*
X32856429Y-14518476D01*
X32856429Y-14518476D02*
X32837381Y-14547048D01*
X32837381Y-14547048D02*
X32818333Y-14566095D01*
X32818333Y-14566095D02*
X32799286Y-14575619D01*
X33094524Y-14518476D02*
X32999286Y-14518476D01*
X32999286Y-14518476D02*
X32989762Y-14613714D01*
X32989762Y-14613714D02*
X32999286Y-14604190D01*
X32999286Y-14604190D02*
X33018333Y-14594667D01*
X33018333Y-14594667D02*
X33065952Y-14594667D01*
X33065952Y-14594667D02*
X33085000Y-14604190D01*
X33085000Y-14604190D02*
X33094524Y-14613714D01*
X33094524Y-14613714D02*
X33104048Y-14632762D01*
X33104048Y-14632762D02*
X33104048Y-14680381D01*
X33104048Y-14680381D02*
X33094524Y-14699428D01*
X33094524Y-14699428D02*
X33085000Y-14708952D01*
X33085000Y-14708952D02*
X33065952Y-14718476D01*
X33065952Y-14718476D02*
X33018333Y-14718476D01*
X33018333Y-14718476D02*
X32999286Y-14708952D01*
X32999286Y-14708952D02*
X32989762Y-14699428D01*
X33170714Y-14518476D02*
X33304048Y-14518476D01*
X33304048Y-14518476D02*
X33218333Y-14718476D01*
X33370714Y-14518476D02*
X33370714Y-14556571D01*
X33446905Y-14518476D02*
X33446905Y-14556571D01*
X33709762Y-14794667D02*
X33700238Y-14785143D01*
X33700238Y-14785143D02*
X33681191Y-14756571D01*
X33681191Y-14756571D02*
X33671667Y-14737524D01*
X33671667Y-14737524D02*
X33662143Y-14708952D01*
X33662143Y-14708952D02*
X33652619Y-14661333D01*
X33652619Y-14661333D02*
X33652619Y-14623238D01*
X33652619Y-14623238D02*
X33662143Y-14575619D01*
X33662143Y-14575619D02*
X33671667Y-14547048D01*
X33671667Y-14547048D02*
X33681191Y-14528000D01*
X33681191Y-14528000D02*
X33700238Y-14499428D01*
X33700238Y-14499428D02*
X33709762Y-14489905D01*
X33881191Y-14518476D02*
X33785953Y-14518476D01*
X33785953Y-14518476D02*
X33776429Y-14613714D01*
X33776429Y-14613714D02*
X33785953Y-14604190D01*
X33785953Y-14604190D02*
X33805000Y-14594667D01*
X33805000Y-14594667D02*
X33852619Y-14594667D01*
X33852619Y-14594667D02*
X33871667Y-14604190D01*
X33871667Y-14604190D02*
X33881191Y-14613714D01*
X33881191Y-14613714D02*
X33890714Y-14632762D01*
X33890714Y-14632762D02*
X33890714Y-14680381D01*
X33890714Y-14680381D02*
X33881191Y-14699428D01*
X33881191Y-14699428D02*
X33871667Y-14708952D01*
X33871667Y-14708952D02*
X33852619Y-14718476D01*
X33852619Y-14718476D02*
X33805000Y-14718476D01*
X33805000Y-14718476D02*
X33785953Y-14708952D01*
X33785953Y-14708952D02*
X33776429Y-14699428D01*
X34096429Y-14718476D02*
X34096429Y-14518476D01*
X34182143Y-14718476D02*
X34182143Y-14613714D01*
X34182143Y-14613714D02*
X34172619Y-14594667D01*
X34172619Y-14594667D02*
X34153572Y-14585143D01*
X34153572Y-14585143D02*
X34125000Y-14585143D01*
X34125000Y-14585143D02*
X34105953Y-14594667D01*
X34105953Y-14594667D02*
X34096429Y-14604190D01*
X34305953Y-14718476D02*
X34286905Y-14708952D01*
X34286905Y-14708952D02*
X34277381Y-14699428D01*
X34277381Y-14699428D02*
X34267857Y-14680381D01*
X34267857Y-14680381D02*
X34267857Y-14623238D01*
X34267857Y-14623238D02*
X34277381Y-14604190D01*
X34277381Y-14604190D02*
X34286905Y-14594667D01*
X34286905Y-14594667D02*
X34305953Y-14585143D01*
X34305953Y-14585143D02*
X34334524Y-14585143D01*
X34334524Y-14585143D02*
X34353572Y-14594667D01*
X34353572Y-14594667D02*
X34363095Y-14604190D01*
X34363095Y-14604190D02*
X34372619Y-14623238D01*
X34372619Y-14623238D02*
X34372619Y-14680381D01*
X34372619Y-14680381D02*
X34363095Y-14699428D01*
X34363095Y-14699428D02*
X34353572Y-14708952D01*
X34353572Y-14708952D02*
X34334524Y-14718476D01*
X34334524Y-14718476D02*
X34305953Y-14718476D01*
X34486905Y-14718476D02*
X34467857Y-14708952D01*
X34467857Y-14708952D02*
X34458334Y-14689905D01*
X34458334Y-14689905D02*
X34458334Y-14518476D01*
X34639286Y-14708952D02*
X34620238Y-14718476D01*
X34620238Y-14718476D02*
X34582143Y-14718476D01*
X34582143Y-14718476D02*
X34563095Y-14708952D01*
X34563095Y-14708952D02*
X34553572Y-14689905D01*
X34553572Y-14689905D02*
X34553572Y-14613714D01*
X34553572Y-14613714D02*
X34563095Y-14594667D01*
X34563095Y-14594667D02*
X34582143Y-14585143D01*
X34582143Y-14585143D02*
X34620238Y-14585143D01*
X34620238Y-14585143D02*
X34639286Y-14594667D01*
X34639286Y-14594667D02*
X34648810Y-14613714D01*
X34648810Y-14613714D02*
X34648810Y-14632762D01*
X34648810Y-14632762D02*
X34553572Y-14651809D01*
X34725000Y-14708952D02*
X34744048Y-14718476D01*
X34744048Y-14718476D02*
X34782143Y-14718476D01*
X34782143Y-14718476D02*
X34801191Y-14708952D01*
X34801191Y-14708952D02*
X34810715Y-14689905D01*
X34810715Y-14689905D02*
X34810715Y-14680381D01*
X34810715Y-14680381D02*
X34801191Y-14661333D01*
X34801191Y-14661333D02*
X34782143Y-14651809D01*
X34782143Y-14651809D02*
X34753572Y-14651809D01*
X34753572Y-14651809D02*
X34734524Y-14642286D01*
X34734524Y-14642286D02*
X34725000Y-14623238D01*
X34725000Y-14623238D02*
X34725000Y-14613714D01*
X34725000Y-14613714D02*
X34734524Y-14594667D01*
X34734524Y-14594667D02*
X34753572Y-14585143D01*
X34753572Y-14585143D02*
X34782143Y-14585143D01*
X34782143Y-14585143D02*
X34801191Y-14594667D01*
X34877381Y-14794667D02*
X34886905Y-14785143D01*
X34886905Y-14785143D02*
X34905953Y-14756571D01*
X34905953Y-14756571D02*
X34915476Y-14737524D01*
X34915476Y-14737524D02*
X34925000Y-14708952D01*
X34925000Y-14708952D02*
X34934524Y-14661333D01*
X34934524Y-14661333D02*
X34934524Y-14623238D01*
X34934524Y-14623238D02*
X34925000Y-14575619D01*
X34925000Y-14575619D02*
X34915476Y-14547048D01*
X34915476Y-14547048D02*
X34905953Y-14528000D01*
X34905953Y-14528000D02*
X34886905Y-14499428D01*
X34886905Y-14499428D02*
X34877381Y-14489905D01*
D13*
X30245000Y-14909000D02*
G75*
G03*
X30245000Y-14909000I-40000J0D01*
G01*
D11*
X30530714Y-14782476D02*
X30549762Y-14782476D01*
X30549762Y-14782476D02*
X30568809Y-14792000D01*
X30568809Y-14792000D02*
X30578333Y-14801524D01*
X30578333Y-14801524D02*
X30587857Y-14820571D01*
X30587857Y-14820571D02*
X30597381Y-14858667D01*
X30597381Y-14858667D02*
X30597381Y-14906286D01*
X30597381Y-14906286D02*
X30587857Y-14944381D01*
X30587857Y-14944381D02*
X30578333Y-14963428D01*
X30578333Y-14963428D02*
X30568809Y-14972952D01*
X30568809Y-14972952D02*
X30549762Y-14982476D01*
X30549762Y-14982476D02*
X30530714Y-14982476D01*
X30530714Y-14982476D02*
X30511667Y-14972952D01*
X30511667Y-14972952D02*
X30502143Y-14963428D01*
X30502143Y-14963428D02*
X30492619Y-14944381D01*
X30492619Y-14944381D02*
X30483095Y-14906286D01*
X30483095Y-14906286D02*
X30483095Y-14858667D01*
X30483095Y-14858667D02*
X30492619Y-14820571D01*
X30492619Y-14820571D02*
X30502143Y-14801524D01*
X30502143Y-14801524D02*
X30511667Y-14792000D01*
X30511667Y-14792000D02*
X30530714Y-14782476D01*
X30683095Y-14963428D02*
X30692619Y-14972952D01*
X30692619Y-14972952D02*
X30683095Y-14982476D01*
X30683095Y-14982476D02*
X30673571Y-14972952D01*
X30673571Y-14972952D02*
X30683095Y-14963428D01*
X30683095Y-14963428D02*
X30683095Y-14982476D01*
X30806905Y-14868190D02*
X30787857Y-14858667D01*
X30787857Y-14858667D02*
X30778333Y-14849143D01*
X30778333Y-14849143D02*
X30768809Y-14830095D01*
X30768809Y-14830095D02*
X30768809Y-14820571D01*
X30768809Y-14820571D02*
X30778333Y-14801524D01*
X30778333Y-14801524D02*
X30787857Y-14792000D01*
X30787857Y-14792000D02*
X30806905Y-14782476D01*
X30806905Y-14782476D02*
X30845000Y-14782476D01*
X30845000Y-14782476D02*
X30864048Y-14792000D01*
X30864048Y-14792000D02*
X30873571Y-14801524D01*
X30873571Y-14801524D02*
X30883095Y-14820571D01*
X30883095Y-14820571D02*
X30883095Y-14830095D01*
X30883095Y-14830095D02*
X30873571Y-14849143D01*
X30873571Y-14849143D02*
X30864048Y-14858667D01*
X30864048Y-14858667D02*
X30845000Y-14868190D01*
X30845000Y-14868190D02*
X30806905Y-14868190D01*
X30806905Y-14868190D02*
X30787857Y-14877714D01*
X30787857Y-14877714D02*
X30778333Y-14887238D01*
X30778333Y-14887238D02*
X30768809Y-14906286D01*
X30768809Y-14906286D02*
X30768809Y-14944381D01*
X30768809Y-14944381D02*
X30778333Y-14963428D01*
X30778333Y-14963428D02*
X30787857Y-14972952D01*
X30787857Y-14972952D02*
X30806905Y-14982476D01*
X30806905Y-14982476D02*
X30845000Y-14982476D01*
X30845000Y-14982476D02*
X30864048Y-14972952D01*
X30864048Y-14972952D02*
X30873571Y-14963428D01*
X30873571Y-14963428D02*
X30883095Y-14944381D01*
X30883095Y-14944381D02*
X30883095Y-14906286D01*
X30883095Y-14906286D02*
X30873571Y-14887238D01*
X30873571Y-14887238D02*
X30864048Y-14877714D01*
X30864048Y-14877714D02*
X30845000Y-14868190D01*
X31006905Y-14782476D02*
X31025952Y-14782476D01*
X31025952Y-14782476D02*
X31045000Y-14792000D01*
X31045000Y-14792000D02*
X31054524Y-14801524D01*
X31054524Y-14801524D02*
X31064048Y-14820571D01*
X31064048Y-14820571D02*
X31073571Y-14858667D01*
X31073571Y-14858667D02*
X31073571Y-14906286D01*
X31073571Y-14906286D02*
X31064048Y-14944381D01*
X31064048Y-14944381D02*
X31054524Y-14963428D01*
X31054524Y-14963428D02*
X31045000Y-14972952D01*
X31045000Y-14972952D02*
X31025952Y-14982476D01*
X31025952Y-14982476D02*
X31006905Y-14982476D01*
X31006905Y-14982476D02*
X30987857Y-14972952D01*
X30987857Y-14972952D02*
X30978333Y-14963428D01*
X30978333Y-14963428D02*
X30968809Y-14944381D01*
X30968809Y-14944381D02*
X30959286Y-14906286D01*
X30959286Y-14906286D02*
X30959286Y-14858667D01*
X30959286Y-14858667D02*
X30968809Y-14820571D01*
X30968809Y-14820571D02*
X30978333Y-14801524D01*
X30978333Y-14801524D02*
X30987857Y-14792000D01*
X30987857Y-14792000D02*
X31006905Y-14782476D01*
X31197381Y-14782476D02*
X31216429Y-14782476D01*
X31216429Y-14782476D02*
X31235476Y-14792000D01*
X31235476Y-14792000D02*
X31245000Y-14801524D01*
X31245000Y-14801524D02*
X31254524Y-14820571D01*
X31254524Y-14820571D02*
X31264048Y-14858667D01*
X31264048Y-14858667D02*
X31264048Y-14906286D01*
X31264048Y-14906286D02*
X31254524Y-14944381D01*
X31254524Y-14944381D02*
X31245000Y-14963428D01*
X31245000Y-14963428D02*
X31235476Y-14972952D01*
X31235476Y-14972952D02*
X31216429Y-14982476D01*
X31216429Y-14982476D02*
X31197381Y-14982476D01*
X31197381Y-14982476D02*
X31178333Y-14972952D01*
X31178333Y-14972952D02*
X31168809Y-14963428D01*
X31168809Y-14963428D02*
X31159286Y-14944381D01*
X31159286Y-14944381D02*
X31149762Y-14906286D01*
X31149762Y-14906286D02*
X31149762Y-14858667D01*
X31149762Y-14858667D02*
X31159286Y-14820571D01*
X31159286Y-14820571D02*
X31168809Y-14801524D01*
X31168809Y-14801524D02*
X31178333Y-14792000D01*
X31178333Y-14792000D02*
X31197381Y-14782476D01*
X31349762Y-14982476D02*
X31349762Y-14849143D01*
X31349762Y-14868190D02*
X31359286Y-14858667D01*
X31359286Y-14858667D02*
X31378333Y-14849143D01*
X31378333Y-14849143D02*
X31406905Y-14849143D01*
X31406905Y-14849143D02*
X31425952Y-14858667D01*
X31425952Y-14858667D02*
X31435476Y-14877714D01*
X31435476Y-14877714D02*
X31435476Y-14982476D01*
X31435476Y-14877714D02*
X31445000Y-14858667D01*
X31445000Y-14858667D02*
X31464048Y-14849143D01*
X31464048Y-14849143D02*
X31492619Y-14849143D01*
X31492619Y-14849143D02*
X31511667Y-14858667D01*
X31511667Y-14858667D02*
X31521190Y-14877714D01*
X31521190Y-14877714D02*
X31521190Y-14982476D01*
X31616429Y-14982476D02*
X31616429Y-14849143D01*
X31616429Y-14868190D02*
X31625952Y-14858667D01*
X31625952Y-14858667D02*
X31645000Y-14849143D01*
X31645000Y-14849143D02*
X31673571Y-14849143D01*
X31673571Y-14849143D02*
X31692619Y-14858667D01*
X31692619Y-14858667D02*
X31702143Y-14877714D01*
X31702143Y-14877714D02*
X31702143Y-14982476D01*
X31702143Y-14877714D02*
X31711667Y-14858667D01*
X31711667Y-14858667D02*
X31730714Y-14849143D01*
X31730714Y-14849143D02*
X31759286Y-14849143D01*
X31759286Y-14849143D02*
X31778333Y-14858667D01*
X31778333Y-14858667D02*
X31787857Y-14877714D01*
X31787857Y-14877714D02*
X31787857Y-14982476D01*
X32145952Y-14772952D02*
X31974524Y-15030095D01*
X32370714Y-14782476D02*
X32389762Y-14782476D01*
X32389762Y-14782476D02*
X32408810Y-14792000D01*
X32408810Y-14792000D02*
X32418333Y-14801524D01*
X32418333Y-14801524D02*
X32427857Y-14820571D01*
X32427857Y-14820571D02*
X32437381Y-14858667D01*
X32437381Y-14858667D02*
X32437381Y-14906286D01*
X32437381Y-14906286D02*
X32427857Y-14944381D01*
X32427857Y-14944381D02*
X32418333Y-14963428D01*
X32418333Y-14963428D02*
X32408810Y-14972952D01*
X32408810Y-14972952D02*
X32389762Y-14982476D01*
X32389762Y-14982476D02*
X32370714Y-14982476D01*
X32370714Y-14982476D02*
X32351667Y-14972952D01*
X32351667Y-14972952D02*
X32342143Y-14963428D01*
X32342143Y-14963428D02*
X32332619Y-14944381D01*
X32332619Y-14944381D02*
X32323095Y-14906286D01*
X32323095Y-14906286D02*
X32323095Y-14858667D01*
X32323095Y-14858667D02*
X32332619Y-14820571D01*
X32332619Y-14820571D02*
X32342143Y-14801524D01*
X32342143Y-14801524D02*
X32351667Y-14792000D01*
X32351667Y-14792000D02*
X32370714Y-14782476D01*
X32523095Y-14963428D02*
X32532619Y-14972952D01*
X32532619Y-14972952D02*
X32523095Y-14982476D01*
X32523095Y-14982476D02*
X32513571Y-14972952D01*
X32513571Y-14972952D02*
X32523095Y-14963428D01*
X32523095Y-14963428D02*
X32523095Y-14982476D01*
X32656429Y-14782476D02*
X32675476Y-14782476D01*
X32675476Y-14782476D02*
X32694524Y-14792000D01*
X32694524Y-14792000D02*
X32704048Y-14801524D01*
X32704048Y-14801524D02*
X32713571Y-14820571D01*
X32713571Y-14820571D02*
X32723095Y-14858667D01*
X32723095Y-14858667D02*
X32723095Y-14906286D01*
X32723095Y-14906286D02*
X32713571Y-14944381D01*
X32713571Y-14944381D02*
X32704048Y-14963428D01*
X32704048Y-14963428D02*
X32694524Y-14972952D01*
X32694524Y-14972952D02*
X32675476Y-14982476D01*
X32675476Y-14982476D02*
X32656429Y-14982476D01*
X32656429Y-14982476D02*
X32637381Y-14972952D01*
X32637381Y-14972952D02*
X32627857Y-14963428D01*
X32627857Y-14963428D02*
X32618333Y-14944381D01*
X32618333Y-14944381D02*
X32608810Y-14906286D01*
X32608810Y-14906286D02*
X32608810Y-14858667D01*
X32608810Y-14858667D02*
X32618333Y-14820571D01*
X32618333Y-14820571D02*
X32627857Y-14801524D01*
X32627857Y-14801524D02*
X32637381Y-14792000D01*
X32637381Y-14792000D02*
X32656429Y-14782476D01*
X32789762Y-14782476D02*
X32913571Y-14782476D01*
X32913571Y-14782476D02*
X32846905Y-14858667D01*
X32846905Y-14858667D02*
X32875476Y-14858667D01*
X32875476Y-14858667D02*
X32894524Y-14868190D01*
X32894524Y-14868190D02*
X32904048Y-14877714D01*
X32904048Y-14877714D02*
X32913571Y-14896762D01*
X32913571Y-14896762D02*
X32913571Y-14944381D01*
X32913571Y-14944381D02*
X32904048Y-14963428D01*
X32904048Y-14963428D02*
X32894524Y-14972952D01*
X32894524Y-14972952D02*
X32875476Y-14982476D01*
X32875476Y-14982476D02*
X32818333Y-14982476D01*
X32818333Y-14982476D02*
X32799286Y-14972952D01*
X32799286Y-14972952D02*
X32789762Y-14963428D01*
X33104048Y-14982476D02*
X32989762Y-14982476D01*
X33046905Y-14982476D02*
X33046905Y-14782476D01*
X33046905Y-14782476D02*
X33027857Y-14811048D01*
X33027857Y-14811048D02*
X33008810Y-14830095D01*
X33008810Y-14830095D02*
X32989762Y-14839619D01*
X33285000Y-14782476D02*
X33189762Y-14782476D01*
X33189762Y-14782476D02*
X33180238Y-14877714D01*
X33180238Y-14877714D02*
X33189762Y-14868190D01*
X33189762Y-14868190D02*
X33208810Y-14858667D01*
X33208810Y-14858667D02*
X33256429Y-14858667D01*
X33256429Y-14858667D02*
X33275476Y-14868190D01*
X33275476Y-14868190D02*
X33285000Y-14877714D01*
X33285000Y-14877714D02*
X33294524Y-14896762D01*
X33294524Y-14896762D02*
X33294524Y-14944381D01*
X33294524Y-14944381D02*
X33285000Y-14963428D01*
X33285000Y-14963428D02*
X33275476Y-14972952D01*
X33275476Y-14972952D02*
X33256429Y-14982476D01*
X33256429Y-14982476D02*
X33208810Y-14982476D01*
X33208810Y-14982476D02*
X33189762Y-14972952D01*
X33189762Y-14972952D02*
X33180238Y-14963428D01*
X33370714Y-14782476D02*
X33370714Y-14820571D01*
X33446905Y-14782476D02*
X33446905Y-14820571D01*
X33709762Y-15058667D02*
X33700238Y-15049143D01*
X33700238Y-15049143D02*
X33681191Y-15020571D01*
X33681191Y-15020571D02*
X33671667Y-15001524D01*
X33671667Y-15001524D02*
X33662143Y-14972952D01*
X33662143Y-14972952D02*
X33652619Y-14925333D01*
X33652619Y-14925333D02*
X33652619Y-14887238D01*
X33652619Y-14887238D02*
X33662143Y-14839619D01*
X33662143Y-14839619D02*
X33671667Y-14811048D01*
X33671667Y-14811048D02*
X33681191Y-14792000D01*
X33681191Y-14792000D02*
X33700238Y-14763428D01*
X33700238Y-14763428D02*
X33709762Y-14753905D01*
X33890714Y-14982476D02*
X33776429Y-14982476D01*
X33833572Y-14982476D02*
X33833572Y-14782476D01*
X33833572Y-14782476D02*
X33814524Y-14811048D01*
X33814524Y-14811048D02*
X33795476Y-14830095D01*
X33795476Y-14830095D02*
X33776429Y-14839619D01*
X33985953Y-14982476D02*
X34024048Y-14982476D01*
X34024048Y-14982476D02*
X34043095Y-14972952D01*
X34043095Y-14972952D02*
X34052619Y-14963428D01*
X34052619Y-14963428D02*
X34071667Y-14934857D01*
X34071667Y-14934857D02*
X34081191Y-14896762D01*
X34081191Y-14896762D02*
X34081191Y-14820571D01*
X34081191Y-14820571D02*
X34071667Y-14801524D01*
X34071667Y-14801524D02*
X34062143Y-14792000D01*
X34062143Y-14792000D02*
X34043095Y-14782476D01*
X34043095Y-14782476D02*
X34005000Y-14782476D01*
X34005000Y-14782476D02*
X33985953Y-14792000D01*
X33985953Y-14792000D02*
X33976429Y-14801524D01*
X33976429Y-14801524D02*
X33966905Y-14820571D01*
X33966905Y-14820571D02*
X33966905Y-14868190D01*
X33966905Y-14868190D02*
X33976429Y-14887238D01*
X33976429Y-14887238D02*
X33985953Y-14896762D01*
X33985953Y-14896762D02*
X34005000Y-14906286D01*
X34005000Y-14906286D02*
X34043095Y-14906286D01*
X34043095Y-14906286D02*
X34062143Y-14896762D01*
X34062143Y-14896762D02*
X34071667Y-14887238D01*
X34071667Y-14887238D02*
X34081191Y-14868190D01*
X34252619Y-14849143D02*
X34252619Y-14982476D01*
X34205000Y-14772952D02*
X34157381Y-14915809D01*
X34157381Y-14915809D02*
X34281191Y-14915809D01*
X34477381Y-14982476D02*
X34477381Y-14782476D01*
X34563095Y-14982476D02*
X34563095Y-14877714D01*
X34563095Y-14877714D02*
X34553572Y-14858667D01*
X34553572Y-14858667D02*
X34534524Y-14849143D01*
X34534524Y-14849143D02*
X34505953Y-14849143D01*
X34505953Y-14849143D02*
X34486905Y-14858667D01*
X34486905Y-14858667D02*
X34477381Y-14868190D01*
X34686905Y-14982476D02*
X34667857Y-14972952D01*
X34667857Y-14972952D02*
X34658334Y-14963428D01*
X34658334Y-14963428D02*
X34648810Y-14944381D01*
X34648810Y-14944381D02*
X34648810Y-14887238D01*
X34648810Y-14887238D02*
X34658334Y-14868190D01*
X34658334Y-14868190D02*
X34667857Y-14858667D01*
X34667857Y-14858667D02*
X34686905Y-14849143D01*
X34686905Y-14849143D02*
X34715476Y-14849143D01*
X34715476Y-14849143D02*
X34734524Y-14858667D01*
X34734524Y-14858667D02*
X34744048Y-14868190D01*
X34744048Y-14868190D02*
X34753572Y-14887238D01*
X34753572Y-14887238D02*
X34753572Y-14944381D01*
X34753572Y-14944381D02*
X34744048Y-14963428D01*
X34744048Y-14963428D02*
X34734524Y-14972952D01*
X34734524Y-14972952D02*
X34715476Y-14982476D01*
X34715476Y-14982476D02*
X34686905Y-14982476D01*
X34867857Y-14982476D02*
X34848810Y-14972952D01*
X34848810Y-14972952D02*
X34839286Y-14953905D01*
X34839286Y-14953905D02*
X34839286Y-14782476D01*
X35020238Y-14972952D02*
X35001191Y-14982476D01*
X35001191Y-14982476D02*
X34963095Y-14982476D01*
X34963095Y-14982476D02*
X34944048Y-14972952D01*
X34944048Y-14972952D02*
X34934524Y-14953905D01*
X34934524Y-14953905D02*
X34934524Y-14877714D01*
X34934524Y-14877714D02*
X34944048Y-14858667D01*
X34944048Y-14858667D02*
X34963095Y-14849143D01*
X34963095Y-14849143D02*
X35001191Y-14849143D01*
X35001191Y-14849143D02*
X35020238Y-14858667D01*
X35020238Y-14858667D02*
X35029762Y-14877714D01*
X35029762Y-14877714D02*
X35029762Y-14896762D01*
X35029762Y-14896762D02*
X34934524Y-14915809D01*
X35105953Y-14972952D02*
X35125000Y-14982476D01*
X35125000Y-14982476D02*
X35163095Y-14982476D01*
X35163095Y-14982476D02*
X35182143Y-14972952D01*
X35182143Y-14972952D02*
X35191667Y-14953905D01*
X35191667Y-14953905D02*
X35191667Y-14944381D01*
X35191667Y-14944381D02*
X35182143Y-14925333D01*
X35182143Y-14925333D02*
X35163095Y-14915809D01*
X35163095Y-14915809D02*
X35134524Y-14915809D01*
X35134524Y-14915809D02*
X35115476Y-14906286D01*
X35115476Y-14906286D02*
X35105953Y-14887238D01*
X35105953Y-14887238D02*
X35105953Y-14877714D01*
X35105953Y-14877714D02*
X35115476Y-14858667D01*
X35115476Y-14858667D02*
X35134524Y-14849143D01*
X35134524Y-14849143D02*
X35163095Y-14849143D01*
X35163095Y-14849143D02*
X35182143Y-14858667D01*
X35258334Y-15058667D02*
X35267857Y-15049143D01*
X35267857Y-15049143D02*
X35286905Y-15020571D01*
X35286905Y-15020571D02*
X35296429Y-15001524D01*
X35296429Y-15001524D02*
X35305953Y-14972952D01*
X35305953Y-14972952D02*
X35315476Y-14925333D01*
X35315476Y-14925333D02*
X35315476Y-14887238D01*
X35315476Y-14887238D02*
X35305953Y-14839619D01*
X35305953Y-14839619D02*
X35296429Y-14811048D01*
X35296429Y-14811048D02*
X35286905Y-14792000D01*
X35286905Y-14792000D02*
X35267857Y-14763428D01*
X35267857Y-14763428D02*
X35258334Y-14753905D01*
D14*
X30202500Y-15130500D02*
X30202500Y-15215500D01*
X30160000Y-15173000D02*
X30245000Y-15173000D01*
D11*
X30530714Y-15046476D02*
X30549762Y-15046476D01*
X30549762Y-15046476D02*
X30568809Y-15056000D01*
X30568809Y-15056000D02*
X30578333Y-15065524D01*
X30578333Y-15065524D02*
X30587857Y-15084571D01*
X30587857Y-15084571D02*
X30597381Y-15122667D01*
X30597381Y-15122667D02*
X30597381Y-15170286D01*
X30597381Y-15170286D02*
X30587857Y-15208381D01*
X30587857Y-15208381D02*
X30578333Y-15227428D01*
X30578333Y-15227428D02*
X30568809Y-15236952D01*
X30568809Y-15236952D02*
X30549762Y-15246476D01*
X30549762Y-15246476D02*
X30530714Y-15246476D01*
X30530714Y-15246476D02*
X30511667Y-15236952D01*
X30511667Y-15236952D02*
X30502143Y-15227428D01*
X30502143Y-15227428D02*
X30492619Y-15208381D01*
X30492619Y-15208381D02*
X30483095Y-15170286D01*
X30483095Y-15170286D02*
X30483095Y-15122667D01*
X30483095Y-15122667D02*
X30492619Y-15084571D01*
X30492619Y-15084571D02*
X30502143Y-15065524D01*
X30502143Y-15065524D02*
X30511667Y-15056000D01*
X30511667Y-15056000D02*
X30530714Y-15046476D01*
X30683095Y-15227428D02*
X30692619Y-15236952D01*
X30692619Y-15236952D02*
X30683095Y-15246476D01*
X30683095Y-15246476D02*
X30673571Y-15236952D01*
X30673571Y-15236952D02*
X30683095Y-15227428D01*
X30683095Y-15227428D02*
X30683095Y-15246476D01*
X30806905Y-15132190D02*
X30787857Y-15122667D01*
X30787857Y-15122667D02*
X30778333Y-15113143D01*
X30778333Y-15113143D02*
X30768809Y-15094095D01*
X30768809Y-15094095D02*
X30768809Y-15084571D01*
X30768809Y-15084571D02*
X30778333Y-15065524D01*
X30778333Y-15065524D02*
X30787857Y-15056000D01*
X30787857Y-15056000D02*
X30806905Y-15046476D01*
X30806905Y-15046476D02*
X30845000Y-15046476D01*
X30845000Y-15046476D02*
X30864048Y-15056000D01*
X30864048Y-15056000D02*
X30873571Y-15065524D01*
X30873571Y-15065524D02*
X30883095Y-15084571D01*
X30883095Y-15084571D02*
X30883095Y-15094095D01*
X30883095Y-15094095D02*
X30873571Y-15113143D01*
X30873571Y-15113143D02*
X30864048Y-15122667D01*
X30864048Y-15122667D02*
X30845000Y-15132190D01*
X30845000Y-15132190D02*
X30806905Y-15132190D01*
X30806905Y-15132190D02*
X30787857Y-15141714D01*
X30787857Y-15141714D02*
X30778333Y-15151238D01*
X30778333Y-15151238D02*
X30768809Y-15170286D01*
X30768809Y-15170286D02*
X30768809Y-15208381D01*
X30768809Y-15208381D02*
X30778333Y-15227428D01*
X30778333Y-15227428D02*
X30787857Y-15236952D01*
X30787857Y-15236952D02*
X30806905Y-15246476D01*
X30806905Y-15246476D02*
X30845000Y-15246476D01*
X30845000Y-15246476D02*
X30864048Y-15236952D01*
X30864048Y-15236952D02*
X30873571Y-15227428D01*
X30873571Y-15227428D02*
X30883095Y-15208381D01*
X30883095Y-15208381D02*
X30883095Y-15170286D01*
X30883095Y-15170286D02*
X30873571Y-15151238D01*
X30873571Y-15151238D02*
X30864048Y-15141714D01*
X30864048Y-15141714D02*
X30845000Y-15132190D01*
X31064048Y-15046476D02*
X30968809Y-15046476D01*
X30968809Y-15046476D02*
X30959286Y-15141714D01*
X30959286Y-15141714D02*
X30968809Y-15132190D01*
X30968809Y-15132190D02*
X30987857Y-15122667D01*
X30987857Y-15122667D02*
X31035476Y-15122667D01*
X31035476Y-15122667D02*
X31054524Y-15132190D01*
X31054524Y-15132190D02*
X31064048Y-15141714D01*
X31064048Y-15141714D02*
X31073571Y-15160762D01*
X31073571Y-15160762D02*
X31073571Y-15208381D01*
X31073571Y-15208381D02*
X31064048Y-15227428D01*
X31064048Y-15227428D02*
X31054524Y-15236952D01*
X31054524Y-15236952D02*
X31035476Y-15246476D01*
X31035476Y-15246476D02*
X30987857Y-15246476D01*
X30987857Y-15246476D02*
X30968809Y-15236952D01*
X30968809Y-15236952D02*
X30959286Y-15227428D01*
X31197381Y-15046476D02*
X31216429Y-15046476D01*
X31216429Y-15046476D02*
X31235476Y-15056000D01*
X31235476Y-15056000D02*
X31245000Y-15065524D01*
X31245000Y-15065524D02*
X31254524Y-15084571D01*
X31254524Y-15084571D02*
X31264048Y-15122667D01*
X31264048Y-15122667D02*
X31264048Y-15170286D01*
X31264048Y-15170286D02*
X31254524Y-15208381D01*
X31254524Y-15208381D02*
X31245000Y-15227428D01*
X31245000Y-15227428D02*
X31235476Y-15236952D01*
X31235476Y-15236952D02*
X31216429Y-15246476D01*
X31216429Y-15246476D02*
X31197381Y-15246476D01*
X31197381Y-15246476D02*
X31178333Y-15236952D01*
X31178333Y-15236952D02*
X31168809Y-15227428D01*
X31168809Y-15227428D02*
X31159286Y-15208381D01*
X31159286Y-15208381D02*
X31149762Y-15170286D01*
X31149762Y-15170286D02*
X31149762Y-15122667D01*
X31149762Y-15122667D02*
X31159286Y-15084571D01*
X31159286Y-15084571D02*
X31168809Y-15065524D01*
X31168809Y-15065524D02*
X31178333Y-15056000D01*
X31178333Y-15056000D02*
X31197381Y-15046476D01*
X31349762Y-15246476D02*
X31349762Y-15113143D01*
X31349762Y-15132190D02*
X31359286Y-15122667D01*
X31359286Y-15122667D02*
X31378333Y-15113143D01*
X31378333Y-15113143D02*
X31406905Y-15113143D01*
X31406905Y-15113143D02*
X31425952Y-15122667D01*
X31425952Y-15122667D02*
X31435476Y-15141714D01*
X31435476Y-15141714D02*
X31435476Y-15246476D01*
X31435476Y-15141714D02*
X31445000Y-15122667D01*
X31445000Y-15122667D02*
X31464048Y-15113143D01*
X31464048Y-15113143D02*
X31492619Y-15113143D01*
X31492619Y-15113143D02*
X31511667Y-15122667D01*
X31511667Y-15122667D02*
X31521190Y-15141714D01*
X31521190Y-15141714D02*
X31521190Y-15246476D01*
X31616429Y-15246476D02*
X31616429Y-15113143D01*
X31616429Y-15132190D02*
X31625952Y-15122667D01*
X31625952Y-15122667D02*
X31645000Y-15113143D01*
X31645000Y-15113143D02*
X31673571Y-15113143D01*
X31673571Y-15113143D02*
X31692619Y-15122667D01*
X31692619Y-15122667D02*
X31702143Y-15141714D01*
X31702143Y-15141714D02*
X31702143Y-15246476D01*
X31702143Y-15141714D02*
X31711667Y-15122667D01*
X31711667Y-15122667D02*
X31730714Y-15113143D01*
X31730714Y-15113143D02*
X31759286Y-15113143D01*
X31759286Y-15113143D02*
X31778333Y-15122667D01*
X31778333Y-15122667D02*
X31787857Y-15141714D01*
X31787857Y-15141714D02*
X31787857Y-15246476D01*
X32145952Y-15036952D02*
X31974524Y-15294095D01*
X32370714Y-15046476D02*
X32389762Y-15046476D01*
X32389762Y-15046476D02*
X32408810Y-15056000D01*
X32408810Y-15056000D02*
X32418333Y-15065524D01*
X32418333Y-15065524D02*
X32427857Y-15084571D01*
X32427857Y-15084571D02*
X32437381Y-15122667D01*
X32437381Y-15122667D02*
X32437381Y-15170286D01*
X32437381Y-15170286D02*
X32427857Y-15208381D01*
X32427857Y-15208381D02*
X32418333Y-15227428D01*
X32418333Y-15227428D02*
X32408810Y-15236952D01*
X32408810Y-15236952D02*
X32389762Y-15246476D01*
X32389762Y-15246476D02*
X32370714Y-15246476D01*
X32370714Y-15246476D02*
X32351667Y-15236952D01*
X32351667Y-15236952D02*
X32342143Y-15227428D01*
X32342143Y-15227428D02*
X32332619Y-15208381D01*
X32332619Y-15208381D02*
X32323095Y-15170286D01*
X32323095Y-15170286D02*
X32323095Y-15122667D01*
X32323095Y-15122667D02*
X32332619Y-15084571D01*
X32332619Y-15084571D02*
X32342143Y-15065524D01*
X32342143Y-15065524D02*
X32351667Y-15056000D01*
X32351667Y-15056000D02*
X32370714Y-15046476D01*
X32523095Y-15227428D02*
X32532619Y-15236952D01*
X32532619Y-15236952D02*
X32523095Y-15246476D01*
X32523095Y-15246476D02*
X32513571Y-15236952D01*
X32513571Y-15236952D02*
X32523095Y-15227428D01*
X32523095Y-15227428D02*
X32523095Y-15246476D01*
X32656429Y-15046476D02*
X32675476Y-15046476D01*
X32675476Y-15046476D02*
X32694524Y-15056000D01*
X32694524Y-15056000D02*
X32704048Y-15065524D01*
X32704048Y-15065524D02*
X32713571Y-15084571D01*
X32713571Y-15084571D02*
X32723095Y-15122667D01*
X32723095Y-15122667D02*
X32723095Y-15170286D01*
X32723095Y-15170286D02*
X32713571Y-15208381D01*
X32713571Y-15208381D02*
X32704048Y-15227428D01*
X32704048Y-15227428D02*
X32694524Y-15236952D01*
X32694524Y-15236952D02*
X32675476Y-15246476D01*
X32675476Y-15246476D02*
X32656429Y-15246476D01*
X32656429Y-15246476D02*
X32637381Y-15236952D01*
X32637381Y-15236952D02*
X32627857Y-15227428D01*
X32627857Y-15227428D02*
X32618333Y-15208381D01*
X32618333Y-15208381D02*
X32608810Y-15170286D01*
X32608810Y-15170286D02*
X32608810Y-15122667D01*
X32608810Y-15122667D02*
X32618333Y-15084571D01*
X32618333Y-15084571D02*
X32627857Y-15065524D01*
X32627857Y-15065524D02*
X32637381Y-15056000D01*
X32637381Y-15056000D02*
X32656429Y-15046476D01*
X32789762Y-15046476D02*
X32913571Y-15046476D01*
X32913571Y-15046476D02*
X32846905Y-15122667D01*
X32846905Y-15122667D02*
X32875476Y-15122667D01*
X32875476Y-15122667D02*
X32894524Y-15132190D01*
X32894524Y-15132190D02*
X32904048Y-15141714D01*
X32904048Y-15141714D02*
X32913571Y-15160762D01*
X32913571Y-15160762D02*
X32913571Y-15208381D01*
X32913571Y-15208381D02*
X32904048Y-15227428D01*
X32904048Y-15227428D02*
X32894524Y-15236952D01*
X32894524Y-15236952D02*
X32875476Y-15246476D01*
X32875476Y-15246476D02*
X32818333Y-15246476D01*
X32818333Y-15246476D02*
X32799286Y-15236952D01*
X32799286Y-15236952D02*
X32789762Y-15227428D01*
X32980238Y-15046476D02*
X33104048Y-15046476D01*
X33104048Y-15046476D02*
X33037381Y-15122667D01*
X33037381Y-15122667D02*
X33065952Y-15122667D01*
X33065952Y-15122667D02*
X33085000Y-15132190D01*
X33085000Y-15132190D02*
X33094524Y-15141714D01*
X33094524Y-15141714D02*
X33104048Y-15160762D01*
X33104048Y-15160762D02*
X33104048Y-15208381D01*
X33104048Y-15208381D02*
X33094524Y-15227428D01*
X33094524Y-15227428D02*
X33085000Y-15236952D01*
X33085000Y-15236952D02*
X33065952Y-15246476D01*
X33065952Y-15246476D02*
X33008810Y-15246476D01*
X33008810Y-15246476D02*
X32989762Y-15236952D01*
X32989762Y-15236952D02*
X32980238Y-15227428D01*
X33285000Y-15046476D02*
X33189762Y-15046476D01*
X33189762Y-15046476D02*
X33180238Y-15141714D01*
X33180238Y-15141714D02*
X33189762Y-15132190D01*
X33189762Y-15132190D02*
X33208810Y-15122667D01*
X33208810Y-15122667D02*
X33256429Y-15122667D01*
X33256429Y-15122667D02*
X33275476Y-15132190D01*
X33275476Y-15132190D02*
X33285000Y-15141714D01*
X33285000Y-15141714D02*
X33294524Y-15160762D01*
X33294524Y-15160762D02*
X33294524Y-15208381D01*
X33294524Y-15208381D02*
X33285000Y-15227428D01*
X33285000Y-15227428D02*
X33275476Y-15236952D01*
X33275476Y-15236952D02*
X33256429Y-15246476D01*
X33256429Y-15246476D02*
X33208810Y-15246476D01*
X33208810Y-15246476D02*
X33189762Y-15236952D01*
X33189762Y-15236952D02*
X33180238Y-15227428D01*
X33370714Y-15046476D02*
X33370714Y-15084571D01*
X33446905Y-15046476D02*
X33446905Y-15084571D01*
X33709762Y-15322667D02*
X33700238Y-15313143D01*
X33700238Y-15313143D02*
X33681191Y-15284571D01*
X33681191Y-15284571D02*
X33671667Y-15265524D01*
X33671667Y-15265524D02*
X33662143Y-15236952D01*
X33662143Y-15236952D02*
X33652619Y-15189333D01*
X33652619Y-15189333D02*
X33652619Y-15151238D01*
X33652619Y-15151238D02*
X33662143Y-15103619D01*
X33662143Y-15103619D02*
X33671667Y-15075048D01*
X33671667Y-15075048D02*
X33681191Y-15056000D01*
X33681191Y-15056000D02*
X33700238Y-15027428D01*
X33700238Y-15027428D02*
X33709762Y-15017905D01*
X33871667Y-15113143D02*
X33871667Y-15246476D01*
X33824048Y-15036952D02*
X33776429Y-15179809D01*
X33776429Y-15179809D02*
X33900238Y-15179809D01*
X34096429Y-15246476D02*
X34096429Y-15046476D01*
X34182143Y-15246476D02*
X34182143Y-15141714D01*
X34182143Y-15141714D02*
X34172619Y-15122667D01*
X34172619Y-15122667D02*
X34153572Y-15113143D01*
X34153572Y-15113143D02*
X34125000Y-15113143D01*
X34125000Y-15113143D02*
X34105953Y-15122667D01*
X34105953Y-15122667D02*
X34096429Y-15132190D01*
X34305953Y-15246476D02*
X34286905Y-15236952D01*
X34286905Y-15236952D02*
X34277381Y-15227428D01*
X34277381Y-15227428D02*
X34267857Y-15208381D01*
X34267857Y-15208381D02*
X34267857Y-15151238D01*
X34267857Y-15151238D02*
X34277381Y-15132190D01*
X34277381Y-15132190D02*
X34286905Y-15122667D01*
X34286905Y-15122667D02*
X34305953Y-15113143D01*
X34305953Y-15113143D02*
X34334524Y-15113143D01*
X34334524Y-15113143D02*
X34353572Y-15122667D01*
X34353572Y-15122667D02*
X34363095Y-15132190D01*
X34363095Y-15132190D02*
X34372619Y-15151238D01*
X34372619Y-15151238D02*
X34372619Y-15208381D01*
X34372619Y-15208381D02*
X34363095Y-15227428D01*
X34363095Y-15227428D02*
X34353572Y-15236952D01*
X34353572Y-15236952D02*
X34334524Y-15246476D01*
X34334524Y-15246476D02*
X34305953Y-15246476D01*
X34486905Y-15246476D02*
X34467857Y-15236952D01*
X34467857Y-15236952D02*
X34458334Y-15217905D01*
X34458334Y-15217905D02*
X34458334Y-15046476D01*
X34639286Y-15236952D02*
X34620238Y-15246476D01*
X34620238Y-15246476D02*
X34582143Y-15246476D01*
X34582143Y-15246476D02*
X34563095Y-15236952D01*
X34563095Y-15236952D02*
X34553572Y-15217905D01*
X34553572Y-15217905D02*
X34553572Y-15141714D01*
X34553572Y-15141714D02*
X34563095Y-15122667D01*
X34563095Y-15122667D02*
X34582143Y-15113143D01*
X34582143Y-15113143D02*
X34620238Y-15113143D01*
X34620238Y-15113143D02*
X34639286Y-15122667D01*
X34639286Y-15122667D02*
X34648810Y-15141714D01*
X34648810Y-15141714D02*
X34648810Y-15160762D01*
X34648810Y-15160762D02*
X34553572Y-15179809D01*
X34725000Y-15236952D02*
X34744048Y-15246476D01*
X34744048Y-15246476D02*
X34782143Y-15246476D01*
X34782143Y-15246476D02*
X34801191Y-15236952D01*
X34801191Y-15236952D02*
X34810715Y-15217905D01*
X34810715Y-15217905D02*
X34810715Y-15208381D01*
X34810715Y-15208381D02*
X34801191Y-15189333D01*
X34801191Y-15189333D02*
X34782143Y-15179809D01*
X34782143Y-15179809D02*
X34753572Y-15179809D01*
X34753572Y-15179809D02*
X34734524Y-15170286D01*
X34734524Y-15170286D02*
X34725000Y-15151238D01*
X34725000Y-15151238D02*
X34725000Y-15141714D01*
X34725000Y-15141714D02*
X34734524Y-15122667D01*
X34734524Y-15122667D02*
X34753572Y-15113143D01*
X34753572Y-15113143D02*
X34782143Y-15113143D01*
X34782143Y-15113143D02*
X34801191Y-15122667D01*
X34877381Y-15322667D02*
X34886905Y-15313143D01*
X34886905Y-15313143D02*
X34905953Y-15284571D01*
X34905953Y-15284571D02*
X34915476Y-15265524D01*
X34915476Y-15265524D02*
X34925000Y-15236952D01*
X34925000Y-15236952D02*
X34934524Y-15189333D01*
X34934524Y-15189333D02*
X34934524Y-15151238D01*
X34934524Y-15151238D02*
X34925000Y-15103619D01*
X34925000Y-15103619D02*
X34915476Y-15075048D01*
X34915476Y-15075048D02*
X34905953Y-15056000D01*
X34905953Y-15056000D02*
X34886905Y-15027428D01*
X34886905Y-15027428D02*
X34877381Y-15017905D01*
D10*
X30230356Y-15472356D02*
X30230356Y-15401644D01*
X30159644Y-15401644D01*
X30159644Y-15472356D01*
X30230356Y-15472356D01*
D11*
X30597381Y-15510476D02*
X30483095Y-15510476D01*
X30540238Y-15510476D02*
X30540238Y-15310476D01*
X30540238Y-15310476D02*
X30521190Y-15339048D01*
X30521190Y-15339048D02*
X30502143Y-15358095D01*
X30502143Y-15358095D02*
X30483095Y-15367619D01*
X30683095Y-15491428D02*
X30692619Y-15500952D01*
X30692619Y-15500952D02*
X30683095Y-15510476D01*
X30683095Y-15510476D02*
X30673571Y-15500952D01*
X30673571Y-15500952D02*
X30683095Y-15491428D01*
X30683095Y-15491428D02*
X30683095Y-15510476D01*
X30816428Y-15310476D02*
X30835476Y-15310476D01*
X30835476Y-15310476D02*
X30854524Y-15320000D01*
X30854524Y-15320000D02*
X30864048Y-15329524D01*
X30864048Y-15329524D02*
X30873571Y-15348571D01*
X30873571Y-15348571D02*
X30883095Y-15386667D01*
X30883095Y-15386667D02*
X30883095Y-15434286D01*
X30883095Y-15434286D02*
X30873571Y-15472381D01*
X30873571Y-15472381D02*
X30864048Y-15491428D01*
X30864048Y-15491428D02*
X30854524Y-15500952D01*
X30854524Y-15500952D02*
X30835476Y-15510476D01*
X30835476Y-15510476D02*
X30816428Y-15510476D01*
X30816428Y-15510476D02*
X30797381Y-15500952D01*
X30797381Y-15500952D02*
X30787857Y-15491428D01*
X30787857Y-15491428D02*
X30778333Y-15472381D01*
X30778333Y-15472381D02*
X30768809Y-15434286D01*
X30768809Y-15434286D02*
X30768809Y-15386667D01*
X30768809Y-15386667D02*
X30778333Y-15348571D01*
X30778333Y-15348571D02*
X30787857Y-15329524D01*
X30787857Y-15329524D02*
X30797381Y-15320000D01*
X30797381Y-15320000D02*
X30816428Y-15310476D01*
X31006905Y-15310476D02*
X31025952Y-15310476D01*
X31025952Y-15310476D02*
X31045000Y-15320000D01*
X31045000Y-15320000D02*
X31054524Y-15329524D01*
X31054524Y-15329524D02*
X31064048Y-15348571D01*
X31064048Y-15348571D02*
X31073571Y-15386667D01*
X31073571Y-15386667D02*
X31073571Y-15434286D01*
X31073571Y-15434286D02*
X31064048Y-15472381D01*
X31064048Y-15472381D02*
X31054524Y-15491428D01*
X31054524Y-15491428D02*
X31045000Y-15500952D01*
X31045000Y-15500952D02*
X31025952Y-15510476D01*
X31025952Y-15510476D02*
X31006905Y-15510476D01*
X31006905Y-15510476D02*
X30987857Y-15500952D01*
X30987857Y-15500952D02*
X30978333Y-15491428D01*
X30978333Y-15491428D02*
X30968809Y-15472381D01*
X30968809Y-15472381D02*
X30959286Y-15434286D01*
X30959286Y-15434286D02*
X30959286Y-15386667D01*
X30959286Y-15386667D02*
X30968809Y-15348571D01*
X30968809Y-15348571D02*
X30978333Y-15329524D01*
X30978333Y-15329524D02*
X30987857Y-15320000D01*
X30987857Y-15320000D02*
X31006905Y-15310476D01*
X31197381Y-15310476D02*
X31216429Y-15310476D01*
X31216429Y-15310476D02*
X31235476Y-15320000D01*
X31235476Y-15320000D02*
X31245000Y-15329524D01*
X31245000Y-15329524D02*
X31254524Y-15348571D01*
X31254524Y-15348571D02*
X31264048Y-15386667D01*
X31264048Y-15386667D02*
X31264048Y-15434286D01*
X31264048Y-15434286D02*
X31254524Y-15472381D01*
X31254524Y-15472381D02*
X31245000Y-15491428D01*
X31245000Y-15491428D02*
X31235476Y-15500952D01*
X31235476Y-15500952D02*
X31216429Y-15510476D01*
X31216429Y-15510476D02*
X31197381Y-15510476D01*
X31197381Y-15510476D02*
X31178333Y-15500952D01*
X31178333Y-15500952D02*
X31168809Y-15491428D01*
X31168809Y-15491428D02*
X31159286Y-15472381D01*
X31159286Y-15472381D02*
X31149762Y-15434286D01*
X31149762Y-15434286D02*
X31149762Y-15386667D01*
X31149762Y-15386667D02*
X31159286Y-15348571D01*
X31159286Y-15348571D02*
X31168809Y-15329524D01*
X31168809Y-15329524D02*
X31178333Y-15320000D01*
X31178333Y-15320000D02*
X31197381Y-15310476D01*
X31349762Y-15510476D02*
X31349762Y-15377143D01*
X31349762Y-15396190D02*
X31359286Y-15386667D01*
X31359286Y-15386667D02*
X31378333Y-15377143D01*
X31378333Y-15377143D02*
X31406905Y-15377143D01*
X31406905Y-15377143D02*
X31425952Y-15386667D01*
X31425952Y-15386667D02*
X31435476Y-15405714D01*
X31435476Y-15405714D02*
X31435476Y-15510476D01*
X31435476Y-15405714D02*
X31445000Y-15386667D01*
X31445000Y-15386667D02*
X31464048Y-15377143D01*
X31464048Y-15377143D02*
X31492619Y-15377143D01*
X31492619Y-15377143D02*
X31511667Y-15386667D01*
X31511667Y-15386667D02*
X31521190Y-15405714D01*
X31521190Y-15405714D02*
X31521190Y-15510476D01*
X31616429Y-15510476D02*
X31616429Y-15377143D01*
X31616429Y-15396190D02*
X31625952Y-15386667D01*
X31625952Y-15386667D02*
X31645000Y-15377143D01*
X31645000Y-15377143D02*
X31673571Y-15377143D01*
X31673571Y-15377143D02*
X31692619Y-15386667D01*
X31692619Y-15386667D02*
X31702143Y-15405714D01*
X31702143Y-15405714D02*
X31702143Y-15510476D01*
X31702143Y-15405714D02*
X31711667Y-15386667D01*
X31711667Y-15386667D02*
X31730714Y-15377143D01*
X31730714Y-15377143D02*
X31759286Y-15377143D01*
X31759286Y-15377143D02*
X31778333Y-15386667D01*
X31778333Y-15386667D02*
X31787857Y-15405714D01*
X31787857Y-15405714D02*
X31787857Y-15510476D01*
X32145952Y-15300952D02*
X31974524Y-15558095D01*
X32370714Y-15310476D02*
X32389762Y-15310476D01*
X32389762Y-15310476D02*
X32408810Y-15320000D01*
X32408810Y-15320000D02*
X32418333Y-15329524D01*
X32418333Y-15329524D02*
X32427857Y-15348571D01*
X32427857Y-15348571D02*
X32437381Y-15386667D01*
X32437381Y-15386667D02*
X32437381Y-15434286D01*
X32437381Y-15434286D02*
X32427857Y-15472381D01*
X32427857Y-15472381D02*
X32418333Y-15491428D01*
X32418333Y-15491428D02*
X32408810Y-15500952D01*
X32408810Y-15500952D02*
X32389762Y-15510476D01*
X32389762Y-15510476D02*
X32370714Y-15510476D01*
X32370714Y-15510476D02*
X32351667Y-15500952D01*
X32351667Y-15500952D02*
X32342143Y-15491428D01*
X32342143Y-15491428D02*
X32332619Y-15472381D01*
X32332619Y-15472381D02*
X32323095Y-15434286D01*
X32323095Y-15434286D02*
X32323095Y-15386667D01*
X32323095Y-15386667D02*
X32332619Y-15348571D01*
X32332619Y-15348571D02*
X32342143Y-15329524D01*
X32342143Y-15329524D02*
X32351667Y-15320000D01*
X32351667Y-15320000D02*
X32370714Y-15310476D01*
X32523095Y-15491428D02*
X32532619Y-15500952D01*
X32532619Y-15500952D02*
X32523095Y-15510476D01*
X32523095Y-15510476D02*
X32513571Y-15500952D01*
X32513571Y-15500952D02*
X32523095Y-15491428D01*
X32523095Y-15491428D02*
X32523095Y-15510476D01*
X32656429Y-15310476D02*
X32675476Y-15310476D01*
X32675476Y-15310476D02*
X32694524Y-15320000D01*
X32694524Y-15320000D02*
X32704048Y-15329524D01*
X32704048Y-15329524D02*
X32713571Y-15348571D01*
X32713571Y-15348571D02*
X32723095Y-15386667D01*
X32723095Y-15386667D02*
X32723095Y-15434286D01*
X32723095Y-15434286D02*
X32713571Y-15472381D01*
X32713571Y-15472381D02*
X32704048Y-15491428D01*
X32704048Y-15491428D02*
X32694524Y-15500952D01*
X32694524Y-15500952D02*
X32675476Y-15510476D01*
X32675476Y-15510476D02*
X32656429Y-15510476D01*
X32656429Y-15510476D02*
X32637381Y-15500952D01*
X32637381Y-15500952D02*
X32627857Y-15491428D01*
X32627857Y-15491428D02*
X32618333Y-15472381D01*
X32618333Y-15472381D02*
X32608810Y-15434286D01*
X32608810Y-15434286D02*
X32608810Y-15386667D01*
X32608810Y-15386667D02*
X32618333Y-15348571D01*
X32618333Y-15348571D02*
X32627857Y-15329524D01*
X32627857Y-15329524D02*
X32637381Y-15320000D01*
X32637381Y-15320000D02*
X32656429Y-15310476D01*
X32789762Y-15310476D02*
X32913571Y-15310476D01*
X32913571Y-15310476D02*
X32846905Y-15386667D01*
X32846905Y-15386667D02*
X32875476Y-15386667D01*
X32875476Y-15386667D02*
X32894524Y-15396190D01*
X32894524Y-15396190D02*
X32904048Y-15405714D01*
X32904048Y-15405714D02*
X32913571Y-15424762D01*
X32913571Y-15424762D02*
X32913571Y-15472381D01*
X32913571Y-15472381D02*
X32904048Y-15491428D01*
X32904048Y-15491428D02*
X32894524Y-15500952D01*
X32894524Y-15500952D02*
X32875476Y-15510476D01*
X32875476Y-15510476D02*
X32818333Y-15510476D01*
X32818333Y-15510476D02*
X32799286Y-15500952D01*
X32799286Y-15500952D02*
X32789762Y-15491428D01*
X33008810Y-15510476D02*
X33046905Y-15510476D01*
X33046905Y-15510476D02*
X33065952Y-15500952D01*
X33065952Y-15500952D02*
X33075476Y-15491428D01*
X33075476Y-15491428D02*
X33094524Y-15462857D01*
X33094524Y-15462857D02*
X33104048Y-15424762D01*
X33104048Y-15424762D02*
X33104048Y-15348571D01*
X33104048Y-15348571D02*
X33094524Y-15329524D01*
X33094524Y-15329524D02*
X33085000Y-15320000D01*
X33085000Y-15320000D02*
X33065952Y-15310476D01*
X33065952Y-15310476D02*
X33027857Y-15310476D01*
X33027857Y-15310476D02*
X33008810Y-15320000D01*
X33008810Y-15320000D02*
X32999286Y-15329524D01*
X32999286Y-15329524D02*
X32989762Y-15348571D01*
X32989762Y-15348571D02*
X32989762Y-15396190D01*
X32989762Y-15396190D02*
X32999286Y-15415238D01*
X32999286Y-15415238D02*
X33008810Y-15424762D01*
X33008810Y-15424762D02*
X33027857Y-15434286D01*
X33027857Y-15434286D02*
X33065952Y-15434286D01*
X33065952Y-15434286D02*
X33085000Y-15424762D01*
X33085000Y-15424762D02*
X33094524Y-15415238D01*
X33094524Y-15415238D02*
X33104048Y-15396190D01*
X33275476Y-15377143D02*
X33275476Y-15510476D01*
X33227857Y-15300952D02*
X33180238Y-15443809D01*
X33180238Y-15443809D02*
X33304048Y-15443809D01*
X33370714Y-15310476D02*
X33370714Y-15348571D01*
X33446905Y-15310476D02*
X33446905Y-15348571D01*
X33709762Y-15586667D02*
X33700238Y-15577143D01*
X33700238Y-15577143D02*
X33681191Y-15548571D01*
X33681191Y-15548571D02*
X33671667Y-15529524D01*
X33671667Y-15529524D02*
X33662143Y-15500952D01*
X33662143Y-15500952D02*
X33652619Y-15453333D01*
X33652619Y-15453333D02*
X33652619Y-15415238D01*
X33652619Y-15415238D02*
X33662143Y-15367619D01*
X33662143Y-15367619D02*
X33671667Y-15339048D01*
X33671667Y-15339048D02*
X33681191Y-15320000D01*
X33681191Y-15320000D02*
X33700238Y-15291428D01*
X33700238Y-15291428D02*
X33709762Y-15281905D01*
X33766905Y-15310476D02*
X33890714Y-15310476D01*
X33890714Y-15310476D02*
X33824048Y-15386667D01*
X33824048Y-15386667D02*
X33852619Y-15386667D01*
X33852619Y-15386667D02*
X33871667Y-15396190D01*
X33871667Y-15396190D02*
X33881191Y-15405714D01*
X33881191Y-15405714D02*
X33890714Y-15424762D01*
X33890714Y-15424762D02*
X33890714Y-15472381D01*
X33890714Y-15472381D02*
X33881191Y-15491428D01*
X33881191Y-15491428D02*
X33871667Y-15500952D01*
X33871667Y-15500952D02*
X33852619Y-15510476D01*
X33852619Y-15510476D02*
X33795476Y-15510476D01*
X33795476Y-15510476D02*
X33776429Y-15500952D01*
X33776429Y-15500952D02*
X33766905Y-15491428D01*
X33957381Y-15310476D02*
X34081191Y-15310476D01*
X34081191Y-15310476D02*
X34014524Y-15386667D01*
X34014524Y-15386667D02*
X34043095Y-15386667D01*
X34043095Y-15386667D02*
X34062143Y-15396190D01*
X34062143Y-15396190D02*
X34071667Y-15405714D01*
X34071667Y-15405714D02*
X34081191Y-15424762D01*
X34081191Y-15424762D02*
X34081191Y-15472381D01*
X34081191Y-15472381D02*
X34071667Y-15491428D01*
X34071667Y-15491428D02*
X34062143Y-15500952D01*
X34062143Y-15500952D02*
X34043095Y-15510476D01*
X34043095Y-15510476D02*
X33985953Y-15510476D01*
X33985953Y-15510476D02*
X33966905Y-15500952D01*
X33966905Y-15500952D02*
X33957381Y-15491428D01*
X34286905Y-15510476D02*
X34286905Y-15310476D01*
X34372619Y-15510476D02*
X34372619Y-15405714D01*
X34372619Y-15405714D02*
X34363095Y-15386667D01*
X34363095Y-15386667D02*
X34344048Y-15377143D01*
X34344048Y-15377143D02*
X34315476Y-15377143D01*
X34315476Y-15377143D02*
X34296429Y-15386667D01*
X34296429Y-15386667D02*
X34286905Y-15396190D01*
X34496429Y-15510476D02*
X34477381Y-15500952D01*
X34477381Y-15500952D02*
X34467857Y-15491428D01*
X34467857Y-15491428D02*
X34458334Y-15472381D01*
X34458334Y-15472381D02*
X34458334Y-15415238D01*
X34458334Y-15415238D02*
X34467857Y-15396190D01*
X34467857Y-15396190D02*
X34477381Y-15386667D01*
X34477381Y-15386667D02*
X34496429Y-15377143D01*
X34496429Y-15377143D02*
X34525000Y-15377143D01*
X34525000Y-15377143D02*
X34544048Y-15386667D01*
X34544048Y-15386667D02*
X34553572Y-15396190D01*
X34553572Y-15396190D02*
X34563095Y-15415238D01*
X34563095Y-15415238D02*
X34563095Y-15472381D01*
X34563095Y-15472381D02*
X34553572Y-15491428D01*
X34553572Y-15491428D02*
X34544048Y-15500952D01*
X34544048Y-15500952D02*
X34525000Y-15510476D01*
X34525000Y-15510476D02*
X34496429Y-15510476D01*
X34677381Y-15510476D02*
X34658334Y-15500952D01*
X34658334Y-15500952D02*
X34648810Y-15481905D01*
X34648810Y-15481905D02*
X34648810Y-15310476D01*
X34829762Y-15500952D02*
X34810715Y-15510476D01*
X34810715Y-15510476D02*
X34772619Y-15510476D01*
X34772619Y-15510476D02*
X34753572Y-15500952D01*
X34753572Y-15500952D02*
X34744048Y-15481905D01*
X34744048Y-15481905D02*
X34744048Y-15405714D01*
X34744048Y-15405714D02*
X34753572Y-15386667D01*
X34753572Y-15386667D02*
X34772619Y-15377143D01*
X34772619Y-15377143D02*
X34810715Y-15377143D01*
X34810715Y-15377143D02*
X34829762Y-15386667D01*
X34829762Y-15386667D02*
X34839286Y-15405714D01*
X34839286Y-15405714D02*
X34839286Y-15424762D01*
X34839286Y-15424762D02*
X34744048Y-15443809D01*
X34915476Y-15500952D02*
X34934524Y-15510476D01*
X34934524Y-15510476D02*
X34972619Y-15510476D01*
X34972619Y-15510476D02*
X34991667Y-15500952D01*
X34991667Y-15500952D02*
X35001191Y-15481905D01*
X35001191Y-15481905D02*
X35001191Y-15472381D01*
X35001191Y-15472381D02*
X34991667Y-15453333D01*
X34991667Y-15453333D02*
X34972619Y-15443809D01*
X34972619Y-15443809D02*
X34944048Y-15443809D01*
X34944048Y-15443809D02*
X34925000Y-15434286D01*
X34925000Y-15434286D02*
X34915476Y-15415238D01*
X34915476Y-15415238D02*
X34915476Y-15405714D01*
X34915476Y-15405714D02*
X34925000Y-15386667D01*
X34925000Y-15386667D02*
X34944048Y-15377143D01*
X34944048Y-15377143D02*
X34972619Y-15377143D01*
X34972619Y-15377143D02*
X34991667Y-15386667D01*
X35067857Y-15586667D02*
X35077381Y-15577143D01*
X35077381Y-15577143D02*
X35096429Y-15548571D01*
X35096429Y-15548571D02*
X35105953Y-15529524D01*
X35105953Y-15529524D02*
X35115476Y-15500952D01*
X35115476Y-15500952D02*
X35125000Y-15453333D01*
X35125000Y-15453333D02*
X35125000Y-15415238D01*
X35125000Y-15415238D02*
X35115476Y-15367619D01*
X35115476Y-15367619D02*
X35105953Y-15339048D01*
X35105953Y-15339048D02*
X35096429Y-15320000D01*
X35096429Y-15320000D02*
X35077381Y-15291428D01*
X35077381Y-15291428D02*
X35067857Y-15281905D01*
D15*
X30194200Y-15751800D02*
X30245000Y-15701000D01*
X30194200Y-15650200D01*
X30143400Y-15701000D01*
X30194200Y-15751800D01*
D11*
X30597381Y-15774476D02*
X30483095Y-15774476D01*
X30540238Y-15774476D02*
X30540238Y-15574476D01*
X30540238Y-15574476D02*
X30521190Y-15603048D01*
X30521190Y-15603048D02*
X30502143Y-15622095D01*
X30502143Y-15622095D02*
X30483095Y-15631619D01*
X30683095Y-15755428D02*
X30692619Y-15764952D01*
X30692619Y-15764952D02*
X30683095Y-15774476D01*
X30683095Y-15774476D02*
X30673571Y-15764952D01*
X30673571Y-15764952D02*
X30683095Y-15755428D01*
X30683095Y-15755428D02*
X30683095Y-15774476D01*
X30816428Y-15574476D02*
X30835476Y-15574476D01*
X30835476Y-15574476D02*
X30854524Y-15584000D01*
X30854524Y-15584000D02*
X30864048Y-15593524D01*
X30864048Y-15593524D02*
X30873571Y-15612571D01*
X30873571Y-15612571D02*
X30883095Y-15650667D01*
X30883095Y-15650667D02*
X30883095Y-15698286D01*
X30883095Y-15698286D02*
X30873571Y-15736381D01*
X30873571Y-15736381D02*
X30864048Y-15755428D01*
X30864048Y-15755428D02*
X30854524Y-15764952D01*
X30854524Y-15764952D02*
X30835476Y-15774476D01*
X30835476Y-15774476D02*
X30816428Y-15774476D01*
X30816428Y-15774476D02*
X30797381Y-15764952D01*
X30797381Y-15764952D02*
X30787857Y-15755428D01*
X30787857Y-15755428D02*
X30778333Y-15736381D01*
X30778333Y-15736381D02*
X30768809Y-15698286D01*
X30768809Y-15698286D02*
X30768809Y-15650667D01*
X30768809Y-15650667D02*
X30778333Y-15612571D01*
X30778333Y-15612571D02*
X30787857Y-15593524D01*
X30787857Y-15593524D02*
X30797381Y-15584000D01*
X30797381Y-15584000D02*
X30816428Y-15574476D01*
X31073571Y-15774476D02*
X30959286Y-15774476D01*
X31016428Y-15774476D02*
X31016428Y-15574476D01*
X31016428Y-15574476D02*
X30997381Y-15603048D01*
X30997381Y-15603048D02*
X30978333Y-15622095D01*
X30978333Y-15622095D02*
X30959286Y-15631619D01*
X31245000Y-15574476D02*
X31206905Y-15574476D01*
X31206905Y-15574476D02*
X31187857Y-15584000D01*
X31187857Y-15584000D02*
X31178333Y-15593524D01*
X31178333Y-15593524D02*
X31159286Y-15622095D01*
X31159286Y-15622095D02*
X31149762Y-15660190D01*
X31149762Y-15660190D02*
X31149762Y-15736381D01*
X31149762Y-15736381D02*
X31159286Y-15755428D01*
X31159286Y-15755428D02*
X31168809Y-15764952D01*
X31168809Y-15764952D02*
X31187857Y-15774476D01*
X31187857Y-15774476D02*
X31225952Y-15774476D01*
X31225952Y-15774476D02*
X31245000Y-15764952D01*
X31245000Y-15764952D02*
X31254524Y-15755428D01*
X31254524Y-15755428D02*
X31264048Y-15736381D01*
X31264048Y-15736381D02*
X31264048Y-15688762D01*
X31264048Y-15688762D02*
X31254524Y-15669714D01*
X31254524Y-15669714D02*
X31245000Y-15660190D01*
X31245000Y-15660190D02*
X31225952Y-15650667D01*
X31225952Y-15650667D02*
X31187857Y-15650667D01*
X31187857Y-15650667D02*
X31168809Y-15660190D01*
X31168809Y-15660190D02*
X31159286Y-15669714D01*
X31159286Y-15669714D02*
X31149762Y-15688762D01*
X31349762Y-15774476D02*
X31349762Y-15641143D01*
X31349762Y-15660190D02*
X31359286Y-15650667D01*
X31359286Y-15650667D02*
X31378333Y-15641143D01*
X31378333Y-15641143D02*
X31406905Y-15641143D01*
X31406905Y-15641143D02*
X31425952Y-15650667D01*
X31425952Y-15650667D02*
X31435476Y-15669714D01*
X31435476Y-15669714D02*
X31435476Y-15774476D01*
X31435476Y-15669714D02*
X31445000Y-15650667D01*
X31445000Y-15650667D02*
X31464048Y-15641143D01*
X31464048Y-15641143D02*
X31492619Y-15641143D01*
X31492619Y-15641143D02*
X31511667Y-15650667D01*
X31511667Y-15650667D02*
X31521190Y-15669714D01*
X31521190Y-15669714D02*
X31521190Y-15774476D01*
X31616429Y-15774476D02*
X31616429Y-15641143D01*
X31616429Y-15660190D02*
X31625952Y-15650667D01*
X31625952Y-15650667D02*
X31645000Y-15641143D01*
X31645000Y-15641143D02*
X31673571Y-15641143D01*
X31673571Y-15641143D02*
X31692619Y-15650667D01*
X31692619Y-15650667D02*
X31702143Y-15669714D01*
X31702143Y-15669714D02*
X31702143Y-15774476D01*
X31702143Y-15669714D02*
X31711667Y-15650667D01*
X31711667Y-15650667D02*
X31730714Y-15641143D01*
X31730714Y-15641143D02*
X31759286Y-15641143D01*
X31759286Y-15641143D02*
X31778333Y-15650667D01*
X31778333Y-15650667D02*
X31787857Y-15669714D01*
X31787857Y-15669714D02*
X31787857Y-15774476D01*
X32145952Y-15564952D02*
X31974524Y-15822095D01*
X32370714Y-15574476D02*
X32389762Y-15574476D01*
X32389762Y-15574476D02*
X32408810Y-15584000D01*
X32408810Y-15584000D02*
X32418333Y-15593524D01*
X32418333Y-15593524D02*
X32427857Y-15612571D01*
X32427857Y-15612571D02*
X32437381Y-15650667D01*
X32437381Y-15650667D02*
X32437381Y-15698286D01*
X32437381Y-15698286D02*
X32427857Y-15736381D01*
X32427857Y-15736381D02*
X32418333Y-15755428D01*
X32418333Y-15755428D02*
X32408810Y-15764952D01*
X32408810Y-15764952D02*
X32389762Y-15774476D01*
X32389762Y-15774476D02*
X32370714Y-15774476D01*
X32370714Y-15774476D02*
X32351667Y-15764952D01*
X32351667Y-15764952D02*
X32342143Y-15755428D01*
X32342143Y-15755428D02*
X32332619Y-15736381D01*
X32332619Y-15736381D02*
X32323095Y-15698286D01*
X32323095Y-15698286D02*
X32323095Y-15650667D01*
X32323095Y-15650667D02*
X32332619Y-15612571D01*
X32332619Y-15612571D02*
X32342143Y-15593524D01*
X32342143Y-15593524D02*
X32351667Y-15584000D01*
X32351667Y-15584000D02*
X32370714Y-15574476D01*
X32523095Y-15755428D02*
X32532619Y-15764952D01*
X32532619Y-15764952D02*
X32523095Y-15774476D01*
X32523095Y-15774476D02*
X32513571Y-15764952D01*
X32513571Y-15764952D02*
X32523095Y-15755428D01*
X32523095Y-15755428D02*
X32523095Y-15774476D01*
X32656429Y-15574476D02*
X32675476Y-15574476D01*
X32675476Y-15574476D02*
X32694524Y-15584000D01*
X32694524Y-15584000D02*
X32704048Y-15593524D01*
X32704048Y-15593524D02*
X32713571Y-15612571D01*
X32713571Y-15612571D02*
X32723095Y-15650667D01*
X32723095Y-15650667D02*
X32723095Y-15698286D01*
X32723095Y-15698286D02*
X32713571Y-15736381D01*
X32713571Y-15736381D02*
X32704048Y-15755428D01*
X32704048Y-15755428D02*
X32694524Y-15764952D01*
X32694524Y-15764952D02*
X32675476Y-15774476D01*
X32675476Y-15774476D02*
X32656429Y-15774476D01*
X32656429Y-15774476D02*
X32637381Y-15764952D01*
X32637381Y-15764952D02*
X32627857Y-15755428D01*
X32627857Y-15755428D02*
X32618333Y-15736381D01*
X32618333Y-15736381D02*
X32608810Y-15698286D01*
X32608810Y-15698286D02*
X32608810Y-15650667D01*
X32608810Y-15650667D02*
X32618333Y-15612571D01*
X32618333Y-15612571D02*
X32627857Y-15593524D01*
X32627857Y-15593524D02*
X32637381Y-15584000D01*
X32637381Y-15584000D02*
X32656429Y-15574476D01*
X32894524Y-15641143D02*
X32894524Y-15774476D01*
X32846905Y-15564952D02*
X32799286Y-15707809D01*
X32799286Y-15707809D02*
X32923095Y-15707809D01*
X33037381Y-15574476D02*
X33056429Y-15574476D01*
X33056429Y-15574476D02*
X33075476Y-15584000D01*
X33075476Y-15584000D02*
X33085000Y-15593524D01*
X33085000Y-15593524D02*
X33094524Y-15612571D01*
X33094524Y-15612571D02*
X33104048Y-15650667D01*
X33104048Y-15650667D02*
X33104048Y-15698286D01*
X33104048Y-15698286D02*
X33094524Y-15736381D01*
X33094524Y-15736381D02*
X33085000Y-15755428D01*
X33085000Y-15755428D02*
X33075476Y-15764952D01*
X33075476Y-15764952D02*
X33056429Y-15774476D01*
X33056429Y-15774476D02*
X33037381Y-15774476D01*
X33037381Y-15774476D02*
X33018333Y-15764952D01*
X33018333Y-15764952D02*
X33008810Y-15755428D01*
X33008810Y-15755428D02*
X32999286Y-15736381D01*
X32999286Y-15736381D02*
X32989762Y-15698286D01*
X32989762Y-15698286D02*
X32989762Y-15650667D01*
X32989762Y-15650667D02*
X32999286Y-15612571D01*
X32999286Y-15612571D02*
X33008810Y-15593524D01*
X33008810Y-15593524D02*
X33018333Y-15584000D01*
X33018333Y-15584000D02*
X33037381Y-15574476D01*
X33227857Y-15574476D02*
X33246905Y-15574476D01*
X33246905Y-15574476D02*
X33265952Y-15584000D01*
X33265952Y-15584000D02*
X33275476Y-15593524D01*
X33275476Y-15593524D02*
X33285000Y-15612571D01*
X33285000Y-15612571D02*
X33294524Y-15650667D01*
X33294524Y-15650667D02*
X33294524Y-15698286D01*
X33294524Y-15698286D02*
X33285000Y-15736381D01*
X33285000Y-15736381D02*
X33275476Y-15755428D01*
X33275476Y-15755428D02*
X33265952Y-15764952D01*
X33265952Y-15764952D02*
X33246905Y-15774476D01*
X33246905Y-15774476D02*
X33227857Y-15774476D01*
X33227857Y-15774476D02*
X33208810Y-15764952D01*
X33208810Y-15764952D02*
X33199286Y-15755428D01*
X33199286Y-15755428D02*
X33189762Y-15736381D01*
X33189762Y-15736381D02*
X33180238Y-15698286D01*
X33180238Y-15698286D02*
X33180238Y-15650667D01*
X33180238Y-15650667D02*
X33189762Y-15612571D01*
X33189762Y-15612571D02*
X33199286Y-15593524D01*
X33199286Y-15593524D02*
X33208810Y-15584000D01*
X33208810Y-15584000D02*
X33227857Y-15574476D01*
X33370714Y-15574476D02*
X33370714Y-15612571D01*
X33446905Y-15574476D02*
X33446905Y-15612571D01*
X33709762Y-15850667D02*
X33700238Y-15841143D01*
X33700238Y-15841143D02*
X33681191Y-15812571D01*
X33681191Y-15812571D02*
X33671667Y-15793524D01*
X33671667Y-15793524D02*
X33662143Y-15764952D01*
X33662143Y-15764952D02*
X33652619Y-15717333D01*
X33652619Y-15717333D02*
X33652619Y-15679238D01*
X33652619Y-15679238D02*
X33662143Y-15631619D01*
X33662143Y-15631619D02*
X33671667Y-15603048D01*
X33671667Y-15603048D02*
X33681191Y-15584000D01*
X33681191Y-15584000D02*
X33700238Y-15555428D01*
X33700238Y-15555428D02*
X33709762Y-15545905D01*
X33890714Y-15774476D02*
X33776429Y-15774476D01*
X33833572Y-15774476D02*
X33833572Y-15574476D01*
X33833572Y-15574476D02*
X33814524Y-15603048D01*
X33814524Y-15603048D02*
X33795476Y-15622095D01*
X33795476Y-15622095D02*
X33776429Y-15631619D01*
X34014524Y-15574476D02*
X34033572Y-15574476D01*
X34033572Y-15574476D02*
X34052619Y-15584000D01*
X34052619Y-15584000D02*
X34062143Y-15593524D01*
X34062143Y-15593524D02*
X34071667Y-15612571D01*
X34071667Y-15612571D02*
X34081191Y-15650667D01*
X34081191Y-15650667D02*
X34081191Y-15698286D01*
X34081191Y-15698286D02*
X34071667Y-15736381D01*
X34071667Y-15736381D02*
X34062143Y-15755428D01*
X34062143Y-15755428D02*
X34052619Y-15764952D01*
X34052619Y-15764952D02*
X34033572Y-15774476D01*
X34033572Y-15774476D02*
X34014524Y-15774476D01*
X34014524Y-15774476D02*
X33995476Y-15764952D01*
X33995476Y-15764952D02*
X33985953Y-15755428D01*
X33985953Y-15755428D02*
X33976429Y-15736381D01*
X33976429Y-15736381D02*
X33966905Y-15698286D01*
X33966905Y-15698286D02*
X33966905Y-15650667D01*
X33966905Y-15650667D02*
X33976429Y-15612571D01*
X33976429Y-15612571D02*
X33985953Y-15593524D01*
X33985953Y-15593524D02*
X33995476Y-15584000D01*
X33995476Y-15584000D02*
X34014524Y-15574476D01*
X34286905Y-15774476D02*
X34286905Y-15574476D01*
X34372619Y-15774476D02*
X34372619Y-15669714D01*
X34372619Y-15669714D02*
X34363095Y-15650667D01*
X34363095Y-15650667D02*
X34344048Y-15641143D01*
X34344048Y-15641143D02*
X34315476Y-15641143D01*
X34315476Y-15641143D02*
X34296429Y-15650667D01*
X34296429Y-15650667D02*
X34286905Y-15660190D01*
X34496429Y-15774476D02*
X34477381Y-15764952D01*
X34477381Y-15764952D02*
X34467857Y-15755428D01*
X34467857Y-15755428D02*
X34458334Y-15736381D01*
X34458334Y-15736381D02*
X34458334Y-15679238D01*
X34458334Y-15679238D02*
X34467857Y-15660190D01*
X34467857Y-15660190D02*
X34477381Y-15650667D01*
X34477381Y-15650667D02*
X34496429Y-15641143D01*
X34496429Y-15641143D02*
X34525000Y-15641143D01*
X34525000Y-15641143D02*
X34544048Y-15650667D01*
X34544048Y-15650667D02*
X34553572Y-15660190D01*
X34553572Y-15660190D02*
X34563095Y-15679238D01*
X34563095Y-15679238D02*
X34563095Y-15736381D01*
X34563095Y-15736381D02*
X34553572Y-15755428D01*
X34553572Y-15755428D02*
X34544048Y-15764952D01*
X34544048Y-15764952D02*
X34525000Y-15774476D01*
X34525000Y-15774476D02*
X34496429Y-15774476D01*
X34677381Y-15774476D02*
X34658334Y-15764952D01*
X34658334Y-15764952D02*
X34648810Y-15745905D01*
X34648810Y-15745905D02*
X34648810Y-15574476D01*
X34829762Y-15764952D02*
X34810715Y-15774476D01*
X34810715Y-15774476D02*
X34772619Y-15774476D01*
X34772619Y-15774476D02*
X34753572Y-15764952D01*
X34753572Y-15764952D02*
X34744048Y-15745905D01*
X34744048Y-15745905D02*
X34744048Y-15669714D01*
X34744048Y-15669714D02*
X34753572Y-15650667D01*
X34753572Y-15650667D02*
X34772619Y-15641143D01*
X34772619Y-15641143D02*
X34810715Y-15641143D01*
X34810715Y-15641143D02*
X34829762Y-15650667D01*
X34829762Y-15650667D02*
X34839286Y-15669714D01*
X34839286Y-15669714D02*
X34839286Y-15688762D01*
X34839286Y-15688762D02*
X34744048Y-15707809D01*
X34915476Y-15764952D02*
X34934524Y-15774476D01*
X34934524Y-15774476D02*
X34972619Y-15774476D01*
X34972619Y-15774476D02*
X34991667Y-15764952D01*
X34991667Y-15764952D02*
X35001191Y-15745905D01*
X35001191Y-15745905D02*
X35001191Y-15736381D01*
X35001191Y-15736381D02*
X34991667Y-15717333D01*
X34991667Y-15717333D02*
X34972619Y-15707809D01*
X34972619Y-15707809D02*
X34944048Y-15707809D01*
X34944048Y-15707809D02*
X34925000Y-15698286D01*
X34925000Y-15698286D02*
X34915476Y-15679238D01*
X34915476Y-15679238D02*
X34915476Y-15669714D01*
X34915476Y-15669714D02*
X34925000Y-15650667D01*
X34925000Y-15650667D02*
X34944048Y-15641143D01*
X34944048Y-15641143D02*
X34972619Y-15641143D01*
X34972619Y-15641143D02*
X34991667Y-15650667D01*
X35067857Y-15850667D02*
X35077381Y-15841143D01*
X35077381Y-15841143D02*
X35096429Y-15812571D01*
X35096429Y-15812571D02*
X35105953Y-15793524D01*
X35105953Y-15793524D02*
X35115476Y-15764952D01*
X35115476Y-15764952D02*
X35125000Y-15717333D01*
X35125000Y-15717333D02*
X35125000Y-15679238D01*
X35125000Y-15679238D02*
X35115476Y-15631619D01*
X35115476Y-15631619D02*
X35105953Y-15603048D01*
X35105953Y-15603048D02*
X35096429Y-15584000D01*
X35096429Y-15584000D02*
X35077381Y-15555428D01*
X35077381Y-15555428D02*
X35067857Y-15545905D01*
D16*
X30135000Y-15910000D02*
X30245000Y-16020000D01*
X30245000Y-15910000D02*
X30135000Y-16020000D01*
X30245000Y-15965000D02*
G75*
G03*
X30245000Y-15965000I-55000J0D01*
G01*
D11*
X30597381Y-16038476D02*
X30483095Y-16038476D01*
X30540238Y-16038476D02*
X30540238Y-15838476D01*
X30540238Y-15838476D02*
X30521190Y-15867048D01*
X30521190Y-15867048D02*
X30502143Y-15886095D01*
X30502143Y-15886095D02*
X30483095Y-15895619D01*
X30683095Y-16019428D02*
X30692619Y-16028952D01*
X30692619Y-16028952D02*
X30683095Y-16038476D01*
X30683095Y-16038476D02*
X30673571Y-16028952D01*
X30673571Y-16028952D02*
X30683095Y-16019428D01*
X30683095Y-16019428D02*
X30683095Y-16038476D01*
X30883095Y-16038476D02*
X30768809Y-16038476D01*
X30825952Y-16038476D02*
X30825952Y-15838476D01*
X30825952Y-15838476D02*
X30806905Y-15867048D01*
X30806905Y-15867048D02*
X30787857Y-15886095D01*
X30787857Y-15886095D02*
X30768809Y-15895619D01*
X31006905Y-15838476D02*
X31025952Y-15838476D01*
X31025952Y-15838476D02*
X31045000Y-15848000D01*
X31045000Y-15848000D02*
X31054524Y-15857524D01*
X31054524Y-15857524D02*
X31064048Y-15876571D01*
X31064048Y-15876571D02*
X31073571Y-15914667D01*
X31073571Y-15914667D02*
X31073571Y-15962286D01*
X31073571Y-15962286D02*
X31064048Y-16000381D01*
X31064048Y-16000381D02*
X31054524Y-16019428D01*
X31054524Y-16019428D02*
X31045000Y-16028952D01*
X31045000Y-16028952D02*
X31025952Y-16038476D01*
X31025952Y-16038476D02*
X31006905Y-16038476D01*
X31006905Y-16038476D02*
X30987857Y-16028952D01*
X30987857Y-16028952D02*
X30978333Y-16019428D01*
X30978333Y-16019428D02*
X30968809Y-16000381D01*
X30968809Y-16000381D02*
X30959286Y-15962286D01*
X30959286Y-15962286D02*
X30959286Y-15914667D01*
X30959286Y-15914667D02*
X30968809Y-15876571D01*
X30968809Y-15876571D02*
X30978333Y-15857524D01*
X30978333Y-15857524D02*
X30987857Y-15848000D01*
X30987857Y-15848000D02*
X31006905Y-15838476D01*
X31197381Y-15838476D02*
X31216429Y-15838476D01*
X31216429Y-15838476D02*
X31235476Y-15848000D01*
X31235476Y-15848000D02*
X31245000Y-15857524D01*
X31245000Y-15857524D02*
X31254524Y-15876571D01*
X31254524Y-15876571D02*
X31264048Y-15914667D01*
X31264048Y-15914667D02*
X31264048Y-15962286D01*
X31264048Y-15962286D02*
X31254524Y-16000381D01*
X31254524Y-16000381D02*
X31245000Y-16019428D01*
X31245000Y-16019428D02*
X31235476Y-16028952D01*
X31235476Y-16028952D02*
X31216429Y-16038476D01*
X31216429Y-16038476D02*
X31197381Y-16038476D01*
X31197381Y-16038476D02*
X31178333Y-16028952D01*
X31178333Y-16028952D02*
X31168809Y-16019428D01*
X31168809Y-16019428D02*
X31159286Y-16000381D01*
X31159286Y-16000381D02*
X31149762Y-15962286D01*
X31149762Y-15962286D02*
X31149762Y-15914667D01*
X31149762Y-15914667D02*
X31159286Y-15876571D01*
X31159286Y-15876571D02*
X31168809Y-15857524D01*
X31168809Y-15857524D02*
X31178333Y-15848000D01*
X31178333Y-15848000D02*
X31197381Y-15838476D01*
X31349762Y-16038476D02*
X31349762Y-15905143D01*
X31349762Y-15924190D02*
X31359286Y-15914667D01*
X31359286Y-15914667D02*
X31378333Y-15905143D01*
X31378333Y-15905143D02*
X31406905Y-15905143D01*
X31406905Y-15905143D02*
X31425952Y-15914667D01*
X31425952Y-15914667D02*
X31435476Y-15933714D01*
X31435476Y-15933714D02*
X31435476Y-16038476D01*
X31435476Y-15933714D02*
X31445000Y-15914667D01*
X31445000Y-15914667D02*
X31464048Y-15905143D01*
X31464048Y-15905143D02*
X31492619Y-15905143D01*
X31492619Y-15905143D02*
X31511667Y-15914667D01*
X31511667Y-15914667D02*
X31521190Y-15933714D01*
X31521190Y-15933714D02*
X31521190Y-16038476D01*
X31616429Y-16038476D02*
X31616429Y-15905143D01*
X31616429Y-15924190D02*
X31625952Y-15914667D01*
X31625952Y-15914667D02*
X31645000Y-15905143D01*
X31645000Y-15905143D02*
X31673571Y-15905143D01*
X31673571Y-15905143D02*
X31692619Y-15914667D01*
X31692619Y-15914667D02*
X31702143Y-15933714D01*
X31702143Y-15933714D02*
X31702143Y-16038476D01*
X31702143Y-15933714D02*
X31711667Y-15914667D01*
X31711667Y-15914667D02*
X31730714Y-15905143D01*
X31730714Y-15905143D02*
X31759286Y-15905143D01*
X31759286Y-15905143D02*
X31778333Y-15914667D01*
X31778333Y-15914667D02*
X31787857Y-15933714D01*
X31787857Y-15933714D02*
X31787857Y-16038476D01*
X32145952Y-15828952D02*
X31974524Y-16086095D01*
X32370714Y-15838476D02*
X32389762Y-15838476D01*
X32389762Y-15838476D02*
X32408810Y-15848000D01*
X32408810Y-15848000D02*
X32418333Y-15857524D01*
X32418333Y-15857524D02*
X32427857Y-15876571D01*
X32427857Y-15876571D02*
X32437381Y-15914667D01*
X32437381Y-15914667D02*
X32437381Y-15962286D01*
X32437381Y-15962286D02*
X32427857Y-16000381D01*
X32427857Y-16000381D02*
X32418333Y-16019428D01*
X32418333Y-16019428D02*
X32408810Y-16028952D01*
X32408810Y-16028952D02*
X32389762Y-16038476D01*
X32389762Y-16038476D02*
X32370714Y-16038476D01*
X32370714Y-16038476D02*
X32351667Y-16028952D01*
X32351667Y-16028952D02*
X32342143Y-16019428D01*
X32342143Y-16019428D02*
X32332619Y-16000381D01*
X32332619Y-16000381D02*
X32323095Y-15962286D01*
X32323095Y-15962286D02*
X32323095Y-15914667D01*
X32323095Y-15914667D02*
X32332619Y-15876571D01*
X32332619Y-15876571D02*
X32342143Y-15857524D01*
X32342143Y-15857524D02*
X32351667Y-15848000D01*
X32351667Y-15848000D02*
X32370714Y-15838476D01*
X32523095Y-16019428D02*
X32532619Y-16028952D01*
X32532619Y-16028952D02*
X32523095Y-16038476D01*
X32523095Y-16038476D02*
X32513571Y-16028952D01*
X32513571Y-16028952D02*
X32523095Y-16019428D01*
X32523095Y-16019428D02*
X32523095Y-16038476D01*
X32656429Y-15838476D02*
X32675476Y-15838476D01*
X32675476Y-15838476D02*
X32694524Y-15848000D01*
X32694524Y-15848000D02*
X32704048Y-15857524D01*
X32704048Y-15857524D02*
X32713571Y-15876571D01*
X32713571Y-15876571D02*
X32723095Y-15914667D01*
X32723095Y-15914667D02*
X32723095Y-15962286D01*
X32723095Y-15962286D02*
X32713571Y-16000381D01*
X32713571Y-16000381D02*
X32704048Y-16019428D01*
X32704048Y-16019428D02*
X32694524Y-16028952D01*
X32694524Y-16028952D02*
X32675476Y-16038476D01*
X32675476Y-16038476D02*
X32656429Y-16038476D01*
X32656429Y-16038476D02*
X32637381Y-16028952D01*
X32637381Y-16028952D02*
X32627857Y-16019428D01*
X32627857Y-16019428D02*
X32618333Y-16000381D01*
X32618333Y-16000381D02*
X32608810Y-15962286D01*
X32608810Y-15962286D02*
X32608810Y-15914667D01*
X32608810Y-15914667D02*
X32618333Y-15876571D01*
X32618333Y-15876571D02*
X32627857Y-15857524D01*
X32627857Y-15857524D02*
X32637381Y-15848000D01*
X32637381Y-15848000D02*
X32656429Y-15838476D01*
X32894524Y-15905143D02*
X32894524Y-16038476D01*
X32846905Y-15828952D02*
X32799286Y-15971809D01*
X32799286Y-15971809D02*
X32923095Y-15971809D01*
X32980238Y-15838476D02*
X33104048Y-15838476D01*
X33104048Y-15838476D02*
X33037381Y-15914667D01*
X33037381Y-15914667D02*
X33065952Y-15914667D01*
X33065952Y-15914667D02*
X33085000Y-15924190D01*
X33085000Y-15924190D02*
X33094524Y-15933714D01*
X33094524Y-15933714D02*
X33104048Y-15952762D01*
X33104048Y-15952762D02*
X33104048Y-16000381D01*
X33104048Y-16000381D02*
X33094524Y-16019428D01*
X33094524Y-16019428D02*
X33085000Y-16028952D01*
X33085000Y-16028952D02*
X33065952Y-16038476D01*
X33065952Y-16038476D02*
X33008810Y-16038476D01*
X33008810Y-16038476D02*
X32989762Y-16028952D01*
X32989762Y-16028952D02*
X32980238Y-16019428D01*
X33170714Y-15838476D02*
X33294524Y-15838476D01*
X33294524Y-15838476D02*
X33227857Y-15914667D01*
X33227857Y-15914667D02*
X33256429Y-15914667D01*
X33256429Y-15914667D02*
X33275476Y-15924190D01*
X33275476Y-15924190D02*
X33285000Y-15933714D01*
X33285000Y-15933714D02*
X33294524Y-15952762D01*
X33294524Y-15952762D02*
X33294524Y-16000381D01*
X33294524Y-16000381D02*
X33285000Y-16019428D01*
X33285000Y-16019428D02*
X33275476Y-16028952D01*
X33275476Y-16028952D02*
X33256429Y-16038476D01*
X33256429Y-16038476D02*
X33199286Y-16038476D01*
X33199286Y-16038476D02*
X33180238Y-16028952D01*
X33180238Y-16028952D02*
X33170714Y-16019428D01*
X33370714Y-15838476D02*
X33370714Y-15876571D01*
X33446905Y-15838476D02*
X33446905Y-15876571D01*
X33709762Y-16114667D02*
X33700238Y-16105143D01*
X33700238Y-16105143D02*
X33681191Y-16076571D01*
X33681191Y-16076571D02*
X33671667Y-16057524D01*
X33671667Y-16057524D02*
X33662143Y-16028952D01*
X33662143Y-16028952D02*
X33652619Y-15981333D01*
X33652619Y-15981333D02*
X33652619Y-15943238D01*
X33652619Y-15943238D02*
X33662143Y-15895619D01*
X33662143Y-15895619D02*
X33671667Y-15867048D01*
X33671667Y-15867048D02*
X33681191Y-15848000D01*
X33681191Y-15848000D02*
X33700238Y-15819428D01*
X33700238Y-15819428D02*
X33709762Y-15809905D01*
X33890714Y-16038476D02*
X33776429Y-16038476D01*
X33833572Y-16038476D02*
X33833572Y-15838476D01*
X33833572Y-15838476D02*
X33814524Y-15867048D01*
X33814524Y-15867048D02*
X33795476Y-15886095D01*
X33795476Y-15886095D02*
X33776429Y-15895619D01*
X34014524Y-15838476D02*
X34033572Y-15838476D01*
X34033572Y-15838476D02*
X34052619Y-15848000D01*
X34052619Y-15848000D02*
X34062143Y-15857524D01*
X34062143Y-15857524D02*
X34071667Y-15876571D01*
X34071667Y-15876571D02*
X34081191Y-15914667D01*
X34081191Y-15914667D02*
X34081191Y-15962286D01*
X34081191Y-15962286D02*
X34071667Y-16000381D01*
X34071667Y-16000381D02*
X34062143Y-16019428D01*
X34062143Y-16019428D02*
X34052619Y-16028952D01*
X34052619Y-16028952D02*
X34033572Y-16038476D01*
X34033572Y-16038476D02*
X34014524Y-16038476D01*
X34014524Y-16038476D02*
X33995476Y-16028952D01*
X33995476Y-16028952D02*
X33985953Y-16019428D01*
X33985953Y-16019428D02*
X33976429Y-16000381D01*
X33976429Y-16000381D02*
X33966905Y-15962286D01*
X33966905Y-15962286D02*
X33966905Y-15914667D01*
X33966905Y-15914667D02*
X33976429Y-15876571D01*
X33976429Y-15876571D02*
X33985953Y-15857524D01*
X33985953Y-15857524D02*
X33995476Y-15848000D01*
X33995476Y-15848000D02*
X34014524Y-15838476D01*
X34286905Y-16038476D02*
X34286905Y-15838476D01*
X34372619Y-16038476D02*
X34372619Y-15933714D01*
X34372619Y-15933714D02*
X34363095Y-15914667D01*
X34363095Y-15914667D02*
X34344048Y-15905143D01*
X34344048Y-15905143D02*
X34315476Y-15905143D01*
X34315476Y-15905143D02*
X34296429Y-15914667D01*
X34296429Y-15914667D02*
X34286905Y-15924190D01*
X34496429Y-16038476D02*
X34477381Y-16028952D01*
X34477381Y-16028952D02*
X34467857Y-16019428D01*
X34467857Y-16019428D02*
X34458334Y-16000381D01*
X34458334Y-16000381D02*
X34458334Y-15943238D01*
X34458334Y-15943238D02*
X34467857Y-15924190D01*
X34467857Y-15924190D02*
X34477381Y-15914667D01*
X34477381Y-15914667D02*
X34496429Y-15905143D01*
X34496429Y-15905143D02*
X34525000Y-15905143D01*
X34525000Y-15905143D02*
X34544048Y-15914667D01*
X34544048Y-15914667D02*
X34553572Y-15924190D01*
X34553572Y-15924190D02*
X34563095Y-15943238D01*
X34563095Y-15943238D02*
X34563095Y-16000381D01*
X34563095Y-16000381D02*
X34553572Y-16019428D01*
X34553572Y-16019428D02*
X34544048Y-16028952D01*
X34544048Y-16028952D02*
X34525000Y-16038476D01*
X34525000Y-16038476D02*
X34496429Y-16038476D01*
X34677381Y-16038476D02*
X34658334Y-16028952D01*
X34658334Y-16028952D02*
X34648810Y-16009905D01*
X34648810Y-16009905D02*
X34648810Y-15838476D01*
X34829762Y-16028952D02*
X34810715Y-16038476D01*
X34810715Y-16038476D02*
X34772619Y-16038476D01*
X34772619Y-16038476D02*
X34753572Y-16028952D01*
X34753572Y-16028952D02*
X34744048Y-16009905D01*
X34744048Y-16009905D02*
X34744048Y-15933714D01*
X34744048Y-15933714D02*
X34753572Y-15914667D01*
X34753572Y-15914667D02*
X34772619Y-15905143D01*
X34772619Y-15905143D02*
X34810715Y-15905143D01*
X34810715Y-15905143D02*
X34829762Y-15914667D01*
X34829762Y-15914667D02*
X34839286Y-15933714D01*
X34839286Y-15933714D02*
X34839286Y-15952762D01*
X34839286Y-15952762D02*
X34744048Y-15971809D01*
X34915476Y-16028952D02*
X34934524Y-16038476D01*
X34934524Y-16038476D02*
X34972619Y-16038476D01*
X34972619Y-16038476D02*
X34991667Y-16028952D01*
X34991667Y-16028952D02*
X35001191Y-16009905D01*
X35001191Y-16009905D02*
X35001191Y-16000381D01*
X35001191Y-16000381D02*
X34991667Y-15981333D01*
X34991667Y-15981333D02*
X34972619Y-15971809D01*
X34972619Y-15971809D02*
X34944048Y-15971809D01*
X34944048Y-15971809D02*
X34925000Y-15962286D01*
X34925000Y-15962286D02*
X34915476Y-15943238D01*
X34915476Y-15943238D02*
X34915476Y-15933714D01*
X34915476Y-15933714D02*
X34925000Y-15914667D01*
X34925000Y-15914667D02*
X34944048Y-15905143D01*
X34944048Y-15905143D02*
X34972619Y-15905143D01*
X34972619Y-15905143D02*
X34991667Y-15914667D01*
X35206905Y-15962286D02*
X35359286Y-15962286D01*
X35283096Y-16038476D02*
X35283096Y-15886095D01*
X35679286Y-16038476D02*
X35565000Y-16038476D01*
X35622143Y-16038476D02*
X35622143Y-15838476D01*
X35622143Y-15838476D02*
X35603095Y-15867048D01*
X35603095Y-15867048D02*
X35584048Y-15886095D01*
X35584048Y-15886095D02*
X35565000Y-15895619D01*
X35850715Y-15905143D02*
X35850715Y-16038476D01*
X35803095Y-15828952D02*
X35755476Y-15971809D01*
X35755476Y-15971809D02*
X35879286Y-15971809D01*
X36065953Y-16028952D02*
X36085000Y-16038476D01*
X36085000Y-16038476D02*
X36123095Y-16038476D01*
X36123095Y-16038476D02*
X36142143Y-16028952D01*
X36142143Y-16028952D02*
X36151667Y-16009905D01*
X36151667Y-16009905D02*
X36151667Y-16000381D01*
X36151667Y-16000381D02*
X36142143Y-15981333D01*
X36142143Y-15981333D02*
X36123095Y-15971809D01*
X36123095Y-15971809D02*
X36094524Y-15971809D01*
X36094524Y-15971809D02*
X36075476Y-15962286D01*
X36075476Y-15962286D02*
X36065953Y-15943238D01*
X36065953Y-15943238D02*
X36065953Y-15933714D01*
X36065953Y-15933714D02*
X36075476Y-15914667D01*
X36075476Y-15914667D02*
X36094524Y-15905143D01*
X36094524Y-15905143D02*
X36123095Y-15905143D01*
X36123095Y-15905143D02*
X36142143Y-15914667D01*
X36265953Y-16038476D02*
X36246905Y-16028952D01*
X36246905Y-16028952D02*
X36237381Y-16009905D01*
X36237381Y-16009905D02*
X36237381Y-15838476D01*
X36370715Y-16038476D02*
X36351667Y-16028952D01*
X36351667Y-16028952D02*
X36342143Y-16019428D01*
X36342143Y-16019428D02*
X36332619Y-16000381D01*
X36332619Y-16000381D02*
X36332619Y-15943238D01*
X36332619Y-15943238D02*
X36342143Y-15924190D01*
X36342143Y-15924190D02*
X36351667Y-15914667D01*
X36351667Y-15914667D02*
X36370715Y-15905143D01*
X36370715Y-15905143D02*
X36399286Y-15905143D01*
X36399286Y-15905143D02*
X36418334Y-15914667D01*
X36418334Y-15914667D02*
X36427857Y-15924190D01*
X36427857Y-15924190D02*
X36437381Y-15943238D01*
X36437381Y-15943238D02*
X36437381Y-16000381D01*
X36437381Y-16000381D02*
X36427857Y-16019428D01*
X36427857Y-16019428D02*
X36418334Y-16028952D01*
X36418334Y-16028952D02*
X36399286Y-16038476D01*
X36399286Y-16038476D02*
X36370715Y-16038476D01*
X36494524Y-15905143D02*
X36570715Y-15905143D01*
X36523096Y-15838476D02*
X36523096Y-16009905D01*
X36523096Y-16009905D02*
X36532619Y-16028952D01*
X36532619Y-16028952D02*
X36551667Y-16038476D01*
X36551667Y-16038476D02*
X36570715Y-16038476D01*
X36627857Y-16028952D02*
X36646905Y-16038476D01*
X36646905Y-16038476D02*
X36685000Y-16038476D01*
X36685000Y-16038476D02*
X36704048Y-16028952D01*
X36704048Y-16028952D02*
X36713572Y-16009905D01*
X36713572Y-16009905D02*
X36713572Y-16000381D01*
X36713572Y-16000381D02*
X36704048Y-15981333D01*
X36704048Y-15981333D02*
X36685000Y-15971809D01*
X36685000Y-15971809D02*
X36656429Y-15971809D01*
X36656429Y-15971809D02*
X36637381Y-15962286D01*
X36637381Y-15962286D02*
X36627857Y-15943238D01*
X36627857Y-15943238D02*
X36627857Y-15933714D01*
X36627857Y-15933714D02*
X36637381Y-15914667D01*
X36637381Y-15914667D02*
X36656429Y-15905143D01*
X36656429Y-15905143D02*
X36685000Y-15905143D01*
X36685000Y-15905143D02*
X36704048Y-15914667D01*
X36780238Y-16114667D02*
X36789762Y-16105143D01*
X36789762Y-16105143D02*
X36808810Y-16076571D01*
X36808810Y-16076571D02*
X36818334Y-16057524D01*
X36818334Y-16057524D02*
X36827857Y-16028952D01*
X36827857Y-16028952D02*
X36837381Y-15981333D01*
X36837381Y-15981333D02*
X36837381Y-15943238D01*
X36837381Y-15943238D02*
X36827857Y-15895619D01*
X36827857Y-15895619D02*
X36818334Y-15867048D01*
X36818334Y-15867048D02*
X36808810Y-15848000D01*
X36808810Y-15848000D02*
X36789762Y-15819428D01*
X36789762Y-15819428D02*
X36780238Y-15809905D01*
X30045000Y-16129000D02*
X30245000Y-16329000D01*
X30245000Y-16129000D02*
X30045000Y-16329000D01*
X30145000Y-16129000D02*
X30145000Y-16329000D01*
X30045000Y-16229000D02*
X30245000Y-16229000D01*
X30483095Y-16121524D02*
X30492619Y-16112000D01*
X30492619Y-16112000D02*
X30511667Y-16102476D01*
X30511667Y-16102476D02*
X30559286Y-16102476D01*
X30559286Y-16102476D02*
X30578333Y-16112000D01*
X30578333Y-16112000D02*
X30587857Y-16121524D01*
X30587857Y-16121524D02*
X30597381Y-16140571D01*
X30597381Y-16140571D02*
X30597381Y-16159619D01*
X30597381Y-16159619D02*
X30587857Y-16188190D01*
X30587857Y-16188190D02*
X30473571Y-16302476D01*
X30473571Y-16302476D02*
X30597381Y-16302476D01*
X30683095Y-16283428D02*
X30692619Y-16292952D01*
X30692619Y-16292952D02*
X30683095Y-16302476D01*
X30683095Y-16302476D02*
X30673571Y-16292952D01*
X30673571Y-16292952D02*
X30683095Y-16283428D01*
X30683095Y-16283428D02*
X30683095Y-16302476D01*
X30883095Y-16302476D02*
X30768809Y-16302476D01*
X30825952Y-16302476D02*
X30825952Y-16102476D01*
X30825952Y-16102476D02*
X30806905Y-16131048D01*
X30806905Y-16131048D02*
X30787857Y-16150095D01*
X30787857Y-16150095D02*
X30768809Y-16159619D01*
X31006905Y-16102476D02*
X31025952Y-16102476D01*
X31025952Y-16102476D02*
X31045000Y-16112000D01*
X31045000Y-16112000D02*
X31054524Y-16121524D01*
X31054524Y-16121524D02*
X31064048Y-16140571D01*
X31064048Y-16140571D02*
X31073571Y-16178667D01*
X31073571Y-16178667D02*
X31073571Y-16226286D01*
X31073571Y-16226286D02*
X31064048Y-16264381D01*
X31064048Y-16264381D02*
X31054524Y-16283428D01*
X31054524Y-16283428D02*
X31045000Y-16292952D01*
X31045000Y-16292952D02*
X31025952Y-16302476D01*
X31025952Y-16302476D02*
X31006905Y-16302476D01*
X31006905Y-16302476D02*
X30987857Y-16292952D01*
X30987857Y-16292952D02*
X30978333Y-16283428D01*
X30978333Y-16283428D02*
X30968809Y-16264381D01*
X30968809Y-16264381D02*
X30959286Y-16226286D01*
X30959286Y-16226286D02*
X30959286Y-16178667D01*
X30959286Y-16178667D02*
X30968809Y-16140571D01*
X30968809Y-16140571D02*
X30978333Y-16121524D01*
X30978333Y-16121524D02*
X30987857Y-16112000D01*
X30987857Y-16112000D02*
X31006905Y-16102476D01*
X31197381Y-16102476D02*
X31216429Y-16102476D01*
X31216429Y-16102476D02*
X31235476Y-16112000D01*
X31235476Y-16112000D02*
X31245000Y-16121524D01*
X31245000Y-16121524D02*
X31254524Y-16140571D01*
X31254524Y-16140571D02*
X31264048Y-16178667D01*
X31264048Y-16178667D02*
X31264048Y-16226286D01*
X31264048Y-16226286D02*
X31254524Y-16264381D01*
X31254524Y-16264381D02*
X31245000Y-16283428D01*
X31245000Y-16283428D02*
X31235476Y-16292952D01*
X31235476Y-16292952D02*
X31216429Y-16302476D01*
X31216429Y-16302476D02*
X31197381Y-16302476D01*
X31197381Y-16302476D02*
X31178333Y-16292952D01*
X31178333Y-16292952D02*
X31168809Y-16283428D01*
X31168809Y-16283428D02*
X31159286Y-16264381D01*
X31159286Y-16264381D02*
X31149762Y-16226286D01*
X31149762Y-16226286D02*
X31149762Y-16178667D01*
X31149762Y-16178667D02*
X31159286Y-16140571D01*
X31159286Y-16140571D02*
X31168809Y-16121524D01*
X31168809Y-16121524D02*
X31178333Y-16112000D01*
X31178333Y-16112000D02*
X31197381Y-16102476D01*
X31349762Y-16302476D02*
X31349762Y-16169143D01*
X31349762Y-16188190D02*
X31359286Y-16178667D01*
X31359286Y-16178667D02*
X31378333Y-16169143D01*
X31378333Y-16169143D02*
X31406905Y-16169143D01*
X31406905Y-16169143D02*
X31425952Y-16178667D01*
X31425952Y-16178667D02*
X31435476Y-16197714D01*
X31435476Y-16197714D02*
X31435476Y-16302476D01*
X31435476Y-16197714D02*
X31445000Y-16178667D01*
X31445000Y-16178667D02*
X31464048Y-16169143D01*
X31464048Y-16169143D02*
X31492619Y-16169143D01*
X31492619Y-16169143D02*
X31511667Y-16178667D01*
X31511667Y-16178667D02*
X31521190Y-16197714D01*
X31521190Y-16197714D02*
X31521190Y-16302476D01*
X31616429Y-16302476D02*
X31616429Y-16169143D01*
X31616429Y-16188190D02*
X31625952Y-16178667D01*
X31625952Y-16178667D02*
X31645000Y-16169143D01*
X31645000Y-16169143D02*
X31673571Y-16169143D01*
X31673571Y-16169143D02*
X31692619Y-16178667D01*
X31692619Y-16178667D02*
X31702143Y-16197714D01*
X31702143Y-16197714D02*
X31702143Y-16302476D01*
X31702143Y-16197714D02*
X31711667Y-16178667D01*
X31711667Y-16178667D02*
X31730714Y-16169143D01*
X31730714Y-16169143D02*
X31759286Y-16169143D01*
X31759286Y-16169143D02*
X31778333Y-16178667D01*
X31778333Y-16178667D02*
X31787857Y-16197714D01*
X31787857Y-16197714D02*
X31787857Y-16302476D01*
X32145952Y-16092952D02*
X31974524Y-16350095D01*
X32370714Y-16102476D02*
X32389762Y-16102476D01*
X32389762Y-16102476D02*
X32408810Y-16112000D01*
X32408810Y-16112000D02*
X32418333Y-16121524D01*
X32418333Y-16121524D02*
X32427857Y-16140571D01*
X32427857Y-16140571D02*
X32437381Y-16178667D01*
X32437381Y-16178667D02*
X32437381Y-16226286D01*
X32437381Y-16226286D02*
X32427857Y-16264381D01*
X32427857Y-16264381D02*
X32418333Y-16283428D01*
X32418333Y-16283428D02*
X32408810Y-16292952D01*
X32408810Y-16292952D02*
X32389762Y-16302476D01*
X32389762Y-16302476D02*
X32370714Y-16302476D01*
X32370714Y-16302476D02*
X32351667Y-16292952D01*
X32351667Y-16292952D02*
X32342143Y-16283428D01*
X32342143Y-16283428D02*
X32332619Y-16264381D01*
X32332619Y-16264381D02*
X32323095Y-16226286D01*
X32323095Y-16226286D02*
X32323095Y-16178667D01*
X32323095Y-16178667D02*
X32332619Y-16140571D01*
X32332619Y-16140571D02*
X32342143Y-16121524D01*
X32342143Y-16121524D02*
X32351667Y-16112000D01*
X32351667Y-16112000D02*
X32370714Y-16102476D01*
X32523095Y-16283428D02*
X32532619Y-16292952D01*
X32532619Y-16292952D02*
X32523095Y-16302476D01*
X32523095Y-16302476D02*
X32513571Y-16292952D01*
X32513571Y-16292952D02*
X32523095Y-16283428D01*
X32523095Y-16283428D02*
X32523095Y-16302476D01*
X32656429Y-16102476D02*
X32675476Y-16102476D01*
X32675476Y-16102476D02*
X32694524Y-16112000D01*
X32694524Y-16112000D02*
X32704048Y-16121524D01*
X32704048Y-16121524D02*
X32713571Y-16140571D01*
X32713571Y-16140571D02*
X32723095Y-16178667D01*
X32723095Y-16178667D02*
X32723095Y-16226286D01*
X32723095Y-16226286D02*
X32713571Y-16264381D01*
X32713571Y-16264381D02*
X32704048Y-16283428D01*
X32704048Y-16283428D02*
X32694524Y-16292952D01*
X32694524Y-16292952D02*
X32675476Y-16302476D01*
X32675476Y-16302476D02*
X32656429Y-16302476D01*
X32656429Y-16302476D02*
X32637381Y-16292952D01*
X32637381Y-16292952D02*
X32627857Y-16283428D01*
X32627857Y-16283428D02*
X32618333Y-16264381D01*
X32618333Y-16264381D02*
X32608810Y-16226286D01*
X32608810Y-16226286D02*
X32608810Y-16178667D01*
X32608810Y-16178667D02*
X32618333Y-16140571D01*
X32618333Y-16140571D02*
X32627857Y-16121524D01*
X32627857Y-16121524D02*
X32637381Y-16112000D01*
X32637381Y-16112000D02*
X32656429Y-16102476D01*
X32837381Y-16188190D02*
X32818333Y-16178667D01*
X32818333Y-16178667D02*
X32808810Y-16169143D01*
X32808810Y-16169143D02*
X32799286Y-16150095D01*
X32799286Y-16150095D02*
X32799286Y-16140571D01*
X32799286Y-16140571D02*
X32808810Y-16121524D01*
X32808810Y-16121524D02*
X32818333Y-16112000D01*
X32818333Y-16112000D02*
X32837381Y-16102476D01*
X32837381Y-16102476D02*
X32875476Y-16102476D01*
X32875476Y-16102476D02*
X32894524Y-16112000D01*
X32894524Y-16112000D02*
X32904048Y-16121524D01*
X32904048Y-16121524D02*
X32913571Y-16140571D01*
X32913571Y-16140571D02*
X32913571Y-16150095D01*
X32913571Y-16150095D02*
X32904048Y-16169143D01*
X32904048Y-16169143D02*
X32894524Y-16178667D01*
X32894524Y-16178667D02*
X32875476Y-16188190D01*
X32875476Y-16188190D02*
X32837381Y-16188190D01*
X32837381Y-16188190D02*
X32818333Y-16197714D01*
X32818333Y-16197714D02*
X32808810Y-16207238D01*
X32808810Y-16207238D02*
X32799286Y-16226286D01*
X32799286Y-16226286D02*
X32799286Y-16264381D01*
X32799286Y-16264381D02*
X32808810Y-16283428D01*
X32808810Y-16283428D02*
X32818333Y-16292952D01*
X32818333Y-16292952D02*
X32837381Y-16302476D01*
X32837381Y-16302476D02*
X32875476Y-16302476D01*
X32875476Y-16302476D02*
X32894524Y-16292952D01*
X32894524Y-16292952D02*
X32904048Y-16283428D01*
X32904048Y-16283428D02*
X32913571Y-16264381D01*
X32913571Y-16264381D02*
X32913571Y-16226286D01*
X32913571Y-16226286D02*
X32904048Y-16207238D01*
X32904048Y-16207238D02*
X32894524Y-16197714D01*
X32894524Y-16197714D02*
X32875476Y-16188190D01*
X32989762Y-16121524D02*
X32999286Y-16112000D01*
X32999286Y-16112000D02*
X33018333Y-16102476D01*
X33018333Y-16102476D02*
X33065952Y-16102476D01*
X33065952Y-16102476D02*
X33085000Y-16112000D01*
X33085000Y-16112000D02*
X33094524Y-16121524D01*
X33094524Y-16121524D02*
X33104048Y-16140571D01*
X33104048Y-16140571D02*
X33104048Y-16159619D01*
X33104048Y-16159619D02*
X33094524Y-16188190D01*
X33094524Y-16188190D02*
X32980238Y-16302476D01*
X32980238Y-16302476D02*
X33104048Y-16302476D01*
X33170714Y-16102476D02*
X33304048Y-16102476D01*
X33304048Y-16102476D02*
X33218333Y-16302476D01*
X33370714Y-16102476D02*
X33370714Y-16140571D01*
X33446905Y-16102476D02*
X33446905Y-16140571D01*
X33709762Y-16378667D02*
X33700238Y-16369143D01*
X33700238Y-16369143D02*
X33681191Y-16340571D01*
X33681191Y-16340571D02*
X33671667Y-16321524D01*
X33671667Y-16321524D02*
X33662143Y-16292952D01*
X33662143Y-16292952D02*
X33652619Y-16245333D01*
X33652619Y-16245333D02*
X33652619Y-16207238D01*
X33652619Y-16207238D02*
X33662143Y-16159619D01*
X33662143Y-16159619D02*
X33671667Y-16131048D01*
X33671667Y-16131048D02*
X33681191Y-16112000D01*
X33681191Y-16112000D02*
X33700238Y-16083428D01*
X33700238Y-16083428D02*
X33709762Y-16073905D01*
X33766905Y-16102476D02*
X33890714Y-16102476D01*
X33890714Y-16102476D02*
X33824048Y-16178667D01*
X33824048Y-16178667D02*
X33852619Y-16178667D01*
X33852619Y-16178667D02*
X33871667Y-16188190D01*
X33871667Y-16188190D02*
X33881191Y-16197714D01*
X33881191Y-16197714D02*
X33890714Y-16216762D01*
X33890714Y-16216762D02*
X33890714Y-16264381D01*
X33890714Y-16264381D02*
X33881191Y-16283428D01*
X33881191Y-16283428D02*
X33871667Y-16292952D01*
X33871667Y-16292952D02*
X33852619Y-16302476D01*
X33852619Y-16302476D02*
X33795476Y-16302476D01*
X33795476Y-16302476D02*
X33776429Y-16292952D01*
X33776429Y-16292952D02*
X33766905Y-16283428D01*
X34096429Y-16302476D02*
X34096429Y-16102476D01*
X34182143Y-16302476D02*
X34182143Y-16197714D01*
X34182143Y-16197714D02*
X34172619Y-16178667D01*
X34172619Y-16178667D02*
X34153572Y-16169143D01*
X34153572Y-16169143D02*
X34125000Y-16169143D01*
X34125000Y-16169143D02*
X34105953Y-16178667D01*
X34105953Y-16178667D02*
X34096429Y-16188190D01*
X34305953Y-16302476D02*
X34286905Y-16292952D01*
X34286905Y-16292952D02*
X34277381Y-16283428D01*
X34277381Y-16283428D02*
X34267857Y-16264381D01*
X34267857Y-16264381D02*
X34267857Y-16207238D01*
X34267857Y-16207238D02*
X34277381Y-16188190D01*
X34277381Y-16188190D02*
X34286905Y-16178667D01*
X34286905Y-16178667D02*
X34305953Y-16169143D01*
X34305953Y-16169143D02*
X34334524Y-16169143D01*
X34334524Y-16169143D02*
X34353572Y-16178667D01*
X34353572Y-16178667D02*
X34363095Y-16188190D01*
X34363095Y-16188190D02*
X34372619Y-16207238D01*
X34372619Y-16207238D02*
X34372619Y-16264381D01*
X34372619Y-16264381D02*
X34363095Y-16283428D01*
X34363095Y-16283428D02*
X34353572Y-16292952D01*
X34353572Y-16292952D02*
X34334524Y-16302476D01*
X34334524Y-16302476D02*
X34305953Y-16302476D01*
X34486905Y-16302476D02*
X34467857Y-16292952D01*
X34467857Y-16292952D02*
X34458334Y-16273905D01*
X34458334Y-16273905D02*
X34458334Y-16102476D01*
X34639286Y-16292952D02*
X34620238Y-16302476D01*
X34620238Y-16302476D02*
X34582143Y-16302476D01*
X34582143Y-16302476D02*
X34563095Y-16292952D01*
X34563095Y-16292952D02*
X34553572Y-16273905D01*
X34553572Y-16273905D02*
X34553572Y-16197714D01*
X34553572Y-16197714D02*
X34563095Y-16178667D01*
X34563095Y-16178667D02*
X34582143Y-16169143D01*
X34582143Y-16169143D02*
X34620238Y-16169143D01*
X34620238Y-16169143D02*
X34639286Y-16178667D01*
X34639286Y-16178667D02*
X34648810Y-16197714D01*
X34648810Y-16197714D02*
X34648810Y-16216762D01*
X34648810Y-16216762D02*
X34553572Y-16235809D01*
X34725000Y-16292952D02*
X34744048Y-16302476D01*
X34744048Y-16302476D02*
X34782143Y-16302476D01*
X34782143Y-16302476D02*
X34801191Y-16292952D01*
X34801191Y-16292952D02*
X34810715Y-16273905D01*
X34810715Y-16273905D02*
X34810715Y-16264381D01*
X34810715Y-16264381D02*
X34801191Y-16245333D01*
X34801191Y-16245333D02*
X34782143Y-16235809D01*
X34782143Y-16235809D02*
X34753572Y-16235809D01*
X34753572Y-16235809D02*
X34734524Y-16226286D01*
X34734524Y-16226286D02*
X34725000Y-16207238D01*
X34725000Y-16207238D02*
X34725000Y-16197714D01*
X34725000Y-16197714D02*
X34734524Y-16178667D01*
X34734524Y-16178667D02*
X34753572Y-16169143D01*
X34753572Y-16169143D02*
X34782143Y-16169143D01*
X34782143Y-16169143D02*
X34801191Y-16178667D01*
X34877381Y-16378667D02*
X34886905Y-16369143D01*
X34886905Y-16369143D02*
X34905953Y-16340571D01*
X34905953Y-16340571D02*
X34915476Y-16321524D01*
X34915476Y-16321524D02*
X34925000Y-16292952D01*
X34925000Y-16292952D02*
X34934524Y-16245333D01*
X34934524Y-16245333D02*
X34934524Y-16207238D01*
X34934524Y-16207238D02*
X34925000Y-16159619D01*
X34925000Y-16159619D02*
X34915476Y-16131048D01*
X34915476Y-16131048D02*
X34905953Y-16112000D01*
X34905953Y-16112000D02*
X34886905Y-16083428D01*
X34886905Y-16083428D02*
X34877381Y-16073905D01*
M02*
