M48
; DRILL file {KiCad (7.0.0)} date Sat Mar 18 14:29:43 2023
; FORMAT={-:-/ absolute / metric / decimal}
; #@! TF.CreationDate,2023-03-18T14:29:43-05:00
; #@! TF.GenerationSoftware,Kicad,Pcbnew,(7.0.0)
; #@! TF.FileFunction,Plated,1,2,PTH
FMAT,2
METRIC
; #@! TA.AperFunction,Plated,PTH,ViaDrill
T1C0.400
; #@! TA.AperFunction,Plated,PTH,ComponentDrill
T2C0.800
; #@! TA.AperFunction,Plated,PTH,ComponentDrill
T3C0.850
; #@! TA.AperFunction,Plated,PTH,ComponentDrill
T4C1.000
; #@! TA.AperFunction,Plated,PTH,ComponentDrill
T5C1.016
; #@! TA.AperFunction,Plated,PTH,ComponentDrill
T6C1.100
; #@! TA.AperFunction,Plated,PTH,ComponentDrill
T7C2.100
%
G90
G05
T1
X323.0Y-83.9
X327.0Y-129.5
X337.642Y-55.362
X348.734Y-131.843
X351.7Y-135.4
T2
X305.92Y-91.0
X305.92Y-94.5
X306.42Y-48.5
X306.42Y-55.5
X306.42Y-59.0
X306.42Y-82.0
X307.69Y-39.5
X311.0Y-52.0
X314.04Y-82.0
X315.31Y-39.5
X316.0Y-52.0
X316.08Y-91.0
X316.08Y-94.5
X316.58Y-48.5
X316.58Y-55.5
X316.58Y-59.0
X316.682Y-108.5
X316.818Y-125.0
X319.18Y-86.7
X319.18Y-89.24
X319.18Y-91.78
X319.18Y-94.32
X319.182Y-108.5
X319.318Y-125.0
X319.68Y-44.375
X319.68Y-46.915
X319.68Y-49.455
X319.68Y-51.995
X319.68Y-54.535
X319.68Y-57.075
X319.68Y-59.615
X320.5Y-83.0
X320.5Y-98.0
X325.5Y-83.0
X325.5Y-98.0
X326.8Y-86.7
X326.8Y-89.24
X326.8Y-91.78
X326.8Y-94.32
X327.3Y-44.375
X327.3Y-46.915
X327.3Y-49.455
X327.3Y-51.995
X327.3Y-54.535
X327.3Y-57.075
X327.3Y-59.615
X329.92Y-87.5
X329.92Y-91.0
X329.92Y-94.5
X330.42Y-45.0
X330.42Y-48.5
X330.42Y-55.5
X330.42Y-59.0
X330.42Y-62.5
X330.92Y-77.0
X331.0Y-52.0
X331.19Y-82.0
X331.84Y-128.0
X331.92Y-124.5
X333.0Y-41.5
X336.0Y-52.0
X338.0Y-41.5
X338.81Y-82.0
X340.08Y-87.5
X340.08Y-91.0
X340.08Y-94.5
X340.58Y-45.0
X340.58Y-48.5
X340.58Y-55.5
X340.58Y-59.0
X340.58Y-62.5
X341.08Y-77.0
X342.0Y-128.0
X342.08Y-124.5
X345.18Y-121.7
X345.18Y-124.24
X345.18Y-126.78
X345.18Y-129.32
X345.42Y-103.0
X345.42Y-106.5
X345.42Y-110.0
X345.42Y-113.5
X346.19Y-58.5
X346.19Y-62.5
X346.5Y-118.0
X346.5Y-133.0
X347.86Y-82.46
X347.86Y-85.0
X347.86Y-87.54
X348.0Y-90.5
X348.0Y-93.04
X348.0Y-95.58
X351.5Y-118.0
X351.5Y-133.0
X352.64Y-82.46
X352.64Y-85.0
X352.64Y-87.54
X352.64Y-90.46
X352.64Y-93.0
X352.64Y-95.54
X352.8Y-121.7
X352.8Y-124.24
X352.8Y-126.78
X352.8Y-129.32
X353.81Y-58.5
X353.81Y-62.5
X355.58Y-103.0
X355.58Y-106.5
X355.58Y-110.0
X355.58Y-113.5
X355.92Y-121.0
X355.92Y-124.5
X355.92Y-128.0
X358.92Y-76.5
X359.34Y-95.0
X359.42Y-46.0
X359.42Y-49.5
X359.42Y-53.0
X359.42Y-56.5
X359.42Y-88.0
X360.69Y-42.5
X362.5Y-91.5
X366.08Y-121.0
X366.08Y-124.5
X366.08Y-128.0
X367.5Y-91.5
X368.31Y-42.5
X369.08Y-76.5
X369.5Y-95.0
X369.58Y-46.0
X369.58Y-49.5
X369.58Y-53.0
X369.58Y-56.5
X369.58Y-88.0
X372.18Y-124.7
X372.18Y-127.24
X372.18Y-129.78
X372.18Y-132.32
X372.68Y-45.5
X372.68Y-48.04
X372.68Y-50.58
X372.68Y-53.12
X372.68Y-86.7
X372.68Y-89.24
X372.68Y-91.78
X372.68Y-94.32
X373.5Y-121.0
X373.5Y-136.0
X374.0Y-41.5
X374.0Y-83.0
X374.0Y-98.0
X378.5Y-121.0
X378.5Y-136.0
X379.0Y-41.5
X379.0Y-83.0
X379.0Y-98.0
X379.8Y-124.7
X379.8Y-127.24
X379.8Y-129.78
X379.8Y-132.32
X380.3Y-45.5
X380.3Y-48.04
X380.3Y-50.58
X380.3Y-53.12
X380.3Y-86.7
X380.3Y-89.24
X380.3Y-91.78
X380.3Y-94.32
X383.34Y-88.0
X383.34Y-115.5
X383.34Y-119.0
X383.34Y-122.5
X383.34Y-126.0
X383.34Y-129.5
X383.34Y-133.0
X383.42Y-46.0
X383.42Y-49.5
X383.42Y-53.0
X383.42Y-56.5
X383.42Y-136.5
X384.99Y-42.5
X392.61Y-42.5
X393.5Y-88.0
X393.5Y-115.5
X393.5Y-119.0
X393.5Y-122.5
X393.5Y-126.0
X393.5Y-129.5
X393.5Y-133.0
X393.58Y-46.0
X393.58Y-49.5
X393.58Y-53.0
X393.58Y-56.5
X393.58Y-136.5
T3
X305.0Y-101.5
X305.5Y-132.5
X315.0Y-101.5
X315.5Y-132.5
T4
X317.5Y-77.5
X320.0Y-77.5
X322.5Y-77.5
X327.5Y-37.5
X327.5Y-117.5
X330.0Y-37.5
X330.0Y-117.5
X332.5Y-37.5
X332.5Y-117.5
X336.05Y-137.525
X338.59Y-137.525
X341.13Y-137.525
X343.67Y-137.525
X346.21Y-137.525
X347.5Y-77.5
X348.75Y-137.525
X350.0Y-77.5
X351.29Y-137.525
X352.5Y-77.5
X353.83Y-137.525
X356.37Y-137.525
X358.91Y-137.525
X361.45Y-137.525
X363.99Y-137.525
X367.5Y-37.5
X367.5Y-117.5
X370.0Y-37.5
X370.0Y-117.5
X372.5Y-37.5
X372.5Y-117.5
X377.5Y-77.5
X380.0Y-77.5
X382.5Y-77.5
T5
X308.0Y-111.92
X308.0Y-114.46
X308.0Y-117.0
X308.0Y-119.54
X308.0Y-122.08
X310.54Y-111.92
X310.54Y-114.46
X310.54Y-117.0
X310.54Y-119.54
X310.54Y-122.08
T6
X306.42Y-45.0
X306.42Y-62.5
X316.58Y-45.0
X316.58Y-62.5
X328.92Y-98.5
X328.92Y-102.5
X339.08Y-98.5
X339.08Y-102.5
X359.34Y-98.5
X369.5Y-98.5
T7
X350.0Y-45.3
X350.0Y-50.0
X350.0Y-54.7
T6
X315.2Y-70.35G85X315.2Y-69.65
G05
X324.8Y-70.35G85X324.8Y-69.65
G05
X325.2Y-30.35G85X325.2Y-29.65
G05
X325.2Y-110.35G85X325.2Y-109.65
G05
X334.8Y-30.35G85X334.8Y-29.65
G05
X334.8Y-110.35G85X334.8Y-109.65
G05
X345.2Y-70.35G85X345.2Y-69.65
G05
X354.8Y-70.35G85X354.8Y-69.65
G05
X365.2Y-30.35G85X365.2Y-29.65
G05
X365.2Y-110.35G85X365.2Y-109.65
G05
X374.8Y-30.35G85X374.8Y-29.65
G05
X374.8Y-110.35G85X374.8Y-109.65
G05
X375.2Y-70.35G85X375.2Y-69.65
G05
X384.8Y-70.35G85X384.8Y-69.65
G05
T0
M30
