%TF.GenerationSoftware,KiCad,Pcbnew,(7.0.0)*%
%TF.CreationDate,2023-03-06T21:19:22-06:00*%
%TF.ProjectId,SlopesPanel,536c6f70-6573-4506-916e-656c2e6b6963,rev?*%
%TF.SameCoordinates,Original*%
%TF.FileFunction,Drillmap*%
%TF.FilePolarity,Positive*%
%FSLAX45Y45*%
G04 Gerber Fmt 4.5, Leading zero omitted, Abs format (unit mm)*
G04 Created by KiCad (PCBNEW (7.0.0)) date 2023-03-06 21:19:22*
%MOMM*%
%LPD*%
G01*
G04 APERTURE LIST*
%ADD10C,0.100000*%
%ADD11C,0.200000*%
%ADD12C,0.500000*%
G04 APERTURE END LIST*
D10*
X30000000Y0D02*
X40000000Y0D01*
X40000000Y0D02*
X40000000Y-20000000D01*
X40000000Y-20000000D02*
X30000000Y-20000000D01*
X30000000Y-20000000D02*
X30000000Y0D01*
D11*
D12*
X34000000Y-16000000D02*
X34500000Y-16500000D01*
X34500000Y-16000000D02*
X34000000Y-16500000D01*
X36500000Y-16000000D02*
X37000000Y-16500000D01*
X37000000Y-16000000D02*
X36500000Y-16500000D01*
X39000000Y-16000000D02*
X39500000Y-16500000D01*
X39500000Y-16000000D02*
X39000000Y-16500000D01*
D11*
X30242619Y-20298476D02*
X30242619Y-20098476D01*
X30242619Y-20098476D02*
X30290238Y-20098476D01*
X30290238Y-20098476D02*
X30318809Y-20108000D01*
X30318809Y-20108000D02*
X30337857Y-20127048D01*
X30337857Y-20127048D02*
X30347381Y-20146095D01*
X30347381Y-20146095D02*
X30356905Y-20184190D01*
X30356905Y-20184190D02*
X30356905Y-20212762D01*
X30356905Y-20212762D02*
X30347381Y-20250857D01*
X30347381Y-20250857D02*
X30337857Y-20269905D01*
X30337857Y-20269905D02*
X30318809Y-20288952D01*
X30318809Y-20288952D02*
X30290238Y-20298476D01*
X30290238Y-20298476D02*
X30242619Y-20298476D01*
X30442619Y-20298476D02*
X30442619Y-20165143D01*
X30442619Y-20203238D02*
X30452143Y-20184190D01*
X30452143Y-20184190D02*
X30461667Y-20174667D01*
X30461667Y-20174667D02*
X30480714Y-20165143D01*
X30480714Y-20165143D02*
X30499762Y-20165143D01*
X30566428Y-20298476D02*
X30566428Y-20165143D01*
X30566428Y-20098476D02*
X30556905Y-20108000D01*
X30556905Y-20108000D02*
X30566428Y-20117524D01*
X30566428Y-20117524D02*
X30575952Y-20108000D01*
X30575952Y-20108000D02*
X30566428Y-20098476D01*
X30566428Y-20098476D02*
X30566428Y-20117524D01*
X30690238Y-20298476D02*
X30671190Y-20288952D01*
X30671190Y-20288952D02*
X30661667Y-20269905D01*
X30661667Y-20269905D02*
X30661667Y-20098476D01*
X30795000Y-20298476D02*
X30775952Y-20288952D01*
X30775952Y-20288952D02*
X30766428Y-20269905D01*
X30766428Y-20269905D02*
X30766428Y-20098476D01*
X30991190Y-20298476D02*
X30991190Y-20098476D01*
X30991190Y-20098476D02*
X31057857Y-20241333D01*
X31057857Y-20241333D02*
X31124524Y-20098476D01*
X31124524Y-20098476D02*
X31124524Y-20298476D01*
X31305476Y-20298476D02*
X31305476Y-20193714D01*
X31305476Y-20193714D02*
X31295952Y-20174667D01*
X31295952Y-20174667D02*
X31276905Y-20165143D01*
X31276905Y-20165143D02*
X31238809Y-20165143D01*
X31238809Y-20165143D02*
X31219762Y-20174667D01*
X31305476Y-20288952D02*
X31286428Y-20298476D01*
X31286428Y-20298476D02*
X31238809Y-20298476D01*
X31238809Y-20298476D02*
X31219762Y-20288952D01*
X31219762Y-20288952D02*
X31210238Y-20269905D01*
X31210238Y-20269905D02*
X31210238Y-20250857D01*
X31210238Y-20250857D02*
X31219762Y-20231810D01*
X31219762Y-20231810D02*
X31238809Y-20222286D01*
X31238809Y-20222286D02*
X31286428Y-20222286D01*
X31286428Y-20222286D02*
X31305476Y-20212762D01*
X31400714Y-20165143D02*
X31400714Y-20365143D01*
X31400714Y-20174667D02*
X31419762Y-20165143D01*
X31419762Y-20165143D02*
X31457857Y-20165143D01*
X31457857Y-20165143D02*
X31476905Y-20174667D01*
X31476905Y-20174667D02*
X31486428Y-20184190D01*
X31486428Y-20184190D02*
X31495952Y-20203238D01*
X31495952Y-20203238D02*
X31495952Y-20260381D01*
X31495952Y-20260381D02*
X31486428Y-20279429D01*
X31486428Y-20279429D02*
X31476905Y-20288952D01*
X31476905Y-20288952D02*
X31457857Y-20298476D01*
X31457857Y-20298476D02*
X31419762Y-20298476D01*
X31419762Y-20298476D02*
X31400714Y-20288952D01*
X31581667Y-20279429D02*
X31591190Y-20288952D01*
X31591190Y-20288952D02*
X31581667Y-20298476D01*
X31581667Y-20298476D02*
X31572143Y-20288952D01*
X31572143Y-20288952D02*
X31581667Y-20279429D01*
X31581667Y-20279429D02*
X31581667Y-20298476D01*
X31581667Y-20174667D02*
X31591190Y-20184190D01*
X31591190Y-20184190D02*
X31581667Y-20193714D01*
X31581667Y-20193714D02*
X31572143Y-20184190D01*
X31572143Y-20184190D02*
X31581667Y-20174667D01*
X31581667Y-20174667D02*
X31581667Y-20193714D01*
X29795000Y-20545000D02*
X29995000Y-20745000D01*
X29995000Y-20545000D02*
X29795000Y-20745000D01*
X30337857Y-20518476D02*
X30242619Y-20518476D01*
X30242619Y-20518476D02*
X30233095Y-20613714D01*
X30233095Y-20613714D02*
X30242619Y-20604190D01*
X30242619Y-20604190D02*
X30261667Y-20594667D01*
X30261667Y-20594667D02*
X30309286Y-20594667D01*
X30309286Y-20594667D02*
X30328333Y-20604190D01*
X30328333Y-20604190D02*
X30337857Y-20613714D01*
X30337857Y-20613714D02*
X30347381Y-20632762D01*
X30347381Y-20632762D02*
X30347381Y-20680381D01*
X30347381Y-20680381D02*
X30337857Y-20699429D01*
X30337857Y-20699429D02*
X30328333Y-20708952D01*
X30328333Y-20708952D02*
X30309286Y-20718476D01*
X30309286Y-20718476D02*
X30261667Y-20718476D01*
X30261667Y-20718476D02*
X30242619Y-20708952D01*
X30242619Y-20708952D02*
X30233095Y-20699429D01*
X30433095Y-20699429D02*
X30442619Y-20708952D01*
X30442619Y-20708952D02*
X30433095Y-20718476D01*
X30433095Y-20718476D02*
X30423571Y-20708952D01*
X30423571Y-20708952D02*
X30433095Y-20699429D01*
X30433095Y-20699429D02*
X30433095Y-20718476D01*
X30566428Y-20518476D02*
X30585476Y-20518476D01*
X30585476Y-20518476D02*
X30604524Y-20528000D01*
X30604524Y-20528000D02*
X30614048Y-20537524D01*
X30614048Y-20537524D02*
X30623571Y-20556571D01*
X30623571Y-20556571D02*
X30633095Y-20594667D01*
X30633095Y-20594667D02*
X30633095Y-20642286D01*
X30633095Y-20642286D02*
X30623571Y-20680381D01*
X30623571Y-20680381D02*
X30614048Y-20699429D01*
X30614048Y-20699429D02*
X30604524Y-20708952D01*
X30604524Y-20708952D02*
X30585476Y-20718476D01*
X30585476Y-20718476D02*
X30566428Y-20718476D01*
X30566428Y-20718476D02*
X30547381Y-20708952D01*
X30547381Y-20708952D02*
X30537857Y-20699429D01*
X30537857Y-20699429D02*
X30528333Y-20680381D01*
X30528333Y-20680381D02*
X30518809Y-20642286D01*
X30518809Y-20642286D02*
X30518809Y-20594667D01*
X30518809Y-20594667D02*
X30528333Y-20556571D01*
X30528333Y-20556571D02*
X30537857Y-20537524D01*
X30537857Y-20537524D02*
X30547381Y-20528000D01*
X30547381Y-20528000D02*
X30566428Y-20518476D01*
X30756905Y-20518476D02*
X30775952Y-20518476D01*
X30775952Y-20518476D02*
X30795000Y-20528000D01*
X30795000Y-20528000D02*
X30804524Y-20537524D01*
X30804524Y-20537524D02*
X30814048Y-20556571D01*
X30814048Y-20556571D02*
X30823571Y-20594667D01*
X30823571Y-20594667D02*
X30823571Y-20642286D01*
X30823571Y-20642286D02*
X30814048Y-20680381D01*
X30814048Y-20680381D02*
X30804524Y-20699429D01*
X30804524Y-20699429D02*
X30795000Y-20708952D01*
X30795000Y-20708952D02*
X30775952Y-20718476D01*
X30775952Y-20718476D02*
X30756905Y-20718476D01*
X30756905Y-20718476D02*
X30737857Y-20708952D01*
X30737857Y-20708952D02*
X30728333Y-20699429D01*
X30728333Y-20699429D02*
X30718809Y-20680381D01*
X30718809Y-20680381D02*
X30709286Y-20642286D01*
X30709286Y-20642286D02*
X30709286Y-20594667D01*
X30709286Y-20594667D02*
X30718809Y-20556571D01*
X30718809Y-20556571D02*
X30728333Y-20537524D01*
X30728333Y-20537524D02*
X30737857Y-20528000D01*
X30737857Y-20528000D02*
X30756905Y-20518476D01*
X30947381Y-20518476D02*
X30966429Y-20518476D01*
X30966429Y-20518476D02*
X30985476Y-20528000D01*
X30985476Y-20528000D02*
X30995000Y-20537524D01*
X30995000Y-20537524D02*
X31004524Y-20556571D01*
X31004524Y-20556571D02*
X31014048Y-20594667D01*
X31014048Y-20594667D02*
X31014048Y-20642286D01*
X31014048Y-20642286D02*
X31004524Y-20680381D01*
X31004524Y-20680381D02*
X30995000Y-20699429D01*
X30995000Y-20699429D02*
X30985476Y-20708952D01*
X30985476Y-20708952D02*
X30966429Y-20718476D01*
X30966429Y-20718476D02*
X30947381Y-20718476D01*
X30947381Y-20718476D02*
X30928333Y-20708952D01*
X30928333Y-20708952D02*
X30918809Y-20699429D01*
X30918809Y-20699429D02*
X30909286Y-20680381D01*
X30909286Y-20680381D02*
X30899762Y-20642286D01*
X30899762Y-20642286D02*
X30899762Y-20594667D01*
X30899762Y-20594667D02*
X30909286Y-20556571D01*
X30909286Y-20556571D02*
X30918809Y-20537524D01*
X30918809Y-20537524D02*
X30928333Y-20528000D01*
X30928333Y-20528000D02*
X30947381Y-20518476D01*
X31099762Y-20718476D02*
X31099762Y-20585143D01*
X31099762Y-20604190D02*
X31109286Y-20594667D01*
X31109286Y-20594667D02*
X31128333Y-20585143D01*
X31128333Y-20585143D02*
X31156905Y-20585143D01*
X31156905Y-20585143D02*
X31175952Y-20594667D01*
X31175952Y-20594667D02*
X31185476Y-20613714D01*
X31185476Y-20613714D02*
X31185476Y-20718476D01*
X31185476Y-20613714D02*
X31195000Y-20594667D01*
X31195000Y-20594667D02*
X31214048Y-20585143D01*
X31214048Y-20585143D02*
X31242619Y-20585143D01*
X31242619Y-20585143D02*
X31261667Y-20594667D01*
X31261667Y-20594667D02*
X31271190Y-20613714D01*
X31271190Y-20613714D02*
X31271190Y-20718476D01*
X31366429Y-20718476D02*
X31366429Y-20585143D01*
X31366429Y-20604190D02*
X31375952Y-20594667D01*
X31375952Y-20594667D02*
X31395000Y-20585143D01*
X31395000Y-20585143D02*
X31423571Y-20585143D01*
X31423571Y-20585143D02*
X31442619Y-20594667D01*
X31442619Y-20594667D02*
X31452143Y-20613714D01*
X31452143Y-20613714D02*
X31452143Y-20718476D01*
X31452143Y-20613714D02*
X31461667Y-20594667D01*
X31461667Y-20594667D02*
X31480714Y-20585143D01*
X31480714Y-20585143D02*
X31509286Y-20585143D01*
X31509286Y-20585143D02*
X31528333Y-20594667D01*
X31528333Y-20594667D02*
X31537857Y-20613714D01*
X31537857Y-20613714D02*
X31537857Y-20718476D01*
X31895952Y-20508952D02*
X31724524Y-20766095D01*
X32120714Y-20518476D02*
X32139762Y-20518476D01*
X32139762Y-20518476D02*
X32158810Y-20528000D01*
X32158810Y-20528000D02*
X32168333Y-20537524D01*
X32168333Y-20537524D02*
X32177857Y-20556571D01*
X32177857Y-20556571D02*
X32187381Y-20594667D01*
X32187381Y-20594667D02*
X32187381Y-20642286D01*
X32187381Y-20642286D02*
X32177857Y-20680381D01*
X32177857Y-20680381D02*
X32168333Y-20699429D01*
X32168333Y-20699429D02*
X32158810Y-20708952D01*
X32158810Y-20708952D02*
X32139762Y-20718476D01*
X32139762Y-20718476D02*
X32120714Y-20718476D01*
X32120714Y-20718476D02*
X32101667Y-20708952D01*
X32101667Y-20708952D02*
X32092143Y-20699429D01*
X32092143Y-20699429D02*
X32082619Y-20680381D01*
X32082619Y-20680381D02*
X32073095Y-20642286D01*
X32073095Y-20642286D02*
X32073095Y-20594667D01*
X32073095Y-20594667D02*
X32082619Y-20556571D01*
X32082619Y-20556571D02*
X32092143Y-20537524D01*
X32092143Y-20537524D02*
X32101667Y-20528000D01*
X32101667Y-20528000D02*
X32120714Y-20518476D01*
X32273095Y-20699429D02*
X32282619Y-20708952D01*
X32282619Y-20708952D02*
X32273095Y-20718476D01*
X32273095Y-20718476D02*
X32263571Y-20708952D01*
X32263571Y-20708952D02*
X32273095Y-20699429D01*
X32273095Y-20699429D02*
X32273095Y-20718476D01*
X32473095Y-20718476D02*
X32358810Y-20718476D01*
X32415952Y-20718476D02*
X32415952Y-20518476D01*
X32415952Y-20518476D02*
X32396905Y-20547048D01*
X32396905Y-20547048D02*
X32377857Y-20566095D01*
X32377857Y-20566095D02*
X32358810Y-20575619D01*
X32568333Y-20718476D02*
X32606429Y-20718476D01*
X32606429Y-20718476D02*
X32625476Y-20708952D01*
X32625476Y-20708952D02*
X32635000Y-20699429D01*
X32635000Y-20699429D02*
X32654048Y-20670857D01*
X32654048Y-20670857D02*
X32663571Y-20632762D01*
X32663571Y-20632762D02*
X32663571Y-20556571D01*
X32663571Y-20556571D02*
X32654048Y-20537524D01*
X32654048Y-20537524D02*
X32644524Y-20528000D01*
X32644524Y-20528000D02*
X32625476Y-20518476D01*
X32625476Y-20518476D02*
X32587381Y-20518476D01*
X32587381Y-20518476D02*
X32568333Y-20528000D01*
X32568333Y-20528000D02*
X32558810Y-20537524D01*
X32558810Y-20537524D02*
X32549286Y-20556571D01*
X32549286Y-20556571D02*
X32549286Y-20604190D01*
X32549286Y-20604190D02*
X32558810Y-20623238D01*
X32558810Y-20623238D02*
X32568333Y-20632762D01*
X32568333Y-20632762D02*
X32587381Y-20642286D01*
X32587381Y-20642286D02*
X32625476Y-20642286D01*
X32625476Y-20642286D02*
X32644524Y-20632762D01*
X32644524Y-20632762D02*
X32654048Y-20623238D01*
X32654048Y-20623238D02*
X32663571Y-20604190D01*
X32835000Y-20518476D02*
X32796905Y-20518476D01*
X32796905Y-20518476D02*
X32777857Y-20528000D01*
X32777857Y-20528000D02*
X32768333Y-20537524D01*
X32768333Y-20537524D02*
X32749286Y-20566095D01*
X32749286Y-20566095D02*
X32739762Y-20604190D01*
X32739762Y-20604190D02*
X32739762Y-20680381D01*
X32739762Y-20680381D02*
X32749286Y-20699429D01*
X32749286Y-20699429D02*
X32758810Y-20708952D01*
X32758810Y-20708952D02*
X32777857Y-20718476D01*
X32777857Y-20718476D02*
X32815952Y-20718476D01*
X32815952Y-20718476D02*
X32835000Y-20708952D01*
X32835000Y-20708952D02*
X32844524Y-20699429D01*
X32844524Y-20699429D02*
X32854048Y-20680381D01*
X32854048Y-20680381D02*
X32854048Y-20632762D01*
X32854048Y-20632762D02*
X32844524Y-20613714D01*
X32844524Y-20613714D02*
X32835000Y-20604190D01*
X32835000Y-20604190D02*
X32815952Y-20594667D01*
X32815952Y-20594667D02*
X32777857Y-20594667D01*
X32777857Y-20594667D02*
X32758810Y-20604190D01*
X32758810Y-20604190D02*
X32749286Y-20613714D01*
X32749286Y-20613714D02*
X32739762Y-20632762D01*
X32949286Y-20718476D02*
X32987381Y-20718476D01*
X32987381Y-20718476D02*
X33006429Y-20708952D01*
X33006429Y-20708952D02*
X33015952Y-20699429D01*
X33015952Y-20699429D02*
X33035000Y-20670857D01*
X33035000Y-20670857D02*
X33044524Y-20632762D01*
X33044524Y-20632762D02*
X33044524Y-20556571D01*
X33044524Y-20556571D02*
X33035000Y-20537524D01*
X33035000Y-20537524D02*
X33025476Y-20528000D01*
X33025476Y-20528000D02*
X33006429Y-20518476D01*
X33006429Y-20518476D02*
X32968333Y-20518476D01*
X32968333Y-20518476D02*
X32949286Y-20528000D01*
X32949286Y-20528000D02*
X32939762Y-20537524D01*
X32939762Y-20537524D02*
X32930238Y-20556571D01*
X32930238Y-20556571D02*
X32930238Y-20604190D01*
X32930238Y-20604190D02*
X32939762Y-20623238D01*
X32939762Y-20623238D02*
X32949286Y-20632762D01*
X32949286Y-20632762D02*
X32968333Y-20642286D01*
X32968333Y-20642286D02*
X33006429Y-20642286D01*
X33006429Y-20642286D02*
X33025476Y-20632762D01*
X33025476Y-20632762D02*
X33035000Y-20623238D01*
X33035000Y-20623238D02*
X33044524Y-20604190D01*
X33120714Y-20518476D02*
X33120714Y-20556571D01*
X33196905Y-20518476D02*
X33196905Y-20556571D01*
X33459762Y-20794667D02*
X33450238Y-20785143D01*
X33450238Y-20785143D02*
X33431191Y-20756571D01*
X33431191Y-20756571D02*
X33421667Y-20737524D01*
X33421667Y-20737524D02*
X33412143Y-20708952D01*
X33412143Y-20708952D02*
X33402619Y-20661333D01*
X33402619Y-20661333D02*
X33402619Y-20623238D01*
X33402619Y-20623238D02*
X33412143Y-20575619D01*
X33412143Y-20575619D02*
X33421667Y-20547048D01*
X33421667Y-20547048D02*
X33431191Y-20528000D01*
X33431191Y-20528000D02*
X33450238Y-20499429D01*
X33450238Y-20499429D02*
X33459762Y-20489905D01*
X33516905Y-20518476D02*
X33640714Y-20518476D01*
X33640714Y-20518476D02*
X33574048Y-20594667D01*
X33574048Y-20594667D02*
X33602619Y-20594667D01*
X33602619Y-20594667D02*
X33621667Y-20604190D01*
X33621667Y-20604190D02*
X33631191Y-20613714D01*
X33631191Y-20613714D02*
X33640714Y-20632762D01*
X33640714Y-20632762D02*
X33640714Y-20680381D01*
X33640714Y-20680381D02*
X33631191Y-20699429D01*
X33631191Y-20699429D02*
X33621667Y-20708952D01*
X33621667Y-20708952D02*
X33602619Y-20718476D01*
X33602619Y-20718476D02*
X33545476Y-20718476D01*
X33545476Y-20718476D02*
X33526429Y-20708952D01*
X33526429Y-20708952D02*
X33516905Y-20699429D01*
X33846429Y-20718476D02*
X33846429Y-20518476D01*
X33932143Y-20718476D02*
X33932143Y-20613714D01*
X33932143Y-20613714D02*
X33922619Y-20594667D01*
X33922619Y-20594667D02*
X33903572Y-20585143D01*
X33903572Y-20585143D02*
X33875000Y-20585143D01*
X33875000Y-20585143D02*
X33855953Y-20594667D01*
X33855953Y-20594667D02*
X33846429Y-20604190D01*
X34055953Y-20718476D02*
X34036905Y-20708952D01*
X34036905Y-20708952D02*
X34027381Y-20699429D01*
X34027381Y-20699429D02*
X34017857Y-20680381D01*
X34017857Y-20680381D02*
X34017857Y-20623238D01*
X34017857Y-20623238D02*
X34027381Y-20604190D01*
X34027381Y-20604190D02*
X34036905Y-20594667D01*
X34036905Y-20594667D02*
X34055953Y-20585143D01*
X34055953Y-20585143D02*
X34084524Y-20585143D01*
X34084524Y-20585143D02*
X34103572Y-20594667D01*
X34103572Y-20594667D02*
X34113095Y-20604190D01*
X34113095Y-20604190D02*
X34122619Y-20623238D01*
X34122619Y-20623238D02*
X34122619Y-20680381D01*
X34122619Y-20680381D02*
X34113095Y-20699429D01*
X34113095Y-20699429D02*
X34103572Y-20708952D01*
X34103572Y-20708952D02*
X34084524Y-20718476D01*
X34084524Y-20718476D02*
X34055953Y-20718476D01*
X34236905Y-20718476D02*
X34217857Y-20708952D01*
X34217857Y-20708952D02*
X34208334Y-20689905D01*
X34208334Y-20689905D02*
X34208334Y-20518476D01*
X34389286Y-20708952D02*
X34370238Y-20718476D01*
X34370238Y-20718476D02*
X34332143Y-20718476D01*
X34332143Y-20718476D02*
X34313095Y-20708952D01*
X34313095Y-20708952D02*
X34303572Y-20689905D01*
X34303572Y-20689905D02*
X34303572Y-20613714D01*
X34303572Y-20613714D02*
X34313095Y-20594667D01*
X34313095Y-20594667D02*
X34332143Y-20585143D01*
X34332143Y-20585143D02*
X34370238Y-20585143D01*
X34370238Y-20585143D02*
X34389286Y-20594667D01*
X34389286Y-20594667D02*
X34398810Y-20613714D01*
X34398810Y-20613714D02*
X34398810Y-20632762D01*
X34398810Y-20632762D02*
X34303572Y-20651810D01*
X34475000Y-20708952D02*
X34494048Y-20718476D01*
X34494048Y-20718476D02*
X34532143Y-20718476D01*
X34532143Y-20718476D02*
X34551191Y-20708952D01*
X34551191Y-20708952D02*
X34560715Y-20689905D01*
X34560715Y-20689905D02*
X34560715Y-20680381D01*
X34560715Y-20680381D02*
X34551191Y-20661333D01*
X34551191Y-20661333D02*
X34532143Y-20651810D01*
X34532143Y-20651810D02*
X34503572Y-20651810D01*
X34503572Y-20651810D02*
X34484524Y-20642286D01*
X34484524Y-20642286D02*
X34475000Y-20623238D01*
X34475000Y-20623238D02*
X34475000Y-20613714D01*
X34475000Y-20613714D02*
X34484524Y-20594667D01*
X34484524Y-20594667D02*
X34503572Y-20585143D01*
X34503572Y-20585143D02*
X34532143Y-20585143D01*
X34532143Y-20585143D02*
X34551191Y-20594667D01*
X34627381Y-20794667D02*
X34636905Y-20785143D01*
X34636905Y-20785143D02*
X34655953Y-20756571D01*
X34655953Y-20756571D02*
X34665476Y-20737524D01*
X34665476Y-20737524D02*
X34675000Y-20708952D01*
X34675000Y-20708952D02*
X34684524Y-20661333D01*
X34684524Y-20661333D02*
X34684524Y-20623238D01*
X34684524Y-20623238D02*
X34675000Y-20575619D01*
X34675000Y-20575619D02*
X34665476Y-20547048D01*
X34665476Y-20547048D02*
X34655953Y-20528000D01*
X34655953Y-20528000D02*
X34636905Y-20499429D01*
X34636905Y-20499429D02*
X34627381Y-20489905D01*
X34956905Y-20794667D02*
X34947381Y-20785143D01*
X34947381Y-20785143D02*
X34928334Y-20756571D01*
X34928334Y-20756571D02*
X34918810Y-20737524D01*
X34918810Y-20737524D02*
X34909286Y-20708952D01*
X34909286Y-20708952D02*
X34899762Y-20661333D01*
X34899762Y-20661333D02*
X34899762Y-20623238D01*
X34899762Y-20623238D02*
X34909286Y-20575619D01*
X34909286Y-20575619D02*
X34918810Y-20547048D01*
X34918810Y-20547048D02*
X34928334Y-20528000D01*
X34928334Y-20528000D02*
X34947381Y-20499429D01*
X34947381Y-20499429D02*
X34956905Y-20489905D01*
X35033095Y-20585143D02*
X35033095Y-20718476D01*
X35033095Y-20604190D02*
X35042619Y-20594667D01*
X35042619Y-20594667D02*
X35061667Y-20585143D01*
X35061667Y-20585143D02*
X35090238Y-20585143D01*
X35090238Y-20585143D02*
X35109286Y-20594667D01*
X35109286Y-20594667D02*
X35118810Y-20613714D01*
X35118810Y-20613714D02*
X35118810Y-20718476D01*
X35242619Y-20718476D02*
X35223572Y-20708952D01*
X35223572Y-20708952D02*
X35214048Y-20699429D01*
X35214048Y-20699429D02*
X35204524Y-20680381D01*
X35204524Y-20680381D02*
X35204524Y-20623238D01*
X35204524Y-20623238D02*
X35214048Y-20604190D01*
X35214048Y-20604190D02*
X35223572Y-20594667D01*
X35223572Y-20594667D02*
X35242619Y-20585143D01*
X35242619Y-20585143D02*
X35271191Y-20585143D01*
X35271191Y-20585143D02*
X35290238Y-20594667D01*
X35290238Y-20594667D02*
X35299762Y-20604190D01*
X35299762Y-20604190D02*
X35309286Y-20623238D01*
X35309286Y-20623238D02*
X35309286Y-20680381D01*
X35309286Y-20680381D02*
X35299762Y-20699429D01*
X35299762Y-20699429D02*
X35290238Y-20708952D01*
X35290238Y-20708952D02*
X35271191Y-20718476D01*
X35271191Y-20718476D02*
X35242619Y-20718476D01*
X35366429Y-20585143D02*
X35442619Y-20585143D01*
X35395000Y-20518476D02*
X35395000Y-20689905D01*
X35395000Y-20689905D02*
X35404524Y-20708952D01*
X35404524Y-20708952D02*
X35423572Y-20718476D01*
X35423572Y-20718476D02*
X35442619Y-20718476D01*
X35629286Y-20585143D02*
X35629286Y-20785143D01*
X35629286Y-20594667D02*
X35648334Y-20585143D01*
X35648334Y-20585143D02*
X35686429Y-20585143D01*
X35686429Y-20585143D02*
X35705476Y-20594667D01*
X35705476Y-20594667D02*
X35715000Y-20604190D01*
X35715000Y-20604190D02*
X35724524Y-20623238D01*
X35724524Y-20623238D02*
X35724524Y-20680381D01*
X35724524Y-20680381D02*
X35715000Y-20699429D01*
X35715000Y-20699429D02*
X35705476Y-20708952D01*
X35705476Y-20708952D02*
X35686429Y-20718476D01*
X35686429Y-20718476D02*
X35648334Y-20718476D01*
X35648334Y-20718476D02*
X35629286Y-20708952D01*
X35838810Y-20718476D02*
X35819762Y-20708952D01*
X35819762Y-20708952D02*
X35810238Y-20689905D01*
X35810238Y-20689905D02*
X35810238Y-20518476D01*
X36000715Y-20718476D02*
X36000715Y-20613714D01*
X36000715Y-20613714D02*
X35991191Y-20594667D01*
X35991191Y-20594667D02*
X35972143Y-20585143D01*
X35972143Y-20585143D02*
X35934048Y-20585143D01*
X35934048Y-20585143D02*
X35915000Y-20594667D01*
X36000715Y-20708952D02*
X35981667Y-20718476D01*
X35981667Y-20718476D02*
X35934048Y-20718476D01*
X35934048Y-20718476D02*
X35915000Y-20708952D01*
X35915000Y-20708952D02*
X35905476Y-20689905D01*
X35905476Y-20689905D02*
X35905476Y-20670857D01*
X35905476Y-20670857D02*
X35915000Y-20651810D01*
X35915000Y-20651810D02*
X35934048Y-20642286D01*
X35934048Y-20642286D02*
X35981667Y-20642286D01*
X35981667Y-20642286D02*
X36000715Y-20632762D01*
X36067381Y-20585143D02*
X36143572Y-20585143D01*
X36095953Y-20518476D02*
X36095953Y-20689905D01*
X36095953Y-20689905D02*
X36105476Y-20708952D01*
X36105476Y-20708952D02*
X36124524Y-20718476D01*
X36124524Y-20718476D02*
X36143572Y-20718476D01*
X36286429Y-20708952D02*
X36267381Y-20718476D01*
X36267381Y-20718476D02*
X36229286Y-20718476D01*
X36229286Y-20718476D02*
X36210238Y-20708952D01*
X36210238Y-20708952D02*
X36200715Y-20689905D01*
X36200715Y-20689905D02*
X36200715Y-20613714D01*
X36200715Y-20613714D02*
X36210238Y-20594667D01*
X36210238Y-20594667D02*
X36229286Y-20585143D01*
X36229286Y-20585143D02*
X36267381Y-20585143D01*
X36267381Y-20585143D02*
X36286429Y-20594667D01*
X36286429Y-20594667D02*
X36295953Y-20613714D01*
X36295953Y-20613714D02*
X36295953Y-20632762D01*
X36295953Y-20632762D02*
X36200715Y-20651810D01*
X36467381Y-20718476D02*
X36467381Y-20518476D01*
X36467381Y-20708952D02*
X36448334Y-20718476D01*
X36448334Y-20718476D02*
X36410238Y-20718476D01*
X36410238Y-20718476D02*
X36391191Y-20708952D01*
X36391191Y-20708952D02*
X36381667Y-20699429D01*
X36381667Y-20699429D02*
X36372143Y-20680381D01*
X36372143Y-20680381D02*
X36372143Y-20623238D01*
X36372143Y-20623238D02*
X36381667Y-20604190D01*
X36381667Y-20604190D02*
X36391191Y-20594667D01*
X36391191Y-20594667D02*
X36410238Y-20585143D01*
X36410238Y-20585143D02*
X36448334Y-20585143D01*
X36448334Y-20585143D02*
X36467381Y-20594667D01*
X36543572Y-20794667D02*
X36553096Y-20785143D01*
X36553096Y-20785143D02*
X36572143Y-20756571D01*
X36572143Y-20756571D02*
X36581667Y-20737524D01*
X36581667Y-20737524D02*
X36591191Y-20708952D01*
X36591191Y-20708952D02*
X36600715Y-20661333D01*
X36600715Y-20661333D02*
X36600715Y-20623238D01*
X36600715Y-20623238D02*
X36591191Y-20575619D01*
X36591191Y-20575619D02*
X36581667Y-20547048D01*
X36581667Y-20547048D02*
X36572143Y-20528000D01*
X36572143Y-20528000D02*
X36553096Y-20499429D01*
X36553096Y-20499429D02*
X36543572Y-20489905D01*
M02*
