M48
; DRILL file {KiCad (7.0.0)} date Mon Mar  6 21:19:20 2023
; FORMAT={-:-/ absolute / metric / decimal}
; #@! TF.CreationDate,2023-03-06T21:19:20-06:00
; #@! TF.GenerationSoftware,Kicad,Pcbnew,(7.0.0)
; #@! TF.FileFunction,Plated,1,2,PTH
FMAT,2
METRIC
; #@! TA.AperFunction,Plated,PTH,ComponentDrill
T1C0.600
; #@! TA.AperFunction,Plated,PTH,ComponentDrill
T2C3.200
%
G90
G05
T1
X306.4Y-150.0
X306.4Y-175.0
X308.2Y-145.7
X308.2Y-154.3
X308.2Y-170.7
X308.2Y-179.3
X312.5Y-143.9
X312.5Y-156.1
X312.5Y-168.9
X312.5Y-181.1
X315.3Y-70.0
X316.7Y-66.7
X316.7Y-73.3
X316.7Y-154.4
X316.7Y-179.4
X316.8Y-145.7
X316.8Y-170.7
X318.6Y-150.0
X318.6Y-175.0
X320.0Y-65.3
X320.0Y-74.7
X323.2Y-73.4
X323.3Y-66.7
X324.7Y-70.0
X325.3Y-30.0
X325.3Y-110.0
X326.7Y-26.7
X326.7Y-33.3
X326.7Y-106.7
X326.7Y-113.3
X330.0Y-25.3
X330.0Y-34.7
X330.0Y-105.3
X330.0Y-114.7
X331.4Y-150.0
X331.4Y-175.0
X333.2Y-33.4
X333.2Y-113.4
X333.2Y-145.7
X333.2Y-154.3
X333.2Y-170.7
X333.2Y-179.3
X333.3Y-26.7
X333.3Y-106.7
X334.7Y-30.0
X334.7Y-110.0
X337.5Y-143.9
X337.5Y-156.1
X337.5Y-168.9
X337.5Y-181.1
X341.7Y-154.4
X341.7Y-179.4
X341.8Y-145.7
X341.8Y-170.7
X343.6Y-150.0
X343.6Y-175.0
X345.3Y-70.0
X345.5Y-50.0
X346.7Y-66.7
X346.7Y-73.3
X346.8Y-46.8
X346.8Y-53.2
X350.0Y-45.5
X350.0Y-54.5
X350.0Y-65.3
X350.0Y-74.7
X353.1Y-53.3
X353.2Y-46.8
X353.2Y-73.4
X353.3Y-66.7
X354.5Y-50.0
X354.7Y-70.0
X356.4Y-150.0
X356.4Y-175.0
X358.2Y-145.7
X358.2Y-154.3
X358.2Y-170.7
X358.2Y-179.3
X362.5Y-143.9
X362.5Y-156.1
X362.5Y-168.9
X362.5Y-181.1
X365.3Y-30.0
X365.3Y-110.0
X366.7Y-26.7
X366.7Y-33.3
X366.7Y-106.7
X366.7Y-113.3
X366.7Y-154.4
X366.7Y-179.4
X366.8Y-145.7
X366.8Y-170.7
X368.6Y-150.0
X368.6Y-175.0
X370.0Y-25.3
X370.0Y-34.7
X370.0Y-105.3
X370.0Y-114.7
X373.2Y-33.4
X373.2Y-113.4
X373.3Y-26.7
X373.3Y-106.7
X374.7Y-30.0
X374.7Y-110.0
X375.3Y-70.0
X376.7Y-66.7
X376.7Y-73.3
X380.0Y-65.3
X380.0Y-74.7
X381.4Y-175.0
X383.2Y-73.4
X383.2Y-170.7
X383.2Y-179.3
X383.3Y-66.7
X384.7Y-70.0
X387.5Y-168.9
X387.5Y-181.1
X391.7Y-179.4
X391.8Y-170.7
X393.6Y-175.0
T2
X303.0Y-3.0
X303.0Y-197.0
X397.0Y-3.0
X397.0Y-197.0
T0
M30
