G04 #@! TF.GenerationSoftware,KiCad,Pcbnew,(7.0.0)*
G04 #@! TF.CreationDate,2023-03-06T21:19:05-06:00*
G04 #@! TF.ProjectId,SlopesPanel,536c6f70-6573-4506-916e-656c2e6b6963,rev?*
G04 #@! TF.SameCoordinates,Original*
G04 #@! TF.FileFunction,Soldermask,Top*
G04 #@! TF.FilePolarity,Negative*
%FSLAX46Y46*%
G04 Gerber Fmt 4.6, Leading zero omitted, Abs format (unit mm)*
G04 Created by KiCad (PCBNEW (7.0.0)) date 2023-03-06 21:19:05*
%MOMM*%
%LPD*%
G01*
G04 APERTURE LIST*
G04 Aperture macros list*
%AMFreePoly0*
4,1,139,5.398598,5.455452,5.858736,5.376554,6.310525,5.258917,6.750711,5.103390,7.176121,4.911092,7.583690,4.683410,7.970482,4.421984,8.333711,4.128698,8.670759,3.805664,8.979197,3.455210,9.256803,3.079861,9.501578,2.682322,9.711757,2.265457,9.885826,1.832269,10.022531,1.385879,10.120888,0.929505,10.180186,0.466433,10.200000,0.000000,10.180186,-0.466433,10.120888,-0.929505,
10.022531,-1.385879,9.885826,-1.832269,9.711757,-2.265457,9.501578,-2.682322,9.256803,-3.079861,8.979197,-3.455210,8.670759,-3.805664,8.333711,-4.128698,7.970482,-4.421984,7.583690,-4.683410,7.176121,-4.911092,6.750711,-5.103390,6.310525,-5.258917,5.858736,-5.376554,5.398598,-5.455452,4.933427,-5.495044,4.466573,-5.495044,4.001402,-5.455452,3.541264,-5.376554,3.089475,-5.258917,
2.649289,-5.103390,2.223879,-4.911092,1.816310,-4.683410,1.429518,-4.421984,1.066289,-4.128698,0.729241,-3.805664,0.420803,-3.455210,0.143197,-3.079861,-0.101578,-2.682322,-0.311757,-2.265457,-0.485826,-1.832269,-0.622531,-1.385879,-0.720888,-0.929505,-0.780186,-0.466433,-0.800000,0.000000,0.794988,0.000000,0.815023,-0.395064,0.874924,-0.786073,0.974075,-1.169017,1.111459,-1.539964,
1.285666,-1.895110,1.494909,-2.230809,1.737040,-2.543617,2.009576,-2.830325,2.309719,-3.087989,2.634389,-3.313966,2.980256,-3.505938,3.343769,-3.661933,3.721199,-3.780353,4.108673,-3.859981,4.502214,-3.900000,4.897786,-3.900000,5.291327,-3.859981,5.678801,-3.780353,6.056231,-3.661933,6.419744,-3.505938,6.765611,-3.313966,7.090281,-3.087989,7.390424,-2.830325,7.662960,-2.543617,
7.905091,-2.230809,8.114334,-1.895110,8.288541,-1.539964,8.425925,-1.169017,8.525076,-0.786073,8.584977,-0.395064,8.605012,0.000000,8.584977,0.395064,8.525076,0.786073,8.425925,1.169017,8.288541,1.539964,8.114334,1.895110,7.905091,2.230809,7.662960,2.543617,7.390424,2.830325,7.090281,3.087989,6.765611,3.313966,6.419744,3.505938,6.056231,3.661933,5.678801,3.780353,
5.291327,3.859981,4.897786,3.900000,4.502214,3.900000,4.108673,3.859981,3.721199,3.780353,3.343769,3.661933,2.980256,3.505938,2.634389,3.313966,2.309719,3.087989,2.009576,2.830325,1.737040,2.543617,1.494909,2.230809,1.285666,1.895110,1.111459,1.539964,0.974075,1.169017,0.874924,0.786073,0.815023,0.395064,0.794988,0.000000,-0.800000,0.000000,-0.780186,0.466433,
-0.720888,0.929505,-0.622531,1.385879,-0.485826,1.832269,-0.311757,2.265457,-0.101578,2.682322,0.143197,3.079861,0.420803,3.455210,0.729241,3.805664,1.066289,4.128698,1.429518,4.421984,1.816310,4.683410,2.223879,4.911092,2.649289,5.103390,3.089475,5.258917,3.541264,5.376554,4.001402,5.455452,4.466573,5.495044,4.933427,5.495044,5.398598,5.455452,5.398598,5.455452,
$1*%
%AMFreePoly1*
4,1,159,6.626847,7.030287,7.150748,6.971257,7.668773,6.873242,8.178024,6.736788,8.675654,6.562660,9.158880,6.351831,9.625000,6.105479,10.071406,5.824983,10.495603,5.511912,10.895218,5.168016,11.268016,4.795218,11.611912,4.395603,11.924983,3.971406,12.205479,3.525000,12.451831,3.058880,12.662660,2.575654,12.836788,2.078024,12.973242,1.568773,13.071257,1.050748,13.130287,0.526847,
13.150000,0.000000,13.130287,-0.526847,13.071257,-1.050748,12.973242,-1.568773,12.836788,-2.078024,12.662660,-2.575654,12.451831,-3.058880,12.205479,-3.525000,11.924983,-3.971406,11.611912,-4.395603,11.268016,-4.795218,10.895218,-5.168016,10.495603,-5.511912,10.071406,-5.824983,9.625000,-6.105479,9.158880,-6.351831,8.675654,-6.562660,8.178024,-6.736788,7.668773,-6.873242,7.150748,-6.971257,
6.626847,-7.030287,6.100000,-7.050000,5.573153,-7.030287,5.049252,-6.971257,4.531227,-6.873242,4.021976,-6.736788,3.524346,-6.562660,3.041120,-6.351831,2.575000,-6.105479,2.128594,-5.824983,1.704397,-5.511912,1.304782,-5.168016,0.931984,-4.795218,0.588088,-4.395603,0.275017,-3.971406,-0.005479,-3.525000,-0.251831,-3.058880,-0.462660,-2.575654,-0.636788,-2.078024,-0.773242,-1.568773,
-0.871257,-1.050748,-0.930287,-0.526847,-0.950000,0.000000,0.945094,0.000000,0.964710,-0.449280,1.023409,-0.895140,1.120743,-1.334188,1.255973,-1.763082,1.428069,-2.178557,1.635720,-2.577453,1.877348,-2.956733,2.151113,-3.313510,2.454931,-3.645069,2.786490,-3.948887,3.143267,-4.222652,3.522547,-4.464280,3.921443,-4.671931,4.336918,-4.844027,4.765812,-4.979257,5.204860,-5.076591,
5.650720,-5.135290,6.100000,-5.154906,6.549280,-5.135290,6.995140,-5.076591,7.434188,-4.979257,7.863082,-4.844027,8.278557,-4.671931,8.677453,-4.464280,9.056733,-4.222652,9.413510,-3.948887,9.745069,-3.645069,10.048887,-3.313510,10.322652,-2.956733,10.564280,-2.577453,10.771931,-2.178557,10.944027,-1.763082,11.079257,-1.334188,11.176591,-0.895140,11.235290,-0.449280,11.254906,0.000000,
11.235290,0.449280,11.176591,0.895140,11.079257,1.334188,10.944027,1.763082,10.771931,2.178557,10.564280,2.577453,10.322652,2.956733,10.048887,3.313510,9.745069,3.645069,9.413510,3.948887,9.056733,4.222652,8.677453,4.464280,8.278557,4.671931,7.863082,4.844027,7.434188,4.979257,6.995140,5.076591,6.549280,5.135290,6.100000,5.154906,5.650720,5.135290,5.204860,5.076591,
4.765812,4.979257,4.336918,4.844027,3.921443,4.671931,3.522547,4.464280,3.143267,4.222652,2.786490,3.948887,2.454931,3.645069,2.151113,3.313510,1.877348,2.956733,1.635720,2.577453,1.428069,2.178557,1.255973,1.763082,1.120743,1.334188,1.023409,0.895140,0.964710,0.449280,0.945094,0.000000,-0.950000,0.000000,-0.930287,0.526847,-0.871257,1.050748,-0.773242,1.568773,
-0.636788,2.078024,-0.462660,2.575654,-0.251831,3.058880,-0.005479,3.525000,0.275017,3.971406,0.588088,4.395603,0.931984,4.795218,1.304782,5.168016,1.704397,5.511912,2.128594,5.824983,2.575000,6.105479,3.041120,6.351831,3.524346,6.562660,4.021976,6.736788,4.531227,6.873242,5.049252,6.971257,5.573153,7.030287,6.100000,7.050000,6.626847,7.030287,6.626847,7.030287,
$1*%
%AMFreePoly2*
4,1,137,5.198598,5.455452,5.658736,5.376554,6.110525,5.258917,6.550711,5.103390,6.976121,4.911092,7.383690,4.683410,7.770482,4.421984,8.133711,4.128698,8.470759,3.805664,8.779197,3.455210,9.056803,3.079861,9.301578,2.682322,9.511757,2.265457,9.685826,1.832269,9.822531,1.385879,9.920888,0.929505,9.980186,0.466433,10.000000,0.000000,9.980186,-0.466433,9.920888,-0.929505,
9.822531,-1.385879,9.685826,-1.832269,9.511757,-2.265457,9.301578,-2.682322,9.056803,-3.079861,8.779197,-3.455210,8.470759,-3.805664,8.133711,-4.128698,7.770482,-4.421984,7.383690,-4.683410,6.976121,-4.911092,6.550711,-5.103390,6.110525,-5.258917,5.658736,-5.376554,5.198598,-5.455452,4.733427,-5.495044,4.266573,-5.495044,3.801402,-5.455452,3.341264,-5.376554,2.889475,-5.258917,
2.449289,-5.103390,2.023879,-4.911092,1.616310,-4.683410,1.229518,-4.421984,0.866289,-4.128698,0.529241,-3.805664,0.220803,-3.455210,-0.056803,-3.079861,-0.301578,-2.682322,-0.511757,-2.265457,-0.685826,-1.832269,-0.822531,-1.385879,-0.920888,-0.929505,-0.980186,-0.466433,-1.000000,0.000000,0.995197,0.000000,1.014397,-0.366352,1.071785,-0.728690,1.166734,-1.083044,1.298203,-1.425532,
1.464752,-1.752402,1.664555,-2.060072,1.895424,-2.345171,2.154829,-2.604576,2.439928,-2.835445,2.747598,-3.035248,3.074468,-3.201797,3.416956,-3.333266,3.771310,-3.428215,4.133648,-3.485603,4.500000,-3.504803,4.866352,-3.485603,5.228690,-3.428215,5.583044,-3.333266,5.925532,-3.201797,6.252402,-3.035248,6.560072,-2.835445,6.845171,-2.604576,7.104576,-2.345171,7.335445,-2.060072,
7.535248,-1.752402,7.701797,-1.425532,7.833266,-1.083044,7.928215,-0.728690,7.985603,-0.366352,8.004803,0.000000,7.985603,0.366352,7.928215,0.728690,7.833266,1.083044,7.701797,1.425532,7.535248,1.752401,7.335445,2.060072,7.104576,2.345171,6.845171,2.604576,6.560072,2.835445,6.252402,3.035248,5.925532,3.201797,5.583044,3.333266,5.228690,3.428215,4.866352,3.485603,
4.500000,3.504803,4.133648,3.485603,3.771310,3.428215,3.416956,3.333266,3.074468,3.201797,2.747599,3.035248,2.439928,2.835445,2.154829,2.604576,1.895424,2.345171,1.664555,2.060072,1.464752,1.752401,1.298203,1.425532,1.166734,1.083044,1.071785,0.728690,1.014397,0.366352,0.995197,0.000000,-1.000000,0.000000,-0.980186,0.466433,-0.920888,0.929505,-0.822531,1.385879,
-0.685826,1.832269,-0.511757,2.265457,-0.301578,2.682322,-0.056803,3.079861,0.220803,3.455210,0.529241,3.805664,0.866289,4.128698,1.229518,4.421984,1.616310,4.683410,2.023879,4.911092,2.449289,5.103390,2.889475,5.258917,3.341264,5.376554,3.801402,5.455452,4.266573,5.495044,4.733427,5.495044,5.198598,5.455452,5.198598,5.455452,$1*%
G04 Aperture macros list end*
%ADD10FreePoly0,0.000000*%
%ADD11C,0.800000*%
%ADD12C,4.000000*%
%ADD13FreePoly1,0.000000*%
%ADD14C,5.000000*%
%ADD15FreePoly2,0.000000*%
G04 APERTURE END LIST*
G36*
X313692854Y-58659399D02*
G01*
X313847653Y-58818968D01*
X314094885Y-59078774D01*
X314422836Y-59426213D01*
X314819789Y-59848679D01*
X315274029Y-60333567D01*
X315773841Y-60868272D01*
X316307508Y-61440190D01*
X316863316Y-62036715D01*
X317429548Y-62645242D01*
X317994490Y-63253167D01*
X318546425Y-63847884D01*
X319073639Y-64416788D01*
X319564414Y-64947275D01*
X320007037Y-65426739D01*
X320389791Y-65842575D01*
X320700961Y-66182179D01*
X320928831Y-66432944D01*
X321061686Y-66582268D01*
X321091890Y-66620165D01*
X321005527Y-66616299D01*
X320802019Y-66584544D01*
X320590188Y-66544523D01*
X319923873Y-66493780D01*
X319245924Y-66594142D01*
X318586332Y-66832575D01*
X317975086Y-67196046D01*
X317442178Y-67671521D01*
X317147834Y-68040511D01*
X316853890Y-68590350D01*
X316656204Y-69219646D01*
X316562497Y-69878403D01*
X316580490Y-70516626D01*
X316689750Y-71006736D01*
X316761610Y-71237583D01*
X316796817Y-71390196D01*
X316795583Y-71422111D01*
X316732046Y-71368473D01*
X316557291Y-71205882D01*
X316281139Y-70943803D01*
X315913411Y-70591703D01*
X315463927Y-70159049D01*
X314942510Y-69655306D01*
X314358980Y-69089940D01*
X313723158Y-68472417D01*
X313044866Y-67812204D01*
X312577333Y-67356343D01*
X311875865Y-66670010D01*
X311211490Y-66016257D01*
X310593985Y-65404940D01*
X310033127Y-64845914D01*
X309538690Y-64349034D01*
X309120451Y-63924157D01*
X308788187Y-63581135D01*
X308551673Y-63329826D01*
X308420685Y-63180084D01*
X308396758Y-63141932D01*
X308456610Y-62985168D01*
X308607385Y-62726604D01*
X308830099Y-62393257D01*
X309105766Y-62012145D01*
X309415400Y-61610284D01*
X309740016Y-61214691D01*
X309801815Y-61142471D01*
X310698314Y-60208891D01*
X311711463Y-59343075D01*
X312531891Y-58755322D01*
X313290783Y-58255132D01*
X313692854Y-58659399D01*
G37*
G36*
X326569627Y-30377883D02*
G01*
X326691448Y-30988289D01*
X326943399Y-31602082D01*
X327297255Y-32162674D01*
X327654239Y-32552530D01*
X328283593Y-33016325D01*
X328964593Y-33330324D01*
X329678056Y-33489080D01*
X330404801Y-33487146D01*
X330743306Y-33429672D01*
X331032102Y-33366763D01*
X331244144Y-33324342D01*
X331337340Y-33310780D01*
X331338491Y-33311308D01*
X331287842Y-33378223D01*
X331137784Y-33571642D01*
X330893528Y-33884919D01*
X330560282Y-34311407D01*
X330143255Y-34844462D01*
X329647658Y-35477438D01*
X329078700Y-36203687D01*
X328441589Y-37016566D01*
X327741536Y-37909427D01*
X326983750Y-38875624D01*
X326173441Y-39908513D01*
X325315817Y-41001447D01*
X324416089Y-42147780D01*
X323479466Y-43340866D01*
X322511157Y-44574060D01*
X321912693Y-45336112D01*
X312479405Y-57347225D01*
X312698373Y-57575778D01*
X312917341Y-57804332D01*
X312065692Y-58380447D01*
X311282889Y-58967088D01*
X310477374Y-59674649D01*
X309685716Y-60465435D01*
X308944487Y-61301748D01*
X308290255Y-62145891D01*
X307997494Y-62574012D01*
X307862654Y-62781507D01*
X305266994Y-60251626D01*
X304718442Y-59715527D01*
X304209368Y-59215212D01*
X303752232Y-58763132D01*
X303359489Y-58371735D01*
X303043597Y-58053470D01*
X302817014Y-57820788D01*
X302692197Y-57686137D01*
X302671333Y-57657690D01*
X302725702Y-57588289D01*
X302885457Y-57396384D01*
X303145568Y-57087855D01*
X303501008Y-56668581D01*
X303946748Y-56144443D01*
X304477760Y-55521321D01*
X305089014Y-54805095D01*
X305775483Y-54001644D01*
X306532137Y-53116848D01*
X307353948Y-52156589D01*
X308235888Y-51126744D01*
X309172928Y-50033195D01*
X310160039Y-48881822D01*
X311192194Y-47678504D01*
X312264363Y-46429121D01*
X313371517Y-45139554D01*
X314508629Y-43815682D01*
X314598437Y-43711148D01*
X326525541Y-29828662D01*
X326569627Y-30377883D01*
G37*
G36*
X384054057Y-56749250D02*
G01*
X384353612Y-56841573D01*
X384726170Y-56973189D01*
X385144719Y-57133753D01*
X385582250Y-57312917D01*
X386011751Y-57500334D01*
X386406211Y-57685659D01*
X386726251Y-57851664D01*
X387833357Y-58543028D01*
X388907637Y-59364807D01*
X389642047Y-60025409D01*
X389990669Y-60373301D01*
X390344202Y-60746557D01*
X390682614Y-61121694D01*
X390985868Y-61475226D01*
X391233931Y-61783669D01*
X391406768Y-62023539D01*
X391484345Y-62171350D01*
X391486667Y-62187686D01*
X391430424Y-62255863D01*
X391269377Y-62434810D01*
X391015046Y-62712242D01*
X390678952Y-63075875D01*
X390272616Y-63513425D01*
X389807559Y-64012606D01*
X389295302Y-64561137D01*
X388747365Y-65146731D01*
X388175270Y-65757104D01*
X387590538Y-66379974D01*
X387004688Y-67003054D01*
X386429243Y-67614062D01*
X385875723Y-68200713D01*
X385355649Y-68750723D01*
X384880542Y-69251807D01*
X384461923Y-69691681D01*
X384111312Y-70058061D01*
X383896367Y-70280886D01*
X383528000Y-70660772D01*
X383528000Y-70045382D01*
X383448598Y-69275114D01*
X383218808Y-68563097D01*
X382851254Y-67926769D01*
X382358559Y-67383565D01*
X381753347Y-66950922D01*
X381072667Y-66654006D01*
X380827612Y-66593247D01*
X380495063Y-66532701D01*
X380218587Y-66494381D01*
X379660840Y-66429667D01*
X383626420Y-62619972D01*
X384310286Y-61962323D01*
X384956771Y-61339328D01*
X385555720Y-60760859D01*
X386096978Y-60236784D01*
X386570390Y-59776974D01*
X386965799Y-59391300D01*
X387273050Y-59089630D01*
X387481989Y-58881836D01*
X387582459Y-58777788D01*
X387590120Y-58767639D01*
X387517397Y-58719154D01*
X387313747Y-58604995D01*
X386999351Y-58435908D01*
X386594389Y-58222640D01*
X386119044Y-57975935D01*
X385685120Y-57753275D01*
X385166590Y-57486327D01*
X384701843Y-57242868D01*
X384311055Y-57033811D01*
X384014405Y-56870073D01*
X383832068Y-56762565D01*
X383782000Y-56723870D01*
X383854516Y-56706567D01*
X384054057Y-56749250D01*
G37*
G36*
X356336652Y-7593854D02*
G01*
X356362606Y-7614795D01*
X356438937Y-7705229D01*
X356611062Y-7917903D01*
X356871847Y-8243748D01*
X357214157Y-8673694D01*
X357630858Y-9198672D01*
X358114815Y-9809612D01*
X358658892Y-10497446D01*
X359255956Y-11253102D01*
X359898871Y-12067512D01*
X360580504Y-12931607D01*
X361293718Y-13836316D01*
X362031379Y-14772571D01*
X362786353Y-15731302D01*
X363551504Y-16703439D01*
X364319698Y-17679913D01*
X365083801Y-18651654D01*
X365836677Y-19609593D01*
X366571191Y-20544661D01*
X367280210Y-21447788D01*
X367956597Y-22309904D01*
X368593219Y-23121940D01*
X369182941Y-23874827D01*
X369718627Y-24559494D01*
X370193143Y-25166873D01*
X370599355Y-25687895D01*
X370930128Y-26113488D01*
X371178326Y-26434585D01*
X371336815Y-26642115D01*
X371398460Y-26727010D01*
X371398982Y-26728574D01*
X371309276Y-26721872D01*
X371110271Y-26673765D01*
X370951049Y-26627164D01*
X370483323Y-26539072D01*
X369886957Y-26528019D01*
X369838378Y-26530151D01*
X369439716Y-26560723D01*
X369124457Y-26622140D01*
X368811336Y-26735599D01*
X368511515Y-26876227D01*
X367877055Y-27276350D01*
X367351906Y-27784304D01*
X366947249Y-28377676D01*
X366674263Y-29034052D01*
X366544129Y-29731020D01*
X366568027Y-30446168D01*
X366612025Y-30684139D01*
X366671876Y-30965699D01*
X366708675Y-31168518D01*
X366714825Y-31250494D01*
X366714247Y-31250667D01*
X366657190Y-31187621D01*
X366495873Y-31003189D01*
X366236379Y-30704427D01*
X365884794Y-30298392D01*
X365447203Y-29792140D01*
X364929690Y-29192728D01*
X364338341Y-28507212D01*
X363679239Y-27742649D01*
X362958470Y-26906095D01*
X362182119Y-26004607D01*
X361356270Y-25045243D01*
X360487008Y-24035057D01*
X359580418Y-22981107D01*
X358642585Y-21890449D01*
X358492857Y-21716287D01*
X357550370Y-20619329D01*
X356638521Y-19556785D01*
X355763385Y-18535793D01*
X354931038Y-17563492D01*
X354147555Y-16647020D01*
X353419012Y-15793515D01*
X352751485Y-15010117D01*
X352151049Y-14303963D01*
X351623779Y-13682193D01*
X351175752Y-13151943D01*
X350813042Y-12720353D01*
X350541725Y-12394561D01*
X350367877Y-12181706D01*
X350297573Y-12088925D01*
X350296333Y-12085806D01*
X350361635Y-12016001D01*
X350548433Y-11855041D01*
X350843064Y-11613778D01*
X351231864Y-11303067D01*
X351701170Y-10933761D01*
X352237319Y-10516715D01*
X352826648Y-10062780D01*
X353259667Y-9731814D01*
X353970655Y-9190692D01*
X354559561Y-8744457D01*
X355038557Y-8384804D01*
X355419817Y-8103427D01*
X355715515Y-7892022D01*
X355937824Y-7742281D01*
X356098919Y-7645899D01*
X356210973Y-7594571D01*
X356286159Y-7579991D01*
X356336652Y-7593854D01*
G37*
G36*
X382074465Y-40206219D02*
G01*
X390569263Y-50982105D01*
X391002846Y-50620219D01*
X391232505Y-50427997D01*
X391552127Y-50159753D01*
X391922237Y-49848648D01*
X392303365Y-49527842D01*
X392366775Y-49474420D01*
X393297122Y-48690506D01*
X393448536Y-49178086D01*
X393496227Y-49330444D01*
X393590917Y-49631829D01*
X393728679Y-50069776D01*
X393905586Y-50631818D01*
X394117712Y-51305488D01*
X394361130Y-52078320D01*
X394631914Y-52937847D01*
X394926137Y-53871602D01*
X395239873Y-54867120D01*
X395569195Y-55911934D01*
X395881773Y-56903480D01*
X396217643Y-57969653D01*
X396538222Y-58988872D01*
X396839937Y-59949684D01*
X397119214Y-60840636D01*
X397372480Y-61650274D01*
X397596161Y-62367147D01*
X397786683Y-62979800D01*
X397940473Y-63476783D01*
X398053958Y-63846641D01*
X398123563Y-64077921D01*
X398145721Y-64159168D01*
X398069213Y-64125654D01*
X397858970Y-64022436D01*
X397531506Y-63857904D01*
X397103335Y-63640450D01*
X396590972Y-63378466D01*
X396010930Y-63080342D01*
X395379724Y-62754471D01*
X395294090Y-62710155D01*
X392460333Y-61243267D01*
X392186435Y-61502346D01*
X392017064Y-61650075D01*
X391905416Y-61724137D01*
X391885266Y-61724879D01*
X390873326Y-60478581D01*
X389810097Y-59387758D01*
X388683658Y-58443193D01*
X387482087Y-57635668D01*
X386193465Y-56955965D01*
X385157120Y-56522426D01*
X384843698Y-56398188D01*
X384601932Y-56290328D01*
X384467443Y-56215309D01*
X384451415Y-56196217D01*
X384513953Y-56124111D01*
X384684761Y-55963915D01*
X384941660Y-55735506D01*
X385262471Y-55458763D01*
X385472779Y-55280835D01*
X385820829Y-54984260D01*
X386117716Y-54723352D01*
X386341304Y-54518204D01*
X386469454Y-54388909D01*
X386491333Y-54356373D01*
X386437053Y-54285732D01*
X386278053Y-54093511D01*
X386020095Y-53786453D01*
X385668941Y-53371306D01*
X385230352Y-52854814D01*
X384710090Y-52243722D01*
X384113917Y-51544777D01*
X383447594Y-50764723D01*
X382716883Y-49910306D01*
X381927546Y-48988272D01*
X381085343Y-48005365D01*
X380196038Y-46968332D01*
X379265391Y-45883918D01*
X378299164Y-44758868D01*
X377389667Y-43700597D01*
X376396100Y-42544617D01*
X375432838Y-41423377D01*
X374505637Y-40343606D01*
X373620257Y-39312029D01*
X372782459Y-38335373D01*
X371997999Y-37420366D01*
X371272638Y-36573735D01*
X370612135Y-35802205D01*
X370022248Y-35112505D01*
X369508737Y-34511360D01*
X369077361Y-34005499D01*
X368733879Y-33601647D01*
X368484050Y-33306532D01*
X368333633Y-33126880D01*
X368288000Y-33069378D01*
X368354559Y-33076711D01*
X368522498Y-33146665D01*
X368614939Y-33192017D01*
X369251884Y-33425134D01*
X369932958Y-33509817D01*
X370629879Y-33450701D01*
X371314363Y-33252422D01*
X371958129Y-32919616D01*
X372414155Y-32569304D01*
X372903022Y-32015711D01*
X373254843Y-31364969D01*
X373466779Y-30623187D01*
X373522208Y-30184995D01*
X373579667Y-29430333D01*
X382074465Y-40206219D01*
G37*
G36*
X326589879Y-110019247D02*
G01*
X326594380Y-110428158D01*
X326614697Y-110723479D01*
X326661415Y-110960872D01*
X326745115Y-111195999D01*
X326863175Y-111456674D01*
X327249411Y-112089226D01*
X327749582Y-112620573D01*
X328339621Y-113037570D01*
X328995460Y-113327071D01*
X329693032Y-113475934D01*
X330408270Y-113471015D01*
X330522372Y-113455136D01*
X330781573Y-113420567D01*
X330963194Y-113408361D01*
X331016442Y-113415553D01*
X330964430Y-113480474D01*
X330803963Y-113659771D01*
X330543035Y-113944880D01*
X330189639Y-114327239D01*
X329751769Y-114798286D01*
X329237418Y-115349459D01*
X328654580Y-115972196D01*
X328011248Y-116657933D01*
X327315416Y-117398109D01*
X326575077Y-118184161D01*
X325798225Y-119007527D01*
X325602351Y-119214906D01*
X324816274Y-120047519D01*
X324063611Y-120845793D01*
X323352472Y-121601066D01*
X322690966Y-122304678D01*
X322087204Y-122947968D01*
X321549294Y-123522275D01*
X321085346Y-124018938D01*
X320703471Y-124429297D01*
X320411778Y-124744691D01*
X320218377Y-124956459D01*
X320131376Y-125055940D01*
X320127252Y-125062076D01*
X320177380Y-125135121D01*
X320330210Y-125331155D01*
X320579957Y-125643150D01*
X320920837Y-126064077D01*
X321347065Y-126586909D01*
X321852858Y-127204618D01*
X322432430Y-127910174D01*
X323079997Y-128696550D01*
X323789774Y-129556718D01*
X324555977Y-130483650D01*
X325372822Y-131470316D01*
X326234524Y-132509690D01*
X327135299Y-133594743D01*
X328069361Y-134718446D01*
X328574656Y-135325743D01*
X337049808Y-145508333D01*
X336651530Y-145576373D01*
X335969351Y-145772241D01*
X335299769Y-146110949D01*
X334672677Y-146566885D01*
X334117967Y-147114442D01*
X333665532Y-147728009D01*
X333345262Y-148381978D01*
X333331268Y-148420903D01*
X333238492Y-148670047D01*
X333163264Y-148846927D01*
X333133721Y-148898501D01*
X333071387Y-148843107D01*
X332897824Y-148671412D01*
X332618871Y-148389458D01*
X332240370Y-148003288D01*
X331768162Y-147518943D01*
X331208089Y-146942467D01*
X330565992Y-146279902D01*
X329847712Y-145537290D01*
X329059090Y-144720674D01*
X328205968Y-143836096D01*
X327294186Y-142889599D01*
X326329586Y-141887225D01*
X325318009Y-140835017D01*
X324265297Y-139739017D01*
X323177290Y-138605268D01*
X322431994Y-137828073D01*
X321309044Y-136656776D01*
X320209318Y-135509813D01*
X319139285Y-134393926D01*
X318105411Y-133315854D01*
X317114163Y-132282337D01*
X316172008Y-131300114D01*
X315285414Y-130375927D01*
X314460846Y-129516514D01*
X313704773Y-128728617D01*
X313023660Y-128018974D01*
X312423976Y-127394326D01*
X311912186Y-126861413D01*
X311494758Y-126426974D01*
X311178159Y-126097750D01*
X310968856Y-125880481D01*
X310903902Y-125813296D01*
X310032224Y-124914258D01*
X317845278Y-117476022D01*
X318823363Y-116544889D01*
X319773376Y-115640539D01*
X320687454Y-114770454D01*
X321557736Y-113942114D01*
X322376360Y-113163000D01*
X323135466Y-112440592D01*
X323827190Y-111782373D01*
X324443672Y-111195822D01*
X324977049Y-110688421D01*
X325419460Y-110267650D01*
X325763043Y-109940991D01*
X325999937Y-109715924D01*
X326122280Y-109599930D01*
X326124000Y-109598306D01*
X326589667Y-109158827D01*
X326589879Y-110019247D01*
G37*
G36*
X348016583Y-8429071D02*
G01*
X347952481Y-8661281D01*
X347847239Y-9028223D01*
X347704960Y-9516271D01*
X347529749Y-10111800D01*
X347325708Y-10801184D01*
X347096943Y-11570797D01*
X346847555Y-12407015D01*
X346581650Y-13296211D01*
X346303330Y-14224760D01*
X346016700Y-15179035D01*
X345725862Y-16145412D01*
X345434921Y-17110265D01*
X345147980Y-18059967D01*
X344869142Y-18980894D01*
X344602513Y-19859420D01*
X344352194Y-20681919D01*
X344122290Y-21434766D01*
X343916905Y-22104334D01*
X343740142Y-22676999D01*
X343596104Y-23139134D01*
X343488896Y-23477114D01*
X343422621Y-23677314D01*
X343402383Y-23728701D01*
X343325955Y-23693783D01*
X343140189Y-23564430D01*
X342864870Y-23355755D01*
X342519782Y-23082873D01*
X342124710Y-22760896D01*
X341999000Y-22656656D01*
X340644333Y-21528911D01*
X340466703Y-21711955D01*
X340384549Y-21809260D01*
X340207457Y-22028235D01*
X339944735Y-22357107D01*
X339605691Y-22784106D01*
X339199632Y-23297458D01*
X338735866Y-23885392D01*
X338223701Y-24536135D01*
X337672443Y-25237916D01*
X337091401Y-25978963D01*
X336924683Y-26191833D01*
X336342228Y-26935367D01*
X335791176Y-27638135D01*
X335280284Y-28289013D01*
X334818308Y-28876877D01*
X334414008Y-29390602D01*
X334076138Y-29819065D01*
X333813458Y-30151142D01*
X333634723Y-30375708D01*
X333548691Y-30481639D01*
X333542148Y-30488667D01*
X333538512Y-30414978D01*
X333553701Y-30234950D01*
X333556673Y-30208818D01*
X333559201Y-29967013D01*
X333530609Y-29646641D01*
X333497956Y-29434611D01*
X333277939Y-28678348D01*
X332917493Y-28015053D01*
X332422207Y-27452125D01*
X331797668Y-26996966D01*
X331561808Y-26870511D01*
X331239257Y-26717075D01*
X330988566Y-26622750D01*
X330745920Y-26573269D01*
X330447506Y-26554364D01*
X330135724Y-26551667D01*
X329771214Y-26548674D01*
X329550091Y-26536442D01*
X329446463Y-26510092D01*
X329434442Y-26464745D01*
X329461876Y-26424667D01*
X329534859Y-26339141D01*
X329708161Y-26136483D01*
X329971955Y-25828175D01*
X330316413Y-25425697D01*
X330731706Y-24940532D01*
X331208006Y-24384161D01*
X331735486Y-23768064D01*
X332304318Y-23103724D01*
X332904674Y-22402622D01*
X332940603Y-22360667D01*
X333542649Y-21657591D01*
X334113863Y-20990466D01*
X334644401Y-20370792D01*
X335124418Y-19810070D01*
X335544070Y-19319800D01*
X335893514Y-18911483D01*
X336162906Y-18596618D01*
X336342402Y-18386707D01*
X336422158Y-18293249D01*
X336423503Y-18291661D01*
X336446616Y-18235965D01*
X336421924Y-18159299D01*
X336335051Y-18047315D01*
X336171621Y-17885664D01*
X335917259Y-17659997D01*
X335557590Y-17355965D01*
X335137536Y-17008062D01*
X333740079Y-15856470D01*
X335498873Y-14924808D01*
X337151947Y-14049270D01*
X338661320Y-13250117D01*
X340032831Y-12524284D01*
X341272318Y-11868708D01*
X342385617Y-11280325D01*
X343378568Y-10756071D01*
X344257007Y-10292882D01*
X345026773Y-9887694D01*
X345693704Y-9537443D01*
X346263637Y-9239065D01*
X346742411Y-8989496D01*
X347135863Y-8785673D01*
X347449832Y-8624532D01*
X347690154Y-8503008D01*
X347862669Y-8418038D01*
X347973213Y-8366558D01*
X348027625Y-8345504D01*
X348035442Y-8345220D01*
X348016583Y-8429071D01*
G37*
G36*
X373429783Y-108847667D02*
G01*
X373498735Y-108921701D01*
X373674031Y-109110175D01*
X373946744Y-109403483D01*
X374307949Y-109792022D01*
X374748718Y-110266189D01*
X375260125Y-110816380D01*
X375833243Y-111432993D01*
X376459146Y-112106422D01*
X377128906Y-112827066D01*
X377833597Y-113585320D01*
X378022136Y-113788194D01*
X382534865Y-118644055D01*
X383789775Y-117391238D01*
X384213063Y-116971225D01*
X384533532Y-116660707D01*
X384766041Y-116447418D01*
X384925448Y-116319091D01*
X385026609Y-116263457D01*
X385084382Y-116268250D01*
X385107768Y-116303043D01*
X385148566Y-116403685D01*
X385249325Y-116649710D01*
X385405453Y-117029960D01*
X385612357Y-117533273D01*
X385865442Y-118148489D01*
X386160115Y-118864447D01*
X386491782Y-119669986D01*
X386855850Y-120553948D01*
X387247725Y-121505170D01*
X387662814Y-122512492D01*
X388096522Y-123564754D01*
X388189924Y-123791333D01*
X388625134Y-124847831D01*
X389041132Y-125859175D01*
X389433476Y-126814487D01*
X389797727Y-127702890D01*
X390129446Y-128513506D01*
X390424193Y-129235457D01*
X390677529Y-129857864D01*
X390885013Y-130369851D01*
X391042206Y-130760539D01*
X391144669Y-131019050D01*
X391187961Y-131134508D01*
X391189065Y-131139710D01*
X391109120Y-131114106D01*
X390889834Y-131030507D01*
X390548290Y-130895765D01*
X390101571Y-130716734D01*
X389566758Y-130500267D01*
X388960934Y-130253218D01*
X388301183Y-129982440D01*
X388177949Y-129931680D01*
X387413750Y-129617209D01*
X386790632Y-129362498D01*
X386293330Y-129162270D01*
X385906583Y-129011243D01*
X385615127Y-128904137D01*
X385403698Y-128835673D01*
X385257034Y-128800569D01*
X385159871Y-128793546D01*
X385096946Y-128809323D01*
X385052996Y-128842621D01*
X385047249Y-128848637D01*
X384978141Y-128929068D01*
X384805974Y-129132188D01*
X384536611Y-129451032D01*
X384175913Y-129878634D01*
X383729743Y-130408032D01*
X383203963Y-131032258D01*
X382604435Y-131744349D01*
X381937020Y-132537341D01*
X381207582Y-133404267D01*
X380421983Y-134338163D01*
X379586084Y-135332064D01*
X378705747Y-136379007D01*
X377786835Y-137472025D01*
X376835210Y-138604153D01*
X376120407Y-139454667D01*
X375148225Y-140611373D01*
X374204261Y-141734261D01*
X373294391Y-142816351D01*
X372424493Y-143850662D01*
X371600445Y-144830214D01*
X370828125Y-145748026D01*
X370113409Y-146597118D01*
X369462176Y-147370510D01*
X368880303Y-148061220D01*
X368373668Y-148662269D01*
X367948147Y-149166677D01*
X367609619Y-149567462D01*
X367363961Y-149857645D01*
X367217051Y-150030245D01*
X367175540Y-150077981D01*
X367085496Y-150164972D01*
X367038492Y-150161806D01*
X367020375Y-150042027D01*
X367016995Y-149781648D01*
X366931870Y-148995612D01*
X366682324Y-148238945D01*
X366271909Y-147519584D01*
X365704174Y-146845467D01*
X365702994Y-146844281D01*
X365080284Y-146316887D01*
X364390853Y-145907510D01*
X363663630Y-145627457D01*
X362927543Y-145488035D01*
X362251995Y-145495473D01*
X361832853Y-145545114D01*
X362329927Y-145019338D01*
X362446268Y-144897368D01*
X362673025Y-144660702D01*
X363003182Y-144316637D01*
X363429722Y-143872474D01*
X363945625Y-143335510D01*
X364543876Y-142713045D01*
X365217456Y-142012378D01*
X365959348Y-141240807D01*
X366762535Y-140405632D01*
X367619999Y-139514151D01*
X368524724Y-138573663D01*
X369469690Y-137591468D01*
X370447882Y-136574863D01*
X371401603Y-135583807D01*
X372395293Y-134550740D01*
X373356184Y-133550723D01*
X374277776Y-132590568D01*
X375153568Y-131677092D01*
X375977061Y-130817109D01*
X376741754Y-130017433D01*
X377441146Y-129284881D01*
X378068739Y-128626266D01*
X378618032Y-128048403D01*
X379082523Y-127558107D01*
X379455715Y-127162193D01*
X379731105Y-126867476D01*
X379902194Y-126680771D01*
X379962482Y-126608892D01*
X379962502Y-126608525D01*
X379883663Y-126558856D01*
X379670131Y-126455484D01*
X379344140Y-126308328D01*
X378927924Y-126127308D01*
X378443717Y-125922342D01*
X378161232Y-125804960D01*
X377644977Y-125591782D01*
X377179712Y-125399601D01*
X376788766Y-125238059D01*
X376495468Y-125116798D01*
X376323146Y-125045456D01*
X376289000Y-125031248D01*
X376320513Y-124963696D01*
X376456337Y-124794808D01*
X376680469Y-124542405D01*
X376976906Y-124224310D01*
X377329644Y-123858344D01*
X377474333Y-123711226D01*
X378744333Y-122426874D01*
X378194000Y-121907658D01*
X377897643Y-121627402D01*
X377516875Y-121266282D01*
X377063318Y-120835390D01*
X376548595Y-120345820D01*
X375984326Y-119808666D01*
X375382135Y-119235020D01*
X374753643Y-118635977D01*
X374110473Y-118022629D01*
X373464247Y-117406071D01*
X372826587Y-116797395D01*
X372209115Y-116207694D01*
X371623454Y-115648064D01*
X371081225Y-115129595D01*
X370594051Y-114663383D01*
X370173554Y-114260520D01*
X369831356Y-113932101D01*
X369579079Y-113689217D01*
X369428346Y-113542963D01*
X369388667Y-113502934D01*
X369466547Y-113493016D01*
X369673043Y-113484822D01*
X369967438Y-113479819D01*
X370044833Y-113479267D01*
X370822816Y-113396507D01*
X371532310Y-113161703D01*
X372162152Y-112782148D01*
X372701181Y-112265132D01*
X373138234Y-111617947D01*
X373256019Y-111381751D01*
X373374685Y-111096471D01*
X373445522Y-110834352D01*
X373480382Y-110531687D01*
X373491114Y-110124768D01*
X373491151Y-110117667D01*
X373484797Y-109734936D01*
X373464518Y-109381386D01*
X373434206Y-109117079D01*
X373422580Y-109059333D01*
X373390491Y-108876263D01*
X373415874Y-108835463D01*
X373429783Y-108847667D01*
G37*
G36*
X376540313Y-69731667D02*
G01*
X376531266Y-70006751D01*
X376564187Y-70373466D01*
X376619645Y-70698704D01*
X376855683Y-71439304D01*
X377231382Y-72084864D01*
X377743966Y-72631918D01*
X378390661Y-73077002D01*
X378617333Y-73193443D01*
X378887227Y-73315536D01*
X379114584Y-73392799D01*
X379353787Y-73435349D01*
X379659216Y-73453301D01*
X380032954Y-73456787D01*
X380898241Y-73457000D01*
X380448216Y-73922667D01*
X380333277Y-74043036D01*
X380117686Y-74270246D01*
X379812133Y-74592965D01*
X379427310Y-74999860D01*
X378973905Y-75479599D01*
X378462610Y-76020850D01*
X377904115Y-76612281D01*
X377309110Y-77242558D01*
X376688285Y-77900351D01*
X376052331Y-78574327D01*
X375411938Y-79253153D01*
X374777797Y-79925498D01*
X374160597Y-80580028D01*
X373571029Y-81205413D01*
X373019783Y-81790319D01*
X372517550Y-82323414D01*
X372075019Y-82793367D01*
X371702882Y-83188844D01*
X371411829Y-83498514D01*
X371212549Y-83711044D01*
X371115734Y-83815102D01*
X371108338Y-83823386D01*
X371037176Y-83789884D01*
X370882951Y-83665239D01*
X370720391Y-83515618D01*
X370079811Y-83012592D01*
X369341064Y-82631046D01*
X368536375Y-82384426D01*
X367780000Y-82288839D01*
X367457213Y-82277665D01*
X367267948Y-82284583D01*
X367176568Y-82319984D01*
X367147437Y-82394259D01*
X367145000Y-82474000D01*
X367157149Y-82588530D01*
X367218727Y-82658117D01*
X367367427Y-82700809D01*
X367640944Y-82734651D01*
X367702270Y-82740793D01*
X368526951Y-82883999D01*
X369280896Y-83137512D01*
X369937710Y-83489801D01*
X370470999Y-83929334D01*
X370505132Y-83965335D01*
X370732598Y-84209667D01*
X365657966Y-89579951D01*
X364900440Y-90382174D01*
X364177135Y-91149254D01*
X363496399Y-91872274D01*
X362866578Y-92542318D01*
X362296021Y-93150469D01*
X361793076Y-93687810D01*
X361366089Y-94145424D01*
X361023408Y-94514396D01*
X360773382Y-94785807D01*
X360624357Y-94950742D01*
X360583333Y-95000545D01*
X360639731Y-95068413D01*
X360803605Y-95251504D01*
X361066978Y-95541169D01*
X361421875Y-95928758D01*
X361860317Y-96405622D01*
X362374328Y-96963112D01*
X362955931Y-97592580D01*
X363597149Y-98285374D01*
X364290004Y-99032848D01*
X365026520Y-99826351D01*
X365798720Y-100657235D01*
X366002000Y-100875791D01*
X366781901Y-101714447D01*
X367528187Y-102517503D01*
X368232886Y-103276351D01*
X368888027Y-103982381D01*
X369485638Y-104626985D01*
X370017749Y-105201555D01*
X370476388Y-105697481D01*
X370853584Y-106106154D01*
X371141365Y-106418967D01*
X371331760Y-106627310D01*
X371416798Y-106722575D01*
X371420667Y-106727758D01*
X371347517Y-106721271D01*
X371159230Y-106675893D01*
X370985637Y-106627264D01*
X370524685Y-106543680D01*
X369939434Y-106530478D01*
X369821471Y-106535289D01*
X369408604Y-106566327D01*
X369090389Y-106624251D01*
X368792368Y-106727218D01*
X368523245Y-106851855D01*
X367899597Y-107247079D01*
X367375201Y-107755772D01*
X366964498Y-108352718D01*
X366681930Y-109012702D01*
X366541939Y-109710509D01*
X366544941Y-110305951D01*
X366569618Y-110579484D01*
X366580426Y-110770241D01*
X366575858Y-110834379D01*
X366512893Y-110776706D01*
X366334486Y-110608909D01*
X366047730Y-110337733D01*
X365659720Y-109969923D01*
X365177550Y-109512224D01*
X364608313Y-108971383D01*
X363959103Y-108354145D01*
X363237015Y-107667255D01*
X362449142Y-106917459D01*
X361602578Y-106111503D01*
X360704418Y-105256131D01*
X359761754Y-104358090D01*
X358781682Y-103424124D01*
X358298349Y-102963428D01*
X357302335Y-102013636D01*
X356340345Y-101095596D01*
X355419481Y-100216120D01*
X354546849Y-99382021D01*
X353729552Y-98600114D01*
X352974694Y-97877211D01*
X352289380Y-97220127D01*
X351680712Y-96635675D01*
X351155796Y-96130668D01*
X350721735Y-95711919D01*
X350385632Y-95386243D01*
X350154593Y-95160453D01*
X350035720Y-95041362D01*
X350020601Y-95024137D01*
X350076980Y-94957680D01*
X350245897Y-94783724D01*
X350517492Y-94511779D01*
X350881899Y-94151356D01*
X351329256Y-93711966D01*
X351849701Y-93203120D01*
X352433370Y-92634329D01*
X353070399Y-92015104D01*
X353750927Y-91354955D01*
X354465089Y-90663393D01*
X355203023Y-89949930D01*
X355954866Y-89224075D01*
X356710754Y-88495340D01*
X357460825Y-87773236D01*
X358195216Y-87067274D01*
X358904062Y-86386964D01*
X359577503Y-85741817D01*
X360205673Y-85141345D01*
X360778710Y-84595057D01*
X361286752Y-84112465D01*
X361719934Y-83703080D01*
X362068395Y-83376412D01*
X362322270Y-83141973D01*
X362471697Y-83009272D01*
X362508707Y-82982000D01*
X362561695Y-83054899D01*
X362679611Y-83261249D01*
X362852696Y-83582532D01*
X363071187Y-84000228D01*
X363325323Y-84495818D01*
X363605344Y-85050782D01*
X363717254Y-85274882D01*
X364004834Y-85849709D01*
X364269892Y-86374366D01*
X364502664Y-86829933D01*
X364693388Y-87197491D01*
X364832301Y-87458123D01*
X364909641Y-87592908D01*
X364920750Y-87607130D01*
X365035413Y-87602908D01*
X365152631Y-87555446D01*
X365196057Y-87523537D01*
X365218060Y-87472810D01*
X365212040Y-87387375D01*
X365171402Y-87251342D01*
X365089548Y-87048821D01*
X364959881Y-86763921D01*
X364775804Y-86380752D01*
X364530719Y-85883423D01*
X364218030Y-85256045D01*
X364099943Y-85019884D01*
X362877125Y-82575372D01*
X364841729Y-80684292D01*
X365355635Y-80189687D01*
X365862040Y-79702426D01*
X366339545Y-79243090D01*
X366766749Y-78832263D01*
X367122253Y-78490525D01*
X367384655Y-78238459D01*
X367450467Y-78175300D01*
X368094601Y-77557387D01*
X368604402Y-78258860D01*
X368905953Y-78654396D01*
X369258075Y-79087351D01*
X369597371Y-79480424D01*
X369686315Y-79578077D01*
X370258429Y-80195820D01*
X370452846Y-80013175D01*
X370647262Y-79830530D01*
X369971368Y-79056765D01*
X369656256Y-78684878D01*
X369337186Y-78289491D01*
X369057321Y-77925012D01*
X368902047Y-77708947D01*
X368508621Y-77134893D01*
X368715811Y-76938952D01*
X368821523Y-76838244D01*
X369035900Y-76633412D01*
X369345338Y-76337482D01*
X369736234Y-75963480D01*
X370194986Y-75524434D01*
X370707990Y-75033370D01*
X371261642Y-74503314D01*
X371842341Y-73947295D01*
X372436484Y-73378338D01*
X373030466Y-72809470D01*
X373610685Y-72253717D01*
X374163538Y-71724108D01*
X374675422Y-71233668D01*
X375132734Y-70795424D01*
X375521872Y-70422403D01*
X375829231Y-70127631D01*
X376041209Y-69924136D01*
X376102311Y-69865376D01*
X376592955Y-69393000D01*
X376540313Y-69731667D01*
G37*
G36*
X324009314Y-69708139D02*
G01*
X324171302Y-69882833D01*
X324436491Y-70168206D01*
X324792610Y-70551078D01*
X325227392Y-71018271D01*
X325728568Y-71556604D01*
X326283868Y-72152900D01*
X326881023Y-72793980D01*
X327507764Y-73466663D01*
X328050667Y-74049237D01*
X331522266Y-77774142D01*
X331260081Y-78155571D01*
X331083015Y-78395128D01*
X330835889Y-78706504D01*
X330561979Y-79035704D01*
X330457235Y-79157268D01*
X329916573Y-79777536D01*
X330114715Y-79988449D01*
X330312857Y-80199361D01*
X330635449Y-79833847D01*
X330841592Y-79591019D01*
X331101268Y-79272219D01*
X331366289Y-78936849D01*
X331429946Y-78854500D01*
X331639256Y-78585575D01*
X331806845Y-78376529D01*
X331908486Y-78257275D01*
X331927076Y-78240667D01*
X331987942Y-78300734D01*
X332152961Y-78473064D01*
X332411049Y-78745850D01*
X332751118Y-79107283D01*
X333162084Y-79545555D01*
X333632860Y-80048860D01*
X334152360Y-80605388D01*
X334709498Y-81203333D01*
X334808627Y-81309833D01*
X335387697Y-81931746D01*
X335944471Y-82529132D01*
X336465752Y-83087868D01*
X336938337Y-83593832D01*
X337349028Y-84032900D01*
X337684623Y-84390950D01*
X337931923Y-84653860D01*
X338077726Y-84807506D01*
X338081696Y-84811631D01*
X338498440Y-85244263D01*
X337946604Y-86345509D01*
X337394769Y-87446755D01*
X337612325Y-87545881D01*
X337776062Y-87609888D01*
X337851594Y-87620670D01*
X337895518Y-87540026D01*
X337999783Y-87337390D01*
X338149300Y-87042374D01*
X338328980Y-86684592D01*
X338349360Y-86643833D01*
X338532139Y-86283462D01*
X338688295Y-85985595D01*
X338802391Y-85778967D01*
X338858990Y-85692309D01*
X338861096Y-85691333D01*
X338924208Y-85751321D01*
X339091306Y-85923276D01*
X339351041Y-86195186D01*
X339692060Y-86555042D01*
X340103012Y-86990830D01*
X340572546Y-87490539D01*
X341089310Y-88042159D01*
X341641953Y-88633677D01*
X341657827Y-88650690D01*
X342212903Y-89242601D01*
X342734908Y-89793404D01*
X343212204Y-90291232D01*
X343633152Y-90724219D01*
X343986116Y-91080501D01*
X344259458Y-91348210D01*
X344441539Y-91515481D01*
X344520722Y-91570448D01*
X344521271Y-91570286D01*
X344619325Y-91530370D01*
X344856986Y-91432826D01*
X345217329Y-91284624D01*
X345683432Y-91092731D01*
X346238373Y-90864116D01*
X346865228Y-90605747D01*
X347547074Y-90324593D01*
X347883333Y-90185898D01*
X348581572Y-89898806D01*
X349230002Y-89633996D01*
X349812213Y-89398037D01*
X350311793Y-89197498D01*
X350712332Y-89038946D01*
X350997418Y-88928950D01*
X351150641Y-88874079D01*
X351172641Y-88869332D01*
X351145369Y-88949875D01*
X351057846Y-89176148D01*
X350914455Y-89537367D01*
X350719574Y-90022748D01*
X350477585Y-90621508D01*
X350192868Y-91322862D01*
X349869803Y-92116027D01*
X349512772Y-92990218D01*
X349126155Y-93934652D01*
X348714332Y-94938545D01*
X348281683Y-95991112D01*
X348130476Y-96358499D01*
X345058670Y-103819604D01*
X343824143Y-102587135D01*
X343450599Y-102216874D01*
X343116857Y-101891118D01*
X342841556Y-101627647D01*
X342643338Y-101444244D01*
X342540840Y-101358689D01*
X342532164Y-101354667D01*
X342466188Y-101414735D01*
X342293381Y-101588534D01*
X342022932Y-101866451D01*
X341664031Y-102238875D01*
X341225867Y-102696194D01*
X340717630Y-103228798D01*
X340148508Y-103827073D01*
X339527691Y-104481410D01*
X338864369Y-105182196D01*
X338181239Y-105905500D01*
X337480064Y-106648625D01*
X336809002Y-107359682D01*
X336177686Y-108028473D01*
X335595747Y-108644802D01*
X335072820Y-109198471D01*
X334618536Y-109679282D01*
X334242527Y-110077039D01*
X333954427Y-110381544D01*
X333763869Y-110582600D01*
X333682440Y-110668000D01*
X333477115Y-110879667D01*
X333533442Y-110410472D01*
X333536932Y-109696917D01*
X333387026Y-108994596D01*
X333098897Y-108330810D01*
X332687719Y-107732859D01*
X332168666Y-107228044D01*
X331556910Y-106843665D01*
X331548903Y-106839816D01*
X331228039Y-106700279D01*
X330930328Y-106611064D01*
X330589364Y-106556769D01*
X330192042Y-106525117D01*
X329391752Y-106477000D01*
X333832709Y-102251792D01*
X334566628Y-101553516D01*
X335269607Y-100884655D01*
X335931248Y-100255103D01*
X336541154Y-99674755D01*
X337088927Y-99153505D01*
X337564171Y-98701246D01*
X337956486Y-98327873D01*
X338255477Y-98043281D01*
X338450745Y-97857364D01*
X338526323Y-97785340D01*
X338778980Y-97544096D01*
X337514378Y-96277382D01*
X337141749Y-95900775D01*
X336816208Y-95565303D01*
X336554639Y-95288909D01*
X336373929Y-95089535D01*
X336290964Y-94985120D01*
X336288054Y-94974407D01*
X336375275Y-94932032D01*
X336593191Y-94837184D01*
X336915555Y-94700972D01*
X337316121Y-94534510D01*
X337681000Y-94384674D01*
X338147502Y-94193827D01*
X338578206Y-94017161D01*
X338940586Y-93868054D01*
X339202115Y-93759882D01*
X339309709Y-93714855D01*
X339583752Y-93598506D01*
X334822376Y-88974621D01*
X334065183Y-88239050D01*
X333338037Y-87532195D01*
X332650861Y-86863734D01*
X332013582Y-86243344D01*
X331436124Y-85680700D01*
X330928415Y-85185481D01*
X330500378Y-84767363D01*
X330161940Y-84436022D01*
X329923026Y-84201137D01*
X329793561Y-84072383D01*
X329780867Y-84059380D01*
X329500735Y-83768025D01*
X329914702Y-83502383D01*
X330476163Y-83207355D01*
X331114789Y-82977026D01*
X331687600Y-82851281D01*
X332093000Y-82793884D01*
X331597953Y-83300863D01*
X331304573Y-83634744D01*
X331153862Y-83888415D01*
X331146654Y-84059590D01*
X331283783Y-84145980D01*
X331289639Y-84147143D01*
X331392349Y-84098760D01*
X331586797Y-83949362D01*
X331847711Y-83720333D01*
X332149817Y-83433059D01*
X332243081Y-83340345D01*
X333070496Y-82509459D01*
X332232388Y-81686034D01*
X331850443Y-81321011D01*
X331568526Y-81076067D01*
X331376192Y-80942950D01*
X331262994Y-80913409D01*
X331256807Y-80915363D01*
X331142213Y-81004215D01*
X331145482Y-81147995D01*
X331272549Y-81360027D01*
X331529344Y-81653633D01*
X331632853Y-81759902D01*
X332146372Y-82278027D01*
X331542026Y-82377833D01*
X330756178Y-82571068D01*
X330022533Y-82873793D01*
X329554987Y-83149966D01*
X329320919Y-83301046D01*
X329172599Y-83360581D01*
X329062936Y-83342033D01*
X329006594Y-83306753D01*
X328921818Y-83230648D01*
X328728919Y-83048614D01*
X328438641Y-82771116D01*
X328061729Y-82408621D01*
X327608928Y-81971595D01*
X327090982Y-81470504D01*
X326518635Y-80915815D01*
X325902631Y-80317993D01*
X325253716Y-79687506D01*
X324582633Y-79034819D01*
X323900126Y-78370399D01*
X323216941Y-77704712D01*
X322543822Y-77048224D01*
X321891513Y-76411401D01*
X321270758Y-75804710D01*
X320692302Y-75238617D01*
X320166889Y-74723589D01*
X319705264Y-74270090D01*
X319318171Y-73888589D01*
X319016354Y-73589551D01*
X318810559Y-73383442D01*
X318711528Y-73280729D01*
X318704128Y-73270983D01*
X318788444Y-73282867D01*
X318983604Y-73334366D01*
X319142950Y-73382077D01*
X319769284Y-73493866D01*
X320439536Y-73467363D01*
X321114887Y-73312022D01*
X321756520Y-73037294D01*
X322325614Y-72652633D01*
X322398667Y-72589313D01*
X322843211Y-72093121D01*
X323192765Y-71503254D01*
X323432436Y-70859957D01*
X323547334Y-70203478D01*
X323522568Y-69574060D01*
X323519984Y-69558745D01*
X323439560Y-69091945D01*
X324009314Y-69708139D01*
G37*
D10*
X315300000Y-70000000D03*
D11*
X315300000Y-70000000D03*
X316700000Y-66700000D03*
X316700000Y-73300000D03*
X320000000Y-65300000D03*
X320000000Y-74700000D03*
X323200000Y-73400000D03*
X323300000Y-66700000D03*
X324700000Y-70000000D03*
D12*
X397000000Y-3000000D03*
D13*
X331400000Y-175000000D03*
D11*
X331400000Y-175000000D03*
X333200000Y-170700000D03*
X333200000Y-179300000D03*
X337500000Y-168900000D03*
X337500000Y-181100000D03*
X341700000Y-179400000D03*
X341800000Y-170700000D03*
X343600000Y-175000000D03*
D13*
X356400000Y-150000000D03*
D11*
X356400000Y-150000000D03*
X358200000Y-145700000D03*
X358200000Y-154300000D03*
X362500000Y-143900000D03*
X362500000Y-156100000D03*
X366700000Y-154400000D03*
X366800000Y-145700000D03*
X368600000Y-150000000D03*
D10*
X365300000Y-30000000D03*
D11*
X365300000Y-30000000D03*
X366700000Y-26700000D03*
X366700000Y-33300000D03*
X370000000Y-25300000D03*
X370000000Y-34700000D03*
X373200000Y-33400000D03*
X373300000Y-26700000D03*
X374700000Y-30000000D03*
D10*
X325300000Y-30000000D03*
D11*
X325300000Y-30000000D03*
X326700000Y-26700000D03*
X326700000Y-33300000D03*
X330000000Y-25300000D03*
X330000000Y-34700000D03*
X333200000Y-33400000D03*
X333300000Y-26700000D03*
X334700000Y-30000000D03*
D10*
X325300000Y-110000000D03*
D11*
X325300000Y-110000000D03*
X326700000Y-106700000D03*
X326700000Y-113300000D03*
X330000000Y-105300000D03*
X330000000Y-114700000D03*
X333200000Y-113400000D03*
X333300000Y-106700000D03*
X334700000Y-110000000D03*
D10*
X345300000Y-70000000D03*
D11*
X345300000Y-70000000D03*
X346700000Y-66700000D03*
X346700000Y-73300000D03*
X350000000Y-65300000D03*
X350000000Y-74700000D03*
X353200000Y-73400000D03*
X353300000Y-66700000D03*
X354700000Y-70000000D03*
D13*
X381400000Y-175000000D03*
D11*
X381400000Y-175000000D03*
X383200000Y-170700000D03*
X383200000Y-179300000D03*
X387500000Y-168900000D03*
X387500000Y-181100000D03*
X391700000Y-179400000D03*
X391800000Y-170700000D03*
X393600000Y-175000000D03*
D13*
X356400000Y-175000000D03*
D11*
X356400000Y-175000000D03*
X358200000Y-170700000D03*
X358200000Y-179300000D03*
X362500000Y-168900000D03*
X362500000Y-181100000D03*
X366700000Y-179400000D03*
X366800000Y-170700000D03*
X368600000Y-175000000D03*
D13*
X331400000Y-150000000D03*
D11*
X331400000Y-150000000D03*
X333200000Y-145700000D03*
X333200000Y-154300000D03*
X337500000Y-143900000D03*
X337500000Y-156100000D03*
X341700000Y-154400000D03*
X341800000Y-145700000D03*
X343600000Y-150000000D03*
D14*
X342500000Y-162500000D03*
D10*
X365300000Y-110000000D03*
D11*
X365300000Y-110000000D03*
X366700000Y-106700000D03*
X366700000Y-113300000D03*
X370000000Y-105300000D03*
X370000000Y-114700000D03*
X373200000Y-113400000D03*
X373300000Y-106700000D03*
X374700000Y-110000000D03*
D12*
X303000000Y-3000000D03*
D13*
X306400000Y-175000000D03*
D11*
X306400000Y-175000000D03*
X308200000Y-170700000D03*
X308200000Y-179300000D03*
X312500000Y-168900000D03*
X312500000Y-181100000D03*
X316700000Y-179400000D03*
X316800000Y-170700000D03*
X318600000Y-175000000D03*
D15*
X345500000Y-50000000D03*
D11*
X345500000Y-50000000D03*
X346800000Y-46800000D03*
X346800000Y-53200000D03*
X350000000Y-45500000D03*
X350000000Y-54500000D03*
X353100000Y-53300000D03*
X353200000Y-46800000D03*
X354500000Y-50000000D03*
D10*
X375300000Y-70000000D03*
D11*
X375300000Y-70000000D03*
X376700000Y-66700000D03*
X376700000Y-73300000D03*
X380000000Y-65300000D03*
X380000000Y-74700000D03*
X383200000Y-73400000D03*
X383300000Y-66700000D03*
X384700000Y-70000000D03*
D13*
X306400000Y-150000000D03*
D11*
X306400000Y-150000000D03*
X308200000Y-145700000D03*
X308200000Y-154300000D03*
X312500000Y-143900000D03*
X312500000Y-156100000D03*
X316700000Y-154400000D03*
X316800000Y-145700000D03*
X318600000Y-150000000D03*
D14*
X392500000Y-162500000D03*
X367500000Y-162500000D03*
D12*
X397000000Y-197000000D03*
X303000000Y-197000000D03*
M02*
