G04 #@! TF.GenerationSoftware,KiCad,Pcbnew,(7.0.0)*
G04 #@! TF.CreationDate,2023-03-06T21:19:05-06:00*
G04 #@! TF.ProjectId,SlopesPanel,536c6f70-6573-4506-916e-656c2e6b6963,rev?*
G04 #@! TF.SameCoordinates,Original*
G04 #@! TF.FileFunction,Legend,Top*
G04 #@! TF.FilePolarity,Positive*
%FSLAX46Y46*%
G04 Gerber Fmt 4.6, Leading zero omitted, Abs format (unit mm)*
G04 Created by KiCad (PCBNEW (7.0.0)) date 2023-03-06 21:19:05*
%MOMM*%
%LPD*%
G01*
G04 APERTURE LIST*
G04 Aperture macros list*
%AMFreePoly0*
4,1,139,5.398598,5.455452,5.858736,5.376554,6.310525,5.258917,6.750711,5.103390,7.176121,4.911092,7.583690,4.683410,7.970482,4.421984,8.333711,4.128698,8.670759,3.805664,8.979197,3.455210,9.256803,3.079861,9.501578,2.682322,9.711757,2.265457,9.885826,1.832269,10.022531,1.385879,10.120888,0.929505,10.180186,0.466433,10.200000,0.000000,10.180186,-0.466433,10.120888,-0.929505,
10.022531,-1.385879,9.885826,-1.832269,9.711757,-2.265457,9.501578,-2.682322,9.256803,-3.079861,8.979197,-3.455210,8.670759,-3.805664,8.333711,-4.128698,7.970482,-4.421984,7.583690,-4.683410,7.176121,-4.911092,6.750711,-5.103390,6.310525,-5.258917,5.858736,-5.376554,5.398598,-5.455452,4.933427,-5.495044,4.466573,-5.495044,4.001402,-5.455452,3.541264,-5.376554,3.089475,-5.258917,
2.649289,-5.103390,2.223879,-4.911092,1.816310,-4.683410,1.429518,-4.421984,1.066289,-4.128698,0.729241,-3.805664,0.420803,-3.455210,0.143197,-3.079861,-0.101578,-2.682322,-0.311757,-2.265457,-0.485826,-1.832269,-0.622531,-1.385879,-0.720888,-0.929505,-0.780186,-0.466433,-0.800000,0.000000,0.794988,0.000000,0.815023,-0.395064,0.874924,-0.786073,0.974075,-1.169017,1.111459,-1.539964,
1.285666,-1.895110,1.494909,-2.230809,1.737040,-2.543617,2.009576,-2.830325,2.309719,-3.087989,2.634389,-3.313966,2.980256,-3.505938,3.343769,-3.661933,3.721199,-3.780353,4.108673,-3.859981,4.502214,-3.900000,4.897786,-3.900000,5.291327,-3.859981,5.678801,-3.780353,6.056231,-3.661933,6.419744,-3.505938,6.765611,-3.313966,7.090281,-3.087989,7.390424,-2.830325,7.662960,-2.543617,
7.905091,-2.230809,8.114334,-1.895110,8.288541,-1.539964,8.425925,-1.169017,8.525076,-0.786073,8.584977,-0.395064,8.605012,0.000000,8.584977,0.395064,8.525076,0.786073,8.425925,1.169017,8.288541,1.539964,8.114334,1.895110,7.905091,2.230809,7.662960,2.543617,7.390424,2.830325,7.090281,3.087989,6.765611,3.313966,6.419744,3.505938,6.056231,3.661933,5.678801,3.780353,
5.291327,3.859981,4.897786,3.900000,4.502214,3.900000,4.108673,3.859981,3.721199,3.780353,3.343769,3.661933,2.980256,3.505938,2.634389,3.313966,2.309719,3.087989,2.009576,2.830325,1.737040,2.543617,1.494909,2.230809,1.285666,1.895110,1.111459,1.539964,0.974075,1.169017,0.874924,0.786073,0.815023,0.395064,0.794988,0.000000,-0.800000,0.000000,-0.780186,0.466433,
-0.720888,0.929505,-0.622531,1.385879,-0.485826,1.832269,-0.311757,2.265457,-0.101578,2.682322,0.143197,3.079861,0.420803,3.455210,0.729241,3.805664,1.066289,4.128698,1.429518,4.421984,1.816310,4.683410,2.223879,4.911092,2.649289,5.103390,3.089475,5.258917,3.541264,5.376554,4.001402,5.455452,4.466573,5.495044,4.933427,5.495044,5.398598,5.455452,5.398598,5.455452,
$1*%
%AMFreePoly1*
4,1,159,6.626847,7.030287,7.150748,6.971257,7.668773,6.873242,8.178024,6.736788,8.675654,6.562660,9.158880,6.351831,9.625000,6.105479,10.071406,5.824983,10.495603,5.511912,10.895218,5.168016,11.268016,4.795218,11.611912,4.395603,11.924983,3.971406,12.205479,3.525000,12.451831,3.058880,12.662660,2.575654,12.836788,2.078024,12.973242,1.568773,13.071257,1.050748,13.130287,0.526847,
13.150000,0.000000,13.130287,-0.526847,13.071257,-1.050748,12.973242,-1.568773,12.836788,-2.078024,12.662660,-2.575654,12.451831,-3.058880,12.205479,-3.525000,11.924983,-3.971406,11.611912,-4.395603,11.268016,-4.795218,10.895218,-5.168016,10.495603,-5.511912,10.071406,-5.824983,9.625000,-6.105479,9.158880,-6.351831,8.675654,-6.562660,8.178024,-6.736788,7.668773,-6.873242,7.150748,-6.971257,
6.626847,-7.030287,6.100000,-7.050000,5.573153,-7.030287,5.049252,-6.971257,4.531227,-6.873242,4.021976,-6.736788,3.524346,-6.562660,3.041120,-6.351831,2.575000,-6.105479,2.128594,-5.824983,1.704397,-5.511912,1.304782,-5.168016,0.931984,-4.795218,0.588088,-4.395603,0.275017,-3.971406,-0.005479,-3.525000,-0.251831,-3.058880,-0.462660,-2.575654,-0.636788,-2.078024,-0.773242,-1.568773,
-0.871257,-1.050748,-0.930287,-0.526847,-0.950000,0.000000,0.945094,0.000000,0.964710,-0.449280,1.023409,-0.895140,1.120743,-1.334188,1.255973,-1.763082,1.428069,-2.178557,1.635720,-2.577453,1.877348,-2.956733,2.151113,-3.313510,2.454931,-3.645069,2.786490,-3.948887,3.143267,-4.222652,3.522547,-4.464280,3.921443,-4.671931,4.336918,-4.844027,4.765812,-4.979257,5.204860,-5.076591,
5.650720,-5.135290,6.100000,-5.154906,6.549280,-5.135290,6.995140,-5.076591,7.434188,-4.979257,7.863082,-4.844027,8.278557,-4.671931,8.677453,-4.464280,9.056733,-4.222652,9.413510,-3.948887,9.745069,-3.645069,10.048887,-3.313510,10.322652,-2.956733,10.564280,-2.577453,10.771931,-2.178557,10.944027,-1.763082,11.079257,-1.334188,11.176591,-0.895140,11.235290,-0.449280,11.254906,0.000000,
11.235290,0.449280,11.176591,0.895140,11.079257,1.334188,10.944027,1.763082,10.771931,2.178557,10.564280,2.577453,10.322652,2.956733,10.048887,3.313510,9.745069,3.645069,9.413510,3.948887,9.056733,4.222652,8.677453,4.464280,8.278557,4.671931,7.863082,4.844027,7.434188,4.979257,6.995140,5.076591,6.549280,5.135290,6.100000,5.154906,5.650720,5.135290,5.204860,5.076591,
4.765812,4.979257,4.336918,4.844027,3.921443,4.671931,3.522547,4.464280,3.143267,4.222652,2.786490,3.948887,2.454931,3.645069,2.151113,3.313510,1.877348,2.956733,1.635720,2.577453,1.428069,2.178557,1.255973,1.763082,1.120743,1.334188,1.023409,0.895140,0.964710,0.449280,0.945094,0.000000,-0.950000,0.000000,-0.930287,0.526847,-0.871257,1.050748,-0.773242,1.568773,
-0.636788,2.078024,-0.462660,2.575654,-0.251831,3.058880,-0.005479,3.525000,0.275017,3.971406,0.588088,4.395603,0.931984,4.795218,1.304782,5.168016,1.704397,5.511912,2.128594,5.824983,2.575000,6.105479,3.041120,6.351831,3.524346,6.562660,4.021976,6.736788,4.531227,6.873242,5.049252,6.971257,5.573153,7.030287,6.100000,7.050000,6.626847,7.030287,6.626847,7.030287,
$1*%
%AMFreePoly2*
4,1,137,5.198598,5.455452,5.658736,5.376554,6.110525,5.258917,6.550711,5.103390,6.976121,4.911092,7.383690,4.683410,7.770482,4.421984,8.133711,4.128698,8.470759,3.805664,8.779197,3.455210,9.056803,3.079861,9.301578,2.682322,9.511757,2.265457,9.685826,1.832269,9.822531,1.385879,9.920888,0.929505,9.980186,0.466433,10.000000,0.000000,9.980186,-0.466433,9.920888,-0.929505,
9.822531,-1.385879,9.685826,-1.832269,9.511757,-2.265457,9.301578,-2.682322,9.056803,-3.079861,8.779197,-3.455210,8.470759,-3.805664,8.133711,-4.128698,7.770482,-4.421984,7.383690,-4.683410,6.976121,-4.911092,6.550711,-5.103390,6.110525,-5.258917,5.658736,-5.376554,5.198598,-5.455452,4.733427,-5.495044,4.266573,-5.495044,3.801402,-5.455452,3.341264,-5.376554,2.889475,-5.258917,
2.449289,-5.103390,2.023879,-4.911092,1.616310,-4.683410,1.229518,-4.421984,0.866289,-4.128698,0.529241,-3.805664,0.220803,-3.455210,-0.056803,-3.079861,-0.301578,-2.682322,-0.511757,-2.265457,-0.685826,-1.832269,-0.822531,-1.385879,-0.920888,-0.929505,-0.980186,-0.466433,-1.000000,0.000000,0.995197,0.000000,1.014397,-0.366352,1.071785,-0.728690,1.166734,-1.083044,1.298203,-1.425532,
1.464752,-1.752402,1.664555,-2.060072,1.895424,-2.345171,2.154829,-2.604576,2.439928,-2.835445,2.747598,-3.035248,3.074468,-3.201797,3.416956,-3.333266,3.771310,-3.428215,4.133648,-3.485603,4.500000,-3.504803,4.866352,-3.485603,5.228690,-3.428215,5.583044,-3.333266,5.925532,-3.201797,6.252402,-3.035248,6.560072,-2.835445,6.845171,-2.604576,7.104576,-2.345171,7.335445,-2.060072,
7.535248,-1.752402,7.701797,-1.425532,7.833266,-1.083044,7.928215,-0.728690,7.985603,-0.366352,8.004803,0.000000,7.985603,0.366352,7.928215,0.728690,7.833266,1.083044,7.701797,1.425532,7.535248,1.752401,7.335445,2.060072,7.104576,2.345171,6.845171,2.604576,6.560072,2.835445,6.252402,3.035248,5.925532,3.201797,5.583044,3.333266,5.228690,3.428215,4.866352,3.485603,
4.500000,3.504803,4.133648,3.485603,3.771310,3.428215,3.416956,3.333266,3.074468,3.201797,2.747599,3.035248,2.439928,2.835445,2.154829,2.604576,1.895424,2.345171,1.664555,2.060072,1.464752,1.752401,1.298203,1.425532,1.166734,1.083044,1.071785,0.728690,1.014397,0.366352,0.995197,0.000000,-1.000000,0.000000,-0.980186,0.466433,-0.920888,0.929505,-0.822531,1.385879,
-0.685826,1.832269,-0.511757,2.265457,-0.301578,2.682322,-0.056803,3.079861,0.220803,3.455210,0.529241,3.805664,0.866289,4.128698,1.229518,4.421984,1.616310,4.683410,2.023879,4.911092,2.449289,5.103390,2.889475,5.258917,3.341264,5.376554,3.801402,5.455452,4.266573,5.495044,4.733427,5.495044,5.198598,5.455452,5.198598,5.455452,$1*%
G04 Aperture macros list end*
%ADD10FreePoly0,0.000000*%
%ADD11C,0.800000*%
%ADD12C,4.000000*%
%ADD13FreePoly1,0.000000*%
%ADD14C,5.000000*%
%ADD15FreePoly2,0.000000*%
G04 APERTURE END LIST*
G36*
X310206667Y-187376000D02*
G01*
X310206667Y-189831333D01*
X309910333Y-189831333D01*
X309614000Y-189831333D01*
X309614000Y-187376000D01*
X309614000Y-184920667D01*
X309910333Y-184920667D01*
X310206667Y-184920667D01*
X310206667Y-187376000D01*
G37*
G36*
X340063953Y-185297688D02*
G01*
X340390303Y-185412031D01*
X340537203Y-185547175D01*
X340567434Y-185672468D01*
X340589943Y-185917457D01*
X340600436Y-186232538D01*
X340600703Y-186280318D01*
X340589953Y-186694727D01*
X340537961Y-186970611D01*
X340418115Y-187138141D01*
X340203802Y-187227491D01*
X339868409Y-187268835D01*
X339721336Y-187277354D01*
X339078000Y-187309841D01*
X339078000Y-186284587D01*
X339078000Y-185259333D01*
X339591566Y-185259333D01*
X340063953Y-185297688D01*
G37*
G36*
X341369995Y-84591196D02*
G01*
X341681610Y-85213793D01*
X341967806Y-85789999D01*
X342219901Y-86301995D01*
X342429212Y-86731962D01*
X342587059Y-87062080D01*
X342684759Y-87274528D01*
X342714083Y-87349910D01*
X342649329Y-87450771D01*
X342522487Y-87531538D01*
X342464296Y-87551925D01*
X342407502Y-87546386D01*
X342342785Y-87499612D01*
X342260822Y-87396296D01*
X342152293Y-87221128D01*
X342007876Y-86958802D01*
X341818250Y-86594008D01*
X341574093Y-86111439D01*
X341266084Y-85495787D01*
X341189766Y-85342843D01*
X340053224Y-83064762D01*
X338909445Y-85345448D01*
X337765667Y-87626135D01*
X337533701Y-87503151D01*
X337301736Y-87380168D01*
X338666114Y-84652447D01*
X340030492Y-81924725D01*
X341369995Y-84591196D01*
G37*
G36*
X314440000Y-159266667D02*
G01*
X314440000Y-159774667D01*
X314736333Y-159774667D01*
X314936731Y-159790481D01*
X315018771Y-159861646D01*
X315032667Y-159986333D01*
X315010526Y-160129475D01*
X314910895Y-160188074D01*
X314736333Y-160198000D01*
X314440000Y-160198000D01*
X314440000Y-161806667D01*
X314440000Y-163415333D01*
X314187868Y-163415333D01*
X313935736Y-163415333D01*
X313912701Y-161827833D01*
X313889667Y-160240333D01*
X313614500Y-160213802D01*
X313420993Y-160172487D01*
X313346931Y-160072855D01*
X313339333Y-159980969D01*
X313362457Y-159841259D01*
X313464814Y-159784102D01*
X313635667Y-159774667D01*
X313932000Y-159774667D01*
X313932000Y-159266667D01*
X313932000Y-158758667D01*
X314186000Y-158758667D01*
X314440000Y-158758667D01*
X314440000Y-159266667D01*
G37*
G36*
X330599504Y-26562147D02*
G01*
X331322806Y-26749135D01*
X331970451Y-27075808D01*
X332528249Y-27530710D01*
X332982010Y-28102383D01*
X333317544Y-28779371D01*
X333514542Y-29513541D01*
X333557067Y-30226643D01*
X333447991Y-30908232D01*
X333204263Y-31543042D01*
X332842834Y-32115805D01*
X332380654Y-32611252D01*
X331834675Y-33014117D01*
X331221846Y-33309132D01*
X330559119Y-33481029D01*
X329863443Y-33514540D01*
X329193224Y-33405844D01*
X328455440Y-33124340D01*
X327814164Y-32705888D01*
X327278347Y-32157004D01*
X327066885Y-31858019D01*
X326756831Y-31220499D01*
X326584190Y-30521466D01*
X326551121Y-29798906D01*
X326659785Y-29090806D01*
X326876214Y-28506046D01*
X327284777Y-27855157D01*
X327804735Y-27318708D01*
X328416947Y-26909596D01*
X329102271Y-26640717D01*
X329814735Y-26526302D01*
X330599504Y-26562147D01*
G37*
G36*
X370958343Y-26622570D02*
G01*
X371542092Y-26838938D01*
X372190779Y-27250412D01*
X372741963Y-27789256D01*
X373169445Y-28429255D01*
X373208883Y-28506919D01*
X373443858Y-29168347D01*
X373535213Y-29877818D01*
X373485754Y-30598334D01*
X373298290Y-31292897D01*
X372975630Y-31924508D01*
X372946165Y-31968155D01*
X372451859Y-32545888D01*
X371862239Y-32997415D01*
X371200547Y-33313999D01*
X370490022Y-33486905D01*
X369753904Y-33507395D01*
X369134667Y-33400933D01*
X368432364Y-33128728D01*
X367815481Y-32719471D01*
X367299672Y-32190405D01*
X366900587Y-31558771D01*
X366633879Y-30841810D01*
X366576353Y-30582846D01*
X366528765Y-29879757D01*
X366635960Y-29177462D01*
X366885495Y-28503389D01*
X367264926Y-27884966D01*
X367761811Y-27349620D01*
X368188648Y-27028885D01*
X368826824Y-26718532D01*
X369526411Y-26545932D01*
X370249541Y-26513229D01*
X370958343Y-26622570D01*
G37*
G36*
X350909443Y-66603342D02*
G01*
X351582813Y-66857156D01*
X352206519Y-67258530D01*
X352502716Y-67524339D01*
X352991962Y-68125830D01*
X353329396Y-68789955D01*
X353512136Y-69498767D01*
X353537301Y-70234321D01*
X353402011Y-70978673D01*
X353157977Y-71606370D01*
X352875578Y-72049710D01*
X352482860Y-72488117D01*
X352028902Y-72876197D01*
X351562779Y-73168559D01*
X351381508Y-73249466D01*
X350849782Y-73396994D01*
X350251382Y-73470322D01*
X349651584Y-73466834D01*
X349115664Y-73383917D01*
X348984000Y-73345467D01*
X348295916Y-73036760D01*
X347713922Y-72615002D01*
X347243038Y-72100681D01*
X346888287Y-71514286D01*
X346654688Y-70876306D01*
X346547263Y-70207229D01*
X346571034Y-69527544D01*
X346731022Y-68857738D01*
X347032248Y-68218301D01*
X347479733Y-67629721D01*
X347562329Y-67544540D01*
X348156292Y-67061896D01*
X348809833Y-66726365D01*
X349501104Y-66538036D01*
X350208257Y-66496999D01*
X350909443Y-66603342D01*
G37*
G36*
X361701592Y-185344462D02*
G01*
X362011861Y-185407527D01*
X362203787Y-185505723D01*
X362277386Y-185572155D01*
X362330971Y-185651907D01*
X362368420Y-185771734D01*
X362393610Y-185958390D01*
X362410418Y-186238631D01*
X362422721Y-186639213D01*
X362432295Y-187082508D01*
X362441245Y-187773801D01*
X362432384Y-188314236D01*
X362399044Y-188721923D01*
X362334560Y-189014969D01*
X362232265Y-189211484D01*
X362085492Y-189329576D01*
X361887575Y-189387354D01*
X361631847Y-189402927D01*
X361578167Y-189402633D01*
X361286106Y-189385953D01*
X361040388Y-189349503D01*
X360954944Y-189325051D01*
X360840792Y-189262319D01*
X360757466Y-189162839D01*
X360698554Y-189000035D01*
X360657643Y-188747333D01*
X360628322Y-188378160D01*
X360604438Y-187872430D01*
X360587842Y-187062521D01*
X360609625Y-186417025D01*
X360669840Y-185935417D01*
X360768540Y-185617172D01*
X360844880Y-185505786D01*
X361055278Y-185393594D01*
X361361790Y-185339819D01*
X361701592Y-185344462D01*
G37*
G36*
X384800579Y-185360606D02*
G01*
X385048349Y-185403630D01*
X385163959Y-185449833D01*
X385270526Y-185614479D01*
X385354984Y-185914078D01*
X385417035Y-186315659D01*
X385456379Y-186786252D01*
X385472719Y-187292886D01*
X385465755Y-187802592D01*
X385435190Y-188282398D01*
X385380724Y-188699334D01*
X385302058Y-189020431D01*
X385198896Y-189212718D01*
X385198041Y-189213578D01*
X385021933Y-189303331D01*
X384742393Y-189362667D01*
X384423529Y-189385771D01*
X384129444Y-189366828D01*
X383971268Y-189324849D01*
X383848273Y-189250957D01*
X383755897Y-189133790D01*
X383690628Y-188951952D01*
X383648954Y-188684043D01*
X383627360Y-188308667D01*
X383622334Y-187804426D01*
X383628796Y-187238896D01*
X383641387Y-186626274D01*
X383661852Y-186162322D01*
X383699673Y-185826386D01*
X383764331Y-185597810D01*
X383865306Y-185455939D01*
X384012082Y-185380118D01*
X384214138Y-185349692D01*
X384480955Y-185344005D01*
X384498606Y-185344000D01*
X384800579Y-185360606D01*
G37*
G36*
X313465313Y-145589854D02*
G01*
X314248484Y-145826026D01*
X314986580Y-146211050D01*
X315030168Y-146239779D01*
X315692728Y-146776089D01*
X316223507Y-147399367D01*
X316622353Y-148090357D01*
X316889111Y-148829800D01*
X317023629Y-149598440D01*
X317025753Y-150377018D01*
X316895330Y-151146278D01*
X316632206Y-151886962D01*
X316236229Y-152579813D01*
X315707244Y-153205572D01*
X315089683Y-153714650D01*
X314381893Y-154106716D01*
X313604898Y-154368185D01*
X312795568Y-154492497D01*
X311990769Y-154473095D01*
X311431243Y-154365486D01*
X310594706Y-154057223D01*
X309861604Y-153616687D01*
X309236301Y-153046881D01*
X308901424Y-152625381D01*
X308449290Y-151844139D01*
X308160467Y-151033942D01*
X308034479Y-150208807D01*
X308070848Y-149382751D01*
X308269095Y-148569791D01*
X308628743Y-147783944D01*
X309089390Y-147112240D01*
X309666883Y-146525226D01*
X310335338Y-146067086D01*
X311072080Y-145741149D01*
X311854439Y-145550745D01*
X312659740Y-145499203D01*
X313465313Y-145589854D01*
G37*
G36*
X338210167Y-145536963D02*
G01*
X339033553Y-145745775D01*
X339787188Y-146097409D01*
X340456591Y-146575011D01*
X341027283Y-147161732D01*
X341484782Y-147840718D01*
X341814610Y-148595119D01*
X342002287Y-149408083D01*
X342041333Y-149995667D01*
X341959432Y-150841511D01*
X341722276Y-151646462D01*
X341342686Y-152390220D01*
X340833484Y-153052484D01*
X340207492Y-153612954D01*
X339480792Y-154049775D01*
X338683164Y-154355224D01*
X337894050Y-154498904D01*
X337084728Y-154484234D01*
X336561346Y-154397364D01*
X335801756Y-154148754D01*
X335089223Y-153754539D01*
X334447664Y-153236863D01*
X333900995Y-152617866D01*
X333473132Y-151919689D01*
X333230933Y-151314107D01*
X333098123Y-150678260D01*
X333055840Y-149972058D01*
X333104083Y-149268251D01*
X333230933Y-148677226D01*
X333553828Y-147905056D01*
X334008628Y-147217551D01*
X334575519Y-146627209D01*
X335234687Y-146146524D01*
X335966316Y-145787995D01*
X336750592Y-145564117D01*
X337567702Y-145487387D01*
X338210167Y-145536963D01*
G37*
G36*
X313223283Y-170542063D02*
G01*
X314026487Y-170752040D01*
X314482333Y-170947550D01*
X315173081Y-171345581D01*
X315729102Y-171795979D01*
X316183178Y-172326334D01*
X316269139Y-172451184D01*
X316687196Y-173224090D01*
X316947212Y-174030825D01*
X317050982Y-174852761D01*
X317000304Y-175671272D01*
X316796976Y-176467729D01*
X316442793Y-177223507D01*
X315939554Y-177919978D01*
X315718758Y-178156092D01*
X315044223Y-178716444D01*
X314296738Y-179129931D01*
X313494206Y-179391475D01*
X312654529Y-179496001D01*
X311795609Y-179438433D01*
X311445685Y-179367680D01*
X310683870Y-179097468D01*
X309965132Y-178669989D01*
X309360000Y-178149715D01*
X308796451Y-177470007D01*
X308385690Y-176728094D01*
X308130371Y-175939856D01*
X308033151Y-175121168D01*
X308096682Y-174287909D01*
X308323621Y-173455956D01*
X308504656Y-173034138D01*
X308947963Y-172300393D01*
X309500090Y-171681426D01*
X310141901Y-171183918D01*
X310854261Y-170814549D01*
X311618035Y-170579997D01*
X312414087Y-170486942D01*
X313223283Y-170542063D01*
G37*
G36*
X336485467Y-185264228D02*
G01*
X336708716Y-185293148D01*
X336869090Y-185367447D01*
X336977766Y-185508476D01*
X337045924Y-185737591D01*
X337084742Y-186076143D01*
X337105398Y-186545486D01*
X337116418Y-187032460D01*
X337124421Y-187688530D01*
X337116269Y-188196144D01*
X337087549Y-188575770D01*
X337033845Y-188847878D01*
X336950743Y-189032937D01*
X336833830Y-189151417D01*
X336678691Y-189223786D01*
X336641465Y-189234868D01*
X336294327Y-189303304D01*
X335964287Y-189291663D01*
X335806008Y-189264740D01*
X335610888Y-189175501D01*
X335467342Y-189055714D01*
X335411736Y-188979607D01*
X335370928Y-188875475D01*
X335342678Y-188718267D01*
X335324746Y-188482932D01*
X335314891Y-188144419D01*
X335310875Y-187677679D01*
X335310333Y-187299887D01*
X335312521Y-186661166D01*
X335324792Y-186171872D01*
X335355708Y-185812103D01*
X335413828Y-185561961D01*
X335507714Y-185401544D01*
X335645927Y-185310953D01*
X335837027Y-185270288D01*
X336089576Y-185259647D01*
X336188163Y-185259333D01*
X336485467Y-185264228D01*
G37*
G36*
X363060769Y-145522908D02*
G01*
X363869415Y-145692300D01*
X364636193Y-146011010D01*
X365340483Y-146475628D01*
X365688989Y-146787410D01*
X366256810Y-147455314D01*
X366665532Y-148178074D01*
X366919001Y-148964940D01*
X367021066Y-149825163D01*
X367023660Y-149995667D01*
X367003670Y-150487911D01*
X366949041Y-150940530D01*
X366886538Y-151223333D01*
X366568645Y-152017384D01*
X366119090Y-152721827D01*
X365556338Y-153325387D01*
X364898852Y-153816788D01*
X364165098Y-154184755D01*
X363373540Y-154418010D01*
X362542643Y-154505279D01*
X361690870Y-154435286D01*
X361641667Y-154426250D01*
X361002606Y-154235449D01*
X360352151Y-153915185D01*
X359740986Y-153493537D01*
X359388223Y-153177816D01*
X358821521Y-152499311D01*
X358406535Y-151756276D01*
X358145821Y-150964336D01*
X358041934Y-150139120D01*
X358097430Y-149296254D01*
X358314867Y-148451365D01*
X358530834Y-147936037D01*
X358834435Y-147445043D01*
X359257065Y-146949176D01*
X359755092Y-146490632D01*
X360284885Y-146111610D01*
X360589808Y-145944707D01*
X361400347Y-145645704D01*
X362230873Y-145506240D01*
X363060769Y-145522908D01*
G37*
G36*
X321074762Y-66650990D02*
G01*
X321730088Y-66931124D01*
X322336604Y-67357443D01*
X322524239Y-67532587D01*
X322998701Y-68116827D01*
X323325936Y-68756869D01*
X323509524Y-69431510D01*
X323553047Y-70119543D01*
X323460087Y-70799764D01*
X323234226Y-71450968D01*
X322879046Y-72051951D01*
X322398128Y-72581507D01*
X321795054Y-73018432D01*
X321577978Y-73134667D01*
X321243027Y-73291691D01*
X320971593Y-73388820D01*
X320695379Y-73442604D01*
X320346088Y-73469596D01*
X320166449Y-73476742D01*
X319706991Y-73480330D01*
X319354867Y-73449935D01*
X319050322Y-73379063D01*
X318945465Y-73344047D01*
X318236254Y-73004402D01*
X317625757Y-72530026D01*
X317125081Y-71931097D01*
X316826230Y-71401825D01*
X316723293Y-71164783D01*
X316656908Y-70949579D01*
X316619271Y-70707565D01*
X316602575Y-70390096D01*
X316599000Y-69985667D01*
X316601919Y-69567507D01*
X316616965Y-69269088D01*
X316653576Y-69040837D01*
X316721187Y-68833182D01*
X316829234Y-68596552D01*
X316884602Y-68485245D01*
X317293661Y-67841410D01*
X317800896Y-67318929D01*
X318385307Y-66921349D01*
X319025897Y-66652219D01*
X319701668Y-66515084D01*
X320391623Y-66513492D01*
X321074762Y-66650990D01*
G37*
G36*
X350448553Y-47049080D02*
G01*
X350747425Y-47080713D01*
X351000475Y-47146990D01*
X351269230Y-47258999D01*
X351280161Y-47264110D01*
X351887044Y-47629033D01*
X352367664Y-48101071D01*
X352729680Y-48678164D01*
X352865772Y-48971573D01*
X352948154Y-49214143D01*
X352990013Y-49469150D01*
X353004535Y-49799871D01*
X353005667Y-50002553D01*
X352997750Y-50407982D01*
X352966543Y-50706158D01*
X352900862Y-50958730D01*
X352789522Y-51227346D01*
X352779591Y-51248637D01*
X352443101Y-51792125D01*
X351988614Y-52273729D01*
X351462501Y-52647213D01*
X351288313Y-52735554D01*
X350732705Y-52916717D01*
X350122908Y-52993445D01*
X349522918Y-52962186D01*
X349094053Y-52857417D01*
X348434488Y-52540319D01*
X347889680Y-52099455D01*
X347455505Y-51531024D01*
X347268144Y-51175231D01*
X347123221Y-50703929D01*
X347064425Y-50148815D01*
X347090816Y-49571314D01*
X347201456Y-49032849D01*
X347305075Y-48760030D01*
X347646048Y-48210938D01*
X348108603Y-47723519D01*
X348645618Y-47344896D01*
X348798030Y-47267075D01*
X349070638Y-47151897D01*
X349322855Y-47083319D01*
X349616521Y-47050106D01*
X350013477Y-47041023D01*
X350042333Y-47041000D01*
X350448553Y-47049080D01*
G37*
G36*
X312864267Y-186204858D02*
G01*
X312880793Y-186210189D01*
X313056565Y-186278742D01*
X313189667Y-186368542D01*
X313286000Y-186502196D01*
X313351466Y-186702311D01*
X313391965Y-186991492D01*
X313413401Y-187392348D01*
X313421674Y-187927483D01*
X313422752Y-188286167D01*
X313424000Y-189831333D01*
X313170000Y-189831333D01*
X312916000Y-189831333D01*
X312916000Y-188392000D01*
X312914596Y-187862054D01*
X312908518Y-187474822D01*
X312894964Y-187203694D01*
X312871134Y-187022060D01*
X312834226Y-186903311D01*
X312781440Y-186820836D01*
X312746667Y-186783333D01*
X312496263Y-186642160D01*
X312198762Y-186632805D01*
X311914017Y-186755801D01*
X311888213Y-186775671D01*
X311815348Y-186841202D01*
X311762136Y-186919611D01*
X311724862Y-187037289D01*
X311699806Y-187220623D01*
X311683252Y-187496004D01*
X311671482Y-187889821D01*
X311661591Y-188384338D01*
X311634849Y-189831333D01*
X311386425Y-189831333D01*
X311138000Y-189831333D01*
X311138000Y-188011000D01*
X311138000Y-186190667D01*
X311349667Y-186190667D01*
X311499586Y-186217073D01*
X311555541Y-186330414D01*
X311561333Y-186451163D01*
X311561333Y-186711659D01*
X311772522Y-186460675D01*
X312070748Y-186229523D01*
X312442488Y-186142482D01*
X312864267Y-186204858D01*
G37*
G36*
X363978095Y-84860850D02*
G01*
X364323385Y-85552557D01*
X364598682Y-86108800D01*
X364810565Y-86545144D01*
X364965613Y-86877158D01*
X365070405Y-87120408D01*
X365131519Y-87290461D01*
X365155533Y-87402884D01*
X365149028Y-87473244D01*
X365118581Y-87517108D01*
X365105186Y-87527850D01*
X364955343Y-87616962D01*
X364884957Y-87638667D01*
X364831787Y-87565742D01*
X364713225Y-87358989D01*
X364538795Y-87036441D01*
X364318020Y-86616131D01*
X364060423Y-86116092D01*
X363775527Y-85554356D01*
X363610664Y-85225667D01*
X362405048Y-82812667D01*
X360054664Y-82812667D01*
X357704279Y-82812667D01*
X356498664Y-85225667D01*
X356203779Y-85813108D01*
X355932341Y-86348554D01*
X355693663Y-86814047D01*
X355497057Y-87191632D01*
X355351836Y-87463350D01*
X355267313Y-87611247D01*
X355250024Y-87633300D01*
X355146505Y-87600922D01*
X355016500Y-87551361D01*
X354870571Y-87476332D01*
X354826000Y-87429182D01*
X354862532Y-87345303D01*
X354966262Y-87128009D01*
X355128391Y-86795204D01*
X355340121Y-86364795D01*
X355592653Y-85854686D01*
X355877189Y-85282784D01*
X356096273Y-84844120D01*
X357366546Y-82304667D01*
X360033000Y-82304667D01*
X362699453Y-82304667D01*
X363978095Y-84860850D01*
G37*
G36*
X380833017Y-66592135D02*
G01*
X381486871Y-66817177D01*
X382091940Y-67170831D01*
X382627092Y-67649482D01*
X383071197Y-68249516D01*
X383200065Y-68485245D01*
X383326514Y-68746724D01*
X383408832Y-68959819D01*
X383456457Y-69174101D01*
X383478822Y-69439142D01*
X383485366Y-69804515D01*
X383485667Y-69985667D01*
X383482283Y-70408052D01*
X383466043Y-70711735D01*
X383427813Y-70947306D01*
X383358459Y-71165357D01*
X383248847Y-71416476D01*
X383213947Y-71490639D01*
X382820289Y-72127637D01*
X382293010Y-72673408D01*
X381652056Y-73108074D01*
X381525383Y-73173359D01*
X381217501Y-73313999D01*
X380950645Y-73400912D01*
X380658666Y-73449159D01*
X380275420Y-73473798D01*
X380192280Y-73476866D01*
X379721384Y-73479641D01*
X379360751Y-73446429D01*
X379054008Y-73371334D01*
X378997228Y-73351866D01*
X378256631Y-73007105D01*
X377638879Y-72548526D01*
X377149167Y-71982177D01*
X376792692Y-71314103D01*
X376574647Y-70550354D01*
X376570560Y-70527509D01*
X376530961Y-69830526D01*
X376645919Y-69127841D01*
X376904852Y-68451213D01*
X377297180Y-67832406D01*
X377571578Y-67522595D01*
X378152383Y-67050367D01*
X378790061Y-66724821D01*
X379463480Y-66542343D01*
X380151509Y-66499319D01*
X380833017Y-66592135D01*
G37*
G36*
X370446240Y-106565070D02*
G01*
X370750048Y-106581345D01*
X370985617Y-106619583D01*
X371203473Y-106688881D01*
X371454142Y-106798331D01*
X371525717Y-106832018D01*
X372175196Y-107231248D01*
X372725810Y-107758349D01*
X373153536Y-108389298D01*
X373224648Y-108530949D01*
X373347824Y-108803892D01*
X373426657Y-109030621D01*
X373470936Y-109264151D01*
X373490451Y-109557499D01*
X373494990Y-109963678D01*
X373495000Y-109995058D01*
X373491949Y-110402836D01*
X373475405Y-110695064D01*
X373434279Y-110925504D01*
X373357482Y-111147923D01*
X373233927Y-111416084D01*
X373178794Y-111528249D01*
X372763336Y-112194129D01*
X372242047Y-112729543D01*
X371620848Y-113129832D01*
X370905657Y-113390337D01*
X370774115Y-113420607D01*
X370372451Y-113497249D01*
X370062927Y-113528670D01*
X369774997Y-113516638D01*
X369438119Y-113462920D01*
X369397838Y-113455091D01*
X368694185Y-113236584D01*
X368064831Y-112883978D01*
X367524209Y-112418018D01*
X367086750Y-111859452D01*
X366766884Y-111229027D01*
X366579042Y-110547489D01*
X366537656Y-109835587D01*
X366586982Y-109414016D01*
X366799569Y-108707619D01*
X367156147Y-108051717D01*
X367633906Y-107475965D01*
X368210040Y-107010017D01*
X368605276Y-106789918D01*
X368843063Y-106686564D01*
X369058363Y-106619901D01*
X369299887Y-106582091D01*
X369616340Y-106565296D01*
X370023667Y-106561667D01*
X370446240Y-106565070D01*
G37*
G36*
X330491732Y-106565893D02*
G01*
X330801940Y-106583796D01*
X331040330Y-106623215D01*
X331255611Y-106691989D01*
X331479390Y-106789918D01*
X332001855Y-107106066D01*
X332501848Y-107536808D01*
X332924986Y-108030438D01*
X333134911Y-108364006D01*
X333415694Y-109056469D01*
X333539628Y-109761212D01*
X333516226Y-110458948D01*
X333355005Y-111130392D01*
X333065479Y-111756258D01*
X332657164Y-112317259D01*
X332139575Y-112794110D01*
X331522227Y-113167524D01*
X330814636Y-113418215D01*
X330620577Y-113460247D01*
X330302431Y-113514381D01*
X330049951Y-113533993D01*
X329797767Y-113516977D01*
X329480507Y-113461230D01*
X329270694Y-113416797D01*
X328557692Y-113178573D01*
X327927160Y-112795842D01*
X327390750Y-112277908D01*
X326960117Y-111634079D01*
X326905873Y-111528249D01*
X326763728Y-111232020D01*
X326672146Y-110999972D01*
X326620036Y-110778340D01*
X326596311Y-110513360D01*
X326589882Y-110151265D01*
X326589667Y-109995058D01*
X326593575Y-109579765D01*
X326611826Y-109280729D01*
X326654209Y-109044936D01*
X326730513Y-108819369D01*
X326850529Y-108551015D01*
X326860018Y-108530949D01*
X327259248Y-107881471D01*
X327786349Y-107330856D01*
X328417298Y-106903131D01*
X328558949Y-106832018D01*
X328825223Y-106711438D01*
X329046406Y-106633220D01*
X329273023Y-106588270D01*
X329555602Y-106567495D01*
X329944667Y-106561800D01*
X330061000Y-106561667D01*
X330491732Y-106565893D01*
G37*
G36*
X331387574Y-80951263D02*
G01*
X331635416Y-81132686D01*
X331971437Y-81434828D01*
X332204163Y-81660518D01*
X333024333Y-82470172D01*
X332173344Y-83322559D01*
X331802565Y-83685472D01*
X331528764Y-83932377D01*
X331337538Y-84074814D01*
X331214488Y-84124323D01*
X331178511Y-84119748D01*
X331059182Y-84028590D01*
X331060701Y-83882788D01*
X331188603Y-83669039D01*
X331448424Y-83374042D01*
X331518849Y-83301955D01*
X331752435Y-83061737D01*
X331877429Y-82916096D01*
X331906789Y-82841706D01*
X331853470Y-82815244D01*
X331790638Y-82812667D01*
X331271054Y-82878260D01*
X330699581Y-83060526D01*
X330121832Y-83337695D01*
X329583422Y-83687996D01*
X329142324Y-84076623D01*
X328649439Y-84689727D01*
X328275010Y-85379902D01*
X328007809Y-86171711D01*
X327868465Y-86863548D01*
X327814284Y-87190815D01*
X327764662Y-87386478D01*
X327701900Y-87486796D01*
X327608297Y-87528030D01*
X327539021Y-87538457D01*
X327386824Y-87540450D01*
X327322779Y-87467260D01*
X327309349Y-87273192D01*
X327309333Y-87258837D01*
X327355452Y-86777196D01*
X327484831Y-86204715D01*
X327683999Y-85589541D01*
X327939488Y-84979824D01*
X327957416Y-84942169D01*
X328416302Y-84163046D01*
X328982219Y-83515133D01*
X329655021Y-82998552D01*
X330434560Y-82613424D01*
X330991878Y-82435342D01*
X331319538Y-82363024D01*
X331630453Y-82315568D01*
X331790842Y-82304667D01*
X332088108Y-82304667D01*
X331553143Y-81764904D01*
X331250892Y-81436840D01*
X331083119Y-81198876D01*
X331048562Y-81067376D01*
X331106602Y-80925001D01*
X331215454Y-80884166D01*
X331387574Y-80951263D01*
G37*
G36*
X367499209Y-82221251D02*
G01*
X368359917Y-82304123D01*
X369169692Y-82540617D01*
X369915304Y-82919270D01*
X370583525Y-83428623D01*
X371161124Y-84057213D01*
X371634870Y-84793580D01*
X371991534Y-85626262D01*
X372165103Y-86263367D01*
X372313910Y-86962401D01*
X372819788Y-86450898D01*
X373144546Y-86148504D01*
X373379095Y-85989287D01*
X373494135Y-85963531D01*
X373628377Y-86010539D01*
X373664624Y-86108132D01*
X373595880Y-86268918D01*
X373415147Y-86505502D01*
X373115428Y-86830493D01*
X372881564Y-87067203D01*
X372052563Y-87892740D01*
X371225089Y-87062150D01*
X370867337Y-86694090D01*
X370626023Y-86423063D01*
X370489896Y-86234886D01*
X370447704Y-86115378D01*
X370452532Y-86088446D01*
X370543723Y-85969517D01*
X370689820Y-85971570D01*
X370904043Y-86100122D01*
X371199614Y-86360688D01*
X371270045Y-86429516D01*
X371495691Y-86638922D01*
X371665181Y-86769406D01*
X371752779Y-86802132D01*
X371759333Y-86787648D01*
X371728039Y-86565448D01*
X371644777Y-86237063D01*
X371525479Y-85851430D01*
X371386078Y-85457488D01*
X371242504Y-85104176D01*
X371145770Y-84902944D01*
X370728081Y-84285579D01*
X370184578Y-83737889D01*
X369552610Y-83289640D01*
X368869526Y-82970598D01*
X368626667Y-82895337D01*
X368336219Y-82833351D01*
X367965202Y-82775202D01*
X367653000Y-82739412D01*
X367342803Y-82707421D01*
X367163017Y-82669995D01*
X367075169Y-82609335D01*
X367040788Y-82507644D01*
X367033543Y-82452833D01*
X367026156Y-82322493D01*
X367067997Y-82253127D01*
X367197357Y-82225694D01*
X367452529Y-82221148D01*
X367499209Y-82221251D01*
G37*
G36*
X309216556Y-158480393D02*
G01*
X309542923Y-158513794D01*
X309745324Y-158578750D01*
X309845923Y-158681661D01*
X309868000Y-158796843D01*
X309861237Y-158894519D01*
X309818928Y-158954012D01*
X309708046Y-158983865D01*
X309495562Y-158992620D01*
X309148447Y-158988820D01*
X309127167Y-158988457D01*
X308669856Y-158994334D01*
X308350026Y-159038775D01*
X308137807Y-159134501D01*
X308003331Y-159294233D01*
X307924843Y-159500496D01*
X307886112Y-159737318D01*
X307859801Y-160095791D01*
X307845608Y-160534487D01*
X307843231Y-161011981D01*
X307852367Y-161486845D01*
X307872715Y-161917652D01*
X307903972Y-162262976D01*
X307945835Y-162481390D01*
X307946612Y-162483692D01*
X308118232Y-162740804D01*
X308408427Y-162903379D01*
X308787682Y-162958993D01*
X309027868Y-162938801D01*
X309360000Y-162885691D01*
X309360000Y-162092179D01*
X309360000Y-161298667D01*
X309021333Y-161298667D01*
X308804178Y-161288636D01*
X308707643Y-161234282D01*
X308683201Y-161099208D01*
X308682667Y-161044667D01*
X308682667Y-160790667D01*
X309317667Y-160790667D01*
X309952667Y-160790667D01*
X309952667Y-162050083D01*
X309952667Y-163309500D01*
X309688083Y-163362417D01*
X309394314Y-163398976D01*
X309028976Y-163413499D01*
X308644316Y-163407594D01*
X308292580Y-163382869D01*
X308026013Y-163340933D01*
X307928828Y-163308252D01*
X307686178Y-163129102D01*
X307501169Y-162861731D01*
X307369974Y-162490745D01*
X307288769Y-162000755D01*
X307253730Y-161376367D01*
X307260502Y-160618973D01*
X307298144Y-159948984D01*
X307372439Y-159429120D01*
X307495417Y-159041971D01*
X307679109Y-158770127D01*
X307935545Y-158596180D01*
X308276757Y-158502720D01*
X308714774Y-158472338D01*
X308744060Y-158472142D01*
X309216556Y-158480393D01*
G37*
G36*
X312916439Y-82940104D02*
G01*
X313218829Y-83248489D01*
X313469670Y-83517968D01*
X313648048Y-83724997D01*
X313733050Y-83846032D01*
X313736858Y-83863759D01*
X313649308Y-83971945D01*
X313568368Y-84033068D01*
X313478924Y-84056393D01*
X313360647Y-84008909D01*
X313186988Y-83873157D01*
X312931398Y-83631675D01*
X312878187Y-83579147D01*
X312582880Y-83301865D01*
X312390561Y-83157618D01*
X312300306Y-83145740D01*
X312294991Y-83157029D01*
X312260318Y-83295456D01*
X312201371Y-83547567D01*
X312130214Y-83861659D01*
X312122133Y-83897889D01*
X311860216Y-84739368D01*
X311472128Y-85512186D01*
X310974159Y-86194627D01*
X310382594Y-86764974D01*
X309713722Y-87201512D01*
X309603396Y-87256172D01*
X309021864Y-87491025D01*
X308401175Y-87671434D01*
X307806344Y-87780905D01*
X307433833Y-87806530D01*
X307208029Y-87798957D01*
X307104228Y-87751683D01*
X307075229Y-87631582D01*
X307074000Y-87554000D01*
X307085721Y-87395778D01*
X307152048Y-87322234D01*
X307319724Y-87301055D01*
X307441456Y-87300000D01*
X307832501Y-87264003D01*
X308310527Y-87167425D01*
X308812061Y-87027387D01*
X309273632Y-86861010D01*
X309553351Y-86730350D01*
X310118155Y-86338080D01*
X310635404Y-85808915D01*
X311082148Y-85173495D01*
X311435437Y-84462458D01*
X311595509Y-84003799D01*
X311696974Y-83633905D01*
X311731361Y-83414255D01*
X311688731Y-83335691D01*
X311559142Y-83389057D01*
X311332655Y-83565193D01*
X311222122Y-83659805D01*
X310889858Y-83918684D01*
X310652353Y-84037442D01*
X310509372Y-84016140D01*
X310460681Y-83854835D01*
X310460667Y-83850818D01*
X310518163Y-83737089D01*
X310675560Y-83533330D01*
X310910217Y-83266378D01*
X311199498Y-82963068D01*
X311265042Y-82897291D01*
X312069417Y-82096261D01*
X312916439Y-82940104D01*
G37*
G36*
X387630290Y-82060527D02*
G01*
X387708501Y-82116549D01*
X387752992Y-82258394D01*
X387786849Y-82525723D01*
X387790158Y-82557244D01*
X387900406Y-83161840D01*
X388097402Y-83811370D01*
X388355567Y-84434173D01*
X388644954Y-84952063D01*
X389055775Y-85453340D01*
X389571362Y-85908940D01*
X390136184Y-86274371D01*
X390506779Y-86443734D01*
X390794990Y-86537983D01*
X391115558Y-86622125D01*
X391427712Y-86688344D01*
X391690686Y-86728823D01*
X391863710Y-86735744D01*
X391910000Y-86712790D01*
X391853912Y-86631986D01*
X391705362Y-86466390D01*
X391493919Y-86248607D01*
X391444333Y-86199333D01*
X391157218Y-85888830D01*
X391009821Y-85658669D01*
X390998277Y-85499435D01*
X391117005Y-85402364D01*
X391221512Y-85422216D01*
X391401301Y-85541852D01*
X391667503Y-85770141D01*
X392031248Y-86115954D01*
X392111839Y-86195216D01*
X392968333Y-87041153D01*
X392165672Y-87847910D01*
X391792616Y-88212796D01*
X391512232Y-88460443D01*
X391307192Y-88602353D01*
X391160169Y-88650025D01*
X391053833Y-88614960D01*
X391035111Y-88598222D01*
X390980329Y-88471347D01*
X391037952Y-88295095D01*
X391217086Y-88052179D01*
X391459659Y-87792512D01*
X391712461Y-87520490D01*
X391833035Y-87348350D01*
X391823547Y-87272955D01*
X391819493Y-87271610D01*
X391676914Y-87239291D01*
X391424693Y-87189407D01*
X391148000Y-87138302D01*
X390370560Y-86916281D01*
X389634428Y-86546610D01*
X388967247Y-86050419D01*
X388396661Y-85448837D01*
X387950314Y-84762997D01*
X387894401Y-84651283D01*
X387690507Y-84173139D01*
X387510151Y-83649630D01*
X387367779Y-83132032D01*
X387277835Y-82671620D01*
X387253333Y-82375790D01*
X387264861Y-82164097D01*
X387323857Y-82072179D01*
X387466940Y-82050826D01*
X387495272Y-82050667D01*
X387630290Y-82060527D01*
G37*
G36*
X315468415Y-161229436D02*
G01*
X316009941Y-161229436D01*
X316031220Y-161337665D01*
X316132345Y-161359877D01*
X316356728Y-161376121D01*
X316658316Y-161383242D01*
X316697778Y-161383333D01*
X317318667Y-161383333D01*
X317318667Y-160978839D01*
X317283577Y-160601484D01*
X317166029Y-160359710D01*
X316947604Y-160232341D01*
X316639511Y-160198000D01*
X316356305Y-160216854D01*
X316198356Y-160281590D01*
X316147486Y-160346167D01*
X316093569Y-160512656D01*
X316047923Y-160755870D01*
X316017672Y-161015050D01*
X316009941Y-161229436D01*
X315468415Y-161229436D01*
X315477723Y-160962674D01*
X315537590Y-160535668D01*
X315644369Y-160217964D01*
X315804809Y-159981212D01*
X315833015Y-159951833D01*
X315965412Y-159837113D01*
X316109526Y-159770975D01*
X316315782Y-159740407D01*
X316634604Y-159732396D01*
X316683667Y-159732333D01*
X317018113Y-159738155D01*
X317234429Y-159764731D01*
X317383669Y-159825731D01*
X317516886Y-159934823D01*
X317545572Y-159963087D01*
X317654621Y-160085261D01*
X317725341Y-160216131D01*
X317768482Y-160397610D01*
X317794794Y-160671611D01*
X317811595Y-161000253D01*
X317846864Y-161806667D01*
X316922137Y-161806667D01*
X315997410Y-161806667D01*
X316049874Y-162283304D01*
X316103299Y-162605845D01*
X316198919Y-162815757D01*
X316367035Y-162932892D01*
X316637951Y-162977104D01*
X317041969Y-162968246D01*
X317090717Y-162965215D01*
X317751767Y-162922676D01*
X317725717Y-163147838D01*
X317695766Y-163278702D01*
X317615459Y-163352597D01*
X317441057Y-163393318D01*
X317234000Y-163415333D01*
X316877260Y-163431516D01*
X316511063Y-163423701D01*
X316371396Y-163412022D01*
X316093169Y-163351931D01*
X315863377Y-163254864D01*
X315805110Y-163213117D01*
X315654365Y-162980004D01*
X315543816Y-162599803D01*
X315477228Y-162090793D01*
X315458020Y-161527332D01*
X315468415Y-161229436D01*
G37*
G36*
X310560734Y-162416726D02*
G01*
X311057283Y-162416726D01*
X311099327Y-162687620D01*
X311186381Y-162858952D01*
X311361241Y-162945209D01*
X311618860Y-162987544D01*
X311876821Y-162979334D01*
X312035492Y-162927203D01*
X312201952Y-162722671D01*
X312301125Y-162395770D01*
X312323333Y-162108566D01*
X312323333Y-161722000D01*
X311775979Y-161722000D01*
X311464813Y-161730619D01*
X311279209Y-161763911D01*
X311175934Y-161833024D01*
X311140979Y-161885767D01*
X311070035Y-162125166D01*
X311057283Y-162416726D01*
X310560734Y-162416726D01*
X310558987Y-162055782D01*
X310635470Y-161711855D01*
X310809711Y-161485015D01*
X311100658Y-161355268D01*
X311527261Y-161302619D01*
X311734650Y-161298667D01*
X312323333Y-161298667D01*
X312323333Y-160881381D01*
X312303405Y-160570736D01*
X312225479Y-160367727D01*
X312062343Y-160253079D01*
X311786783Y-160207515D01*
X311377639Y-160211481D01*
X310714667Y-160241589D01*
X310714667Y-160016441D01*
X310726821Y-159890009D01*
X310789657Y-159815277D01*
X310942734Y-159770015D01*
X311219610Y-159732688D01*
X311747368Y-159708334D01*
X312192018Y-159761823D01*
X312521606Y-159888458D01*
X312585154Y-159933308D01*
X312696252Y-160063061D01*
X312780742Y-160262583D01*
X312841613Y-160551886D01*
X312881854Y-160950982D01*
X312904453Y-161479886D01*
X312912313Y-162124167D01*
X312916000Y-163415333D01*
X312662000Y-163415333D01*
X312486658Y-163396518D01*
X312417458Y-163304899D01*
X312405425Y-163140167D01*
X312397575Y-162965846D01*
X312367964Y-162942678D01*
X312310232Y-163034333D01*
X312152396Y-163245983D01*
X311938367Y-163365067D01*
X311622917Y-163412092D01*
X311469864Y-163415333D01*
X311106499Y-163389453D01*
X310861242Y-163304942D01*
X310792279Y-163257313D01*
X310679632Y-163134928D01*
X310611690Y-162962104D01*
X310572671Y-162689603D01*
X310561315Y-162536791D01*
X310560734Y-162416726D01*
G37*
G36*
X344815985Y-40040879D02*
G01*
X345324134Y-40040879D01*
X345362742Y-40427722D01*
X345450679Y-40692981D01*
X345754859Y-41098589D01*
X346211289Y-41451196D01*
X346809888Y-41745990D01*
X347540576Y-41978162D01*
X348393271Y-42142900D01*
X348526541Y-42160916D01*
X348992570Y-42219666D01*
X349331761Y-42247775D01*
X349585697Y-42232179D01*
X349795959Y-42159816D01*
X350004128Y-42017621D01*
X350251786Y-41792532D01*
X350513876Y-41536570D01*
X350892510Y-41181048D01*
X351167023Y-40957535D01*
X351338393Y-40865271D01*
X351380672Y-40865783D01*
X351521315Y-40956179D01*
X351548667Y-41089015D01*
X351456677Y-41281561D01*
X351239296Y-41551085D01*
X351081192Y-41720633D01*
X350553496Y-42270173D01*
X351102248Y-42212867D01*
X352067602Y-42072710D01*
X352895353Y-41869354D01*
X353580354Y-41605012D01*
X354117460Y-41281900D01*
X354501526Y-40902232D01*
X354633987Y-40692981D01*
X354731802Y-40375162D01*
X354760394Y-39982384D01*
X354719953Y-39594144D01*
X354630753Y-39325753D01*
X354333971Y-38927515D01*
X353888841Y-38577954D01*
X353311043Y-38283682D01*
X352616256Y-38051312D01*
X351820158Y-37887456D01*
X351021191Y-37803482D01*
X350211667Y-37753541D01*
X349536319Y-38439104D01*
X349181836Y-38784138D01*
X348917597Y-39003529D01*
X348729490Y-39104990D01*
X348603401Y-39096231D01*
X348527281Y-38990453D01*
X348557917Y-38852275D01*
X348721186Y-38618744D01*
X349005056Y-38301713D01*
X349534333Y-37747185D01*
X348899333Y-37806467D01*
X347987281Y-37933270D01*
X347191150Y-38130220D01*
X346521045Y-38392861D01*
X345987070Y-38716737D01*
X345599327Y-39097395D01*
X345453913Y-39325753D01*
X345354587Y-39647058D01*
X345324134Y-40040879D01*
X344815985Y-40040879D01*
X344814167Y-40006031D01*
X344891755Y-39418492D01*
X345123636Y-38898634D01*
X345508487Y-38447372D01*
X346044985Y-38065626D01*
X346731804Y-37754315D01*
X347567622Y-37514355D01*
X348551114Y-37346666D01*
X348668250Y-37332673D01*
X349495500Y-37237693D01*
X348985639Y-36706726D01*
X348708293Y-36396260D01*
X348560741Y-36170326D01*
X348537258Y-36011924D01*
X348632119Y-35904056D01*
X348703995Y-35870450D01*
X348833683Y-35907078D01*
X349068589Y-36076165D01*
X349408772Y-36377755D01*
X349565282Y-36526748D01*
X350296333Y-37233022D01*
X351270000Y-37328389D01*
X352264480Y-37464980D01*
X353107946Y-37666694D01*
X353806891Y-37936488D01*
X354367812Y-38277318D01*
X354797201Y-38692141D01*
X355029288Y-39039620D01*
X355234519Y-39579246D01*
X355276077Y-40126558D01*
X355157611Y-40663219D01*
X354882770Y-41170895D01*
X354525921Y-41568691D01*
X354056395Y-41918895D01*
X353476764Y-42206598D01*
X352773287Y-42436410D01*
X351932225Y-42612942D01*
X351072741Y-42727313D01*
X350579148Y-42779207D01*
X351094018Y-43315390D01*
X351382198Y-43637465D01*
X351534842Y-43862778D01*
X351557385Y-43985787D01*
X351476702Y-44094173D01*
X351346525Y-44098283D01*
X351152746Y-43990613D01*
X350881259Y-43763656D01*
X350565692Y-43458115D01*
X349907689Y-42796231D01*
X348874344Y-42697565D01*
X347922749Y-42572521D01*
X347117762Y-42390731D01*
X346444771Y-42147233D01*
X345889165Y-41837067D01*
X345554157Y-41570183D01*
X345174780Y-41160960D01*
X344939810Y-40749882D01*
X344829225Y-40294633D01*
X344815985Y-40040879D01*
G37*
G36*
X321767939Y-55947971D02*
G01*
X323275856Y-56215920D01*
X324755550Y-56649971D01*
X326188284Y-57243086D01*
X327546689Y-57982115D01*
X328802795Y-58851839D01*
X329949765Y-59843087D01*
X330980757Y-60946690D01*
X331888934Y-62153480D01*
X332667454Y-63454288D01*
X333309479Y-64839945D01*
X333808168Y-66301281D01*
X334156683Y-67829128D01*
X334177824Y-67953667D01*
X334218802Y-68298197D01*
X334252118Y-68771219D01*
X334275759Y-69331986D01*
X334287709Y-69939752D01*
X334288759Y-70197333D01*
X334284261Y-70829728D01*
X334269572Y-71336864D01*
X334241329Y-71762678D01*
X334196168Y-72151104D01*
X334130727Y-72546081D01*
X334094599Y-72733473D01*
X333738515Y-74173801D01*
X333260420Y-75546485D01*
X332671221Y-76822465D01*
X332336831Y-77417669D01*
X332105514Y-77781953D01*
X331828765Y-78183962D01*
X331525175Y-78600327D01*
X331213336Y-79007682D01*
X330911841Y-79382659D01*
X330639282Y-79701892D01*
X330414250Y-79942013D01*
X330255339Y-80079655D01*
X330199983Y-80103333D01*
X330096125Y-80046788D01*
X329978377Y-79936259D01*
X329916713Y-79857212D01*
X329900404Y-79777230D01*
X329943758Y-79668271D01*
X330061084Y-79502291D01*
X330266690Y-79251248D01*
X330421172Y-79068425D01*
X331343414Y-77862992D01*
X332114226Y-76597262D01*
X332740601Y-75256859D01*
X333229530Y-73827406D01*
X333499878Y-72737333D01*
X333608041Y-72063214D01*
X333677684Y-71273610D01*
X333708731Y-70417947D01*
X333701106Y-69545651D01*
X333654735Y-68706150D01*
X333569541Y-67948869D01*
X333507741Y-67593376D01*
X333265650Y-66556773D01*
X332967883Y-65604356D01*
X332589029Y-64662154D01*
X332264586Y-63974333D01*
X331536001Y-62693417D01*
X330672557Y-61505565D01*
X329686411Y-60419819D01*
X328589723Y-59445223D01*
X327394648Y-58590816D01*
X326113346Y-57865643D01*
X324757974Y-57278745D01*
X323340690Y-56839163D01*
X322400495Y-56638212D01*
X321765543Y-56551348D01*
X321032244Y-56492197D01*
X320252778Y-56461740D01*
X319479328Y-56460958D01*
X318764076Y-56490833D01*
X318159203Y-56552346D01*
X318123000Y-56557762D01*
X316609400Y-56872005D01*
X315168301Y-57334992D01*
X313807400Y-57939026D01*
X312534396Y-58676409D01*
X311356985Y-59539442D01*
X310282864Y-60520428D01*
X309319731Y-61611669D01*
X308475282Y-62805466D01*
X307757216Y-64094122D01*
X307173230Y-65469939D01*
X306731021Y-66925219D01*
X306474104Y-68207667D01*
X306407629Y-68822477D01*
X306374989Y-69550439D01*
X306375164Y-70339000D01*
X306407133Y-71135603D01*
X306469876Y-71887695D01*
X306557764Y-72517064D01*
X306856312Y-73802421D01*
X307287257Y-75079467D01*
X307835105Y-76315652D01*
X308484362Y-77478429D01*
X309219534Y-78535249D01*
X309691804Y-79100902D01*
X309898037Y-79340395D01*
X310050310Y-79535807D01*
X310120316Y-79650397D01*
X310122000Y-79659279D01*
X310064878Y-79768446D01*
X309942673Y-79899711D01*
X309850151Y-79974839D01*
X309769441Y-79992371D01*
X309668485Y-79934951D01*
X309515222Y-79785221D01*
X309302259Y-79553000D01*
X308773113Y-78907792D01*
X308236229Y-78140550D01*
X307716720Y-77295352D01*
X307239698Y-76416281D01*
X306830275Y-75547417D01*
X306513565Y-74732840D01*
X306456434Y-74557667D01*
X306059238Y-73016582D01*
X305828615Y-71472779D01*
X305764015Y-69934125D01*
X305864888Y-68408490D01*
X306130683Y-66903741D01*
X306560851Y-65427746D01*
X307154841Y-63988373D01*
X307202311Y-63889667D01*
X307944346Y-62549946D01*
X308818049Y-61307157D01*
X309812391Y-60169901D01*
X310916344Y-59146781D01*
X312118881Y-58246399D01*
X313408973Y-57477356D01*
X314775593Y-56848254D01*
X316207713Y-56367696D01*
X317128248Y-56147192D01*
X318688795Y-55912961D01*
X320237139Y-55846770D01*
X321767939Y-55947971D01*
G37*
G36*
X381624186Y-55665958D02*
G01*
X382427333Y-55774993D01*
X383919208Y-56104256D01*
X385352135Y-56587200D01*
X386716204Y-57215425D01*
X388001504Y-57980536D01*
X389198124Y-58874134D01*
X390296154Y-59887821D01*
X391285684Y-61013201D01*
X392156804Y-62241875D01*
X392899602Y-63565447D01*
X393504169Y-64975518D01*
X393598575Y-65240854D01*
X393844961Y-65998729D01*
X394031482Y-66686228D01*
X394165285Y-67348936D01*
X394253516Y-68032437D01*
X394303318Y-68782316D01*
X394321839Y-69644158D01*
X394322425Y-69858667D01*
X394319624Y-70499989D01*
X394309406Y-71009990D01*
X394289049Y-71426619D01*
X394255831Y-71787822D01*
X394207030Y-72131547D01*
X394139924Y-72495742D01*
X394129568Y-72547291D01*
X393733988Y-74089985D01*
X393187040Y-75556793D01*
X392488773Y-76947611D01*
X391639236Y-78262336D01*
X390961022Y-79129667D01*
X390686249Y-79451604D01*
X390430984Y-79742651D01*
X390226168Y-79967993D01*
X390114023Y-80082641D01*
X389908409Y-80273616D01*
X389713747Y-80066408D01*
X389519085Y-79859200D01*
X390123814Y-79198099D01*
X391104952Y-78002301D01*
X391941524Y-76718575D01*
X392632774Y-75348400D01*
X393177942Y-73893254D01*
X393535564Y-72546751D01*
X393601304Y-72224386D01*
X393650066Y-71921972D01*
X393684231Y-71605403D01*
X393706180Y-71240574D01*
X393718294Y-70793379D01*
X393722954Y-70229710D01*
X393723203Y-69858667D01*
X393720193Y-69210724D01*
X393710979Y-68697927D01*
X393693169Y-68286134D01*
X393664372Y-67941200D01*
X393622197Y-67628981D01*
X393564253Y-67315334D01*
X393535547Y-67179156D01*
X393130890Y-65687472D01*
X392582791Y-64272734D01*
X391898679Y-62943362D01*
X391085987Y-61707779D01*
X390152146Y-60574407D01*
X389104587Y-59551667D01*
X387950742Y-58647982D01*
X386698041Y-57871774D01*
X385353917Y-57231464D01*
X384468233Y-56903199D01*
X383725529Y-56671681D01*
X383048361Y-56497364D01*
X382370698Y-56366553D01*
X381626511Y-56265556D01*
X381161639Y-56217441D01*
X379983439Y-56171485D01*
X378737541Y-56244140D01*
X377471281Y-56429754D01*
X376231991Y-56722674D01*
X375781000Y-56859962D01*
X375280569Y-57044917D01*
X374689628Y-57298669D01*
X374058802Y-57596452D01*
X373438720Y-57913502D01*
X372880007Y-58225054D01*
X372479000Y-58475212D01*
X371269386Y-59389200D01*
X370176745Y-60420710D01*
X369207994Y-61558570D01*
X368370053Y-62791609D01*
X367669840Y-64108654D01*
X367114273Y-65498535D01*
X366710271Y-66950079D01*
X366504145Y-68123000D01*
X366456425Y-68661703D01*
X366435288Y-69312294D01*
X366439007Y-70028363D01*
X366465859Y-70763503D01*
X366514116Y-71471302D01*
X366582054Y-72105353D01*
X366667946Y-72619246D01*
X366672012Y-72637921D01*
X367088047Y-74154321D01*
X367648385Y-75583194D01*
X368352252Y-76923052D01*
X369198878Y-78172410D01*
X370094566Y-79231395D01*
X370602218Y-79774078D01*
X370417599Y-79958697D01*
X370309409Y-80050608D01*
X370205224Y-80082091D01*
X370083075Y-80039322D01*
X369920988Y-79908477D01*
X369696993Y-79675733D01*
X369389119Y-79327267D01*
X369359156Y-79292764D01*
X368393928Y-78053503D01*
X367573992Y-76727477D01*
X366899195Y-75314376D01*
X366369382Y-73813891D01*
X366071785Y-72652667D01*
X366006463Y-72334573D01*
X365957531Y-72039823D01*
X365922736Y-71735650D01*
X365899829Y-71389286D01*
X365886556Y-70967967D01*
X365880667Y-70438926D01*
X365879804Y-69858667D01*
X365888241Y-69025820D01*
X365915830Y-68321735D01*
X365968590Y-67706349D01*
X366052537Y-67139601D01*
X366173689Y-66581430D01*
X366338063Y-65991772D01*
X366551679Y-65330568D01*
X366566559Y-65286667D01*
X367136897Y-63861631D01*
X367843224Y-62527971D01*
X368675176Y-61291901D01*
X369622392Y-60159637D01*
X370674507Y-59137393D01*
X371821157Y-58231384D01*
X373051980Y-57447825D01*
X374356612Y-56792931D01*
X375724689Y-56272917D01*
X377145849Y-55893998D01*
X378609727Y-55662388D01*
X380105961Y-55584304D01*
X381624186Y-55665958D01*
G37*
G36*
X352303113Y-55752224D02*
G01*
X353768065Y-56061698D01*
X355192697Y-56521137D01*
X356563773Y-57125817D01*
X357868062Y-57871013D01*
X359092329Y-58752001D01*
X360223341Y-59764058D01*
X360849819Y-60430125D01*
X361778631Y-61610587D01*
X362585149Y-62900484D01*
X363261928Y-64284813D01*
X363801519Y-65748575D01*
X364157532Y-67093084D01*
X364221209Y-67405278D01*
X364268921Y-67699976D01*
X364302874Y-68009667D01*
X364325274Y-68366843D01*
X364338327Y-68803994D01*
X364344240Y-69353611D01*
X364345316Y-69858667D01*
X364343367Y-70511972D01*
X364336011Y-71028835D01*
X364320984Y-71442117D01*
X364296023Y-71784681D01*
X364258864Y-72089389D01*
X364207245Y-72389101D01*
X364152867Y-72652667D01*
X363732820Y-74209057D01*
X363164138Y-75684474D01*
X362447048Y-77078470D01*
X361581775Y-78390596D01*
X360751612Y-79416721D01*
X360484737Y-79708955D01*
X360248103Y-79949830D01*
X360069204Y-80112486D01*
X359980815Y-80169703D01*
X359833366Y-80130710D01*
X359700025Y-80024956D01*
X359638479Y-79946940D01*
X359621750Y-79869672D01*
X359664991Y-79766763D01*
X359783358Y-79611822D01*
X359992006Y-79378461D01*
X360200197Y-79153988D01*
X361126747Y-78036066D01*
X361932917Y-76805072D01*
X362612452Y-75473032D01*
X363159099Y-74051971D01*
X363515390Y-72779667D01*
X363594559Y-72432283D01*
X363653982Y-72134531D01*
X363696462Y-71852482D01*
X363724799Y-71552203D01*
X363741796Y-71199763D01*
X363750254Y-70761233D01*
X363752975Y-70202680D01*
X363753073Y-69901000D01*
X363745515Y-69092168D01*
X363719526Y-68411123D01*
X363669160Y-67816780D01*
X363588472Y-67268056D01*
X363471517Y-66723864D01*
X363312347Y-66143120D01*
X363121078Y-65533766D01*
X362588959Y-64172859D01*
X361910303Y-62881790D01*
X361096943Y-61671836D01*
X360160710Y-60554276D01*
X359113438Y-59540387D01*
X357966958Y-58641447D01*
X356733103Y-57868733D01*
X355423706Y-57233524D01*
X354050598Y-56747098D01*
X353839962Y-56687689D01*
X352320590Y-56357141D01*
X350806658Y-56194012D01*
X349304825Y-56197639D01*
X347821746Y-56367358D01*
X346364080Y-56702505D01*
X344938484Y-57202418D01*
X343909519Y-57677316D01*
X342600369Y-58438740D01*
X341396430Y-59327714D01*
X340305000Y-60333834D01*
X339333380Y-61446694D01*
X338488867Y-62655888D01*
X337778762Y-63951011D01*
X337210364Y-65321658D01*
X336790972Y-66757424D01*
X336534983Y-68190034D01*
X336482075Y-68823332D01*
X336462859Y-69559806D01*
X336475325Y-70347444D01*
X336517465Y-71134233D01*
X336587271Y-71868159D01*
X336682733Y-72497211D01*
X336705683Y-72610333D01*
X337111562Y-74109115D01*
X337671393Y-75538641D01*
X338382273Y-76893244D01*
X339241303Y-78167260D01*
X340052444Y-79145883D01*
X340309141Y-79432417D01*
X340466367Y-79623381D01*
X340539415Y-79747714D01*
X340543581Y-79834357D01*
X340494155Y-79912250D01*
X340471159Y-79938244D01*
X340319286Y-80063523D01*
X340211933Y-80103333D01*
X340101955Y-80038787D01*
X339912281Y-79860826D01*
X339662834Y-79592964D01*
X339373536Y-79258716D01*
X339064312Y-78881597D01*
X338755083Y-78485121D01*
X338465773Y-78092804D01*
X338275112Y-77817333D01*
X337478745Y-76474732D01*
X336826020Y-75047590D01*
X336322768Y-73549761D01*
X336101363Y-72652667D01*
X336034558Y-72319818D01*
X335984880Y-72006726D01*
X335949839Y-71678761D01*
X335926946Y-71301296D01*
X335913711Y-70839703D01*
X335907644Y-70259354D01*
X335906576Y-69943333D01*
X335907639Y-69296224D01*
X335915308Y-68782645D01*
X335932027Y-68366842D01*
X335960240Y-68013063D01*
X336002391Y-67685556D01*
X336060924Y-67348566D01*
X336096144Y-67170042D01*
X336485592Y-65657328D01*
X337021371Y-64218169D01*
X337695142Y-62860690D01*
X338498563Y-61593016D01*
X339423293Y-60423273D01*
X340460990Y-59359584D01*
X341603313Y-58410077D01*
X342841921Y-57582874D01*
X344168473Y-56886102D01*
X345574627Y-56327886D01*
X347052042Y-55916351D01*
X347798667Y-55770840D01*
X349305180Y-55602071D01*
X350811074Y-55597441D01*
X352303113Y-55752224D01*
G37*
G36*
X328113667Y-175052053D02*
G01*
X331600497Y-175052053D01*
X331600537Y-175057000D01*
X331683963Y-176068174D01*
X331918331Y-177004093D01*
X332305955Y-177870640D01*
X332849149Y-178673699D01*
X333166917Y-179039517D01*
X333614489Y-179466343D01*
X334129192Y-179874190D01*
X334656194Y-180223222D01*
X335140665Y-180473604D01*
X335141000Y-180473745D01*
X335972246Y-180745985D01*
X336872310Y-180902277D01*
X337789357Y-180938606D01*
X338671548Y-180850955D01*
X339025232Y-180774669D01*
X339950719Y-180452960D01*
X340801795Y-179987806D01*
X341563264Y-179394402D01*
X342219929Y-178687945D01*
X342756595Y-177883630D01*
X343158064Y-176996654D01*
X343314002Y-176485898D01*
X343420830Y-175897191D01*
X343473004Y-175223578D01*
X343471043Y-174822968D01*
X356605009Y-174822968D01*
X356622505Y-175507245D01*
X356693974Y-176144014D01*
X356778854Y-176538051D01*
X357124137Y-177478529D01*
X357609271Y-178336391D01*
X358220609Y-179098022D01*
X358944501Y-179749805D01*
X359767301Y-180278123D01*
X360675360Y-180669361D01*
X361026098Y-180775539D01*
X361650942Y-180889683D01*
X362366818Y-180931941D01*
X363112488Y-180904502D01*
X363826713Y-180809556D01*
X364435667Y-180653624D01*
X365341568Y-180256749D01*
X366164174Y-179721012D01*
X366888567Y-179062464D01*
X367499832Y-178297158D01*
X367983049Y-177441146D01*
X368323303Y-176510478D01*
X368338481Y-176454000D01*
X368432856Y-175939366D01*
X368480878Y-175330245D01*
X368481733Y-174972333D01*
X381580667Y-174972333D01*
X381661231Y-175954783D01*
X381894996Y-176892807D01*
X382270069Y-177771144D01*
X382774556Y-178574532D01*
X383396565Y-179287710D01*
X384124202Y-179895417D01*
X384945573Y-180382392D01*
X385848788Y-180733374D01*
X386128941Y-180808661D01*
X386682054Y-180898439D01*
X387328985Y-180933767D01*
X388003508Y-180915503D01*
X388639396Y-180844506D01*
X388996623Y-180771505D01*
X389955140Y-180445492D01*
X390819630Y-179979777D01*
X391583813Y-179379483D01*
X392241412Y-178649732D01*
X392786150Y-177795646D01*
X392887565Y-177597000D01*
X393251446Y-176671639D01*
X393454628Y-175726404D01*
X393501702Y-174778191D01*
X393397261Y-173843896D01*
X393145899Y-172940417D01*
X392752208Y-172084650D01*
X392220780Y-171293492D01*
X391556208Y-170583840D01*
X390826545Y-170014389D01*
X390538307Y-169821134D01*
X390308012Y-169665020D01*
X390168711Y-169568537D01*
X390143283Y-169549471D01*
X390165541Y-169466443D01*
X390243637Y-169246190D01*
X390370029Y-168908513D01*
X390537174Y-168473211D01*
X390737528Y-167960082D01*
X390963548Y-167388927D01*
X391027106Y-167229561D01*
X391941980Y-164939333D01*
X392539823Y-164938506D01*
X393159232Y-164863680D01*
X393703372Y-164655590D01*
X394163823Y-164336101D01*
X394532165Y-163927079D01*
X394799978Y-163450390D01*
X394958840Y-162927900D01*
X395000333Y-162381473D01*
X394916034Y-161832976D01*
X394697525Y-161304275D01*
X394336383Y-160817234D01*
X394184011Y-160668966D01*
X393657259Y-160300629D01*
X393083382Y-160085626D01*
X392487082Y-160023945D01*
X391893057Y-160115574D01*
X391326010Y-160360501D01*
X390904252Y-160670528D01*
X390502275Y-161104183D01*
X390246641Y-161567339D01*
X390118829Y-162101536D01*
X390095680Y-162484000D01*
X390148558Y-163091059D01*
X390330470Y-163614839D01*
X390657538Y-164093557D01*
X390868818Y-164316609D01*
X391062715Y-164516029D01*
X391194772Y-164672840D01*
X391232842Y-164741281D01*
X391202526Y-164839215D01*
X391118070Y-165069050D01*
X390989391Y-165405935D01*
X390826405Y-165825020D01*
X390639029Y-166301456D01*
X390437177Y-166810392D01*
X390230767Y-167326980D01*
X390029714Y-167826367D01*
X389843935Y-168283706D01*
X389683346Y-168674145D01*
X389557863Y-168972835D01*
X389477403Y-169154926D01*
X389454108Y-169198805D01*
X389349492Y-169214340D01*
X389120046Y-169198330D01*
X388806564Y-169154468D01*
X388641128Y-169125156D01*
X387639776Y-169017970D01*
X386665139Y-169076094D01*
X385727532Y-169296299D01*
X384837273Y-169675359D01*
X384004676Y-170210045D01*
X383355559Y-170778930D01*
X382683517Y-171556660D01*
X382171773Y-172388084D01*
X381819059Y-173276197D01*
X381624110Y-174223991D01*
X381580667Y-174972333D01*
X368481733Y-174972333D01*
X368482406Y-174690839D01*
X368437301Y-174085347D01*
X368345424Y-173577972D01*
X368344726Y-173575333D01*
X368014873Y-172633961D01*
X367550218Y-171765195D01*
X366965650Y-170988824D01*
X366276054Y-170324643D01*
X365501568Y-169795388D01*
X365097196Y-169568079D01*
X366020165Y-167264066D01*
X366943135Y-164960053D01*
X367636734Y-164922249D01*
X368123576Y-164873968D01*
X368503027Y-164775040D01*
X368834717Y-164602701D01*
X369178275Y-164334189D01*
X369179093Y-164333471D01*
X369577915Y-163894825D01*
X369831556Y-163395318D01*
X369954130Y-162805489D01*
X369962723Y-162697642D01*
X369934521Y-162017791D01*
X369760099Y-161418512D01*
X369442963Y-160906354D01*
X368986618Y-160487870D01*
X368680671Y-160301636D01*
X368430374Y-160183643D01*
X368196477Y-160114353D01*
X367917471Y-160081597D01*
X367531849Y-160073206D01*
X367526000Y-160073204D01*
X367126218Y-160082587D01*
X366838285Y-160117701D01*
X366605439Y-160188652D01*
X366443006Y-160266019D01*
X365910213Y-160638081D01*
X365499137Y-161112963D01*
X365222706Y-161667819D01*
X365093848Y-162279807D01*
X365091919Y-162653333D01*
X365202721Y-163266909D01*
X365452823Y-163801643D01*
X365856195Y-164286602D01*
X365894403Y-164323084D01*
X366274320Y-164680501D01*
X365356987Y-166976884D01*
X364439655Y-169273267D01*
X364141327Y-169219853D01*
X363888629Y-169174833D01*
X363557707Y-169116159D01*
X363335000Y-169076798D01*
X362566773Y-169015594D01*
X361738687Y-169082655D01*
X360892020Y-169270435D01*
X360068054Y-169571388D01*
X359725437Y-169736619D01*
X358939661Y-170238575D01*
X358235119Y-170871125D01*
X357631977Y-171608374D01*
X357150403Y-172424429D01*
X356810562Y-173293397D01*
X356735763Y-173575333D01*
X356642442Y-174157044D01*
X356605009Y-174822968D01*
X343471043Y-174822968D01*
X343469627Y-174533691D01*
X343409804Y-173896158D01*
X343351785Y-173589588D01*
X343060188Y-172705896D01*
X342621842Y-171866068D01*
X342057449Y-171097757D01*
X341387708Y-170428615D01*
X340633318Y-169886297D01*
X340538500Y-169831288D01*
X340304221Y-169696459D01*
X340143168Y-169599376D01*
X340094000Y-169564632D01*
X340124212Y-169485324D01*
X340209626Y-169268540D01*
X340342410Y-168933970D01*
X340514730Y-168501302D01*
X340718754Y-167990223D01*
X340946649Y-167420424D01*
X341008660Y-167265547D01*
X341923321Y-164981667D01*
X342596160Y-164933162D01*
X342963338Y-164892656D01*
X343305061Y-164831020D01*
X343553125Y-164760836D01*
X343571491Y-164753254D01*
X344028377Y-164474863D01*
X344438270Y-164074301D01*
X344733749Y-163634622D01*
X344851016Y-163385037D01*
X344919918Y-163149721D01*
X344952587Y-162867282D01*
X344961145Y-162484000D01*
X344954995Y-162107242D01*
X344926428Y-161838663D01*
X344862504Y-161617376D01*
X344750281Y-161382491D01*
X344712232Y-161312830D01*
X344421713Y-160878488D01*
X344068080Y-160540819D01*
X343617528Y-160258469D01*
X343247002Y-160129878D01*
X342783356Y-160066435D01*
X342289773Y-160068138D01*
X341829432Y-160134989D01*
X341481139Y-160258469D01*
X341016934Y-160551436D01*
X340670573Y-160890105D01*
X340390685Y-161326467D01*
X340352913Y-161400249D01*
X340135258Y-162010827D01*
X340082139Y-162624880D01*
X340190317Y-163222962D01*
X340456554Y-163785626D01*
X340826504Y-164243547D01*
X341275156Y-164692199D01*
X340367078Y-166980518D01*
X339459000Y-169268838D01*
X339162667Y-169217639D01*
X338911258Y-169173878D01*
X338581279Y-169116035D01*
X338358333Y-169076771D01*
X337509214Y-169009029D01*
X336632744Y-169089766D01*
X335757175Y-169307519D01*
X334910755Y-169650820D01*
X334121735Y-170108206D01*
X333418365Y-170668211D01*
X332828894Y-171319369D01*
X332827235Y-171321569D01*
X332280671Y-172175712D01*
X331895737Y-173076966D01*
X331669868Y-174033142D01*
X331600497Y-175052053D01*
X328113667Y-175052053D01*
X328113667Y-175014667D01*
X328113667Y-160155667D01*
X328333319Y-159690000D01*
X328686756Y-159129420D01*
X329169205Y-158646830D01*
X329745992Y-158276855D01*
X329750810Y-158274484D01*
X330230333Y-158039000D01*
X361938000Y-158039000D01*
X393645667Y-158039000D01*
X394121494Y-158262110D01*
X394741150Y-158635266D01*
X395225248Y-159109830D01*
X395573355Y-159685239D01*
X395785040Y-160360930D01*
X395801849Y-160452194D01*
X395815029Y-160588620D01*
X395826889Y-160838766D01*
X395837450Y-161206733D01*
X395846730Y-161696624D01*
X395854749Y-162312542D01*
X395861525Y-163058587D01*
X395867079Y-163938861D01*
X395871429Y-164957468D01*
X395874594Y-166118508D01*
X395876594Y-167426085D01*
X395877447Y-168884298D01*
X395877173Y-170497252D01*
X395875791Y-172269048D01*
X395873321Y-174203787D01*
X395871480Y-175353333D01*
X395847000Y-189704333D01*
X395609870Y-190212333D01*
X395251899Y-190800595D01*
X394779031Y-191304972D01*
X394238333Y-191679961D01*
X393815000Y-191905667D01*
X362065000Y-191922657D01*
X330315000Y-191939648D01*
X329852255Y-191761768D01*
X329413466Y-191523904D01*
X328979086Y-191167361D01*
X328596317Y-190737294D01*
X328321144Y-190297000D01*
X328113667Y-189873667D01*
X328113667Y-189746667D01*
X357196667Y-189746667D01*
X358297333Y-189746667D01*
X359398000Y-189746667D01*
X359398000Y-189535000D01*
X359398000Y-189323333D01*
X358506038Y-189323333D01*
X357614076Y-189323333D01*
X357638205Y-188455500D01*
X357662333Y-187587667D01*
X358403167Y-187563204D01*
X358757859Y-187549378D01*
X358976283Y-187529638D01*
X359091444Y-187493609D01*
X359136348Y-187430919D01*
X359140562Y-187376000D01*
X360125166Y-187376000D01*
X360130416Y-188039147D01*
X360149654Y-188554958D01*
X360188116Y-188945202D01*
X360251038Y-189231650D01*
X360343655Y-189436071D01*
X360471203Y-189580236D01*
X360638916Y-189685915D01*
X360685997Y-189708093D01*
X360985837Y-189789706D01*
X361369100Y-189821598D01*
X361778057Y-189806841D01*
X362154977Y-189748507D01*
X362442131Y-189649668D01*
X362503784Y-189611366D01*
X362656277Y-189460730D01*
X362771294Y-189250206D01*
X362853383Y-188957573D01*
X362907087Y-188560608D01*
X362936954Y-188037089D01*
X362947186Y-187443667D01*
X362946136Y-187277682D01*
X363776986Y-187277682D01*
X363780601Y-187787525D01*
X363794983Y-188264907D01*
X363820116Y-188669540D01*
X363855982Y-188961134D01*
X363872026Y-189032514D01*
X364030260Y-189381856D01*
X364268414Y-189644346D01*
X364520333Y-189770726D01*
X364762177Y-189804061D01*
X365085283Y-189818583D01*
X365414171Y-189813840D01*
X365673362Y-189789378D01*
X365726833Y-189777969D01*
X365886956Y-189665808D01*
X365917137Y-189546292D01*
X365904612Y-189454583D01*
X365843826Y-189400586D01*
X365699592Y-189374410D01*
X365436722Y-189366163D01*
X365274545Y-189365667D01*
X364899550Y-189352417D01*
X364638201Y-189295015D01*
X364466542Y-189166979D01*
X364360620Y-188941828D01*
X364296478Y-188593080D01*
X364262402Y-188246779D01*
X364236914Y-187767292D01*
X364235287Y-187433363D01*
X383147000Y-187433363D01*
X383148015Y-188016396D01*
X383152577Y-188455101D01*
X383162963Y-188774478D01*
X383181447Y-188999526D01*
X383210306Y-189155247D01*
X383251816Y-189266641D01*
X383308251Y-189358707D01*
X383324263Y-189380696D01*
X383532265Y-189579363D01*
X383786332Y-189724921D01*
X383789930Y-189726265D01*
X384044157Y-189779511D01*
X384387865Y-189800278D01*
X384763141Y-189790985D01*
X385112070Y-189754053D01*
X385376735Y-189691901D01*
X385452208Y-189656793D01*
X385635849Y-189496785D01*
X385727695Y-189379160D01*
X385798506Y-189174712D01*
X385853774Y-188835524D01*
X385893412Y-188395481D01*
X385917332Y-187888471D01*
X385925446Y-187348379D01*
X385917667Y-186809093D01*
X385893906Y-186304498D01*
X385883507Y-186190667D01*
X386719917Y-186190667D01*
X386766698Y-187693500D01*
X386789936Y-188261015D01*
X386820791Y-188744332D01*
X386857142Y-189118912D01*
X386896865Y-189360215D01*
X386916065Y-189420538D01*
X387085944Y-189653653D01*
X387346142Y-189777564D01*
X387722507Y-189803348D01*
X387798685Y-189798859D01*
X388103877Y-189751236D01*
X388308924Y-189645216D01*
X388403810Y-189551276D01*
X388563870Y-189404105D01*
X388659160Y-189412565D01*
X388692567Y-189577056D01*
X388692667Y-189591444D01*
X388750829Y-189715470D01*
X388904333Y-189746667D01*
X389116000Y-189746667D01*
X389116000Y-187968667D01*
X389116000Y-186402333D01*
X389708667Y-186402333D01*
X389736004Y-186553605D01*
X389852212Y-186608945D01*
X389962667Y-186614000D01*
X390216667Y-186614000D01*
X390216667Y-188180333D01*
X390216667Y-189746667D01*
X390426423Y-189746667D01*
X390636180Y-189746667D01*
X390659257Y-188201500D01*
X390682333Y-186656333D01*
X390999833Y-186630056D01*
X391210924Y-186596663D01*
X391300689Y-186520717D01*
X391317333Y-186397222D01*
X391298001Y-186264004D01*
X391208406Y-186204804D01*
X391001147Y-186190711D01*
X390978667Y-186190667D01*
X390640000Y-186190667D01*
X390640000Y-185682667D01*
X390635518Y-185401126D01*
X390611028Y-185249123D01*
X390549962Y-185186894D01*
X390435752Y-185174678D01*
X390428333Y-185174667D01*
X390311025Y-185185423D01*
X390247690Y-185244199D01*
X390221761Y-185390758D01*
X390216671Y-185664861D01*
X390216667Y-185682667D01*
X390216667Y-186190667D01*
X389962667Y-186190667D01*
X389781140Y-186213448D01*
X389714732Y-186310288D01*
X389708667Y-186402333D01*
X389116000Y-186402333D01*
X389116000Y-186190667D01*
X388862000Y-186190667D01*
X388608000Y-186190667D01*
X388608000Y-187507204D01*
X388601472Y-188125702D01*
X388576230Y-188595177D01*
X388523790Y-188935629D01*
X388435664Y-189167059D01*
X388303368Y-189309467D01*
X388118416Y-189382855D01*
X387872321Y-189407223D01*
X387801543Y-189408000D01*
X387619077Y-189394459D01*
X387481900Y-189339984D01*
X387383671Y-189223791D01*
X387318050Y-189025100D01*
X387278696Y-188723130D01*
X387259270Y-188297098D01*
X387253431Y-187726223D01*
X387253333Y-187611161D01*
X387253333Y-186190667D01*
X386986625Y-186190667D01*
X386719917Y-186190667D01*
X385883507Y-186190667D01*
X385854075Y-185868481D01*
X385798087Y-185534927D01*
X385738119Y-185357999D01*
X385587319Y-185190594D01*
X385364536Y-185049352D01*
X385344238Y-185040499D01*
X385037658Y-184962645D01*
X384638696Y-184927132D01*
X384217854Y-184934097D01*
X383845631Y-184983675D01*
X383666866Y-185037252D01*
X383506545Y-185119352D01*
X383382603Y-185229238D01*
X383290474Y-185387956D01*
X383225592Y-185616553D01*
X383183390Y-185936076D01*
X383159303Y-186367572D01*
X383148763Y-186932087D01*
X383147000Y-187433363D01*
X364235287Y-187433363D01*
X364234446Y-187260639D01*
X364252586Y-186763096D01*
X364288923Y-186310942D01*
X364341044Y-185940454D01*
X364406538Y-185687909D01*
X364436580Y-185627056D01*
X364647045Y-185455864D01*
X364994237Y-185362947D01*
X365462820Y-185352083D01*
X365532974Y-185356984D01*
X365769020Y-185367694D01*
X365881762Y-185337818D01*
X365915776Y-185248927D01*
X365917333Y-185198056D01*
X365871337Y-185053559D01*
X365720695Y-184964279D01*
X365446425Y-184925104D01*
X365029548Y-184930921D01*
X364944226Y-184935947D01*
X364505106Y-185005567D01*
X364193818Y-185162599D01*
X363982810Y-185427151D01*
X363870565Y-185719485D01*
X363830930Y-185956280D01*
X363802133Y-186321770D01*
X363784158Y-186775667D01*
X363776986Y-187277682D01*
X362946136Y-187277682D01*
X362942679Y-186731344D01*
X362914459Y-186169537D01*
X362853512Y-185740070D01*
X362750825Y-185424764D01*
X362597383Y-185205443D01*
X362384173Y-185063930D01*
X362102180Y-184982046D01*
X361742391Y-184941614D01*
X361705338Y-184939355D01*
X361176302Y-184938467D01*
X360781217Y-185011351D01*
X360497777Y-185166530D01*
X360303674Y-185412529D01*
X360266536Y-185489119D01*
X360214090Y-185637864D01*
X360175882Y-185828797D01*
X360149905Y-186088682D01*
X360134155Y-186444285D01*
X360126625Y-186922373D01*
X360125166Y-187376000D01*
X359140562Y-187376000D01*
X359144000Y-187331194D01*
X359144000Y-187330370D01*
X359137562Y-187231727D01*
X359096527Y-187170478D01*
X358988315Y-187137715D01*
X358780344Y-187124528D01*
X358440033Y-187122009D01*
X358382000Y-187122000D01*
X357620000Y-187122000D01*
X357620000Y-186275333D01*
X357620000Y-185428667D01*
X358509000Y-185428667D01*
X359398000Y-185428667D01*
X359398000Y-185217000D01*
X359398000Y-185005333D01*
X358297333Y-185005333D01*
X357196667Y-185005333D01*
X357196667Y-187376000D01*
X357196667Y-189746667D01*
X328113667Y-189746667D01*
X328113667Y-189662000D01*
X331881333Y-189662000D01*
X332982000Y-189662000D01*
X334082667Y-189662000D01*
X334082667Y-189450333D01*
X334082667Y-189238667D01*
X333193667Y-189238667D01*
X332304667Y-189238667D01*
X332304667Y-188349667D01*
X332304667Y-187460667D01*
X333066667Y-187460667D01*
X333427384Y-187458981D01*
X333651353Y-187447891D01*
X333771160Y-187418343D01*
X333819391Y-187361288D01*
X333824168Y-187312883D01*
X334774842Y-187312883D01*
X334790337Y-187835845D01*
X334820460Y-188326474D01*
X334863751Y-188746106D01*
X334918749Y-189056073D01*
X334952563Y-189163671D01*
X335093720Y-189391550D01*
X335318304Y-189553728D01*
X335666098Y-189677252D01*
X335733667Y-189694696D01*
X335956913Y-189715834D01*
X336276432Y-189707335D01*
X336622902Y-189674955D01*
X336927003Y-189624451D01*
X337071968Y-189583555D01*
X337237527Y-189502009D01*
X337364799Y-189384968D01*
X337458613Y-189211319D01*
X337523799Y-188959951D01*
X337565186Y-188609753D01*
X337587603Y-188139611D01*
X337595881Y-187528414D01*
X337596333Y-187291333D01*
X337591513Y-186582129D01*
X337570030Y-186024111D01*
X337521353Y-185599244D01*
X337434950Y-185289491D01*
X337300288Y-185076816D01*
X337106835Y-184943184D01*
X336844060Y-184870559D01*
X336501430Y-184840905D01*
X336162540Y-184836000D01*
X338570000Y-184836000D01*
X338570000Y-187249000D01*
X338570000Y-189662000D01*
X338824000Y-189662000D01*
X339078000Y-189662000D01*
X339078000Y-188688333D01*
X339078000Y-187714667D01*
X339578145Y-187714667D01*
X340078291Y-187714667D01*
X340384946Y-188688333D01*
X340515341Y-189097883D01*
X340610907Y-189372682D01*
X340687307Y-189539612D01*
X340760199Y-189625554D01*
X340845246Y-189657389D01*
X340952192Y-189662000D01*
X341140446Y-189634120D01*
X341172025Y-189555786D01*
X341095895Y-189340855D01*
X340997099Y-189039499D01*
X340888176Y-188692974D01*
X340781665Y-188342532D01*
X340690106Y-188029429D01*
X340626038Y-187794919D01*
X340602000Y-187680379D01*
X340670433Y-187551436D01*
X340732823Y-187513248D01*
X340885423Y-187371067D01*
X341005560Y-187092697D01*
X341083608Y-186709739D01*
X341110000Y-186275333D01*
X341085922Y-185779883D01*
X341000751Y-185408872D01*
X340835077Y-185145778D01*
X340617840Y-185005333D01*
X340569494Y-184974077D01*
X340184594Y-184877246D01*
X339660969Y-184838762D01*
X339419386Y-184836000D01*
X338570000Y-184836000D01*
X336162540Y-184836000D01*
X335802704Y-184840323D01*
X335564950Y-184860748D01*
X335402099Y-184908458D01*
X335266972Y-184994636D01*
X335180276Y-185068833D01*
X335038537Y-185217476D01*
X334945442Y-185387662D01*
X334880198Y-185631010D01*
X334830723Y-185936667D01*
X334793575Y-186324628D01*
X334775435Y-186796255D01*
X334774842Y-187312883D01*
X333824168Y-187312883D01*
X333828629Y-187267673D01*
X333828667Y-187249000D01*
X333822599Y-187148801D01*
X333782673Y-187086587D01*
X333676303Y-187053307D01*
X333470904Y-187039910D01*
X333133890Y-187037343D01*
X333066667Y-187037333D01*
X332304667Y-187037333D01*
X332304667Y-186148333D01*
X332304667Y-185259333D01*
X333193667Y-185259333D01*
X334082667Y-185259333D01*
X334082667Y-185047667D01*
X334082667Y-184836000D01*
X332982000Y-184836000D01*
X331881333Y-184836000D01*
X331881333Y-187249000D01*
X331881333Y-189662000D01*
X328113667Y-189662000D01*
X328113667Y-184836000D01*
X328113667Y-175052053D01*
G37*
%LPC*%
G36*
X313692854Y-58659399D02*
G01*
X313847653Y-58818968D01*
X314094885Y-59078774D01*
X314422836Y-59426213D01*
X314819789Y-59848679D01*
X315274029Y-60333567D01*
X315773841Y-60868272D01*
X316307508Y-61440190D01*
X316863316Y-62036715D01*
X317429548Y-62645242D01*
X317994490Y-63253167D01*
X318546425Y-63847884D01*
X319073639Y-64416788D01*
X319564414Y-64947275D01*
X320007037Y-65426739D01*
X320389791Y-65842575D01*
X320700961Y-66182179D01*
X320928831Y-66432944D01*
X321061686Y-66582268D01*
X321091890Y-66620165D01*
X321005527Y-66616299D01*
X320802019Y-66584544D01*
X320590188Y-66544523D01*
X319923873Y-66493780D01*
X319245924Y-66594142D01*
X318586332Y-66832575D01*
X317975086Y-67196046D01*
X317442178Y-67671521D01*
X317147834Y-68040511D01*
X316853890Y-68590350D01*
X316656204Y-69219646D01*
X316562497Y-69878403D01*
X316580490Y-70516626D01*
X316689750Y-71006736D01*
X316761610Y-71237583D01*
X316796817Y-71390196D01*
X316795583Y-71422111D01*
X316732046Y-71368473D01*
X316557291Y-71205882D01*
X316281139Y-70943803D01*
X315913411Y-70591703D01*
X315463927Y-70159049D01*
X314942510Y-69655306D01*
X314358980Y-69089940D01*
X313723158Y-68472417D01*
X313044866Y-67812204D01*
X312577333Y-67356343D01*
X311875865Y-66670010D01*
X311211490Y-66016257D01*
X310593985Y-65404940D01*
X310033127Y-64845914D01*
X309538690Y-64349034D01*
X309120451Y-63924157D01*
X308788187Y-63581135D01*
X308551673Y-63329826D01*
X308420685Y-63180084D01*
X308396758Y-63141932D01*
X308456610Y-62985168D01*
X308607385Y-62726604D01*
X308830099Y-62393257D01*
X309105766Y-62012145D01*
X309415400Y-61610284D01*
X309740016Y-61214691D01*
X309801815Y-61142471D01*
X310698314Y-60208891D01*
X311711463Y-59343075D01*
X312531891Y-58755322D01*
X313290783Y-58255132D01*
X313692854Y-58659399D01*
G37*
G36*
X326569627Y-30377883D02*
G01*
X326691448Y-30988289D01*
X326943399Y-31602082D01*
X327297255Y-32162674D01*
X327654239Y-32552530D01*
X328283593Y-33016325D01*
X328964593Y-33330324D01*
X329678056Y-33489080D01*
X330404801Y-33487146D01*
X330743306Y-33429672D01*
X331032102Y-33366763D01*
X331244144Y-33324342D01*
X331337340Y-33310780D01*
X331338491Y-33311308D01*
X331287842Y-33378223D01*
X331137784Y-33571642D01*
X330893528Y-33884919D01*
X330560282Y-34311407D01*
X330143255Y-34844462D01*
X329647658Y-35477438D01*
X329078700Y-36203687D01*
X328441589Y-37016566D01*
X327741536Y-37909427D01*
X326983750Y-38875624D01*
X326173441Y-39908513D01*
X325315817Y-41001447D01*
X324416089Y-42147780D01*
X323479466Y-43340866D01*
X322511157Y-44574060D01*
X321912693Y-45336112D01*
X312479405Y-57347225D01*
X312698373Y-57575778D01*
X312917341Y-57804332D01*
X312065692Y-58380447D01*
X311282889Y-58967088D01*
X310477374Y-59674649D01*
X309685716Y-60465435D01*
X308944487Y-61301748D01*
X308290255Y-62145891D01*
X307997494Y-62574012D01*
X307862654Y-62781507D01*
X305266994Y-60251626D01*
X304718442Y-59715527D01*
X304209368Y-59215212D01*
X303752232Y-58763132D01*
X303359489Y-58371735D01*
X303043597Y-58053470D01*
X302817014Y-57820788D01*
X302692197Y-57686137D01*
X302671333Y-57657690D01*
X302725702Y-57588289D01*
X302885457Y-57396384D01*
X303145568Y-57087855D01*
X303501008Y-56668581D01*
X303946748Y-56144443D01*
X304477760Y-55521321D01*
X305089014Y-54805095D01*
X305775483Y-54001644D01*
X306532137Y-53116848D01*
X307353948Y-52156589D01*
X308235888Y-51126744D01*
X309172928Y-50033195D01*
X310160039Y-48881822D01*
X311192194Y-47678504D01*
X312264363Y-46429121D01*
X313371517Y-45139554D01*
X314508629Y-43815682D01*
X314598437Y-43711148D01*
X326525541Y-29828662D01*
X326569627Y-30377883D01*
G37*
G36*
X384054057Y-56749250D02*
G01*
X384353612Y-56841573D01*
X384726170Y-56973189D01*
X385144719Y-57133753D01*
X385582250Y-57312917D01*
X386011751Y-57500334D01*
X386406211Y-57685659D01*
X386726251Y-57851664D01*
X387833357Y-58543028D01*
X388907637Y-59364807D01*
X389642047Y-60025409D01*
X389990669Y-60373301D01*
X390344202Y-60746557D01*
X390682614Y-61121694D01*
X390985868Y-61475226D01*
X391233931Y-61783669D01*
X391406768Y-62023539D01*
X391484345Y-62171350D01*
X391486667Y-62187686D01*
X391430424Y-62255863D01*
X391269377Y-62434810D01*
X391015046Y-62712242D01*
X390678952Y-63075875D01*
X390272616Y-63513425D01*
X389807559Y-64012606D01*
X389295302Y-64561137D01*
X388747365Y-65146731D01*
X388175270Y-65757104D01*
X387590538Y-66379974D01*
X387004688Y-67003054D01*
X386429243Y-67614062D01*
X385875723Y-68200713D01*
X385355649Y-68750723D01*
X384880542Y-69251807D01*
X384461923Y-69691681D01*
X384111312Y-70058061D01*
X383896367Y-70280886D01*
X383528000Y-70660772D01*
X383528000Y-70045382D01*
X383448598Y-69275114D01*
X383218808Y-68563097D01*
X382851254Y-67926769D01*
X382358559Y-67383565D01*
X381753347Y-66950922D01*
X381072667Y-66654006D01*
X380827612Y-66593247D01*
X380495063Y-66532701D01*
X380218587Y-66494381D01*
X379660840Y-66429667D01*
X383626420Y-62619972D01*
X384310286Y-61962323D01*
X384956771Y-61339328D01*
X385555720Y-60760859D01*
X386096978Y-60236784D01*
X386570390Y-59776974D01*
X386965799Y-59391300D01*
X387273050Y-59089630D01*
X387481989Y-58881836D01*
X387582459Y-58777788D01*
X387590120Y-58767639D01*
X387517397Y-58719154D01*
X387313747Y-58604995D01*
X386999351Y-58435908D01*
X386594389Y-58222640D01*
X386119044Y-57975935D01*
X385685120Y-57753275D01*
X385166590Y-57486327D01*
X384701843Y-57242868D01*
X384311055Y-57033811D01*
X384014405Y-56870073D01*
X383832068Y-56762565D01*
X383782000Y-56723870D01*
X383854516Y-56706567D01*
X384054057Y-56749250D01*
G37*
G36*
X356336652Y-7593854D02*
G01*
X356362606Y-7614795D01*
X356438937Y-7705229D01*
X356611062Y-7917903D01*
X356871847Y-8243748D01*
X357214157Y-8673694D01*
X357630858Y-9198672D01*
X358114815Y-9809612D01*
X358658892Y-10497446D01*
X359255956Y-11253102D01*
X359898871Y-12067512D01*
X360580504Y-12931607D01*
X361293718Y-13836316D01*
X362031379Y-14772571D01*
X362786353Y-15731302D01*
X363551504Y-16703439D01*
X364319698Y-17679913D01*
X365083801Y-18651654D01*
X365836677Y-19609593D01*
X366571191Y-20544661D01*
X367280210Y-21447788D01*
X367956597Y-22309904D01*
X368593219Y-23121940D01*
X369182941Y-23874827D01*
X369718627Y-24559494D01*
X370193143Y-25166873D01*
X370599355Y-25687895D01*
X370930128Y-26113488D01*
X371178326Y-26434585D01*
X371336815Y-26642115D01*
X371398460Y-26727010D01*
X371398982Y-26728574D01*
X371309276Y-26721872D01*
X371110271Y-26673765D01*
X370951049Y-26627164D01*
X370483323Y-26539072D01*
X369886957Y-26528019D01*
X369838378Y-26530151D01*
X369439716Y-26560723D01*
X369124457Y-26622140D01*
X368811336Y-26735599D01*
X368511515Y-26876227D01*
X367877055Y-27276350D01*
X367351906Y-27784304D01*
X366947249Y-28377676D01*
X366674263Y-29034052D01*
X366544129Y-29731020D01*
X366568027Y-30446168D01*
X366612025Y-30684139D01*
X366671876Y-30965699D01*
X366708675Y-31168518D01*
X366714825Y-31250494D01*
X366714247Y-31250667D01*
X366657190Y-31187621D01*
X366495873Y-31003189D01*
X366236379Y-30704427D01*
X365884794Y-30298392D01*
X365447203Y-29792140D01*
X364929690Y-29192728D01*
X364338341Y-28507212D01*
X363679239Y-27742649D01*
X362958470Y-26906095D01*
X362182119Y-26004607D01*
X361356270Y-25045243D01*
X360487008Y-24035057D01*
X359580418Y-22981107D01*
X358642585Y-21890449D01*
X358492857Y-21716287D01*
X357550370Y-20619329D01*
X356638521Y-19556785D01*
X355763385Y-18535793D01*
X354931038Y-17563492D01*
X354147555Y-16647020D01*
X353419012Y-15793515D01*
X352751485Y-15010117D01*
X352151049Y-14303963D01*
X351623779Y-13682193D01*
X351175752Y-13151943D01*
X350813042Y-12720353D01*
X350541725Y-12394561D01*
X350367877Y-12181706D01*
X350297573Y-12088925D01*
X350296333Y-12085806D01*
X350361635Y-12016001D01*
X350548433Y-11855041D01*
X350843064Y-11613778D01*
X351231864Y-11303067D01*
X351701170Y-10933761D01*
X352237319Y-10516715D01*
X352826648Y-10062780D01*
X353259667Y-9731814D01*
X353970655Y-9190692D01*
X354559561Y-8744457D01*
X355038557Y-8384804D01*
X355419817Y-8103427D01*
X355715515Y-7892022D01*
X355937824Y-7742281D01*
X356098919Y-7645899D01*
X356210973Y-7594571D01*
X356286159Y-7579991D01*
X356336652Y-7593854D01*
G37*
G36*
X382074465Y-40206219D02*
G01*
X390569263Y-50982105D01*
X391002846Y-50620219D01*
X391232505Y-50427997D01*
X391552127Y-50159753D01*
X391922237Y-49848648D01*
X392303365Y-49527842D01*
X392366775Y-49474420D01*
X393297122Y-48690506D01*
X393448536Y-49178086D01*
X393496227Y-49330444D01*
X393590917Y-49631829D01*
X393728679Y-50069776D01*
X393905586Y-50631818D01*
X394117712Y-51305488D01*
X394361130Y-52078320D01*
X394631914Y-52937847D01*
X394926137Y-53871602D01*
X395239873Y-54867120D01*
X395569195Y-55911934D01*
X395881773Y-56903480D01*
X396217643Y-57969653D01*
X396538222Y-58988872D01*
X396839937Y-59949684D01*
X397119214Y-60840636D01*
X397372480Y-61650274D01*
X397596161Y-62367147D01*
X397786683Y-62979800D01*
X397940473Y-63476783D01*
X398053958Y-63846641D01*
X398123563Y-64077921D01*
X398145721Y-64159168D01*
X398069213Y-64125654D01*
X397858970Y-64022436D01*
X397531506Y-63857904D01*
X397103335Y-63640450D01*
X396590972Y-63378466D01*
X396010930Y-63080342D01*
X395379724Y-62754471D01*
X395294090Y-62710155D01*
X392460333Y-61243267D01*
X392186435Y-61502346D01*
X392017064Y-61650075D01*
X391905416Y-61724137D01*
X391885266Y-61724879D01*
X390873326Y-60478581D01*
X389810097Y-59387758D01*
X388683658Y-58443193D01*
X387482087Y-57635668D01*
X386193465Y-56955965D01*
X385157120Y-56522426D01*
X384843698Y-56398188D01*
X384601932Y-56290328D01*
X384467443Y-56215309D01*
X384451415Y-56196217D01*
X384513953Y-56124111D01*
X384684761Y-55963915D01*
X384941660Y-55735506D01*
X385262471Y-55458763D01*
X385472779Y-55280835D01*
X385820829Y-54984260D01*
X386117716Y-54723352D01*
X386341304Y-54518204D01*
X386469454Y-54388909D01*
X386491333Y-54356373D01*
X386437053Y-54285732D01*
X386278053Y-54093511D01*
X386020095Y-53786453D01*
X385668941Y-53371306D01*
X385230352Y-52854814D01*
X384710090Y-52243722D01*
X384113917Y-51544777D01*
X383447594Y-50764723D01*
X382716883Y-49910306D01*
X381927546Y-48988272D01*
X381085343Y-48005365D01*
X380196038Y-46968332D01*
X379265391Y-45883918D01*
X378299164Y-44758868D01*
X377389667Y-43700597D01*
X376396100Y-42544617D01*
X375432838Y-41423377D01*
X374505637Y-40343606D01*
X373620257Y-39312029D01*
X372782459Y-38335373D01*
X371997999Y-37420366D01*
X371272638Y-36573735D01*
X370612135Y-35802205D01*
X370022248Y-35112505D01*
X369508737Y-34511360D01*
X369077361Y-34005499D01*
X368733879Y-33601647D01*
X368484050Y-33306532D01*
X368333633Y-33126880D01*
X368288000Y-33069378D01*
X368354559Y-33076711D01*
X368522498Y-33146665D01*
X368614939Y-33192017D01*
X369251884Y-33425134D01*
X369932958Y-33509817D01*
X370629879Y-33450701D01*
X371314363Y-33252422D01*
X371958129Y-32919616D01*
X372414155Y-32569304D01*
X372903022Y-32015711D01*
X373254843Y-31364969D01*
X373466779Y-30623187D01*
X373522208Y-30184995D01*
X373579667Y-29430333D01*
X382074465Y-40206219D01*
G37*
G36*
X326589879Y-110019247D02*
G01*
X326594380Y-110428158D01*
X326614697Y-110723479D01*
X326661415Y-110960872D01*
X326745115Y-111195999D01*
X326863175Y-111456674D01*
X327249411Y-112089226D01*
X327749582Y-112620573D01*
X328339621Y-113037570D01*
X328995460Y-113327071D01*
X329693032Y-113475934D01*
X330408270Y-113471015D01*
X330522372Y-113455136D01*
X330781573Y-113420567D01*
X330963194Y-113408361D01*
X331016442Y-113415553D01*
X330964430Y-113480474D01*
X330803963Y-113659771D01*
X330543035Y-113944880D01*
X330189639Y-114327239D01*
X329751769Y-114798286D01*
X329237418Y-115349459D01*
X328654580Y-115972196D01*
X328011248Y-116657933D01*
X327315416Y-117398109D01*
X326575077Y-118184161D01*
X325798225Y-119007527D01*
X325602351Y-119214906D01*
X324816274Y-120047519D01*
X324063611Y-120845793D01*
X323352472Y-121601066D01*
X322690966Y-122304678D01*
X322087204Y-122947968D01*
X321549294Y-123522275D01*
X321085346Y-124018938D01*
X320703471Y-124429297D01*
X320411778Y-124744691D01*
X320218377Y-124956459D01*
X320131376Y-125055940D01*
X320127252Y-125062076D01*
X320177380Y-125135121D01*
X320330210Y-125331155D01*
X320579957Y-125643150D01*
X320920837Y-126064077D01*
X321347065Y-126586909D01*
X321852858Y-127204618D01*
X322432430Y-127910174D01*
X323079997Y-128696550D01*
X323789774Y-129556718D01*
X324555977Y-130483650D01*
X325372822Y-131470316D01*
X326234524Y-132509690D01*
X327135299Y-133594743D01*
X328069361Y-134718446D01*
X328574656Y-135325743D01*
X337049808Y-145508333D01*
X336651530Y-145576373D01*
X335969351Y-145772241D01*
X335299769Y-146110949D01*
X334672677Y-146566885D01*
X334117967Y-147114442D01*
X333665532Y-147728009D01*
X333345262Y-148381978D01*
X333331268Y-148420903D01*
X333238492Y-148670047D01*
X333163264Y-148846927D01*
X333133721Y-148898501D01*
X333071387Y-148843107D01*
X332897824Y-148671412D01*
X332618871Y-148389458D01*
X332240370Y-148003288D01*
X331768162Y-147518943D01*
X331208089Y-146942467D01*
X330565992Y-146279902D01*
X329847712Y-145537290D01*
X329059090Y-144720674D01*
X328205968Y-143836096D01*
X327294186Y-142889599D01*
X326329586Y-141887225D01*
X325318009Y-140835017D01*
X324265297Y-139739017D01*
X323177290Y-138605268D01*
X322431994Y-137828073D01*
X321309044Y-136656776D01*
X320209318Y-135509813D01*
X319139285Y-134393926D01*
X318105411Y-133315854D01*
X317114163Y-132282337D01*
X316172008Y-131300114D01*
X315285414Y-130375927D01*
X314460846Y-129516514D01*
X313704773Y-128728617D01*
X313023660Y-128018974D01*
X312423976Y-127394326D01*
X311912186Y-126861413D01*
X311494758Y-126426974D01*
X311178159Y-126097750D01*
X310968856Y-125880481D01*
X310903902Y-125813296D01*
X310032224Y-124914258D01*
X317845278Y-117476022D01*
X318823363Y-116544889D01*
X319773376Y-115640539D01*
X320687454Y-114770454D01*
X321557736Y-113942114D01*
X322376360Y-113163000D01*
X323135466Y-112440592D01*
X323827190Y-111782373D01*
X324443672Y-111195822D01*
X324977049Y-110688421D01*
X325419460Y-110267650D01*
X325763043Y-109940991D01*
X325999937Y-109715924D01*
X326122280Y-109599930D01*
X326124000Y-109598306D01*
X326589667Y-109158827D01*
X326589879Y-110019247D01*
G37*
G36*
X348016583Y-8429071D02*
G01*
X347952481Y-8661281D01*
X347847239Y-9028223D01*
X347704960Y-9516271D01*
X347529749Y-10111800D01*
X347325708Y-10801184D01*
X347096943Y-11570797D01*
X346847555Y-12407015D01*
X346581650Y-13296211D01*
X346303330Y-14224760D01*
X346016700Y-15179035D01*
X345725862Y-16145412D01*
X345434921Y-17110265D01*
X345147980Y-18059967D01*
X344869142Y-18980894D01*
X344602513Y-19859420D01*
X344352194Y-20681919D01*
X344122290Y-21434766D01*
X343916905Y-22104334D01*
X343740142Y-22676999D01*
X343596104Y-23139134D01*
X343488896Y-23477114D01*
X343422621Y-23677314D01*
X343402383Y-23728701D01*
X343325955Y-23693783D01*
X343140189Y-23564430D01*
X342864870Y-23355755D01*
X342519782Y-23082873D01*
X342124710Y-22760896D01*
X341999000Y-22656656D01*
X340644333Y-21528911D01*
X340466703Y-21711955D01*
X340384549Y-21809260D01*
X340207457Y-22028235D01*
X339944735Y-22357107D01*
X339605691Y-22784106D01*
X339199632Y-23297458D01*
X338735866Y-23885392D01*
X338223701Y-24536135D01*
X337672443Y-25237916D01*
X337091401Y-25978963D01*
X336924683Y-26191833D01*
X336342228Y-26935367D01*
X335791176Y-27638135D01*
X335280284Y-28289013D01*
X334818308Y-28876877D01*
X334414008Y-29390602D01*
X334076138Y-29819065D01*
X333813458Y-30151142D01*
X333634723Y-30375708D01*
X333548691Y-30481639D01*
X333542148Y-30488667D01*
X333538512Y-30414978D01*
X333553701Y-30234950D01*
X333556673Y-30208818D01*
X333559201Y-29967013D01*
X333530609Y-29646641D01*
X333497956Y-29434611D01*
X333277939Y-28678348D01*
X332917493Y-28015053D01*
X332422207Y-27452125D01*
X331797668Y-26996966D01*
X331561808Y-26870511D01*
X331239257Y-26717075D01*
X330988566Y-26622750D01*
X330745920Y-26573269D01*
X330447506Y-26554364D01*
X330135724Y-26551667D01*
X329771214Y-26548674D01*
X329550091Y-26536442D01*
X329446463Y-26510092D01*
X329434442Y-26464745D01*
X329461876Y-26424667D01*
X329534859Y-26339141D01*
X329708161Y-26136483D01*
X329971955Y-25828175D01*
X330316413Y-25425697D01*
X330731706Y-24940532D01*
X331208006Y-24384161D01*
X331735486Y-23768064D01*
X332304318Y-23103724D01*
X332904674Y-22402622D01*
X332940603Y-22360667D01*
X333542649Y-21657591D01*
X334113863Y-20990466D01*
X334644401Y-20370792D01*
X335124418Y-19810070D01*
X335544070Y-19319800D01*
X335893514Y-18911483D01*
X336162906Y-18596618D01*
X336342402Y-18386707D01*
X336422158Y-18293249D01*
X336423503Y-18291661D01*
X336446616Y-18235965D01*
X336421924Y-18159299D01*
X336335051Y-18047315D01*
X336171621Y-17885664D01*
X335917259Y-17659997D01*
X335557590Y-17355965D01*
X335137536Y-17008062D01*
X333740079Y-15856470D01*
X335498873Y-14924808D01*
X337151947Y-14049270D01*
X338661320Y-13250117D01*
X340032831Y-12524284D01*
X341272318Y-11868708D01*
X342385617Y-11280325D01*
X343378568Y-10756071D01*
X344257007Y-10292882D01*
X345026773Y-9887694D01*
X345693704Y-9537443D01*
X346263637Y-9239065D01*
X346742411Y-8989496D01*
X347135863Y-8785673D01*
X347449832Y-8624532D01*
X347690154Y-8503008D01*
X347862669Y-8418038D01*
X347973213Y-8366558D01*
X348027625Y-8345504D01*
X348035442Y-8345220D01*
X348016583Y-8429071D01*
G37*
G36*
X373429783Y-108847667D02*
G01*
X373498735Y-108921701D01*
X373674031Y-109110175D01*
X373946744Y-109403483D01*
X374307949Y-109792022D01*
X374748718Y-110266189D01*
X375260125Y-110816380D01*
X375833243Y-111432993D01*
X376459146Y-112106422D01*
X377128906Y-112827066D01*
X377833597Y-113585320D01*
X378022136Y-113788194D01*
X382534865Y-118644055D01*
X383789775Y-117391238D01*
X384213063Y-116971225D01*
X384533532Y-116660707D01*
X384766041Y-116447418D01*
X384925448Y-116319091D01*
X385026609Y-116263457D01*
X385084382Y-116268250D01*
X385107768Y-116303043D01*
X385148566Y-116403685D01*
X385249325Y-116649710D01*
X385405453Y-117029960D01*
X385612357Y-117533273D01*
X385865442Y-118148489D01*
X386160115Y-118864447D01*
X386491782Y-119669986D01*
X386855850Y-120553948D01*
X387247725Y-121505170D01*
X387662814Y-122512492D01*
X388096522Y-123564754D01*
X388189924Y-123791333D01*
X388625134Y-124847831D01*
X389041132Y-125859175D01*
X389433476Y-126814487D01*
X389797727Y-127702890D01*
X390129446Y-128513506D01*
X390424193Y-129235457D01*
X390677529Y-129857864D01*
X390885013Y-130369851D01*
X391042206Y-130760539D01*
X391144669Y-131019050D01*
X391187961Y-131134508D01*
X391189065Y-131139710D01*
X391109120Y-131114106D01*
X390889834Y-131030507D01*
X390548290Y-130895765D01*
X390101571Y-130716734D01*
X389566758Y-130500267D01*
X388960934Y-130253218D01*
X388301183Y-129982440D01*
X388177949Y-129931680D01*
X387413750Y-129617209D01*
X386790632Y-129362498D01*
X386293330Y-129162270D01*
X385906583Y-129011243D01*
X385615127Y-128904137D01*
X385403698Y-128835673D01*
X385257034Y-128800569D01*
X385159871Y-128793546D01*
X385096946Y-128809323D01*
X385052996Y-128842621D01*
X385047249Y-128848637D01*
X384978141Y-128929068D01*
X384805974Y-129132188D01*
X384536611Y-129451032D01*
X384175913Y-129878634D01*
X383729743Y-130408032D01*
X383203963Y-131032258D01*
X382604435Y-131744349D01*
X381937020Y-132537341D01*
X381207582Y-133404267D01*
X380421983Y-134338163D01*
X379586084Y-135332064D01*
X378705747Y-136379007D01*
X377786835Y-137472025D01*
X376835210Y-138604153D01*
X376120407Y-139454667D01*
X375148225Y-140611373D01*
X374204261Y-141734261D01*
X373294391Y-142816351D01*
X372424493Y-143850662D01*
X371600445Y-144830214D01*
X370828125Y-145748026D01*
X370113409Y-146597118D01*
X369462176Y-147370510D01*
X368880303Y-148061220D01*
X368373668Y-148662269D01*
X367948147Y-149166677D01*
X367609619Y-149567462D01*
X367363961Y-149857645D01*
X367217051Y-150030245D01*
X367175540Y-150077981D01*
X367085496Y-150164972D01*
X367038492Y-150161806D01*
X367020375Y-150042027D01*
X367016995Y-149781648D01*
X366931870Y-148995612D01*
X366682324Y-148238945D01*
X366271909Y-147519584D01*
X365704174Y-146845467D01*
X365702994Y-146844281D01*
X365080284Y-146316887D01*
X364390853Y-145907510D01*
X363663630Y-145627457D01*
X362927543Y-145488035D01*
X362251995Y-145495473D01*
X361832853Y-145545114D01*
X362329927Y-145019338D01*
X362446268Y-144897368D01*
X362673025Y-144660702D01*
X363003182Y-144316637D01*
X363429722Y-143872474D01*
X363945625Y-143335510D01*
X364543876Y-142713045D01*
X365217456Y-142012378D01*
X365959348Y-141240807D01*
X366762535Y-140405632D01*
X367619999Y-139514151D01*
X368524724Y-138573663D01*
X369469690Y-137591468D01*
X370447882Y-136574863D01*
X371401603Y-135583807D01*
X372395293Y-134550740D01*
X373356184Y-133550723D01*
X374277776Y-132590568D01*
X375153568Y-131677092D01*
X375977061Y-130817109D01*
X376741754Y-130017433D01*
X377441146Y-129284881D01*
X378068739Y-128626266D01*
X378618032Y-128048403D01*
X379082523Y-127558107D01*
X379455715Y-127162193D01*
X379731105Y-126867476D01*
X379902194Y-126680771D01*
X379962482Y-126608892D01*
X379962502Y-126608525D01*
X379883663Y-126558856D01*
X379670131Y-126455484D01*
X379344140Y-126308328D01*
X378927924Y-126127308D01*
X378443717Y-125922342D01*
X378161232Y-125804960D01*
X377644977Y-125591782D01*
X377179712Y-125399601D01*
X376788766Y-125238059D01*
X376495468Y-125116798D01*
X376323146Y-125045456D01*
X376289000Y-125031248D01*
X376320513Y-124963696D01*
X376456337Y-124794808D01*
X376680469Y-124542405D01*
X376976906Y-124224310D01*
X377329644Y-123858344D01*
X377474333Y-123711226D01*
X378744333Y-122426874D01*
X378194000Y-121907658D01*
X377897643Y-121627402D01*
X377516875Y-121266282D01*
X377063318Y-120835390D01*
X376548595Y-120345820D01*
X375984326Y-119808666D01*
X375382135Y-119235020D01*
X374753643Y-118635977D01*
X374110473Y-118022629D01*
X373464247Y-117406071D01*
X372826587Y-116797395D01*
X372209115Y-116207694D01*
X371623454Y-115648064D01*
X371081225Y-115129595D01*
X370594051Y-114663383D01*
X370173554Y-114260520D01*
X369831356Y-113932101D01*
X369579079Y-113689217D01*
X369428346Y-113542963D01*
X369388667Y-113502934D01*
X369466547Y-113493016D01*
X369673043Y-113484822D01*
X369967438Y-113479819D01*
X370044833Y-113479267D01*
X370822816Y-113396507D01*
X371532310Y-113161703D01*
X372162152Y-112782148D01*
X372701181Y-112265132D01*
X373138234Y-111617947D01*
X373256019Y-111381751D01*
X373374685Y-111096471D01*
X373445522Y-110834352D01*
X373480382Y-110531687D01*
X373491114Y-110124768D01*
X373491151Y-110117667D01*
X373484797Y-109734936D01*
X373464518Y-109381386D01*
X373434206Y-109117079D01*
X373422580Y-109059333D01*
X373390491Y-108876263D01*
X373415874Y-108835463D01*
X373429783Y-108847667D01*
G37*
G36*
X376540313Y-69731667D02*
G01*
X376531266Y-70006751D01*
X376564187Y-70373466D01*
X376619645Y-70698704D01*
X376855683Y-71439304D01*
X377231382Y-72084864D01*
X377743966Y-72631918D01*
X378390661Y-73077002D01*
X378617333Y-73193443D01*
X378887227Y-73315536D01*
X379114584Y-73392799D01*
X379353787Y-73435349D01*
X379659216Y-73453301D01*
X380032954Y-73456787D01*
X380898241Y-73457000D01*
X380448216Y-73922667D01*
X380333277Y-74043036D01*
X380117686Y-74270246D01*
X379812133Y-74592965D01*
X379427310Y-74999860D01*
X378973905Y-75479599D01*
X378462610Y-76020850D01*
X377904115Y-76612281D01*
X377309110Y-77242558D01*
X376688285Y-77900351D01*
X376052331Y-78574327D01*
X375411938Y-79253153D01*
X374777797Y-79925498D01*
X374160597Y-80580028D01*
X373571029Y-81205413D01*
X373019783Y-81790319D01*
X372517550Y-82323414D01*
X372075019Y-82793367D01*
X371702882Y-83188844D01*
X371411829Y-83498514D01*
X371212549Y-83711044D01*
X371115734Y-83815102D01*
X371108338Y-83823386D01*
X371037176Y-83789884D01*
X370882951Y-83665239D01*
X370720391Y-83515618D01*
X370079811Y-83012592D01*
X369341064Y-82631046D01*
X368536375Y-82384426D01*
X367780000Y-82288839D01*
X367457213Y-82277665D01*
X367267948Y-82284583D01*
X367176568Y-82319984D01*
X367147437Y-82394259D01*
X367145000Y-82474000D01*
X367157149Y-82588530D01*
X367218727Y-82658117D01*
X367367427Y-82700809D01*
X367640944Y-82734651D01*
X367702270Y-82740793D01*
X368526951Y-82883999D01*
X369280896Y-83137512D01*
X369937710Y-83489801D01*
X370470999Y-83929334D01*
X370505132Y-83965335D01*
X370732598Y-84209667D01*
X365657966Y-89579951D01*
X364900440Y-90382174D01*
X364177135Y-91149254D01*
X363496399Y-91872274D01*
X362866578Y-92542318D01*
X362296021Y-93150469D01*
X361793076Y-93687810D01*
X361366089Y-94145424D01*
X361023408Y-94514396D01*
X360773382Y-94785807D01*
X360624357Y-94950742D01*
X360583333Y-95000545D01*
X360639731Y-95068413D01*
X360803605Y-95251504D01*
X361066978Y-95541169D01*
X361421875Y-95928758D01*
X361860317Y-96405622D01*
X362374328Y-96963112D01*
X362955931Y-97592580D01*
X363597149Y-98285374D01*
X364290004Y-99032848D01*
X365026520Y-99826351D01*
X365798720Y-100657235D01*
X366002000Y-100875791D01*
X366781901Y-101714447D01*
X367528187Y-102517503D01*
X368232886Y-103276351D01*
X368888027Y-103982381D01*
X369485638Y-104626985D01*
X370017749Y-105201555D01*
X370476388Y-105697481D01*
X370853584Y-106106154D01*
X371141365Y-106418967D01*
X371331760Y-106627310D01*
X371416798Y-106722575D01*
X371420667Y-106727758D01*
X371347517Y-106721271D01*
X371159230Y-106675893D01*
X370985637Y-106627264D01*
X370524685Y-106543680D01*
X369939434Y-106530478D01*
X369821471Y-106535289D01*
X369408604Y-106566327D01*
X369090389Y-106624251D01*
X368792368Y-106727218D01*
X368523245Y-106851855D01*
X367899597Y-107247079D01*
X367375201Y-107755772D01*
X366964498Y-108352718D01*
X366681930Y-109012702D01*
X366541939Y-109710509D01*
X366544941Y-110305951D01*
X366569618Y-110579484D01*
X366580426Y-110770241D01*
X366575858Y-110834379D01*
X366512893Y-110776706D01*
X366334486Y-110608909D01*
X366047730Y-110337733D01*
X365659720Y-109969923D01*
X365177550Y-109512224D01*
X364608313Y-108971383D01*
X363959103Y-108354145D01*
X363237015Y-107667255D01*
X362449142Y-106917459D01*
X361602578Y-106111503D01*
X360704418Y-105256131D01*
X359761754Y-104358090D01*
X358781682Y-103424124D01*
X358298349Y-102963428D01*
X357302335Y-102013636D01*
X356340345Y-101095596D01*
X355419481Y-100216120D01*
X354546849Y-99382021D01*
X353729552Y-98600114D01*
X352974694Y-97877211D01*
X352289380Y-97220127D01*
X351680712Y-96635675D01*
X351155796Y-96130668D01*
X350721735Y-95711919D01*
X350385632Y-95386243D01*
X350154593Y-95160453D01*
X350035720Y-95041362D01*
X350020601Y-95024137D01*
X350076980Y-94957680D01*
X350245897Y-94783724D01*
X350517492Y-94511779D01*
X350881899Y-94151356D01*
X351329256Y-93711966D01*
X351849701Y-93203120D01*
X352433370Y-92634329D01*
X353070399Y-92015104D01*
X353750927Y-91354955D01*
X354465089Y-90663393D01*
X355203023Y-89949930D01*
X355954866Y-89224075D01*
X356710754Y-88495340D01*
X357460825Y-87773236D01*
X358195216Y-87067274D01*
X358904062Y-86386964D01*
X359577503Y-85741817D01*
X360205673Y-85141345D01*
X360778710Y-84595057D01*
X361286752Y-84112465D01*
X361719934Y-83703080D01*
X362068395Y-83376412D01*
X362322270Y-83141973D01*
X362471697Y-83009272D01*
X362508707Y-82982000D01*
X362561695Y-83054899D01*
X362679611Y-83261249D01*
X362852696Y-83582532D01*
X363071187Y-84000228D01*
X363325323Y-84495818D01*
X363605344Y-85050782D01*
X363717254Y-85274882D01*
X364004834Y-85849709D01*
X364269892Y-86374366D01*
X364502664Y-86829933D01*
X364693388Y-87197491D01*
X364832301Y-87458123D01*
X364909641Y-87592908D01*
X364920750Y-87607130D01*
X365035413Y-87602908D01*
X365152631Y-87555446D01*
X365196057Y-87523537D01*
X365218060Y-87472810D01*
X365212040Y-87387375D01*
X365171402Y-87251342D01*
X365089548Y-87048821D01*
X364959881Y-86763921D01*
X364775804Y-86380752D01*
X364530719Y-85883423D01*
X364218030Y-85256045D01*
X364099943Y-85019884D01*
X362877125Y-82575372D01*
X364841729Y-80684292D01*
X365355635Y-80189687D01*
X365862040Y-79702426D01*
X366339545Y-79243090D01*
X366766749Y-78832263D01*
X367122253Y-78490525D01*
X367384655Y-78238459D01*
X367450467Y-78175300D01*
X368094601Y-77557387D01*
X368604402Y-78258860D01*
X368905953Y-78654396D01*
X369258075Y-79087351D01*
X369597371Y-79480424D01*
X369686315Y-79578077D01*
X370258429Y-80195820D01*
X370452846Y-80013175D01*
X370647262Y-79830530D01*
X369971368Y-79056765D01*
X369656256Y-78684878D01*
X369337186Y-78289491D01*
X369057321Y-77925012D01*
X368902047Y-77708947D01*
X368508621Y-77134893D01*
X368715811Y-76938952D01*
X368821523Y-76838244D01*
X369035900Y-76633412D01*
X369345338Y-76337482D01*
X369736234Y-75963480D01*
X370194986Y-75524434D01*
X370707990Y-75033370D01*
X371261642Y-74503314D01*
X371842341Y-73947295D01*
X372436484Y-73378338D01*
X373030466Y-72809470D01*
X373610685Y-72253717D01*
X374163538Y-71724108D01*
X374675422Y-71233668D01*
X375132734Y-70795424D01*
X375521872Y-70422403D01*
X375829231Y-70127631D01*
X376041209Y-69924136D01*
X376102311Y-69865376D01*
X376592955Y-69393000D01*
X376540313Y-69731667D01*
G37*
G36*
X324009314Y-69708139D02*
G01*
X324171302Y-69882833D01*
X324436491Y-70168206D01*
X324792610Y-70551078D01*
X325227392Y-71018271D01*
X325728568Y-71556604D01*
X326283868Y-72152900D01*
X326881023Y-72793980D01*
X327507764Y-73466663D01*
X328050667Y-74049237D01*
X331522266Y-77774142D01*
X331260081Y-78155571D01*
X331083015Y-78395128D01*
X330835889Y-78706504D01*
X330561979Y-79035704D01*
X330457235Y-79157268D01*
X329916573Y-79777536D01*
X330114715Y-79988449D01*
X330312857Y-80199361D01*
X330635449Y-79833847D01*
X330841592Y-79591019D01*
X331101268Y-79272219D01*
X331366289Y-78936849D01*
X331429946Y-78854500D01*
X331639256Y-78585575D01*
X331806845Y-78376529D01*
X331908486Y-78257275D01*
X331927076Y-78240667D01*
X331987942Y-78300734D01*
X332152961Y-78473064D01*
X332411049Y-78745850D01*
X332751118Y-79107283D01*
X333162084Y-79545555D01*
X333632860Y-80048860D01*
X334152360Y-80605388D01*
X334709498Y-81203333D01*
X334808627Y-81309833D01*
X335387697Y-81931746D01*
X335944471Y-82529132D01*
X336465752Y-83087868D01*
X336938337Y-83593832D01*
X337349028Y-84032900D01*
X337684623Y-84390950D01*
X337931923Y-84653860D01*
X338077726Y-84807506D01*
X338081696Y-84811631D01*
X338498440Y-85244263D01*
X337946604Y-86345509D01*
X337394769Y-87446755D01*
X337612325Y-87545881D01*
X337776062Y-87609888D01*
X337851594Y-87620670D01*
X337895518Y-87540026D01*
X337999783Y-87337390D01*
X338149300Y-87042374D01*
X338328980Y-86684592D01*
X338349360Y-86643833D01*
X338532139Y-86283462D01*
X338688295Y-85985595D01*
X338802391Y-85778967D01*
X338858990Y-85692309D01*
X338861096Y-85691333D01*
X338924208Y-85751321D01*
X339091306Y-85923276D01*
X339351041Y-86195186D01*
X339692060Y-86555042D01*
X340103012Y-86990830D01*
X340572546Y-87490539D01*
X341089310Y-88042159D01*
X341641953Y-88633677D01*
X341657827Y-88650690D01*
X342212903Y-89242601D01*
X342734908Y-89793404D01*
X343212204Y-90291232D01*
X343633152Y-90724219D01*
X343986116Y-91080501D01*
X344259458Y-91348210D01*
X344441539Y-91515481D01*
X344520722Y-91570448D01*
X344521271Y-91570286D01*
X344619325Y-91530370D01*
X344856986Y-91432826D01*
X345217329Y-91284624D01*
X345683432Y-91092731D01*
X346238373Y-90864116D01*
X346865228Y-90605747D01*
X347547074Y-90324593D01*
X347883333Y-90185898D01*
X348581572Y-89898806D01*
X349230002Y-89633996D01*
X349812213Y-89398037D01*
X350311793Y-89197498D01*
X350712332Y-89038946D01*
X350997418Y-88928950D01*
X351150641Y-88874079D01*
X351172641Y-88869332D01*
X351145369Y-88949875D01*
X351057846Y-89176148D01*
X350914455Y-89537367D01*
X350719574Y-90022748D01*
X350477585Y-90621508D01*
X350192868Y-91322862D01*
X349869803Y-92116027D01*
X349512772Y-92990218D01*
X349126155Y-93934652D01*
X348714332Y-94938545D01*
X348281683Y-95991112D01*
X348130476Y-96358499D01*
X345058670Y-103819604D01*
X343824143Y-102587135D01*
X343450599Y-102216874D01*
X343116857Y-101891118D01*
X342841556Y-101627647D01*
X342643338Y-101444244D01*
X342540840Y-101358689D01*
X342532164Y-101354667D01*
X342466188Y-101414735D01*
X342293381Y-101588534D01*
X342022932Y-101866451D01*
X341664031Y-102238875D01*
X341225867Y-102696194D01*
X340717630Y-103228798D01*
X340148508Y-103827073D01*
X339527691Y-104481410D01*
X338864369Y-105182196D01*
X338181239Y-105905500D01*
X337480064Y-106648625D01*
X336809002Y-107359682D01*
X336177686Y-108028473D01*
X335595747Y-108644802D01*
X335072820Y-109198471D01*
X334618536Y-109679282D01*
X334242527Y-110077039D01*
X333954427Y-110381544D01*
X333763869Y-110582600D01*
X333682440Y-110668000D01*
X333477115Y-110879667D01*
X333533442Y-110410472D01*
X333536932Y-109696917D01*
X333387026Y-108994596D01*
X333098897Y-108330810D01*
X332687719Y-107732859D01*
X332168666Y-107228044D01*
X331556910Y-106843665D01*
X331548903Y-106839816D01*
X331228039Y-106700279D01*
X330930328Y-106611064D01*
X330589364Y-106556769D01*
X330192042Y-106525117D01*
X329391752Y-106477000D01*
X333832709Y-102251792D01*
X334566628Y-101553516D01*
X335269607Y-100884655D01*
X335931248Y-100255103D01*
X336541154Y-99674755D01*
X337088927Y-99153505D01*
X337564171Y-98701246D01*
X337956486Y-98327873D01*
X338255477Y-98043281D01*
X338450745Y-97857364D01*
X338526323Y-97785340D01*
X338778980Y-97544096D01*
X337514378Y-96277382D01*
X337141749Y-95900775D01*
X336816208Y-95565303D01*
X336554639Y-95288909D01*
X336373929Y-95089535D01*
X336290964Y-94985120D01*
X336288054Y-94974407D01*
X336375275Y-94932032D01*
X336593191Y-94837184D01*
X336915555Y-94700972D01*
X337316121Y-94534510D01*
X337681000Y-94384674D01*
X338147502Y-94193827D01*
X338578206Y-94017161D01*
X338940586Y-93868054D01*
X339202115Y-93759882D01*
X339309709Y-93714855D01*
X339583752Y-93598506D01*
X334822376Y-88974621D01*
X334065183Y-88239050D01*
X333338037Y-87532195D01*
X332650861Y-86863734D01*
X332013582Y-86243344D01*
X331436124Y-85680700D01*
X330928415Y-85185481D01*
X330500378Y-84767363D01*
X330161940Y-84436022D01*
X329923026Y-84201137D01*
X329793561Y-84072383D01*
X329780867Y-84059380D01*
X329500735Y-83768025D01*
X329914702Y-83502383D01*
X330476163Y-83207355D01*
X331114789Y-82977026D01*
X331687600Y-82851281D01*
X332093000Y-82793884D01*
X331597953Y-83300863D01*
X331304573Y-83634744D01*
X331153862Y-83888415D01*
X331146654Y-84059590D01*
X331283783Y-84145980D01*
X331289639Y-84147143D01*
X331392349Y-84098760D01*
X331586797Y-83949362D01*
X331847711Y-83720333D01*
X332149817Y-83433059D01*
X332243081Y-83340345D01*
X333070496Y-82509459D01*
X332232388Y-81686034D01*
X331850443Y-81321011D01*
X331568526Y-81076067D01*
X331376192Y-80942950D01*
X331262994Y-80913409D01*
X331256807Y-80915363D01*
X331142213Y-81004215D01*
X331145482Y-81147995D01*
X331272549Y-81360027D01*
X331529344Y-81653633D01*
X331632853Y-81759902D01*
X332146372Y-82278027D01*
X331542026Y-82377833D01*
X330756178Y-82571068D01*
X330022533Y-82873793D01*
X329554987Y-83149966D01*
X329320919Y-83301046D01*
X329172599Y-83360581D01*
X329062936Y-83342033D01*
X329006594Y-83306753D01*
X328921818Y-83230648D01*
X328728919Y-83048614D01*
X328438641Y-82771116D01*
X328061729Y-82408621D01*
X327608928Y-81971595D01*
X327090982Y-81470504D01*
X326518635Y-80915815D01*
X325902631Y-80317993D01*
X325253716Y-79687506D01*
X324582633Y-79034819D01*
X323900126Y-78370399D01*
X323216941Y-77704712D01*
X322543822Y-77048224D01*
X321891513Y-76411401D01*
X321270758Y-75804710D01*
X320692302Y-75238617D01*
X320166889Y-74723589D01*
X319705264Y-74270090D01*
X319318171Y-73888589D01*
X319016354Y-73589551D01*
X318810559Y-73383442D01*
X318711528Y-73280729D01*
X318704128Y-73270983D01*
X318788444Y-73282867D01*
X318983604Y-73334366D01*
X319142950Y-73382077D01*
X319769284Y-73493866D01*
X320439536Y-73467363D01*
X321114887Y-73312022D01*
X321756520Y-73037294D01*
X322325614Y-72652633D01*
X322398667Y-72589313D01*
X322843211Y-72093121D01*
X323192765Y-71503254D01*
X323432436Y-70859957D01*
X323547334Y-70203478D01*
X323522568Y-69574060D01*
X323519984Y-69558745D01*
X323439560Y-69091945D01*
X324009314Y-69708139D01*
G37*
D10*
X315300000Y-70000000D03*
D11*
X315300000Y-70000000D03*
X316700000Y-66700000D03*
X316700000Y-73300000D03*
X320000000Y-65300000D03*
X320000000Y-74700000D03*
X323200000Y-73400000D03*
X323300000Y-66700000D03*
X324700000Y-70000000D03*
D12*
X397000000Y-3000000D03*
D13*
X331400000Y-175000000D03*
D11*
X331400000Y-175000000D03*
X333200000Y-170700000D03*
X333200000Y-179300000D03*
X337500000Y-168900000D03*
X337500000Y-181100000D03*
X341700000Y-179400000D03*
X341800000Y-170700000D03*
X343600000Y-175000000D03*
D13*
X356400000Y-150000000D03*
D11*
X356400000Y-150000000D03*
X358200000Y-145700000D03*
X358200000Y-154300000D03*
X362500000Y-143900000D03*
X362500000Y-156100000D03*
X366700000Y-154400000D03*
X366800000Y-145700000D03*
X368600000Y-150000000D03*
D10*
X365300000Y-30000000D03*
D11*
X365300000Y-30000000D03*
X366700000Y-26700000D03*
X366700000Y-33300000D03*
X370000000Y-25300000D03*
X370000000Y-34700000D03*
X373200000Y-33400000D03*
X373300000Y-26700000D03*
X374700000Y-30000000D03*
D10*
X325300000Y-30000000D03*
D11*
X325300000Y-30000000D03*
X326700000Y-26700000D03*
X326700000Y-33300000D03*
X330000000Y-25300000D03*
X330000000Y-34700000D03*
X333200000Y-33400000D03*
X333300000Y-26700000D03*
X334700000Y-30000000D03*
D10*
X325300000Y-110000000D03*
D11*
X325300000Y-110000000D03*
X326700000Y-106700000D03*
X326700000Y-113300000D03*
X330000000Y-105300000D03*
X330000000Y-114700000D03*
X333200000Y-113400000D03*
X333300000Y-106700000D03*
X334700000Y-110000000D03*
D10*
X345300000Y-70000000D03*
D11*
X345300000Y-70000000D03*
X346700000Y-66700000D03*
X346700000Y-73300000D03*
X350000000Y-65300000D03*
X350000000Y-74700000D03*
X353200000Y-73400000D03*
X353300000Y-66700000D03*
X354700000Y-70000000D03*
D13*
X381400000Y-175000000D03*
D11*
X381400000Y-175000000D03*
X383200000Y-170700000D03*
X383200000Y-179300000D03*
X387500000Y-168900000D03*
X387500000Y-181100000D03*
X391700000Y-179400000D03*
X391800000Y-170700000D03*
X393600000Y-175000000D03*
D13*
X356400000Y-175000000D03*
D11*
X356400000Y-175000000D03*
X358200000Y-170700000D03*
X358200000Y-179300000D03*
X362500000Y-168900000D03*
X362500000Y-181100000D03*
X366700000Y-179400000D03*
X366800000Y-170700000D03*
X368600000Y-175000000D03*
D13*
X331400000Y-150000000D03*
D11*
X331400000Y-150000000D03*
X333200000Y-145700000D03*
X333200000Y-154300000D03*
X337500000Y-143900000D03*
X337500000Y-156100000D03*
X341700000Y-154400000D03*
X341800000Y-145700000D03*
X343600000Y-150000000D03*
D14*
X342500000Y-162500000D03*
D10*
X365300000Y-110000000D03*
D11*
X365300000Y-110000000D03*
X366700000Y-106700000D03*
X366700000Y-113300000D03*
X370000000Y-105300000D03*
X370000000Y-114700000D03*
X373200000Y-113400000D03*
X373300000Y-106700000D03*
X374700000Y-110000000D03*
D12*
X303000000Y-3000000D03*
D13*
X306400000Y-175000000D03*
D11*
X306400000Y-175000000D03*
X308200000Y-170700000D03*
X308200000Y-179300000D03*
X312500000Y-168900000D03*
X312500000Y-181100000D03*
X316700000Y-179400000D03*
X316800000Y-170700000D03*
X318600000Y-175000000D03*
D15*
X345500000Y-50000000D03*
D11*
X345500000Y-50000000D03*
X346800000Y-46800000D03*
X346800000Y-53200000D03*
X350000000Y-45500000D03*
X350000000Y-54500000D03*
X353100000Y-53300000D03*
X353200000Y-46800000D03*
X354500000Y-50000000D03*
D10*
X375300000Y-70000000D03*
D11*
X375300000Y-70000000D03*
X376700000Y-66700000D03*
X376700000Y-73300000D03*
X380000000Y-65300000D03*
X380000000Y-74700000D03*
X383200000Y-73400000D03*
X383300000Y-66700000D03*
X384700000Y-70000000D03*
D13*
X306400000Y-150000000D03*
D11*
X306400000Y-150000000D03*
X308200000Y-145700000D03*
X308200000Y-154300000D03*
X312500000Y-143900000D03*
X312500000Y-156100000D03*
X316700000Y-154400000D03*
X316800000Y-145700000D03*
X318600000Y-150000000D03*
D14*
X392500000Y-162500000D03*
X367500000Y-162500000D03*
D12*
X397000000Y-197000000D03*
X303000000Y-197000000D03*
M02*
