G04 #@! TF.GenerationSoftware,KiCad,Pcbnew,(7.0.0)*
G04 #@! TF.CreationDate,2023-03-06T21:21:17-06:00*
G04 #@! TF.ProjectId,SlopesJack,536c6f70-6573-44a6-9163-6b2e6b696361,rev?*
G04 #@! TF.SameCoordinates,Original*
G04 #@! TF.FileFunction,Soldermask,Top*
G04 #@! TF.FilePolarity,Negative*
%FSLAX46Y46*%
G04 Gerber Fmt 4.6, Leading zero omitted, Abs format (unit mm)*
G04 Created by KiCad (PCBNEW (7.0.0)) date 2023-03-06 21:21:17*
%MOMM*%
%LPD*%
G01*
G04 APERTURE LIST*
G04 Aperture macros list*
%AMRotRect*
0 Rectangle, with rotation*
0 The origin of the aperture is its center*
0 $1 length*
0 $2 width*
0 $3 Rotation angle, in degrees counterclockwise*
0 Add horizontal line*
21,1,$1,$2,0,0,$3*%
G04 Aperture macros list end*
%ADD10R,1.800000X1.800000*%
%ADD11C,1.800000*%
%ADD12O,4.500001X2.500000*%
%ADD13O,2.500001X4.500001*%
%ADD14RotRect,4.500001X2.500001X45.000000*%
%ADD15O,2.500000X4.500000*%
%ADD16O,4.500000X2.500000*%
%ADD17C,1.600000*%
%ADD18O,1.600000X1.600000*%
%ADD19R,1.700000X1.700000*%
%ADD20O,1.700000X1.700000*%
G04 APERTURE END LIST*
D10*
X343774999Y-162499999D03*
D11*
X341235000Y-162500000D03*
D12*
X387999999Y-168599999D03*
D13*
X393899999Y-172499999D03*
D14*
X392239999Y-179739999D03*
D15*
X381099999Y-175499999D03*
D16*
X384999999Y-181399999D03*
D12*
X312999999Y-168599999D03*
D13*
X318899999Y-172499999D03*
D14*
X317239999Y-179739999D03*
D15*
X306099999Y-175499999D03*
D16*
X309999999Y-181399999D03*
D12*
X312999999Y-143599999D03*
D13*
X318899999Y-147499999D03*
D14*
X317239999Y-154739999D03*
D15*
X306099999Y-150499999D03*
D16*
X309999999Y-156399999D03*
D10*
X393774999Y-162499999D03*
D11*
X391235000Y-162500000D03*
D12*
X337999999Y-168599999D03*
D13*
X343899999Y-172499999D03*
D14*
X342239999Y-179739999D03*
D15*
X331099999Y-175499999D03*
D16*
X334999999Y-181399999D03*
D12*
X362999999Y-143599999D03*
D13*
X368899999Y-147499999D03*
D14*
X367239999Y-154739999D03*
D15*
X356099999Y-150499999D03*
D16*
X359999999Y-156399999D03*
D17*
X327420000Y-162500000D03*
D18*
X337579999Y-162499999D03*
D17*
X352420000Y-162500000D03*
D18*
X362579999Y-162499999D03*
D12*
X362999999Y-168599999D03*
D13*
X368899999Y-172499999D03*
D14*
X367239999Y-179739999D03*
D15*
X356099999Y-175499999D03*
D16*
X359999999Y-181399999D03*
D10*
X368774999Y-162499999D03*
D11*
X366235000Y-162500000D03*
D19*
X336024999Y-137499999D03*
D20*
X338564999Y-137499999D03*
X341104999Y-137499999D03*
X343644999Y-137499999D03*
X346184999Y-137499999D03*
X348724999Y-137499999D03*
X351264999Y-137499999D03*
X353804999Y-137499999D03*
X356344999Y-137499999D03*
X358884999Y-137499999D03*
X361424999Y-137499999D03*
X363964999Y-137499999D03*
D12*
X337999999Y-143599999D03*
D13*
X343899999Y-147499999D03*
D14*
X342239999Y-154739999D03*
D15*
X331099999Y-150499999D03*
D16*
X334999999Y-156399999D03*
M02*
