%TF.GenerationSoftware,KiCad,Pcbnew,(7.0.0)*%
%TF.CreationDate,2023-03-06T21:21:28-06:00*%
%TF.ProjectId,SlopesJack,536c6f70-6573-44a6-9163-6b2e6b696361,rev?*%
%TF.SameCoordinates,Original*%
%TF.FileFunction,Drillmap*%
%TF.FilePolarity,Positive*%
%FSLAX45Y45*%
G04 Gerber Fmt 4.5, Leading zero omitted, Abs format (unit mm)*
G04 Created by KiCad (PCBNEW (7.0.0)) date 2023-03-06 21:21:28*
%MOMM*%
%LPD*%
G01*
G04 APERTURE LIST*
%ADD10C,0.100000*%
%ADD11C,0.200000*%
G04 APERTURE END LIST*
D10*
X30250000Y-13500000D02*
X39750000Y-13500000D01*
X39750000Y-13500000D02*
X39750000Y-18500000D01*
X39750000Y-18500000D02*
X30250000Y-18500000D01*
X30250000Y-18500000D02*
X30250000Y-13500000D01*
D11*
X30492619Y-18798476D02*
X30492619Y-18598476D01*
X30492619Y-18598476D02*
X30540238Y-18598476D01*
X30540238Y-18598476D02*
X30568809Y-18608000D01*
X30568809Y-18608000D02*
X30587857Y-18627048D01*
X30587857Y-18627048D02*
X30597381Y-18646095D01*
X30597381Y-18646095D02*
X30606905Y-18684190D01*
X30606905Y-18684190D02*
X30606905Y-18712762D01*
X30606905Y-18712762D02*
X30597381Y-18750857D01*
X30597381Y-18750857D02*
X30587857Y-18769905D01*
X30587857Y-18769905D02*
X30568809Y-18788952D01*
X30568809Y-18788952D02*
X30540238Y-18798476D01*
X30540238Y-18798476D02*
X30492619Y-18798476D01*
X30692619Y-18798476D02*
X30692619Y-18665143D01*
X30692619Y-18703238D02*
X30702143Y-18684190D01*
X30702143Y-18684190D02*
X30711667Y-18674667D01*
X30711667Y-18674667D02*
X30730714Y-18665143D01*
X30730714Y-18665143D02*
X30749762Y-18665143D01*
X30816428Y-18798476D02*
X30816428Y-18665143D01*
X30816428Y-18598476D02*
X30806905Y-18608000D01*
X30806905Y-18608000D02*
X30816428Y-18617524D01*
X30816428Y-18617524D02*
X30825952Y-18608000D01*
X30825952Y-18608000D02*
X30816428Y-18598476D01*
X30816428Y-18598476D02*
X30816428Y-18617524D01*
X30940238Y-18798476D02*
X30921190Y-18788952D01*
X30921190Y-18788952D02*
X30911667Y-18769905D01*
X30911667Y-18769905D02*
X30911667Y-18598476D01*
X31045000Y-18798476D02*
X31025952Y-18788952D01*
X31025952Y-18788952D02*
X31016428Y-18769905D01*
X31016428Y-18769905D02*
X31016428Y-18598476D01*
X31241190Y-18798476D02*
X31241190Y-18598476D01*
X31241190Y-18598476D02*
X31307857Y-18741333D01*
X31307857Y-18741333D02*
X31374524Y-18598476D01*
X31374524Y-18598476D02*
X31374524Y-18798476D01*
X31555476Y-18798476D02*
X31555476Y-18693714D01*
X31555476Y-18693714D02*
X31545952Y-18674667D01*
X31545952Y-18674667D02*
X31526905Y-18665143D01*
X31526905Y-18665143D02*
X31488809Y-18665143D01*
X31488809Y-18665143D02*
X31469762Y-18674667D01*
X31555476Y-18788952D02*
X31536428Y-18798476D01*
X31536428Y-18798476D02*
X31488809Y-18798476D01*
X31488809Y-18798476D02*
X31469762Y-18788952D01*
X31469762Y-18788952D02*
X31460238Y-18769905D01*
X31460238Y-18769905D02*
X31460238Y-18750857D01*
X31460238Y-18750857D02*
X31469762Y-18731810D01*
X31469762Y-18731810D02*
X31488809Y-18722286D01*
X31488809Y-18722286D02*
X31536428Y-18722286D01*
X31536428Y-18722286D02*
X31555476Y-18712762D01*
X31650714Y-18665143D02*
X31650714Y-18865143D01*
X31650714Y-18674667D02*
X31669762Y-18665143D01*
X31669762Y-18665143D02*
X31707857Y-18665143D01*
X31707857Y-18665143D02*
X31726905Y-18674667D01*
X31726905Y-18674667D02*
X31736428Y-18684190D01*
X31736428Y-18684190D02*
X31745952Y-18703238D01*
X31745952Y-18703238D02*
X31745952Y-18760381D01*
X31745952Y-18760381D02*
X31736428Y-18779429D01*
X31736428Y-18779429D02*
X31726905Y-18788952D01*
X31726905Y-18788952D02*
X31707857Y-18798476D01*
X31707857Y-18798476D02*
X31669762Y-18798476D01*
X31669762Y-18798476D02*
X31650714Y-18788952D01*
X31831667Y-18779429D02*
X31841190Y-18788952D01*
X31841190Y-18788952D02*
X31831667Y-18798476D01*
X31831667Y-18798476D02*
X31822143Y-18788952D01*
X31822143Y-18788952D02*
X31831667Y-18779429D01*
X31831667Y-18779429D02*
X31831667Y-18798476D01*
X31831667Y-18674667D02*
X31841190Y-18684190D01*
X31841190Y-18684190D02*
X31831667Y-18693714D01*
X31831667Y-18693714D02*
X31822143Y-18684190D01*
X31822143Y-18684190D02*
X31831667Y-18674667D01*
X31831667Y-18674667D02*
X31831667Y-18693714D01*
M02*
