M48
; DRILL file {KiCad (7.0.0)} date Mon Mar  6 21:21:27 2023
; FORMAT={-:-/ absolute / metric / decimal}
; #@! TF.CreationDate,2023-03-06T21:21:27-06:00
; #@! TF.GenerationSoftware,Kicad,Pcbnew,(7.0.0)
; #@! TF.FileFunction,Plated,1,2,PTH
FMAT,2
METRIC
; #@! TA.AperFunction,Plated,PTH,ComponentDrill
T1C0.800
; #@! TA.AperFunction,Plated,PTH,ComponentDrill
T2C0.900
; #@! TA.AperFunction,Plated,PTH,ComponentDrill
T3C1.000
%
G90
G05
T1
X327.42Y-162.5
X337.58Y-162.5
X352.42Y-162.5
X362.58Y-162.5
T2
X341.235Y-162.5
X343.775Y-162.5
X366.235Y-162.5
X368.775Y-162.5
X391.235Y-162.5
X393.775Y-162.5
T3
X336.025Y-137.5
X338.565Y-137.5
X341.105Y-137.5
X343.645Y-137.5
X346.185Y-137.5
X348.725Y-137.5
X351.265Y-137.5
X353.805Y-137.5
X356.345Y-137.5
X358.885Y-137.5
X361.425Y-137.5
X363.965Y-137.5
T3
X306.1Y-149.65G85X306.1Y-151.35
G05
X306.1Y-174.65G85X306.1Y-176.35
G05
X309.15Y-156.4G85X310.85Y-156.4
G05
X309.15Y-181.4G85X310.85Y-181.4
G05
X312.15Y-143.6G85X313.85Y-143.6
G05
X312.15Y-168.6G85X313.85Y-168.6
G05
X316.639Y-155.341G85X317.841Y-154.139
G05
X316.639Y-180.341G85X317.841Y-179.139
G05
X318.9Y-146.65G85X318.9Y-148.35
G05
X318.9Y-171.65G85X318.9Y-173.35
G05
X331.1Y-149.65G85X331.1Y-151.35
G05
X331.1Y-174.65G85X331.1Y-176.35
G05
X334.15Y-156.4G85X335.85Y-156.4
G05
X334.15Y-181.4G85X335.85Y-181.4
G05
X337.15Y-143.6G85X338.85Y-143.6
G05
X337.15Y-168.6G85X338.85Y-168.6
G05
X341.639Y-155.341G85X342.841Y-154.139
G05
X341.639Y-180.341G85X342.841Y-179.139
G05
X343.9Y-146.65G85X343.9Y-148.35
G05
X343.9Y-171.65G85X343.9Y-173.35
G05
X356.1Y-149.65G85X356.1Y-151.35
G05
X356.1Y-174.65G85X356.1Y-176.35
G05
X359.15Y-156.4G85X360.85Y-156.4
G05
X359.15Y-181.4G85X360.85Y-181.4
G05
X362.15Y-143.6G85X363.85Y-143.6
G05
X362.15Y-168.6G85X363.85Y-168.6
G05
X366.639Y-155.341G85X367.841Y-154.139
G05
X366.639Y-180.341G85X367.841Y-179.139
G05
X368.9Y-146.65G85X368.9Y-148.35
G05
X368.9Y-171.65G85X368.9Y-173.35
G05
X381.1Y-174.65G85X381.1Y-176.35
G05
X384.15Y-181.4G85X385.85Y-181.4
G05
X387.15Y-168.6G85X388.85Y-168.6
G05
X391.639Y-180.341G85X392.841Y-179.139
G05
X393.9Y-171.65G85X393.9Y-173.35
G05
T0
M30
