G04 #@! TF.GenerationSoftware,KiCad,Pcbnew,(7.0.0)*
G04 #@! TF.CreationDate,2023-03-06T21:21:17-06:00*
G04 #@! TF.ProjectId,SlopesJack,536c6f70-6573-44a6-9163-6b2e6b696361,rev?*
G04 #@! TF.SameCoordinates,Original*
G04 #@! TF.FileFunction,Legend,Top*
G04 #@! TF.FilePolarity,Positive*
%FSLAX46Y46*%
G04 Gerber Fmt 4.6, Leading zero omitted, Abs format (unit mm)*
G04 Created by KiCad (PCBNEW (7.0.0)) date 2023-03-06 21:21:17*
%MOMM*%
%LPD*%
G01*
G04 APERTURE LIST*
G04 Aperture macros list*
%AMRotRect*
0 Rectangle, with rotation*
0 The origin of the aperture is its center*
0 $1 length*
0 $2 width*
0 $3 Rotation angle, in degrees counterclockwise*
0 Add horizontal line*
21,1,$1,$2,0,0,$3*%
G04 Aperture macros list end*
%ADD10C,0.150000*%
%ADD11C,0.120000*%
%ADD12R,1.800000X1.800000*%
%ADD13C,1.800000*%
%ADD14O,4.500001X2.500000*%
%ADD15O,2.500001X4.500001*%
%ADD16RotRect,4.500001X2.500001X45.000000*%
%ADD17O,2.500000X4.500000*%
%ADD18O,4.500000X2.500000*%
%ADD19C,1.600000*%
%ADD20O,1.600000X1.600000*%
%ADD21R,1.700000X1.700000*%
%ADD22O,1.700000X1.700000*%
G04 APERTURE END LIST*
D10*
X345909524Y-160793904D02*
X345909524Y-159993904D01*
X345909524Y-159993904D02*
X346100000Y-159993904D01*
X346100000Y-159993904D02*
X346214286Y-160032000D01*
X346214286Y-160032000D02*
X346290476Y-160108190D01*
X346290476Y-160108190D02*
X346328571Y-160184380D01*
X346328571Y-160184380D02*
X346366667Y-160336761D01*
X346366667Y-160336761D02*
X346366667Y-160451047D01*
X346366667Y-160451047D02*
X346328571Y-160603428D01*
X346328571Y-160603428D02*
X346290476Y-160679619D01*
X346290476Y-160679619D02*
X346214286Y-160755809D01*
X346214286Y-160755809D02*
X346100000Y-160793904D01*
X346100000Y-160793904D02*
X345909524Y-160793904D01*
X347128571Y-160793904D02*
X346671428Y-160793904D01*
X346900000Y-160793904D02*
X346900000Y-159993904D01*
X346900000Y-159993904D02*
X346823809Y-160108190D01*
X346823809Y-160108190D02*
X346747619Y-160184380D01*
X346747619Y-160184380D02*
X346671428Y-160222476D01*
X346265476Y-162793904D02*
X346265476Y-161993904D01*
X346722619Y-162793904D02*
X346379761Y-162336761D01*
X346722619Y-161993904D02*
X346265476Y-162451047D01*
X387233333Y-164993904D02*
X387233333Y-165565333D01*
X387233333Y-165565333D02*
X387195238Y-165679619D01*
X387195238Y-165679619D02*
X387119047Y-165755809D01*
X387119047Y-165755809D02*
X387004762Y-165793904D01*
X387004762Y-165793904D02*
X386928571Y-165793904D01*
X387728571Y-165336761D02*
X387652381Y-165298666D01*
X387652381Y-165298666D02*
X387614286Y-165260571D01*
X387614286Y-165260571D02*
X387576190Y-165184380D01*
X387576190Y-165184380D02*
X387576190Y-165146285D01*
X387576190Y-165146285D02*
X387614286Y-165070095D01*
X387614286Y-165070095D02*
X387652381Y-165032000D01*
X387652381Y-165032000D02*
X387728571Y-164993904D01*
X387728571Y-164993904D02*
X387880952Y-164993904D01*
X387880952Y-164993904D02*
X387957143Y-165032000D01*
X387957143Y-165032000D02*
X387995238Y-165070095D01*
X387995238Y-165070095D02*
X388033333Y-165146285D01*
X388033333Y-165146285D02*
X388033333Y-165184380D01*
X388033333Y-165184380D02*
X387995238Y-165260571D01*
X387995238Y-165260571D02*
X387957143Y-165298666D01*
X387957143Y-165298666D02*
X387880952Y-165336761D01*
X387880952Y-165336761D02*
X387728571Y-165336761D01*
X387728571Y-165336761D02*
X387652381Y-165374857D01*
X387652381Y-165374857D02*
X387614286Y-165412952D01*
X387614286Y-165412952D02*
X387576190Y-165489142D01*
X387576190Y-165489142D02*
X387576190Y-165641523D01*
X387576190Y-165641523D02*
X387614286Y-165717714D01*
X387614286Y-165717714D02*
X387652381Y-165755809D01*
X387652381Y-165755809D02*
X387728571Y-165793904D01*
X387728571Y-165793904D02*
X387880952Y-165793904D01*
X387880952Y-165793904D02*
X387957143Y-165755809D01*
X387957143Y-165755809D02*
X387995238Y-165717714D01*
X387995238Y-165717714D02*
X388033333Y-165641523D01*
X388033333Y-165641523D02*
X388033333Y-165489142D01*
X388033333Y-165489142D02*
X387995238Y-165412952D01*
X387995238Y-165412952D02*
X387957143Y-165374857D01*
X387957143Y-165374857D02*
X387880952Y-165336761D01*
X312233333Y-164993904D02*
X312233333Y-165565333D01*
X312233333Y-165565333D02*
X312195238Y-165679619D01*
X312195238Y-165679619D02*
X312119047Y-165755809D01*
X312119047Y-165755809D02*
X312004762Y-165793904D01*
X312004762Y-165793904D02*
X311928571Y-165793904D01*
X313033333Y-165793904D02*
X312576190Y-165793904D01*
X312804762Y-165793904D02*
X312804762Y-164993904D01*
X312804762Y-164993904D02*
X312728571Y-165108190D01*
X312728571Y-165108190D02*
X312652381Y-165184380D01*
X312652381Y-165184380D02*
X312576190Y-165222476D01*
X312233333Y-139993904D02*
X312233333Y-140565333D01*
X312233333Y-140565333D02*
X312195238Y-140679619D01*
X312195238Y-140679619D02*
X312119047Y-140755809D01*
X312119047Y-140755809D02*
X312004762Y-140793904D01*
X312004762Y-140793904D02*
X311928571Y-140793904D01*
X312576190Y-140070095D02*
X312614286Y-140032000D01*
X312614286Y-140032000D02*
X312690476Y-139993904D01*
X312690476Y-139993904D02*
X312880952Y-139993904D01*
X312880952Y-139993904D02*
X312957143Y-140032000D01*
X312957143Y-140032000D02*
X312995238Y-140070095D01*
X312995238Y-140070095D02*
X313033333Y-140146285D01*
X313033333Y-140146285D02*
X313033333Y-140222476D01*
X313033333Y-140222476D02*
X312995238Y-140336761D01*
X312995238Y-140336761D02*
X312538095Y-140793904D01*
X312538095Y-140793904D02*
X313033333Y-140793904D01*
X395909524Y-160793904D02*
X395909524Y-159993904D01*
X395909524Y-159993904D02*
X396100000Y-159993904D01*
X396100000Y-159993904D02*
X396214286Y-160032000D01*
X396214286Y-160032000D02*
X396290476Y-160108190D01*
X396290476Y-160108190D02*
X396328571Y-160184380D01*
X396328571Y-160184380D02*
X396366667Y-160336761D01*
X396366667Y-160336761D02*
X396366667Y-160451047D01*
X396366667Y-160451047D02*
X396328571Y-160603428D01*
X396328571Y-160603428D02*
X396290476Y-160679619D01*
X396290476Y-160679619D02*
X396214286Y-160755809D01*
X396214286Y-160755809D02*
X396100000Y-160793904D01*
X396100000Y-160793904D02*
X395909524Y-160793904D01*
X396633333Y-159993904D02*
X397128571Y-159993904D01*
X397128571Y-159993904D02*
X396861905Y-160298666D01*
X396861905Y-160298666D02*
X396976190Y-160298666D01*
X396976190Y-160298666D02*
X397052381Y-160336761D01*
X397052381Y-160336761D02*
X397090476Y-160374857D01*
X397090476Y-160374857D02*
X397128571Y-160451047D01*
X397128571Y-160451047D02*
X397128571Y-160641523D01*
X397128571Y-160641523D02*
X397090476Y-160717714D01*
X397090476Y-160717714D02*
X397052381Y-160755809D01*
X397052381Y-160755809D02*
X396976190Y-160793904D01*
X396976190Y-160793904D02*
X396747619Y-160793904D01*
X396747619Y-160793904D02*
X396671428Y-160755809D01*
X396671428Y-160755809D02*
X396633333Y-160717714D01*
X396265476Y-162793904D02*
X396265476Y-161993904D01*
X396722619Y-162793904D02*
X396379761Y-162336761D01*
X396722619Y-161993904D02*
X396265476Y-162451047D01*
X337233333Y-164993904D02*
X337233333Y-165565333D01*
X337233333Y-165565333D02*
X337195238Y-165679619D01*
X337195238Y-165679619D02*
X337119047Y-165755809D01*
X337119047Y-165755809D02*
X337004762Y-165793904D01*
X337004762Y-165793904D02*
X336928571Y-165793904D01*
X337957143Y-165260571D02*
X337957143Y-165793904D01*
X337766667Y-164955809D02*
X337576190Y-165527238D01*
X337576190Y-165527238D02*
X338071429Y-165527238D01*
X362233333Y-139993904D02*
X362233333Y-140565333D01*
X362233333Y-140565333D02*
X362195238Y-140679619D01*
X362195238Y-140679619D02*
X362119047Y-140755809D01*
X362119047Y-140755809D02*
X362004762Y-140793904D01*
X362004762Y-140793904D02*
X361928571Y-140793904D01*
X362538095Y-139993904D02*
X363071429Y-139993904D01*
X363071429Y-139993904D02*
X362728571Y-140793904D01*
X332366667Y-160423904D02*
X332100000Y-160042952D01*
X331909524Y-160423904D02*
X331909524Y-159623904D01*
X331909524Y-159623904D02*
X332214286Y-159623904D01*
X332214286Y-159623904D02*
X332290476Y-159662000D01*
X332290476Y-159662000D02*
X332328571Y-159700095D01*
X332328571Y-159700095D02*
X332366667Y-159776285D01*
X332366667Y-159776285D02*
X332366667Y-159890571D01*
X332366667Y-159890571D02*
X332328571Y-159966761D01*
X332328571Y-159966761D02*
X332290476Y-160004857D01*
X332290476Y-160004857D02*
X332214286Y-160042952D01*
X332214286Y-160042952D02*
X331909524Y-160042952D01*
X333128571Y-160423904D02*
X332671428Y-160423904D01*
X332900000Y-160423904D02*
X332900000Y-159623904D01*
X332900000Y-159623904D02*
X332823809Y-159738190D01*
X332823809Y-159738190D02*
X332747619Y-159814380D01*
X332747619Y-159814380D02*
X332671428Y-159852476D01*
X331985714Y-162793904D02*
X331604762Y-162793904D01*
X331604762Y-162793904D02*
X331604762Y-161993904D01*
X332252381Y-162374857D02*
X332519047Y-162374857D01*
X332633333Y-162793904D02*
X332252381Y-162793904D01*
X332252381Y-162793904D02*
X332252381Y-161993904D01*
X332252381Y-161993904D02*
X332633333Y-161993904D01*
X332976191Y-162793904D02*
X332976191Y-161993904D01*
X332976191Y-161993904D02*
X333166667Y-161993904D01*
X333166667Y-161993904D02*
X333280953Y-162032000D01*
X333280953Y-162032000D02*
X333357143Y-162108190D01*
X333357143Y-162108190D02*
X333395238Y-162184380D01*
X333395238Y-162184380D02*
X333433334Y-162336761D01*
X333433334Y-162336761D02*
X333433334Y-162451047D01*
X333433334Y-162451047D02*
X333395238Y-162603428D01*
X333395238Y-162603428D02*
X333357143Y-162679619D01*
X333357143Y-162679619D02*
X333280953Y-162755809D01*
X333280953Y-162755809D02*
X333166667Y-162793904D01*
X333166667Y-162793904D02*
X332976191Y-162793904D01*
X357366667Y-160423904D02*
X357100000Y-160042952D01*
X356909524Y-160423904D02*
X356909524Y-159623904D01*
X356909524Y-159623904D02*
X357214286Y-159623904D01*
X357214286Y-159623904D02*
X357290476Y-159662000D01*
X357290476Y-159662000D02*
X357328571Y-159700095D01*
X357328571Y-159700095D02*
X357366667Y-159776285D01*
X357366667Y-159776285D02*
X357366667Y-159890571D01*
X357366667Y-159890571D02*
X357328571Y-159966761D01*
X357328571Y-159966761D02*
X357290476Y-160004857D01*
X357290476Y-160004857D02*
X357214286Y-160042952D01*
X357214286Y-160042952D02*
X356909524Y-160042952D01*
X357671428Y-159700095D02*
X357709524Y-159662000D01*
X357709524Y-159662000D02*
X357785714Y-159623904D01*
X357785714Y-159623904D02*
X357976190Y-159623904D01*
X357976190Y-159623904D02*
X358052381Y-159662000D01*
X358052381Y-159662000D02*
X358090476Y-159700095D01*
X358090476Y-159700095D02*
X358128571Y-159776285D01*
X358128571Y-159776285D02*
X358128571Y-159852476D01*
X358128571Y-159852476D02*
X358090476Y-159966761D01*
X358090476Y-159966761D02*
X357633333Y-160423904D01*
X357633333Y-160423904D02*
X358128571Y-160423904D01*
X356985714Y-162793904D02*
X356604762Y-162793904D01*
X356604762Y-162793904D02*
X356604762Y-161993904D01*
X357252381Y-162374857D02*
X357519047Y-162374857D01*
X357633333Y-162793904D02*
X357252381Y-162793904D01*
X357252381Y-162793904D02*
X357252381Y-161993904D01*
X357252381Y-161993904D02*
X357633333Y-161993904D01*
X357976191Y-162793904D02*
X357976191Y-161993904D01*
X357976191Y-161993904D02*
X358166667Y-161993904D01*
X358166667Y-161993904D02*
X358280953Y-162032000D01*
X358280953Y-162032000D02*
X358357143Y-162108190D01*
X358357143Y-162108190D02*
X358395238Y-162184380D01*
X358395238Y-162184380D02*
X358433334Y-162336761D01*
X358433334Y-162336761D02*
X358433334Y-162451047D01*
X358433334Y-162451047D02*
X358395238Y-162603428D01*
X358395238Y-162603428D02*
X358357143Y-162679619D01*
X358357143Y-162679619D02*
X358280953Y-162755809D01*
X358280953Y-162755809D02*
X358166667Y-162793904D01*
X358166667Y-162793904D02*
X357976191Y-162793904D01*
X362233333Y-164993904D02*
X362233333Y-165565333D01*
X362233333Y-165565333D02*
X362195238Y-165679619D01*
X362195238Y-165679619D02*
X362119047Y-165755809D01*
X362119047Y-165755809D02*
X362004762Y-165793904D01*
X362004762Y-165793904D02*
X361928571Y-165793904D01*
X362957143Y-164993904D02*
X362804762Y-164993904D01*
X362804762Y-164993904D02*
X362728571Y-165032000D01*
X362728571Y-165032000D02*
X362690476Y-165070095D01*
X362690476Y-165070095D02*
X362614286Y-165184380D01*
X362614286Y-165184380D02*
X362576190Y-165336761D01*
X362576190Y-165336761D02*
X362576190Y-165641523D01*
X362576190Y-165641523D02*
X362614286Y-165717714D01*
X362614286Y-165717714D02*
X362652381Y-165755809D01*
X362652381Y-165755809D02*
X362728571Y-165793904D01*
X362728571Y-165793904D02*
X362880952Y-165793904D01*
X362880952Y-165793904D02*
X362957143Y-165755809D01*
X362957143Y-165755809D02*
X362995238Y-165717714D01*
X362995238Y-165717714D02*
X363033333Y-165641523D01*
X363033333Y-165641523D02*
X363033333Y-165451047D01*
X363033333Y-165451047D02*
X362995238Y-165374857D01*
X362995238Y-165374857D02*
X362957143Y-165336761D01*
X362957143Y-165336761D02*
X362880952Y-165298666D01*
X362880952Y-165298666D02*
X362728571Y-165298666D01*
X362728571Y-165298666D02*
X362652381Y-165336761D01*
X362652381Y-165336761D02*
X362614286Y-165374857D01*
X362614286Y-165374857D02*
X362576190Y-165451047D01*
X370909524Y-161293904D02*
X370909524Y-160493904D01*
X370909524Y-160493904D02*
X371100000Y-160493904D01*
X371100000Y-160493904D02*
X371214286Y-160532000D01*
X371214286Y-160532000D02*
X371290476Y-160608190D01*
X371290476Y-160608190D02*
X371328571Y-160684380D01*
X371328571Y-160684380D02*
X371366667Y-160836761D01*
X371366667Y-160836761D02*
X371366667Y-160951047D01*
X371366667Y-160951047D02*
X371328571Y-161103428D01*
X371328571Y-161103428D02*
X371290476Y-161179619D01*
X371290476Y-161179619D02*
X371214286Y-161255809D01*
X371214286Y-161255809D02*
X371100000Y-161293904D01*
X371100000Y-161293904D02*
X370909524Y-161293904D01*
X371671428Y-160570095D02*
X371709524Y-160532000D01*
X371709524Y-160532000D02*
X371785714Y-160493904D01*
X371785714Y-160493904D02*
X371976190Y-160493904D01*
X371976190Y-160493904D02*
X372052381Y-160532000D01*
X372052381Y-160532000D02*
X372090476Y-160570095D01*
X372090476Y-160570095D02*
X372128571Y-160646285D01*
X372128571Y-160646285D02*
X372128571Y-160722476D01*
X372128571Y-160722476D02*
X372090476Y-160836761D01*
X372090476Y-160836761D02*
X371633333Y-161293904D01*
X371633333Y-161293904D02*
X372128571Y-161293904D01*
X371265476Y-162793904D02*
X371265476Y-161993904D01*
X371722619Y-162793904D02*
X371379761Y-162336761D01*
X371722619Y-161993904D02*
X371265476Y-162451047D01*
X333062380Y-137833333D02*
X333776666Y-137833333D01*
X333776666Y-137833333D02*
X333919523Y-137880952D01*
X333919523Y-137880952D02*
X334014761Y-137976190D01*
X334014761Y-137976190D02*
X334062380Y-138119047D01*
X334062380Y-138119047D02*
X334062380Y-138214285D01*
X333062380Y-136880952D02*
X333062380Y-137357142D01*
X333062380Y-137357142D02*
X333538571Y-137404761D01*
X333538571Y-137404761D02*
X333490952Y-137357142D01*
X333490952Y-137357142D02*
X333443333Y-137261904D01*
X333443333Y-137261904D02*
X333443333Y-137023809D01*
X333443333Y-137023809D02*
X333490952Y-136928571D01*
X333490952Y-136928571D02*
X333538571Y-136880952D01*
X333538571Y-136880952D02*
X333633809Y-136833333D01*
X333633809Y-136833333D02*
X333871904Y-136833333D01*
X333871904Y-136833333D02*
X333967142Y-136880952D01*
X333967142Y-136880952D02*
X334014761Y-136928571D01*
X334014761Y-136928571D02*
X334062380Y-137023809D01*
X334062380Y-137023809D02*
X334062380Y-137261904D01*
X334062380Y-137261904D02*
X334014761Y-137357142D01*
X334014761Y-137357142D02*
X333967142Y-137404761D01*
X337233333Y-139993904D02*
X337233333Y-140565333D01*
X337233333Y-140565333D02*
X337195238Y-140679619D01*
X337195238Y-140679619D02*
X337119047Y-140755809D01*
X337119047Y-140755809D02*
X337004762Y-140793904D01*
X337004762Y-140793904D02*
X336928571Y-140793904D01*
X337538095Y-139993904D02*
X338033333Y-139993904D01*
X338033333Y-139993904D02*
X337766667Y-140298666D01*
X337766667Y-140298666D02*
X337880952Y-140298666D01*
X337880952Y-140298666D02*
X337957143Y-140336761D01*
X337957143Y-140336761D02*
X337995238Y-140374857D01*
X337995238Y-140374857D02*
X338033333Y-140451047D01*
X338033333Y-140451047D02*
X338033333Y-140641523D01*
X338033333Y-140641523D02*
X337995238Y-140717714D01*
X337995238Y-140717714D02*
X337957143Y-140755809D01*
X337957143Y-140755809D02*
X337880952Y-140793904D01*
X337880952Y-140793904D02*
X337652381Y-140793904D01*
X337652381Y-140793904D02*
X337576190Y-140755809D01*
X337576190Y-140755809D02*
X337538095Y-140717714D01*
D11*
X345065000Y-164045000D02*
X345065000Y-160955000D01*
X339515001Y-162499538D02*
G75*
G03*
X345064999Y-164044830I2989999J-462D01*
G01*
X345065000Y-160955170D02*
G75*
G03*
X339515000Y-162500462I-2560000J-1544830D01*
G01*
X345005000Y-162500000D02*
G75*
G03*
X345005000Y-162500000I-2500000J0D01*
G01*
X379600000Y-167100000D02*
X386000000Y-167100000D01*
X379600000Y-173500000D02*
X379600000Y-167100000D01*
X379600000Y-182850000D02*
X379600000Y-177500000D01*
X383000000Y-182850000D02*
X379600000Y-182850000D01*
X390000000Y-167100000D02*
X395350000Y-167100000D01*
X392850000Y-182850000D02*
X387000000Y-182850000D01*
X395350000Y-167100000D02*
X395350000Y-170300000D01*
X395350000Y-174600000D02*
X395350000Y-180800000D01*
X395350000Y-180800000D02*
X395350000Y-180850000D01*
X395350000Y-180850000D02*
X392850000Y-182850000D01*
X304600000Y-167100000D02*
X311000000Y-167100000D01*
X304600000Y-173500000D02*
X304600000Y-167100000D01*
X304600000Y-182850000D02*
X304600000Y-177500000D01*
X308000000Y-182850000D02*
X304600000Y-182850000D01*
X315000000Y-167100000D02*
X320350000Y-167100000D01*
X317850000Y-182850000D02*
X312000000Y-182850000D01*
X320350000Y-167100000D02*
X320350000Y-170300000D01*
X320350000Y-174600000D02*
X320350000Y-180800000D01*
X320350000Y-180800000D02*
X320350000Y-180850000D01*
X320350000Y-180850000D02*
X317850000Y-182850000D01*
X304600000Y-142100000D02*
X311000000Y-142100000D01*
X304600000Y-148500000D02*
X304600000Y-142100000D01*
X304600000Y-157850000D02*
X304600000Y-152500000D01*
X308000000Y-157850000D02*
X304600000Y-157850000D01*
X315000000Y-142100000D02*
X320350000Y-142100000D01*
X317850000Y-157850000D02*
X312000000Y-157850000D01*
X320350000Y-142100000D02*
X320350000Y-145300000D01*
X320350000Y-149600000D02*
X320350000Y-155800000D01*
X320350000Y-155800000D02*
X320350000Y-155850000D01*
X320350000Y-155850000D02*
X317850000Y-157850000D01*
X395065000Y-164045000D02*
X395065000Y-160955000D01*
X389515001Y-162499538D02*
G75*
G03*
X395064999Y-164044830I2989999J-462D01*
G01*
X395065000Y-160955170D02*
G75*
G03*
X389515000Y-162500462I-2560000J-1544830D01*
G01*
X395005000Y-162500000D02*
G75*
G03*
X395005000Y-162500000I-2500000J0D01*
G01*
X329600000Y-167100000D02*
X336000000Y-167100000D01*
X329600000Y-173500000D02*
X329600000Y-167100000D01*
X329600000Y-182850000D02*
X329600000Y-177500000D01*
X333000000Y-182850000D02*
X329600000Y-182850000D01*
X340000000Y-167100000D02*
X345350000Y-167100000D01*
X342850000Y-182850000D02*
X337000000Y-182850000D01*
X345350000Y-167100000D02*
X345350000Y-170300000D01*
X345350000Y-174600000D02*
X345350000Y-180800000D01*
X345350000Y-180800000D02*
X345350000Y-180850000D01*
X345350000Y-180850000D02*
X342850000Y-182850000D01*
X354600000Y-142100000D02*
X361000000Y-142100000D01*
X354600000Y-148500000D02*
X354600000Y-142100000D01*
X354600000Y-157850000D02*
X354600000Y-152500000D01*
X358000000Y-157850000D02*
X354600000Y-157850000D01*
X365000000Y-142100000D02*
X370350000Y-142100000D01*
X367850000Y-157850000D02*
X362000000Y-157850000D01*
X370350000Y-142100000D02*
X370350000Y-145300000D01*
X370350000Y-149600000D02*
X370350000Y-155800000D01*
X370350000Y-155800000D02*
X370350000Y-155850000D01*
X370350000Y-155850000D02*
X367850000Y-157850000D01*
X328460000Y-162500000D02*
X329230000Y-162500000D01*
X329230000Y-161130000D02*
X329230000Y-163870000D01*
X329230000Y-163870000D02*
X335770000Y-163870000D01*
X335770000Y-161130000D02*
X329230000Y-161130000D01*
X335770000Y-163870000D02*
X335770000Y-161130000D01*
X336540000Y-162500000D02*
X335770000Y-162500000D01*
X353460000Y-162500000D02*
X354230000Y-162500000D01*
X354230000Y-161130000D02*
X354230000Y-163870000D01*
X354230000Y-163870000D02*
X360770000Y-163870000D01*
X360770000Y-161130000D02*
X354230000Y-161130000D01*
X360770000Y-163870000D02*
X360770000Y-161130000D01*
X361540000Y-162500000D02*
X360770000Y-162500000D01*
X354600000Y-167100000D02*
X361000000Y-167100000D01*
X354600000Y-173500000D02*
X354600000Y-167100000D01*
X354600000Y-182850000D02*
X354600000Y-177500000D01*
X358000000Y-182850000D02*
X354600000Y-182850000D01*
X365000000Y-167100000D02*
X370350000Y-167100000D01*
X367850000Y-182850000D02*
X362000000Y-182850000D01*
X370350000Y-167100000D02*
X370350000Y-170300000D01*
X370350000Y-174600000D02*
X370350000Y-180800000D01*
X370350000Y-180800000D02*
X370350000Y-180850000D01*
X370350000Y-180850000D02*
X367850000Y-182850000D01*
X370065000Y-164045000D02*
X370065000Y-160955000D01*
X364515001Y-162499538D02*
G75*
G03*
X370064999Y-164044830I2989999J-462D01*
G01*
X370065000Y-160955170D02*
G75*
G03*
X364515000Y-162500462I-2560000J-1544830D01*
G01*
X370005000Y-162500000D02*
G75*
G03*
X370005000Y-162500000I-2500000J0D01*
G01*
X334695000Y-138830000D02*
X334695000Y-137500000D01*
X336025000Y-138830000D02*
X334695000Y-138830000D01*
X337295000Y-138830000D02*
X365295000Y-138830000D01*
X337295000Y-138830000D02*
X337295000Y-136170000D01*
X365295000Y-138830000D02*
X365295000Y-136170000D01*
X337295000Y-136170000D02*
X365295000Y-136170000D01*
X329600000Y-142100000D02*
X336000000Y-142100000D01*
X329600000Y-148500000D02*
X329600000Y-142100000D01*
X329600000Y-157850000D02*
X329600000Y-152500000D01*
X333000000Y-157850000D02*
X329600000Y-157850000D01*
X340000000Y-142100000D02*
X345350000Y-142100000D01*
X342850000Y-157850000D02*
X337000000Y-157850000D01*
X345350000Y-142100000D02*
X345350000Y-145300000D01*
X345350000Y-149600000D02*
X345350000Y-155800000D01*
X345350000Y-155800000D02*
X345350000Y-155850000D01*
X345350000Y-155850000D02*
X342850000Y-157850000D01*
%LPC*%
D12*
X343774999Y-162499999D03*
D13*
X341235000Y-162500000D03*
D14*
X387999999Y-168599999D03*
D15*
X393899999Y-172499999D03*
D16*
X392239999Y-179739999D03*
D17*
X381099999Y-175499999D03*
D18*
X384999999Y-181399999D03*
D14*
X312999999Y-168599999D03*
D15*
X318899999Y-172499999D03*
D16*
X317239999Y-179739999D03*
D17*
X306099999Y-175499999D03*
D18*
X309999999Y-181399999D03*
D14*
X312999999Y-143599999D03*
D15*
X318899999Y-147499999D03*
D16*
X317239999Y-154739999D03*
D17*
X306099999Y-150499999D03*
D18*
X309999999Y-156399999D03*
D12*
X393774999Y-162499999D03*
D13*
X391235000Y-162500000D03*
D14*
X337999999Y-168599999D03*
D15*
X343899999Y-172499999D03*
D16*
X342239999Y-179739999D03*
D17*
X331099999Y-175499999D03*
D18*
X334999999Y-181399999D03*
D14*
X362999999Y-143599999D03*
D15*
X368899999Y-147499999D03*
D16*
X367239999Y-154739999D03*
D17*
X356099999Y-150499999D03*
D18*
X359999999Y-156399999D03*
D19*
X327420000Y-162500000D03*
D20*
X337579999Y-162499999D03*
D19*
X352420000Y-162500000D03*
D20*
X362579999Y-162499999D03*
D14*
X362999999Y-168599999D03*
D15*
X368899999Y-172499999D03*
D16*
X367239999Y-179739999D03*
D17*
X356099999Y-175499999D03*
D18*
X359999999Y-181399999D03*
D12*
X368774999Y-162499999D03*
D13*
X366235000Y-162500000D03*
D21*
X336024999Y-137499999D03*
D22*
X338564999Y-137499999D03*
X341104999Y-137499999D03*
X343644999Y-137499999D03*
X346184999Y-137499999D03*
X348724999Y-137499999D03*
X351264999Y-137499999D03*
X353804999Y-137499999D03*
X356344999Y-137499999D03*
X358884999Y-137499999D03*
X361424999Y-137499999D03*
X363964999Y-137499999D03*
D14*
X337999999Y-143599999D03*
D15*
X343899999Y-147499999D03*
D16*
X342239999Y-154739999D03*
D17*
X331099999Y-150499999D03*
D18*
X334999999Y-156399999D03*
M02*
