G04 #@! TF.GenerationSoftware,KiCad,Pcbnew,(7.0.0)*
G04 #@! TF.CreationDate,2023-03-06T21:21:17-06:00*
G04 #@! TF.ProjectId,SlopesJack,536c6f70-6573-44a6-9163-6b2e6b696361,rev?*
G04 #@! TF.SameCoordinates,Original*
G04 #@! TF.FileFunction,Copper,L1,Top*
G04 #@! TF.FilePolarity,Positive*
%FSLAX46Y46*%
G04 Gerber Fmt 4.6, Leading zero omitted, Abs format (unit mm)*
G04 Created by KiCad (PCBNEW (7.0.0)) date 2023-03-06 21:21:17*
%MOMM*%
%LPD*%
G01*
G04 APERTURE LIST*
G04 Aperture macros list*
%AMRotRect*
0 Rectangle, with rotation*
0 The origin of the aperture is its center*
0 $1 length*
0 $2 width*
0 $3 Rotation angle, in degrees counterclockwise*
0 Add horizontal line*
21,1,$1,$2,0,0,$3*%
G04 Aperture macros list end*
G04 #@! TA.AperFunction,ComponentPad*
%ADD10R,1.800000X1.800000*%
G04 #@! TD*
G04 #@! TA.AperFunction,ComponentPad*
%ADD11C,1.800000*%
G04 #@! TD*
G04 #@! TA.AperFunction,ComponentPad*
%ADD12O,4.500001X2.500000*%
G04 #@! TD*
G04 #@! TA.AperFunction,ComponentPad*
%ADD13O,2.500001X4.500001*%
G04 #@! TD*
G04 #@! TA.AperFunction,ComponentPad*
%ADD14RotRect,4.500001X2.500001X45.000000*%
G04 #@! TD*
G04 #@! TA.AperFunction,ComponentPad*
%ADD15O,2.500000X4.500000*%
G04 #@! TD*
G04 #@! TA.AperFunction,ComponentPad*
%ADD16O,4.500000X2.500000*%
G04 #@! TD*
G04 #@! TA.AperFunction,ComponentPad*
%ADD17C,1.600000*%
G04 #@! TD*
G04 #@! TA.AperFunction,ComponentPad*
%ADD18O,1.600000X1.600000*%
G04 #@! TD*
G04 #@! TA.AperFunction,ComponentPad*
%ADD19R,1.700000X1.700000*%
G04 #@! TD*
G04 #@! TA.AperFunction,ComponentPad*
%ADD20O,1.700000X1.700000*%
G04 #@! TD*
G04 #@! TA.AperFunction,Conductor*
%ADD21C,0.250000*%
G04 #@! TD*
G04 APERTURE END LIST*
D10*
X343774999Y-162499999D03*
D11*
X341235000Y-162500000D03*
D12*
X387999999Y-168599999D03*
D13*
X393899999Y-172499999D03*
D14*
X392239999Y-179739999D03*
D15*
X381099999Y-175499999D03*
D16*
X384999999Y-181399999D03*
D12*
X312999999Y-168599999D03*
D13*
X318899999Y-172499999D03*
D14*
X317239999Y-179739999D03*
D15*
X306099999Y-175499999D03*
D16*
X309999999Y-181399999D03*
D12*
X312999999Y-143599999D03*
D13*
X318899999Y-147499999D03*
D14*
X317239999Y-154739999D03*
D15*
X306099999Y-150499999D03*
D16*
X309999999Y-156399999D03*
D10*
X393774999Y-162499999D03*
D11*
X391235000Y-162500000D03*
D12*
X337999999Y-168599999D03*
D13*
X343899999Y-172499999D03*
D14*
X342239999Y-179739999D03*
D15*
X331099999Y-175499999D03*
D16*
X334999999Y-181399999D03*
D12*
X362999999Y-143599999D03*
D13*
X368899999Y-147499999D03*
D14*
X367239999Y-154739999D03*
D15*
X356099999Y-150499999D03*
D16*
X359999999Y-156399999D03*
D17*
X327420000Y-162500000D03*
D18*
X337579999Y-162499999D03*
D17*
X352420000Y-162500000D03*
D18*
X362579999Y-162499999D03*
D12*
X362999999Y-168599999D03*
D13*
X368899999Y-172499999D03*
D14*
X367239999Y-179739999D03*
D15*
X356099999Y-175499999D03*
D16*
X359999999Y-181399999D03*
D10*
X368774999Y-162499999D03*
D11*
X366235000Y-162500000D03*
D19*
X336024999Y-137499999D03*
D20*
X338564999Y-137499999D03*
X341104999Y-137499999D03*
X343644999Y-137499999D03*
X346184999Y-137499999D03*
X348724999Y-137499999D03*
X351264999Y-137499999D03*
X353804999Y-137499999D03*
X356344999Y-137499999D03*
X358884999Y-137499999D03*
X361424999Y-137499999D03*
X363964999Y-137499999D03*
D12*
X337999999Y-143599999D03*
D13*
X343899999Y-147499999D03*
D14*
X342239999Y-154739999D03*
D15*
X331099999Y-150499999D03*
D16*
X334999999Y-156399999D03*
D21*
X337580000Y-162500000D02*
X341235000Y-162500000D01*
X362580000Y-162500000D02*
X366235000Y-162500000D01*
X353805000Y-138505000D02*
X353805000Y-137500000D01*
X391500000Y-165000000D02*
X384000000Y-165000000D01*
X369900000Y-150900000D02*
X366200000Y-150900000D01*
X366200000Y-150900000D02*
X353805000Y-138505000D01*
X393775000Y-162725000D02*
X391500000Y-165000000D01*
X393775000Y-162500000D02*
X393775000Y-162725000D01*
X384000000Y-165000000D02*
X369900000Y-150900000D01*
X368235000Y-139500000D02*
X391235000Y-162500000D01*
X356345000Y-137500000D02*
X358345000Y-139500000D01*
X358345000Y-139500000D02*
X368235000Y-139500000D01*
X338565000Y-137500000D02*
X306100000Y-169965000D01*
X306100000Y-169965000D02*
X306100000Y-175500000D01*
X334327387Y-150500000D02*
X331100000Y-150500000D01*
X343645000Y-137500000D02*
X343645000Y-141182387D01*
X343645000Y-141182387D02*
X334327387Y-150500000D01*
X348725000Y-137500000D02*
X327420000Y-158805000D01*
X331100000Y-166180000D02*
X327420000Y-162500000D01*
X331100000Y-175500000D02*
X331100000Y-166180000D01*
X327420000Y-158805000D02*
X327420000Y-162500000D01*
X351265000Y-161345000D02*
X352420000Y-162500000D01*
X351265000Y-137500000D02*
X351265000Y-161345000D01*
X352420000Y-171820000D02*
X356100000Y-175500000D01*
X352420000Y-162500000D02*
X352420000Y-171820000D01*
G04 #@! TA.AperFunction,Conductor*
G36*
X397437500Y-135017113D02*
G01*
X397482887Y-135062500D01*
X397499500Y-135124500D01*
X397499500Y-184875500D01*
X397482887Y-184937500D01*
X397437500Y-184982887D01*
X397375500Y-184999500D01*
X302624500Y-184999500D01*
X302562500Y-184982887D01*
X302517113Y-184937500D01*
X302500500Y-184875500D01*
X302500500Y-181531182D01*
X307249500Y-181531182D01*
X307250189Y-181535754D01*
X307250190Y-181535765D01*
X307287912Y-181786028D01*
X307287913Y-181786035D01*
X307288604Y-181790615D01*
X307289969Y-181795043D01*
X307289971Y-181795048D01*
X307364569Y-182036891D01*
X307364573Y-182036901D01*
X307365937Y-182041323D01*
X307479772Y-182277704D01*
X307627567Y-182494479D01*
X307806019Y-182686805D01*
X308011143Y-182850386D01*
X308238357Y-182981568D01*
X308482584Y-183077420D01*
X308738370Y-183135802D01*
X308934506Y-183150500D01*
X311063177Y-183150500D01*
X311065494Y-183150500D01*
X311261630Y-183135802D01*
X311517416Y-183077420D01*
X311761643Y-182981568D01*
X311988857Y-182850386D01*
X312193981Y-182686805D01*
X312372433Y-182494479D01*
X312520228Y-182277704D01*
X312634063Y-182041323D01*
X312711396Y-181790615D01*
X312750500Y-181531182D01*
X312750500Y-181268818D01*
X312711396Y-181009385D01*
X312637305Y-180769187D01*
X312635430Y-180763108D01*
X312635428Y-180763105D01*
X312634063Y-180758677D01*
X312520228Y-180522296D01*
X312474950Y-180455885D01*
X314261245Y-180455885D01*
X314279181Y-180580643D01*
X314284128Y-180597489D01*
X314336949Y-180713150D01*
X314345038Y-180726245D01*
X314375673Y-180764261D01*
X314380098Y-180769187D01*
X316210812Y-182599901D01*
X316215738Y-182604326D01*
X316253754Y-182634961D01*
X316266849Y-182643050D01*
X316382510Y-182695871D01*
X316399356Y-182700818D01*
X316524115Y-182718755D01*
X316541671Y-182718755D01*
X316666429Y-182700818D01*
X316683275Y-182695871D01*
X316798936Y-182643050D01*
X316812031Y-182634961D01*
X316850047Y-182604326D01*
X316854973Y-182599901D01*
X316981361Y-182473513D01*
X316987756Y-182463942D01*
X316990000Y-182452664D01*
X316990000Y-181950199D01*
X317490000Y-181950199D01*
X317492230Y-181959489D01*
X317500377Y-181954497D01*
X317923692Y-181531182D01*
X332249500Y-181531182D01*
X332250189Y-181535754D01*
X332250190Y-181535765D01*
X332287912Y-181786028D01*
X332287913Y-181786035D01*
X332288604Y-181790615D01*
X332289969Y-181795043D01*
X332289971Y-181795048D01*
X332364569Y-182036891D01*
X332364573Y-182036901D01*
X332365937Y-182041323D01*
X332479772Y-182277704D01*
X332627567Y-182494479D01*
X332806019Y-182686805D01*
X333011143Y-182850386D01*
X333238357Y-182981568D01*
X333482584Y-183077420D01*
X333738370Y-183135802D01*
X333934506Y-183150500D01*
X336063177Y-183150500D01*
X336065494Y-183150500D01*
X336261630Y-183135802D01*
X336517416Y-183077420D01*
X336761643Y-182981568D01*
X336988857Y-182850386D01*
X337193981Y-182686805D01*
X337372433Y-182494479D01*
X337520228Y-182277704D01*
X337634063Y-182041323D01*
X337711396Y-181790615D01*
X337750500Y-181531182D01*
X337750500Y-181268818D01*
X337711396Y-181009385D01*
X337637305Y-180769187D01*
X337635430Y-180763108D01*
X337635428Y-180763105D01*
X337634063Y-180758677D01*
X337520228Y-180522296D01*
X337474950Y-180455885D01*
X339261245Y-180455885D01*
X339279181Y-180580643D01*
X339284128Y-180597489D01*
X339336949Y-180713150D01*
X339345038Y-180726245D01*
X339375673Y-180764261D01*
X339380098Y-180769187D01*
X341210812Y-182599901D01*
X341215738Y-182604326D01*
X341253754Y-182634961D01*
X341266849Y-182643050D01*
X341382510Y-182695871D01*
X341399356Y-182700818D01*
X341524115Y-182718755D01*
X341541671Y-182718755D01*
X341666429Y-182700818D01*
X341683275Y-182695871D01*
X341798936Y-182643050D01*
X341812031Y-182634961D01*
X341850047Y-182604326D01*
X341854973Y-182599901D01*
X341981361Y-182473513D01*
X341987756Y-182463942D01*
X341990000Y-182452664D01*
X341990000Y-181950199D01*
X342490000Y-181950199D01*
X342492230Y-181959489D01*
X342500377Y-181954497D01*
X342923692Y-181531182D01*
X357249500Y-181531182D01*
X357250189Y-181535754D01*
X357250190Y-181535765D01*
X357287912Y-181786028D01*
X357287913Y-181786035D01*
X357288604Y-181790615D01*
X357289969Y-181795043D01*
X357289971Y-181795048D01*
X357364569Y-182036891D01*
X357364573Y-182036901D01*
X357365937Y-182041323D01*
X357479772Y-182277704D01*
X357627567Y-182494479D01*
X357806019Y-182686805D01*
X358011143Y-182850386D01*
X358238357Y-182981568D01*
X358482584Y-183077420D01*
X358738370Y-183135802D01*
X358934506Y-183150500D01*
X361063177Y-183150500D01*
X361065494Y-183150500D01*
X361261630Y-183135802D01*
X361517416Y-183077420D01*
X361761643Y-182981568D01*
X361988857Y-182850386D01*
X362193981Y-182686805D01*
X362372433Y-182494479D01*
X362520228Y-182277704D01*
X362634063Y-182041323D01*
X362711396Y-181790615D01*
X362750500Y-181531182D01*
X362750500Y-181268818D01*
X362711396Y-181009385D01*
X362637305Y-180769187D01*
X362635430Y-180763108D01*
X362635428Y-180763105D01*
X362634063Y-180758677D01*
X362520228Y-180522296D01*
X362474950Y-180455885D01*
X364261245Y-180455885D01*
X364279181Y-180580643D01*
X364284128Y-180597489D01*
X364336949Y-180713150D01*
X364345038Y-180726245D01*
X364375673Y-180764261D01*
X364380098Y-180769187D01*
X366210812Y-182599901D01*
X366215738Y-182604326D01*
X366253754Y-182634961D01*
X366266849Y-182643050D01*
X366382510Y-182695871D01*
X366399356Y-182700818D01*
X366524115Y-182718755D01*
X366541671Y-182718755D01*
X366666429Y-182700818D01*
X366683275Y-182695871D01*
X366798936Y-182643050D01*
X366812031Y-182634961D01*
X366850047Y-182604326D01*
X366854973Y-182599901D01*
X366981361Y-182473513D01*
X366987756Y-182463942D01*
X366990000Y-182452664D01*
X366990000Y-181950199D01*
X367490000Y-181950199D01*
X367492230Y-181959489D01*
X367500377Y-181954497D01*
X367923692Y-181531182D01*
X382249500Y-181531182D01*
X382250189Y-181535754D01*
X382250190Y-181535765D01*
X382287912Y-181786028D01*
X382287913Y-181786035D01*
X382288604Y-181790615D01*
X382289969Y-181795043D01*
X382289971Y-181795048D01*
X382364569Y-182036891D01*
X382364573Y-182036901D01*
X382365937Y-182041323D01*
X382479772Y-182277704D01*
X382627567Y-182494479D01*
X382806019Y-182686805D01*
X383011143Y-182850386D01*
X383238357Y-182981568D01*
X383482584Y-183077420D01*
X383738370Y-183135802D01*
X383934506Y-183150500D01*
X386063177Y-183150500D01*
X386065494Y-183150500D01*
X386261630Y-183135802D01*
X386517416Y-183077420D01*
X386761643Y-182981568D01*
X386988857Y-182850386D01*
X387193981Y-182686805D01*
X387372433Y-182494479D01*
X387520228Y-182277704D01*
X387634063Y-182041323D01*
X387711396Y-181790615D01*
X387750500Y-181531182D01*
X387750500Y-181268818D01*
X387711396Y-181009385D01*
X387637305Y-180769187D01*
X387635430Y-180763108D01*
X387635428Y-180763105D01*
X387634063Y-180758677D01*
X387520228Y-180522296D01*
X387474950Y-180455885D01*
X389261245Y-180455885D01*
X389279181Y-180580643D01*
X389284128Y-180597489D01*
X389336949Y-180713150D01*
X389345038Y-180726245D01*
X389375673Y-180764261D01*
X389380098Y-180769187D01*
X391210812Y-182599901D01*
X391215738Y-182604326D01*
X391253754Y-182634961D01*
X391266849Y-182643050D01*
X391382510Y-182695871D01*
X391399356Y-182700818D01*
X391524115Y-182718755D01*
X391541671Y-182718755D01*
X391666429Y-182700818D01*
X391683275Y-182695871D01*
X391798936Y-182643050D01*
X391812031Y-182634961D01*
X391850047Y-182604326D01*
X391854973Y-182599901D01*
X391981361Y-182473513D01*
X391987756Y-182463942D01*
X391990000Y-182452664D01*
X391990000Y-181950199D01*
X392490000Y-181950199D01*
X392492230Y-181959489D01*
X392500377Y-181954497D01*
X394454497Y-180000377D01*
X394459489Y-179992230D01*
X394450199Y-179990000D01*
X392506326Y-179990000D01*
X392493450Y-179993450D01*
X392490000Y-180006326D01*
X392490000Y-181950199D01*
X391990000Y-181950199D01*
X391990000Y-180006326D01*
X391986549Y-179993450D01*
X391973674Y-179990000D01*
X389527336Y-179990000D01*
X389516057Y-179992243D01*
X389506486Y-179998638D01*
X389380098Y-180125026D01*
X389375673Y-180129952D01*
X389345038Y-180167968D01*
X389336949Y-180181063D01*
X389284128Y-180296724D01*
X389279181Y-180313570D01*
X389261245Y-180438329D01*
X389261245Y-180455885D01*
X387474950Y-180455885D01*
X387372433Y-180305521D01*
X387193981Y-180113195D01*
X386988857Y-179949614D01*
X386894216Y-179894973D01*
X386765664Y-179820753D01*
X386765658Y-179820750D01*
X386761643Y-179818432D01*
X386757324Y-179816737D01*
X386757318Y-179816734D01*
X386521738Y-179724276D01*
X386521734Y-179724275D01*
X386517416Y-179722580D01*
X386512893Y-179721547D01*
X386512891Y-179721547D01*
X386266149Y-179665229D01*
X386266143Y-179665228D01*
X386261630Y-179664198D01*
X386257008Y-179663851D01*
X386257004Y-179663851D01*
X386067808Y-179649673D01*
X386067797Y-179649672D01*
X386065494Y-179649500D01*
X383934506Y-179649500D01*
X383932203Y-179649672D01*
X383932191Y-179649673D01*
X383742995Y-179663851D01*
X383742989Y-179663851D01*
X383738370Y-179664198D01*
X383733858Y-179665227D01*
X383733850Y-179665229D01*
X383487108Y-179721547D01*
X383487102Y-179721548D01*
X383482584Y-179722580D01*
X383478268Y-179724273D01*
X383478261Y-179724276D01*
X383242681Y-179816734D01*
X383242670Y-179816739D01*
X383238357Y-179818432D01*
X383234346Y-179820747D01*
X383234335Y-179820753D01*
X383015161Y-179947294D01*
X383011143Y-179949614D01*
X383007519Y-179952503D01*
X383007516Y-179952506D01*
X382809646Y-180110302D01*
X382809641Y-180110306D01*
X382806019Y-180113195D01*
X382802865Y-180116593D01*
X382802863Y-180116596D01*
X382630719Y-180302123D01*
X382630713Y-180302129D01*
X382627567Y-180305521D01*
X382479772Y-180522296D01*
X382477759Y-180526474D01*
X382477756Y-180526481D01*
X382367949Y-180754497D01*
X382367944Y-180754508D01*
X382365937Y-180758677D01*
X382364574Y-180763093D01*
X382364569Y-180763108D01*
X382289971Y-181004951D01*
X382289968Y-181004959D01*
X382288604Y-181009385D01*
X382287914Y-181013961D01*
X382287912Y-181013971D01*
X382250190Y-181264234D01*
X382250189Y-181264246D01*
X382249500Y-181268818D01*
X382249500Y-181531182D01*
X367923692Y-181531182D01*
X369454497Y-180000377D01*
X369459489Y-179992230D01*
X369450199Y-179990000D01*
X367506326Y-179990000D01*
X367493450Y-179993450D01*
X367490000Y-180006326D01*
X367490000Y-181950199D01*
X366990000Y-181950199D01*
X366990000Y-180006326D01*
X366986549Y-179993450D01*
X366973674Y-179990000D01*
X364527336Y-179990000D01*
X364516057Y-179992243D01*
X364506486Y-179998638D01*
X364380098Y-180125026D01*
X364375673Y-180129952D01*
X364345038Y-180167968D01*
X364336949Y-180181063D01*
X364284128Y-180296724D01*
X364279181Y-180313570D01*
X364261245Y-180438329D01*
X364261245Y-180455885D01*
X362474950Y-180455885D01*
X362372433Y-180305521D01*
X362193981Y-180113195D01*
X361988857Y-179949614D01*
X361894216Y-179894973D01*
X361765664Y-179820753D01*
X361765658Y-179820750D01*
X361761643Y-179818432D01*
X361757324Y-179816737D01*
X361757318Y-179816734D01*
X361521738Y-179724276D01*
X361521734Y-179724275D01*
X361517416Y-179722580D01*
X361512893Y-179721547D01*
X361512891Y-179721547D01*
X361266149Y-179665229D01*
X361266143Y-179665228D01*
X361261630Y-179664198D01*
X361257008Y-179663851D01*
X361257004Y-179663851D01*
X361067808Y-179649673D01*
X361067797Y-179649672D01*
X361065494Y-179649500D01*
X358934506Y-179649500D01*
X358932203Y-179649672D01*
X358932191Y-179649673D01*
X358742995Y-179663851D01*
X358742989Y-179663851D01*
X358738370Y-179664198D01*
X358733858Y-179665227D01*
X358733850Y-179665229D01*
X358487108Y-179721547D01*
X358487102Y-179721548D01*
X358482584Y-179722580D01*
X358478268Y-179724273D01*
X358478261Y-179724276D01*
X358242681Y-179816734D01*
X358242670Y-179816739D01*
X358238357Y-179818432D01*
X358234346Y-179820747D01*
X358234335Y-179820753D01*
X358015161Y-179947294D01*
X358011143Y-179949614D01*
X358007519Y-179952503D01*
X358007516Y-179952506D01*
X357809646Y-180110302D01*
X357809641Y-180110306D01*
X357806019Y-180113195D01*
X357802865Y-180116593D01*
X357802863Y-180116596D01*
X357630719Y-180302123D01*
X357630713Y-180302129D01*
X357627567Y-180305521D01*
X357479772Y-180522296D01*
X357477759Y-180526474D01*
X357477756Y-180526481D01*
X357367949Y-180754497D01*
X357367944Y-180754508D01*
X357365937Y-180758677D01*
X357364574Y-180763093D01*
X357364569Y-180763108D01*
X357289971Y-181004951D01*
X357289968Y-181004959D01*
X357288604Y-181009385D01*
X357287914Y-181013961D01*
X357287912Y-181013971D01*
X357250190Y-181264234D01*
X357250189Y-181264246D01*
X357249500Y-181268818D01*
X357249500Y-181531182D01*
X342923692Y-181531182D01*
X344454497Y-180000377D01*
X344459489Y-179992230D01*
X344450199Y-179990000D01*
X342506326Y-179990000D01*
X342493450Y-179993450D01*
X342490000Y-180006326D01*
X342490000Y-181950199D01*
X341990000Y-181950199D01*
X341990000Y-180006326D01*
X341986549Y-179993450D01*
X341973674Y-179990000D01*
X339527336Y-179990000D01*
X339516057Y-179992243D01*
X339506486Y-179998638D01*
X339380098Y-180125026D01*
X339375673Y-180129952D01*
X339345038Y-180167968D01*
X339336949Y-180181063D01*
X339284128Y-180296724D01*
X339279181Y-180313570D01*
X339261245Y-180438329D01*
X339261245Y-180455885D01*
X337474950Y-180455885D01*
X337372433Y-180305521D01*
X337193981Y-180113195D01*
X336988857Y-179949614D01*
X336894216Y-179894973D01*
X336765664Y-179820753D01*
X336765658Y-179820750D01*
X336761643Y-179818432D01*
X336757324Y-179816737D01*
X336757318Y-179816734D01*
X336521738Y-179724276D01*
X336521734Y-179724275D01*
X336517416Y-179722580D01*
X336512893Y-179721547D01*
X336512891Y-179721547D01*
X336266149Y-179665229D01*
X336266143Y-179665228D01*
X336261630Y-179664198D01*
X336257008Y-179663851D01*
X336257004Y-179663851D01*
X336067808Y-179649673D01*
X336067797Y-179649672D01*
X336065494Y-179649500D01*
X333934506Y-179649500D01*
X333932203Y-179649672D01*
X333932191Y-179649673D01*
X333742995Y-179663851D01*
X333742989Y-179663851D01*
X333738370Y-179664198D01*
X333733858Y-179665227D01*
X333733850Y-179665229D01*
X333487108Y-179721547D01*
X333487102Y-179721548D01*
X333482584Y-179722580D01*
X333478268Y-179724273D01*
X333478261Y-179724276D01*
X333242681Y-179816734D01*
X333242670Y-179816739D01*
X333238357Y-179818432D01*
X333234346Y-179820747D01*
X333234335Y-179820753D01*
X333015161Y-179947294D01*
X333011143Y-179949614D01*
X333007519Y-179952503D01*
X333007516Y-179952506D01*
X332809646Y-180110302D01*
X332809641Y-180110306D01*
X332806019Y-180113195D01*
X332802865Y-180116593D01*
X332802863Y-180116596D01*
X332630719Y-180302123D01*
X332630713Y-180302129D01*
X332627567Y-180305521D01*
X332479772Y-180522296D01*
X332477759Y-180526474D01*
X332477756Y-180526481D01*
X332367949Y-180754497D01*
X332367944Y-180754508D01*
X332365937Y-180758677D01*
X332364574Y-180763093D01*
X332364569Y-180763108D01*
X332289971Y-181004951D01*
X332289968Y-181004959D01*
X332288604Y-181009385D01*
X332287914Y-181013961D01*
X332287912Y-181013971D01*
X332250190Y-181264234D01*
X332250189Y-181264246D01*
X332249500Y-181268818D01*
X332249500Y-181531182D01*
X317923692Y-181531182D01*
X319454497Y-180000377D01*
X319459489Y-179992230D01*
X319450199Y-179990000D01*
X317506326Y-179990000D01*
X317493450Y-179993450D01*
X317490000Y-180006326D01*
X317490000Y-181950199D01*
X316990000Y-181950199D01*
X316990000Y-180006326D01*
X316986549Y-179993450D01*
X316973674Y-179990000D01*
X314527336Y-179990000D01*
X314516057Y-179992243D01*
X314506486Y-179998638D01*
X314380098Y-180125026D01*
X314375673Y-180129952D01*
X314345038Y-180167968D01*
X314336949Y-180181063D01*
X314284128Y-180296724D01*
X314279181Y-180313570D01*
X314261245Y-180438329D01*
X314261245Y-180455885D01*
X312474950Y-180455885D01*
X312372433Y-180305521D01*
X312193981Y-180113195D01*
X311988857Y-179949614D01*
X311894216Y-179894973D01*
X311765664Y-179820753D01*
X311765658Y-179820750D01*
X311761643Y-179818432D01*
X311757324Y-179816737D01*
X311757318Y-179816734D01*
X311521738Y-179724276D01*
X311521734Y-179724275D01*
X311517416Y-179722580D01*
X311512893Y-179721547D01*
X311512891Y-179721547D01*
X311266149Y-179665229D01*
X311266143Y-179665228D01*
X311261630Y-179664198D01*
X311257008Y-179663851D01*
X311257004Y-179663851D01*
X311067808Y-179649673D01*
X311067797Y-179649672D01*
X311065494Y-179649500D01*
X308934506Y-179649500D01*
X308932203Y-179649672D01*
X308932191Y-179649673D01*
X308742995Y-179663851D01*
X308742989Y-179663851D01*
X308738370Y-179664198D01*
X308733858Y-179665227D01*
X308733850Y-179665229D01*
X308487108Y-179721547D01*
X308487102Y-179721548D01*
X308482584Y-179722580D01*
X308478268Y-179724273D01*
X308478261Y-179724276D01*
X308242681Y-179816734D01*
X308242670Y-179816739D01*
X308238357Y-179818432D01*
X308234346Y-179820747D01*
X308234335Y-179820753D01*
X308015161Y-179947294D01*
X308011143Y-179949614D01*
X308007519Y-179952503D01*
X308007516Y-179952506D01*
X307809646Y-180110302D01*
X307809641Y-180110306D01*
X307806019Y-180113195D01*
X307802865Y-180116593D01*
X307802863Y-180116596D01*
X307630719Y-180302123D01*
X307630713Y-180302129D01*
X307627567Y-180305521D01*
X307479772Y-180522296D01*
X307477759Y-180526474D01*
X307477756Y-180526481D01*
X307367949Y-180754497D01*
X307367944Y-180754508D01*
X307365937Y-180758677D01*
X307364574Y-180763093D01*
X307364569Y-180763108D01*
X307289971Y-181004951D01*
X307289968Y-181004959D01*
X307288604Y-181009385D01*
X307287914Y-181013961D01*
X307287912Y-181013971D01*
X307250190Y-181264234D01*
X307250189Y-181264246D01*
X307249500Y-181268818D01*
X307249500Y-181531182D01*
X302500500Y-181531182D01*
X302500500Y-179487769D01*
X315020510Y-179487769D01*
X315029801Y-179490000D01*
X316973674Y-179490000D01*
X316986549Y-179486549D01*
X316990000Y-179473674D01*
X317490000Y-179473674D01*
X317493450Y-179486549D01*
X317506326Y-179490000D01*
X319952664Y-179490000D01*
X319963877Y-179487769D01*
X340020510Y-179487769D01*
X340029801Y-179490000D01*
X341973674Y-179490000D01*
X341986549Y-179486549D01*
X341990000Y-179473674D01*
X342490000Y-179473674D01*
X342493450Y-179486549D01*
X342506326Y-179490000D01*
X344952664Y-179490000D01*
X344963877Y-179487769D01*
X365020510Y-179487769D01*
X365029801Y-179490000D01*
X366973674Y-179490000D01*
X366986549Y-179486549D01*
X366990000Y-179473674D01*
X367490000Y-179473674D01*
X367493450Y-179486549D01*
X367506326Y-179490000D01*
X369952664Y-179490000D01*
X369963877Y-179487769D01*
X390020510Y-179487769D01*
X390029801Y-179490000D01*
X391973674Y-179490000D01*
X391986549Y-179486549D01*
X391990000Y-179473674D01*
X392490000Y-179473674D01*
X392493450Y-179486549D01*
X392506326Y-179490000D01*
X394952664Y-179490000D01*
X394963942Y-179487756D01*
X394973513Y-179481361D01*
X395099901Y-179354973D01*
X395104326Y-179350047D01*
X395134961Y-179312031D01*
X395143050Y-179298936D01*
X395195871Y-179183275D01*
X395200818Y-179166429D01*
X395218755Y-179041671D01*
X395218755Y-179024115D01*
X395200818Y-178899356D01*
X395195871Y-178882510D01*
X395143050Y-178766849D01*
X395134961Y-178753754D01*
X395104326Y-178715738D01*
X395099901Y-178710812D01*
X393269187Y-176880098D01*
X393264261Y-176875673D01*
X393226245Y-176845038D01*
X393213150Y-176836949D01*
X393097489Y-176784128D01*
X393080643Y-176779181D01*
X392955885Y-176761245D01*
X392938329Y-176761245D01*
X392813570Y-176779181D01*
X392796724Y-176784128D01*
X392681063Y-176836949D01*
X392667968Y-176845038D01*
X392629952Y-176875673D01*
X392625026Y-176880098D01*
X392498638Y-177006486D01*
X392492243Y-177016057D01*
X392490000Y-177027336D01*
X392490000Y-179473674D01*
X391990000Y-179473674D01*
X391990000Y-177529801D01*
X391987769Y-177520510D01*
X391979622Y-177525502D01*
X390025502Y-179479622D01*
X390020510Y-179487769D01*
X369963877Y-179487769D01*
X369963942Y-179487756D01*
X369973513Y-179481361D01*
X370099901Y-179354973D01*
X370104326Y-179350047D01*
X370134961Y-179312031D01*
X370143050Y-179298936D01*
X370195871Y-179183275D01*
X370200818Y-179166429D01*
X370218755Y-179041671D01*
X370218755Y-179024115D01*
X370200818Y-178899356D01*
X370195871Y-178882510D01*
X370143050Y-178766849D01*
X370134961Y-178753754D01*
X370104326Y-178715738D01*
X370099901Y-178710812D01*
X368269187Y-176880098D01*
X368264261Y-176875673D01*
X368226245Y-176845038D01*
X368213150Y-176836949D01*
X368097489Y-176784128D01*
X368080643Y-176779181D01*
X367955885Y-176761245D01*
X367938329Y-176761245D01*
X367813570Y-176779181D01*
X367796724Y-176784128D01*
X367681063Y-176836949D01*
X367667968Y-176845038D01*
X367629952Y-176875673D01*
X367625026Y-176880098D01*
X367498638Y-177006486D01*
X367492243Y-177016057D01*
X367490000Y-177027336D01*
X367490000Y-179473674D01*
X366990000Y-179473674D01*
X366990000Y-177529801D01*
X366987769Y-177520510D01*
X366979622Y-177525502D01*
X365025502Y-179479622D01*
X365020510Y-179487769D01*
X344963877Y-179487769D01*
X344963942Y-179487756D01*
X344973513Y-179481361D01*
X345099901Y-179354973D01*
X345104326Y-179350047D01*
X345134961Y-179312031D01*
X345143050Y-179298936D01*
X345195871Y-179183275D01*
X345200818Y-179166429D01*
X345218755Y-179041671D01*
X345218755Y-179024115D01*
X345200818Y-178899356D01*
X345195871Y-178882510D01*
X345143050Y-178766849D01*
X345134961Y-178753754D01*
X345104326Y-178715738D01*
X345099901Y-178710812D01*
X343269187Y-176880098D01*
X343264261Y-176875673D01*
X343226245Y-176845038D01*
X343213150Y-176836949D01*
X343097489Y-176784128D01*
X343080643Y-176779181D01*
X342955885Y-176761245D01*
X342938329Y-176761245D01*
X342813570Y-176779181D01*
X342796724Y-176784128D01*
X342681063Y-176836949D01*
X342667968Y-176845038D01*
X342629952Y-176875673D01*
X342625026Y-176880098D01*
X342498638Y-177006486D01*
X342492243Y-177016057D01*
X342490000Y-177027336D01*
X342490000Y-179473674D01*
X341990000Y-179473674D01*
X341990000Y-177529801D01*
X341987769Y-177520510D01*
X341979622Y-177525502D01*
X340025502Y-179479622D01*
X340020510Y-179487769D01*
X319963877Y-179487769D01*
X319963942Y-179487756D01*
X319973513Y-179481361D01*
X320099901Y-179354973D01*
X320104326Y-179350047D01*
X320134961Y-179312031D01*
X320143050Y-179298936D01*
X320195871Y-179183275D01*
X320200818Y-179166429D01*
X320218755Y-179041671D01*
X320218755Y-179024115D01*
X320200818Y-178899356D01*
X320195871Y-178882510D01*
X320143050Y-178766849D01*
X320134961Y-178753754D01*
X320104326Y-178715738D01*
X320099901Y-178710812D01*
X318269187Y-176880098D01*
X318264261Y-176875673D01*
X318226245Y-176845038D01*
X318213150Y-176836949D01*
X318097489Y-176784128D01*
X318080643Y-176779181D01*
X317955885Y-176761245D01*
X317938329Y-176761245D01*
X317813570Y-176779181D01*
X317796724Y-176784128D01*
X317681063Y-176836949D01*
X317667968Y-176845038D01*
X317629952Y-176875673D01*
X317625026Y-176880098D01*
X317498638Y-177006486D01*
X317492243Y-177016057D01*
X317490000Y-177027336D01*
X317490000Y-179473674D01*
X316990000Y-179473674D01*
X316990000Y-177529801D01*
X316987769Y-177520510D01*
X316979622Y-177525502D01*
X315025502Y-179479622D01*
X315020510Y-179487769D01*
X302500500Y-179487769D01*
X302500500Y-176565494D01*
X304349500Y-176565494D01*
X304364198Y-176761630D01*
X304365228Y-176766143D01*
X304365229Y-176766149D01*
X304420085Y-177006486D01*
X304422580Y-177017416D01*
X304424275Y-177021734D01*
X304424276Y-177021738D01*
X304516734Y-177257318D01*
X304516737Y-177257324D01*
X304518432Y-177261643D01*
X304520750Y-177265658D01*
X304520753Y-177265664D01*
X304594973Y-177394216D01*
X304649614Y-177488857D01*
X304813195Y-177693981D01*
X305005521Y-177872433D01*
X305222296Y-178020228D01*
X305458677Y-178134063D01*
X305463105Y-178135428D01*
X305463108Y-178135430D01*
X305566537Y-178167333D01*
X305709385Y-178211396D01*
X305968818Y-178250500D01*
X306226547Y-178250500D01*
X306231182Y-178250500D01*
X306490615Y-178211396D01*
X306741323Y-178134063D01*
X306977704Y-178020228D01*
X307194479Y-177872433D01*
X307386805Y-177693981D01*
X307550386Y-177488857D01*
X307681568Y-177261643D01*
X307777420Y-177017416D01*
X307835802Y-176761630D01*
X307850500Y-176565494D01*
X307850500Y-174434506D01*
X307835802Y-174238370D01*
X307777420Y-173982584D01*
X307681568Y-173738357D01*
X307581766Y-173565494D01*
X317149500Y-173565494D01*
X317149672Y-173567797D01*
X317149673Y-173567808D01*
X317162454Y-173738357D01*
X317164198Y-173761630D01*
X317222580Y-174017416D01*
X317224275Y-174021734D01*
X317224276Y-174021738D01*
X317316734Y-174257318D01*
X317316737Y-174257324D01*
X317318432Y-174261643D01*
X317320750Y-174265658D01*
X317320753Y-174265664D01*
X317394973Y-174394216D01*
X317449614Y-174488857D01*
X317613195Y-174693981D01*
X317805521Y-174872433D01*
X318022296Y-175020228D01*
X318258677Y-175134063D01*
X318263105Y-175135428D01*
X318263108Y-175135430D01*
X318366537Y-175167333D01*
X318509385Y-175211396D01*
X318768818Y-175250500D01*
X319026547Y-175250500D01*
X319031182Y-175250500D01*
X319290615Y-175211396D01*
X319541323Y-175134063D01*
X319777704Y-175020228D01*
X319994479Y-174872433D01*
X320186805Y-174693981D01*
X320350386Y-174488857D01*
X320481568Y-174261643D01*
X320577420Y-174017416D01*
X320635802Y-173761630D01*
X320650500Y-173565494D01*
X320650500Y-171434506D01*
X320635802Y-171238370D01*
X320577420Y-170982584D01*
X320481568Y-170738357D01*
X320350386Y-170511143D01*
X320186805Y-170306019D01*
X319994479Y-170127567D01*
X319777704Y-169979772D01*
X319722037Y-169952964D01*
X319545502Y-169867949D01*
X319545496Y-169867946D01*
X319541323Y-169865937D01*
X319536901Y-169864573D01*
X319536891Y-169864569D01*
X319295048Y-169789971D01*
X319295043Y-169789969D01*
X319290615Y-169788604D01*
X319286035Y-169787913D01*
X319286028Y-169787912D01*
X319035765Y-169750190D01*
X319035754Y-169750189D01*
X319031182Y-169749500D01*
X318768818Y-169749500D01*
X318764246Y-169750189D01*
X318764234Y-169750190D01*
X318513971Y-169787912D01*
X318513961Y-169787914D01*
X318509385Y-169788604D01*
X318504959Y-169789968D01*
X318504951Y-169789971D01*
X318263108Y-169864569D01*
X318263093Y-169864574D01*
X318258677Y-169865937D01*
X318254508Y-169867944D01*
X318254497Y-169867949D01*
X318026481Y-169977756D01*
X318026474Y-169977759D01*
X318022296Y-169979772D01*
X318018463Y-169982385D01*
X318018460Y-169982387D01*
X317918724Y-170050386D01*
X317805521Y-170127567D01*
X317802129Y-170130713D01*
X317802123Y-170130719D01*
X317646138Y-170275452D01*
X317613195Y-170306019D01*
X317610306Y-170309641D01*
X317610302Y-170309646D01*
X317452506Y-170507516D01*
X317449614Y-170511143D01*
X317447295Y-170515159D01*
X317447294Y-170515161D01*
X317320753Y-170734335D01*
X317320747Y-170734346D01*
X317318432Y-170738357D01*
X317316739Y-170742670D01*
X317316734Y-170742681D01*
X317224276Y-170978261D01*
X317224273Y-170978268D01*
X317222580Y-170982584D01*
X317221548Y-170987102D01*
X317221547Y-170987108D01*
X317165229Y-171233850D01*
X317165227Y-171233858D01*
X317164198Y-171238370D01*
X317149500Y-171434506D01*
X317149500Y-173565494D01*
X307581766Y-173565494D01*
X307550386Y-173511143D01*
X307386805Y-173306019D01*
X307194479Y-173127567D01*
X306977704Y-172979772D01*
X306973518Y-172977756D01*
X306973513Y-172977753D01*
X306795699Y-172892123D01*
X306744506Y-172846375D01*
X306725500Y-172780403D01*
X306725500Y-170275452D01*
X306734939Y-170227999D01*
X306761819Y-170187771D01*
X308218408Y-168731182D01*
X310249500Y-168731182D01*
X310250189Y-168735754D01*
X310250190Y-168735765D01*
X310287912Y-168986028D01*
X310287913Y-168986035D01*
X310288604Y-168990615D01*
X310289969Y-168995043D01*
X310289971Y-168995048D01*
X310364569Y-169236891D01*
X310364573Y-169236901D01*
X310365937Y-169241323D01*
X310367946Y-169245496D01*
X310367949Y-169245502D01*
X310477756Y-169473518D01*
X310479772Y-169477704D01*
X310627567Y-169694479D01*
X310806019Y-169886805D01*
X311011143Y-170050386D01*
X311238357Y-170181568D01*
X311482584Y-170277420D01*
X311738370Y-170335802D01*
X311934506Y-170350500D01*
X314063177Y-170350500D01*
X314065494Y-170350500D01*
X314261630Y-170335802D01*
X314517416Y-170277420D01*
X314761643Y-170181568D01*
X314988857Y-170050386D01*
X315193981Y-169886805D01*
X315372433Y-169694479D01*
X315520228Y-169477704D01*
X315634063Y-169241323D01*
X315711396Y-168990615D01*
X315750500Y-168731182D01*
X315750500Y-168468818D01*
X315711396Y-168209385D01*
X315634063Y-167958677D01*
X315520228Y-167722296D01*
X315372433Y-167505521D01*
X315193981Y-167313195D01*
X314988857Y-167149614D01*
X314894216Y-167094973D01*
X314765664Y-167020753D01*
X314765658Y-167020750D01*
X314761643Y-167018432D01*
X314757324Y-167016737D01*
X314757318Y-167016734D01*
X314521738Y-166924276D01*
X314521734Y-166924275D01*
X314517416Y-166922580D01*
X314512893Y-166921547D01*
X314512891Y-166921547D01*
X314266149Y-166865229D01*
X314266143Y-166865228D01*
X314261630Y-166864198D01*
X314257008Y-166863851D01*
X314257004Y-166863851D01*
X314067808Y-166849673D01*
X314067797Y-166849672D01*
X314065494Y-166849500D01*
X311934506Y-166849500D01*
X311932203Y-166849672D01*
X311932191Y-166849673D01*
X311742995Y-166863851D01*
X311742989Y-166863851D01*
X311738370Y-166864198D01*
X311733858Y-166865227D01*
X311733850Y-166865229D01*
X311487108Y-166921547D01*
X311487102Y-166921548D01*
X311482584Y-166922580D01*
X311478268Y-166924273D01*
X311478261Y-166924276D01*
X311242681Y-167016734D01*
X311242670Y-167016739D01*
X311238357Y-167018432D01*
X311234346Y-167020747D01*
X311234335Y-167020753D01*
X311015161Y-167147294D01*
X311011143Y-167149614D01*
X311007519Y-167152503D01*
X311007516Y-167152506D01*
X310809646Y-167310302D01*
X310809641Y-167310306D01*
X310806019Y-167313195D01*
X310802865Y-167316593D01*
X310802863Y-167316596D01*
X310630719Y-167502123D01*
X310630713Y-167502129D01*
X310627567Y-167505521D01*
X310479772Y-167722296D01*
X310477759Y-167726474D01*
X310477756Y-167726481D01*
X310367949Y-167954497D01*
X310367944Y-167954508D01*
X310365937Y-167958677D01*
X310364574Y-167963093D01*
X310364569Y-167963108D01*
X310289971Y-168204951D01*
X310289968Y-168204959D01*
X310288604Y-168209385D01*
X310287914Y-168213961D01*
X310287912Y-168213971D01*
X310250190Y-168464234D01*
X310250189Y-168464246D01*
X310249500Y-168468818D01*
X310249500Y-168731182D01*
X308218408Y-168731182D01*
X322300090Y-154649500D01*
X338109354Y-138840235D01*
X338164940Y-138808143D01*
X338229124Y-138808143D01*
X338329592Y-138835063D01*
X338565000Y-138855659D01*
X338800408Y-138835063D01*
X339028663Y-138773903D01*
X339242830Y-138674035D01*
X339436401Y-138538495D01*
X339603495Y-138371401D01*
X339733424Y-138185842D01*
X339777743Y-138146976D01*
X339835000Y-138132965D01*
X339892257Y-138146976D01*
X339936575Y-138185842D01*
X340063395Y-138366961D01*
X340063401Y-138366968D01*
X340066505Y-138371401D01*
X340233599Y-138538495D01*
X340427170Y-138674035D01*
X340641337Y-138773903D01*
X340869592Y-138835063D01*
X341105000Y-138855659D01*
X341340408Y-138835063D01*
X341568663Y-138773903D01*
X341782830Y-138674035D01*
X341976401Y-138538495D01*
X342143495Y-138371401D01*
X342273424Y-138185842D01*
X342317743Y-138146976D01*
X342375000Y-138132965D01*
X342432257Y-138146976D01*
X342476575Y-138185842D01*
X342603395Y-138366961D01*
X342603401Y-138366968D01*
X342606505Y-138371401D01*
X342773599Y-138538495D01*
X342778031Y-138541598D01*
X342778033Y-138541600D01*
X342966624Y-138673653D01*
X343005489Y-138717971D01*
X343019500Y-138775228D01*
X343019500Y-140871935D01*
X343010061Y-140919388D01*
X342983181Y-140959616D01*
X340862100Y-143080694D01*
X340807631Y-143112483D01*
X340744570Y-143113367D01*
X340689231Y-143083119D01*
X340655928Y-143029562D01*
X340635431Y-142963112D01*
X340634063Y-142958677D01*
X340520228Y-142722296D01*
X340372433Y-142505521D01*
X340193981Y-142313195D01*
X339988857Y-142149614D01*
X339894216Y-142094973D01*
X339765664Y-142020753D01*
X339765658Y-142020750D01*
X339761643Y-142018432D01*
X339757324Y-142016737D01*
X339757318Y-142016734D01*
X339521738Y-141924276D01*
X339521734Y-141924275D01*
X339517416Y-141922580D01*
X339512893Y-141921547D01*
X339512891Y-141921547D01*
X339266149Y-141865229D01*
X339266143Y-141865228D01*
X339261630Y-141864198D01*
X339257008Y-141863851D01*
X339257004Y-141863851D01*
X339067808Y-141849673D01*
X339067797Y-141849672D01*
X339065494Y-141849500D01*
X336934506Y-141849500D01*
X336932203Y-141849672D01*
X336932191Y-141849673D01*
X336742995Y-141863851D01*
X336742989Y-141863851D01*
X336738370Y-141864198D01*
X336733858Y-141865227D01*
X336733850Y-141865229D01*
X336487108Y-141921547D01*
X336487102Y-141921548D01*
X336482584Y-141922580D01*
X336478268Y-141924273D01*
X336478261Y-141924276D01*
X336242681Y-142016734D01*
X336242670Y-142016739D01*
X336238357Y-142018432D01*
X336234346Y-142020747D01*
X336234335Y-142020753D01*
X336015161Y-142147294D01*
X336011143Y-142149614D01*
X336007519Y-142152503D01*
X336007516Y-142152506D01*
X335809646Y-142310302D01*
X335809641Y-142310306D01*
X335806019Y-142313195D01*
X335802865Y-142316593D01*
X335802863Y-142316596D01*
X335630719Y-142502123D01*
X335630713Y-142502129D01*
X335627567Y-142505521D01*
X335479772Y-142722296D01*
X335477759Y-142726474D01*
X335477756Y-142726481D01*
X335367949Y-142954497D01*
X335367944Y-142954508D01*
X335365937Y-142958677D01*
X335364574Y-142963093D01*
X335364569Y-142963108D01*
X335289971Y-143204951D01*
X335289968Y-143204959D01*
X335288604Y-143209385D01*
X335287914Y-143213961D01*
X335287912Y-143213971D01*
X335250190Y-143464234D01*
X335250189Y-143464246D01*
X335249500Y-143468818D01*
X335249500Y-143731182D01*
X335250189Y-143735754D01*
X335250190Y-143735765D01*
X335287912Y-143986028D01*
X335287913Y-143986035D01*
X335288604Y-143990615D01*
X335289969Y-143995043D01*
X335289971Y-143995048D01*
X335364569Y-144236891D01*
X335364573Y-144236901D01*
X335365937Y-144241323D01*
X335479772Y-144477704D01*
X335627567Y-144694479D01*
X335806019Y-144886805D01*
X336011143Y-145050386D01*
X336238357Y-145181568D01*
X336482584Y-145277420D01*
X336738370Y-145335802D01*
X336934506Y-145350500D01*
X338292935Y-145350500D01*
X338349230Y-145364015D01*
X338393253Y-145401615D01*
X338415408Y-145455102D01*
X338410866Y-145512818D01*
X338380616Y-145562181D01*
X334104615Y-149838181D01*
X334064387Y-149865061D01*
X334016934Y-149874500D01*
X332974500Y-149874500D01*
X332912500Y-149857887D01*
X332867113Y-149812500D01*
X332850500Y-149750500D01*
X332850500Y-149436823D01*
X332850500Y-149434506D01*
X332835802Y-149238370D01*
X332777420Y-148982584D01*
X332681568Y-148738357D01*
X332550386Y-148511143D01*
X332386805Y-148306019D01*
X332194479Y-148127567D01*
X331977704Y-147979772D01*
X331973518Y-147977756D01*
X331745502Y-147867949D01*
X331745496Y-147867946D01*
X331741323Y-147865937D01*
X331736901Y-147864573D01*
X331736891Y-147864569D01*
X331495048Y-147789971D01*
X331495043Y-147789969D01*
X331490615Y-147788604D01*
X331486035Y-147787913D01*
X331486028Y-147787912D01*
X331235765Y-147750190D01*
X331235754Y-147750189D01*
X331231182Y-147749500D01*
X330968818Y-147749500D01*
X330964246Y-147750189D01*
X330964234Y-147750190D01*
X330713971Y-147787912D01*
X330713961Y-147787914D01*
X330709385Y-147788604D01*
X330704959Y-147789968D01*
X330704951Y-147789971D01*
X330463108Y-147864569D01*
X330463093Y-147864574D01*
X330458677Y-147865937D01*
X330454508Y-147867944D01*
X330454497Y-147867949D01*
X330226481Y-147977756D01*
X330226474Y-147977759D01*
X330222296Y-147979772D01*
X330218463Y-147982385D01*
X330218460Y-147982387D01*
X330009349Y-148124957D01*
X330005521Y-148127567D01*
X330002129Y-148130713D01*
X330002123Y-148130719D01*
X329816596Y-148302863D01*
X329813195Y-148306019D01*
X329810306Y-148309641D01*
X329810302Y-148309646D01*
X329652506Y-148507516D01*
X329649614Y-148511143D01*
X329647295Y-148515159D01*
X329647294Y-148515161D01*
X329520753Y-148734335D01*
X329520747Y-148734346D01*
X329518432Y-148738357D01*
X329516739Y-148742670D01*
X329516734Y-148742681D01*
X329424276Y-148978261D01*
X329424273Y-148978268D01*
X329422580Y-148982584D01*
X329421548Y-148987102D01*
X329421547Y-148987108D01*
X329365229Y-149233850D01*
X329365227Y-149233858D01*
X329364198Y-149238370D01*
X329363851Y-149242989D01*
X329363851Y-149242995D01*
X329362153Y-149265664D01*
X329349500Y-149434506D01*
X329349500Y-151565494D01*
X329349672Y-151567797D01*
X329349673Y-151567808D01*
X329360577Y-151713308D01*
X329364198Y-151761630D01*
X329365228Y-151766143D01*
X329365229Y-151766149D01*
X329420085Y-152006486D01*
X329422580Y-152017416D01*
X329424275Y-152021734D01*
X329424276Y-152021738D01*
X329516734Y-152257318D01*
X329516737Y-152257324D01*
X329518432Y-152261643D01*
X329520750Y-152265658D01*
X329520753Y-152265664D01*
X329590078Y-152385738D01*
X329649614Y-152488857D01*
X329813195Y-152693981D01*
X330005521Y-152872433D01*
X330222296Y-153020228D01*
X330458677Y-153134063D01*
X330463105Y-153135428D01*
X330463108Y-153135430D01*
X330565641Y-153167057D01*
X330709385Y-153211396D01*
X330968818Y-153250500D01*
X331226547Y-153250500D01*
X331231182Y-153250500D01*
X331490615Y-153211396D01*
X331741323Y-153134063D01*
X331977704Y-153020228D01*
X331978070Y-153020989D01*
X332029854Y-153005891D01*
X332087671Y-153017386D01*
X332133646Y-153054280D01*
X332157389Y-153108235D01*
X332153536Y-153167057D01*
X332122955Y-153217453D01*
X327032696Y-158307711D01*
X327024511Y-158315159D01*
X327018123Y-158319214D01*
X327012788Y-158324894D01*
X327012783Y-158324899D01*
X326972096Y-158368225D01*
X326969392Y-158371016D01*
X326952628Y-158387780D01*
X326952621Y-158387787D01*
X326949880Y-158390529D01*
X326947500Y-158393596D01*
X326947489Y-158393609D01*
X326947400Y-158393725D01*
X326939842Y-158402570D01*
X326915280Y-158428727D01*
X326915273Y-158428736D01*
X326909938Y-158434418D01*
X326906182Y-158441249D01*
X326906179Y-158441254D01*
X326900285Y-158451975D01*
X326889609Y-158468227D01*
X326882109Y-158477896D01*
X326882101Y-158477907D01*
X326877327Y-158484064D01*
X326874234Y-158491208D01*
X326874229Y-158491219D01*
X326859974Y-158524160D01*
X326854838Y-158534643D01*
X326833803Y-158572908D01*
X326831864Y-158580456D01*
X326831863Y-158580461D01*
X326828822Y-158592307D01*
X326822521Y-158610711D01*
X326817658Y-158621948D01*
X326817656Y-158621952D01*
X326814562Y-158629104D01*
X326813342Y-158636803D01*
X326813342Y-158636805D01*
X326807729Y-158672241D01*
X326805361Y-158683676D01*
X326796438Y-158718428D01*
X326796436Y-158718436D01*
X326794500Y-158725981D01*
X326794500Y-158733777D01*
X326794500Y-158746017D01*
X326792974Y-158765402D01*
X326789840Y-158785196D01*
X326790574Y-158792961D01*
X326790574Y-158792964D01*
X326793950Y-158828676D01*
X326794500Y-158840345D01*
X326794500Y-161285812D01*
X326780489Y-161343069D01*
X326741623Y-161387387D01*
X326585296Y-161496847D01*
X326585291Y-161496850D01*
X326580861Y-161499953D01*
X326577037Y-161503776D01*
X326577031Y-161503782D01*
X326423782Y-161657031D01*
X326423776Y-161657037D01*
X326419953Y-161660861D01*
X326416850Y-161665291D01*
X326416847Y-161665296D01*
X326292540Y-161842826D01*
X326292535Y-161842833D01*
X326289432Y-161847266D01*
X326287144Y-161852172D01*
X326287142Y-161852176D01*
X326195550Y-162048594D01*
X326195547Y-162048599D01*
X326193261Y-162053504D01*
X326191862Y-162058724D01*
X326191858Y-162058736D01*
X326135764Y-162268083D01*
X326135762Y-162268094D01*
X326134365Y-162273308D01*
X326114532Y-162500000D01*
X326115004Y-162505395D01*
X326133892Y-162721293D01*
X326134365Y-162726692D01*
X326135762Y-162731907D01*
X326135764Y-162731916D01*
X326191858Y-162941263D01*
X326191861Y-162941271D01*
X326193261Y-162946496D01*
X326195549Y-162951403D01*
X326195550Y-162951405D01*
X326259313Y-163088145D01*
X326289432Y-163152734D01*
X326419953Y-163339139D01*
X326580861Y-163500047D01*
X326767266Y-163630568D01*
X326973504Y-163726739D01*
X326978734Y-163728140D01*
X326978736Y-163728141D01*
X327124951Y-163767319D01*
X327193308Y-163785635D01*
X327420000Y-163805468D01*
X327646692Y-163785635D01*
X327715048Y-163767319D01*
X327779234Y-163767319D01*
X327834822Y-163799413D01*
X330438181Y-166402772D01*
X330465061Y-166443000D01*
X330474500Y-166490453D01*
X330474500Y-172780403D01*
X330455494Y-172846375D01*
X330404301Y-172892123D01*
X330226486Y-172977753D01*
X330226473Y-172977760D01*
X330222296Y-172979772D01*
X330218463Y-172982385D01*
X330218460Y-172982387D01*
X330009349Y-173124957D01*
X330005521Y-173127567D01*
X330002129Y-173130713D01*
X330002123Y-173130719D01*
X329889040Y-173235645D01*
X329813195Y-173306019D01*
X329810306Y-173309641D01*
X329810302Y-173309646D01*
X329652506Y-173507516D01*
X329649614Y-173511143D01*
X329647295Y-173515159D01*
X329647294Y-173515161D01*
X329520753Y-173734335D01*
X329520747Y-173734346D01*
X329518432Y-173738357D01*
X329516739Y-173742670D01*
X329516734Y-173742681D01*
X329424276Y-173978261D01*
X329424273Y-173978268D01*
X329422580Y-173982584D01*
X329421548Y-173987102D01*
X329421547Y-173987108D01*
X329365229Y-174233850D01*
X329365227Y-174233858D01*
X329364198Y-174238370D01*
X329363851Y-174242989D01*
X329363851Y-174242995D01*
X329362153Y-174265664D01*
X329349500Y-174434506D01*
X329349500Y-176565494D01*
X329364198Y-176761630D01*
X329365228Y-176766143D01*
X329365229Y-176766149D01*
X329420085Y-177006486D01*
X329422580Y-177017416D01*
X329424275Y-177021734D01*
X329424276Y-177021738D01*
X329516734Y-177257318D01*
X329516737Y-177257324D01*
X329518432Y-177261643D01*
X329520750Y-177265658D01*
X329520753Y-177265664D01*
X329594973Y-177394216D01*
X329649614Y-177488857D01*
X329813195Y-177693981D01*
X330005521Y-177872433D01*
X330222296Y-178020228D01*
X330458677Y-178134063D01*
X330463105Y-178135428D01*
X330463108Y-178135430D01*
X330566537Y-178167333D01*
X330709385Y-178211396D01*
X330968818Y-178250500D01*
X331226547Y-178250500D01*
X331231182Y-178250500D01*
X331490615Y-178211396D01*
X331741323Y-178134063D01*
X331977704Y-178020228D01*
X332194479Y-177872433D01*
X332386805Y-177693981D01*
X332550386Y-177488857D01*
X332681568Y-177261643D01*
X332777420Y-177017416D01*
X332835802Y-176761630D01*
X332850500Y-176565494D01*
X332850500Y-174434506D01*
X332835802Y-174238370D01*
X332777420Y-173982584D01*
X332681568Y-173738357D01*
X332581766Y-173565494D01*
X342149500Y-173565494D01*
X342149672Y-173567797D01*
X342149673Y-173567808D01*
X342162454Y-173738357D01*
X342164198Y-173761630D01*
X342222580Y-174017416D01*
X342224275Y-174021734D01*
X342224276Y-174021738D01*
X342316734Y-174257318D01*
X342316737Y-174257324D01*
X342318432Y-174261643D01*
X342320750Y-174265658D01*
X342320753Y-174265664D01*
X342394973Y-174394216D01*
X342449614Y-174488857D01*
X342613195Y-174693981D01*
X342805521Y-174872433D01*
X343022296Y-175020228D01*
X343258677Y-175134063D01*
X343263105Y-175135428D01*
X343263108Y-175135430D01*
X343366537Y-175167333D01*
X343509385Y-175211396D01*
X343768818Y-175250500D01*
X344026547Y-175250500D01*
X344031182Y-175250500D01*
X344290615Y-175211396D01*
X344541323Y-175134063D01*
X344777704Y-175020228D01*
X344994479Y-174872433D01*
X345186805Y-174693981D01*
X345350386Y-174488857D01*
X345481568Y-174261643D01*
X345577420Y-174017416D01*
X345635802Y-173761630D01*
X345650500Y-173565494D01*
X345650500Y-171434506D01*
X345635802Y-171238370D01*
X345577420Y-170982584D01*
X345481568Y-170738357D01*
X345350386Y-170511143D01*
X345186805Y-170306019D01*
X344994479Y-170127567D01*
X344777704Y-169979772D01*
X344722037Y-169952964D01*
X344545502Y-169867949D01*
X344545496Y-169867946D01*
X344541323Y-169865937D01*
X344536901Y-169864573D01*
X344536891Y-169864569D01*
X344295048Y-169789971D01*
X344295043Y-169789969D01*
X344290615Y-169788604D01*
X344286035Y-169787913D01*
X344286028Y-169787912D01*
X344035765Y-169750190D01*
X344035754Y-169750189D01*
X344031182Y-169749500D01*
X343768818Y-169749500D01*
X343764246Y-169750189D01*
X343764234Y-169750190D01*
X343513971Y-169787912D01*
X343513961Y-169787914D01*
X343509385Y-169788604D01*
X343504959Y-169789968D01*
X343504951Y-169789971D01*
X343263108Y-169864569D01*
X343263093Y-169864574D01*
X343258677Y-169865937D01*
X343254508Y-169867944D01*
X343254497Y-169867949D01*
X343026481Y-169977756D01*
X343026474Y-169977759D01*
X343022296Y-169979772D01*
X343018463Y-169982385D01*
X343018460Y-169982387D01*
X342918724Y-170050386D01*
X342805521Y-170127567D01*
X342802129Y-170130713D01*
X342802123Y-170130719D01*
X342646138Y-170275452D01*
X342613195Y-170306019D01*
X342610306Y-170309641D01*
X342610302Y-170309646D01*
X342452506Y-170507516D01*
X342449614Y-170511143D01*
X342447295Y-170515159D01*
X342447294Y-170515161D01*
X342320753Y-170734335D01*
X342320747Y-170734346D01*
X342318432Y-170738357D01*
X342316739Y-170742670D01*
X342316734Y-170742681D01*
X342224276Y-170978261D01*
X342224273Y-170978268D01*
X342222580Y-170982584D01*
X342221548Y-170987102D01*
X342221547Y-170987108D01*
X342165229Y-171233850D01*
X342165227Y-171233858D01*
X342164198Y-171238370D01*
X342149500Y-171434506D01*
X342149500Y-173565494D01*
X332581766Y-173565494D01*
X332550386Y-173511143D01*
X332386805Y-173306019D01*
X332194479Y-173127567D01*
X331977704Y-172979772D01*
X331973518Y-172977756D01*
X331973513Y-172977753D01*
X331795699Y-172892123D01*
X331744506Y-172846375D01*
X331725500Y-172780403D01*
X331725500Y-168731182D01*
X335249500Y-168731182D01*
X335250189Y-168735754D01*
X335250190Y-168735765D01*
X335287912Y-168986028D01*
X335287913Y-168986035D01*
X335288604Y-168990615D01*
X335289969Y-168995043D01*
X335289971Y-168995048D01*
X335364569Y-169236891D01*
X335364573Y-169236901D01*
X335365937Y-169241323D01*
X335367946Y-169245496D01*
X335367949Y-169245502D01*
X335477756Y-169473518D01*
X335479772Y-169477704D01*
X335627567Y-169694479D01*
X335806019Y-169886805D01*
X336011143Y-170050386D01*
X336238357Y-170181568D01*
X336482584Y-170277420D01*
X336738370Y-170335802D01*
X336934506Y-170350500D01*
X339063177Y-170350500D01*
X339065494Y-170350500D01*
X339261630Y-170335802D01*
X339517416Y-170277420D01*
X339761643Y-170181568D01*
X339988857Y-170050386D01*
X340193981Y-169886805D01*
X340372433Y-169694479D01*
X340520228Y-169477704D01*
X340634063Y-169241323D01*
X340711396Y-168990615D01*
X340750500Y-168731182D01*
X340750500Y-168468818D01*
X340711396Y-168209385D01*
X340634063Y-167958677D01*
X340520228Y-167722296D01*
X340372433Y-167505521D01*
X340193981Y-167313195D01*
X339988857Y-167149614D01*
X339894216Y-167094973D01*
X339765664Y-167020753D01*
X339765658Y-167020750D01*
X339761643Y-167018432D01*
X339757324Y-167016737D01*
X339757318Y-167016734D01*
X339521738Y-166924276D01*
X339521734Y-166924275D01*
X339517416Y-166922580D01*
X339512893Y-166921547D01*
X339512891Y-166921547D01*
X339266149Y-166865229D01*
X339266143Y-166865228D01*
X339261630Y-166864198D01*
X339257008Y-166863851D01*
X339257004Y-166863851D01*
X339067808Y-166849673D01*
X339067797Y-166849672D01*
X339065494Y-166849500D01*
X336934506Y-166849500D01*
X336932203Y-166849672D01*
X336932191Y-166849673D01*
X336742995Y-166863851D01*
X336742989Y-166863851D01*
X336738370Y-166864198D01*
X336733858Y-166865227D01*
X336733850Y-166865229D01*
X336487108Y-166921547D01*
X336487102Y-166921548D01*
X336482584Y-166922580D01*
X336478268Y-166924273D01*
X336478261Y-166924276D01*
X336242681Y-167016734D01*
X336242670Y-167016739D01*
X336238357Y-167018432D01*
X336234346Y-167020747D01*
X336234335Y-167020753D01*
X336015161Y-167147294D01*
X336011143Y-167149614D01*
X336007519Y-167152503D01*
X336007516Y-167152506D01*
X335809646Y-167310302D01*
X335809641Y-167310306D01*
X335806019Y-167313195D01*
X335802865Y-167316593D01*
X335802863Y-167316596D01*
X335630719Y-167502123D01*
X335630713Y-167502129D01*
X335627567Y-167505521D01*
X335479772Y-167722296D01*
X335477759Y-167726474D01*
X335477756Y-167726481D01*
X335367949Y-167954497D01*
X335367944Y-167954508D01*
X335365937Y-167958677D01*
X335364574Y-167963093D01*
X335364569Y-167963108D01*
X335289971Y-168204951D01*
X335289968Y-168204959D01*
X335288604Y-168209385D01*
X335287914Y-168213961D01*
X335287912Y-168213971D01*
X335250190Y-168464234D01*
X335250189Y-168464246D01*
X335249500Y-168468818D01*
X335249500Y-168731182D01*
X331725500Y-168731182D01*
X331725500Y-166257775D01*
X331726021Y-166246719D01*
X331727673Y-166239333D01*
X331725561Y-166172127D01*
X331725500Y-166168232D01*
X331725500Y-166144541D01*
X331725500Y-166140650D01*
X331724998Y-166136677D01*
X331724080Y-166125018D01*
X331722954Y-166089173D01*
X331722709Y-166081373D01*
X331717120Y-166062140D01*
X331713174Y-166043083D01*
X331711641Y-166030944D01*
X331710664Y-166023208D01*
X331694582Y-165982591D01*
X331690803Y-165971551D01*
X331680795Y-165937102D01*
X331680793Y-165937099D01*
X331678618Y-165929610D01*
X331668417Y-165912360D01*
X331659863Y-165894901D01*
X331652486Y-165876268D01*
X331626808Y-165840925D01*
X331620401Y-165831171D01*
X331602142Y-165800296D01*
X331602141Y-165800294D01*
X331598170Y-165793580D01*
X331584005Y-165779414D01*
X331571370Y-165764622D01*
X331559594Y-165748413D01*
X331553583Y-165743440D01*
X331553581Y-165743438D01*
X331525941Y-165720573D01*
X331517300Y-165712710D01*
X328719413Y-162914822D01*
X328687319Y-162859234D01*
X328687319Y-162795047D01*
X328699390Y-162750000D01*
X328705635Y-162726692D01*
X328725468Y-162500000D01*
X336274532Y-162500000D01*
X336275004Y-162505395D01*
X336293892Y-162721293D01*
X336294365Y-162726692D01*
X336295762Y-162731907D01*
X336295764Y-162731916D01*
X336351858Y-162941263D01*
X336351861Y-162941271D01*
X336353261Y-162946496D01*
X336355549Y-162951403D01*
X336355550Y-162951405D01*
X336419313Y-163088145D01*
X336449432Y-163152734D01*
X336579953Y-163339139D01*
X336740861Y-163500047D01*
X336927266Y-163630568D01*
X337133504Y-163726739D01*
X337138734Y-163728140D01*
X337138736Y-163728141D01*
X337284951Y-163767319D01*
X337353308Y-163785635D01*
X337580000Y-163805468D01*
X337806692Y-163785635D01*
X338026496Y-163726739D01*
X338232734Y-163630568D01*
X338419139Y-163500047D01*
X338580047Y-163339139D01*
X338692612Y-163178377D01*
X338736931Y-163139511D01*
X338794188Y-163125500D01*
X339903649Y-163125500D01*
X339962667Y-163140445D01*
X340007458Y-163181679D01*
X340123215Y-163358860D01*
X340123222Y-163358869D01*
X340126021Y-163363153D01*
X340283216Y-163533913D01*
X340287262Y-163537062D01*
X340287263Y-163537063D01*
X340374794Y-163605191D01*
X340466374Y-163676470D01*
X340670497Y-163786936D01*
X340890019Y-163862298D01*
X341118951Y-163900500D01*
X341345916Y-163900500D01*
X341351049Y-163900500D01*
X341579981Y-163862298D01*
X341799503Y-163786936D01*
X342003626Y-163676470D01*
X342186784Y-163533913D01*
X342195510Y-163524433D01*
X342248132Y-163490578D01*
X342310587Y-163486728D01*
X342366970Y-163513866D01*
X342402924Y-163565080D01*
X342428548Y-163633779D01*
X342436962Y-163649189D01*
X342512498Y-163750092D01*
X342524907Y-163762501D01*
X342625810Y-163838037D01*
X342641222Y-163846452D01*
X342760358Y-163890888D01*
X342775332Y-163894426D01*
X342823885Y-163899646D01*
X342830482Y-163900000D01*
X343508674Y-163900000D01*
X343521549Y-163896549D01*
X343525000Y-163883674D01*
X344025000Y-163883674D01*
X344028450Y-163896549D01*
X344041326Y-163900000D01*
X344719518Y-163900000D01*
X344726114Y-163899646D01*
X344774667Y-163894426D01*
X344789641Y-163890888D01*
X344908777Y-163846452D01*
X344924189Y-163838037D01*
X345025092Y-163762501D01*
X345037501Y-163750092D01*
X345113037Y-163649189D01*
X345121452Y-163633777D01*
X345165888Y-163514641D01*
X345169426Y-163499667D01*
X345174646Y-163451114D01*
X345175000Y-163444518D01*
X345175000Y-162766326D01*
X345171549Y-162753450D01*
X345158674Y-162750000D01*
X344041326Y-162750000D01*
X344028450Y-162753450D01*
X344025000Y-162766326D01*
X344025000Y-163883674D01*
X343525000Y-163883674D01*
X343525000Y-162233674D01*
X344025000Y-162233674D01*
X344028450Y-162246549D01*
X344041326Y-162250000D01*
X345158674Y-162250000D01*
X345171549Y-162246549D01*
X345175000Y-162233674D01*
X345175000Y-161555482D01*
X345174646Y-161548885D01*
X345169426Y-161500332D01*
X345165888Y-161485358D01*
X345121452Y-161366222D01*
X345113037Y-161350810D01*
X345037501Y-161249907D01*
X345025092Y-161237498D01*
X344924189Y-161161962D01*
X344908777Y-161153547D01*
X344789641Y-161109111D01*
X344774667Y-161105573D01*
X344726114Y-161100353D01*
X344719518Y-161100000D01*
X344041326Y-161100000D01*
X344028450Y-161103450D01*
X344025000Y-161116326D01*
X344025000Y-162233674D01*
X343525000Y-162233674D01*
X343525000Y-161116326D01*
X343521549Y-161103450D01*
X343508674Y-161100000D01*
X342830482Y-161100000D01*
X342823885Y-161100353D01*
X342775332Y-161105573D01*
X342760358Y-161109111D01*
X342641222Y-161153547D01*
X342625810Y-161161962D01*
X342524907Y-161237498D01*
X342512498Y-161249907D01*
X342436962Y-161350810D01*
X342428545Y-161366224D01*
X342402923Y-161434920D01*
X342366971Y-161486133D01*
X342310590Y-161513270D01*
X342248136Y-161509422D01*
X342195513Y-161475569D01*
X342190258Y-161469861D01*
X342190257Y-161469860D01*
X342186784Y-161466087D01*
X342157927Y-161443627D01*
X342007672Y-161326679D01*
X342007671Y-161326678D01*
X342003626Y-161323530D01*
X341867583Y-161249907D01*
X341804007Y-161215501D01*
X341804002Y-161215499D01*
X341799503Y-161213064D01*
X341794657Y-161211400D01*
X341794654Y-161211399D01*
X341584834Y-161139368D01*
X341584833Y-161139367D01*
X341579981Y-161137702D01*
X341574931Y-161136859D01*
X341574922Y-161136857D01*
X341356111Y-161100344D01*
X341356102Y-161100343D01*
X341351049Y-161099500D01*
X341118951Y-161099500D01*
X341113898Y-161100343D01*
X341113888Y-161100344D01*
X340895077Y-161136857D01*
X340895065Y-161136859D01*
X340890019Y-161137702D01*
X340885169Y-161139366D01*
X340885165Y-161139368D01*
X340675345Y-161211399D01*
X340675337Y-161211402D01*
X340670497Y-161213064D01*
X340666001Y-161215496D01*
X340665992Y-161215501D01*
X340470882Y-161321090D01*
X340470878Y-161321092D01*
X340466374Y-161323530D01*
X340462334Y-161326674D01*
X340462327Y-161326679D01*
X340287263Y-161462936D01*
X340287255Y-161462943D01*
X340283216Y-161466087D01*
X340279746Y-161469855D01*
X340279742Y-161469860D01*
X340129491Y-161633077D01*
X340129488Y-161633080D01*
X340126021Y-161636847D01*
X340123226Y-161641123D01*
X340123215Y-161641139D01*
X340007458Y-161818321D01*
X339962667Y-161859555D01*
X339903649Y-161874500D01*
X338794188Y-161874500D01*
X338736931Y-161860489D01*
X338692613Y-161821623D01*
X338629452Y-161731420D01*
X338580047Y-161660861D01*
X338419139Y-161499953D01*
X338325672Y-161434507D01*
X338237173Y-161372540D01*
X338237171Y-161372539D01*
X338232734Y-161369432D01*
X338141051Y-161326679D01*
X338031405Y-161275550D01*
X338031403Y-161275549D01*
X338026496Y-161273261D01*
X338021271Y-161271861D01*
X338021263Y-161271858D01*
X337811916Y-161215764D01*
X337811907Y-161215762D01*
X337806692Y-161214365D01*
X337801304Y-161213893D01*
X337801301Y-161213893D01*
X337585395Y-161195004D01*
X337580000Y-161194532D01*
X337574605Y-161195004D01*
X337358698Y-161213893D01*
X337358693Y-161213893D01*
X337353308Y-161214365D01*
X337348094Y-161215762D01*
X337348083Y-161215764D01*
X337138736Y-161271858D01*
X337138724Y-161271862D01*
X337133504Y-161273261D01*
X337128599Y-161275547D01*
X337128594Y-161275550D01*
X336932176Y-161367142D01*
X336932172Y-161367144D01*
X336927266Y-161369432D01*
X336922833Y-161372535D01*
X336922826Y-161372540D01*
X336745296Y-161496847D01*
X336745291Y-161496850D01*
X336740861Y-161499953D01*
X336737037Y-161503776D01*
X336737031Y-161503782D01*
X336583782Y-161657031D01*
X336583776Y-161657037D01*
X336579953Y-161660861D01*
X336576850Y-161665291D01*
X336576847Y-161665296D01*
X336452540Y-161842826D01*
X336452535Y-161842833D01*
X336449432Y-161847266D01*
X336447144Y-161852172D01*
X336447142Y-161852176D01*
X336355550Y-162048594D01*
X336355547Y-162048599D01*
X336353261Y-162053504D01*
X336351862Y-162058724D01*
X336351858Y-162058736D01*
X336295764Y-162268083D01*
X336295762Y-162268094D01*
X336294365Y-162273308D01*
X336274532Y-162500000D01*
X328725468Y-162500000D01*
X328705635Y-162273308D01*
X328664921Y-162121362D01*
X328648141Y-162058736D01*
X328648140Y-162058734D01*
X328646739Y-162053504D01*
X328550568Y-161847266D01*
X328420047Y-161660861D01*
X328259139Y-161499953D01*
X328189399Y-161451121D01*
X328098377Y-161387387D01*
X328059511Y-161343069D01*
X328045500Y-161285812D01*
X328045500Y-159115452D01*
X328054939Y-159067999D01*
X328081819Y-159027771D01*
X330578408Y-156531182D01*
X332249500Y-156531182D01*
X332250189Y-156535754D01*
X332250190Y-156535765D01*
X332287912Y-156786028D01*
X332287913Y-156786035D01*
X332288604Y-156790615D01*
X332289969Y-156795043D01*
X332289971Y-156795048D01*
X332364569Y-157036891D01*
X332364573Y-157036901D01*
X332365937Y-157041323D01*
X332479772Y-157277704D01*
X332627567Y-157494479D01*
X332806019Y-157686805D01*
X333011143Y-157850386D01*
X333238357Y-157981568D01*
X333482584Y-158077420D01*
X333738370Y-158135802D01*
X333934506Y-158150500D01*
X336063177Y-158150500D01*
X336065494Y-158150500D01*
X336261630Y-158135802D01*
X336517416Y-158077420D01*
X336761643Y-157981568D01*
X336988857Y-157850386D01*
X337193981Y-157686805D01*
X337372433Y-157494479D01*
X337520228Y-157277704D01*
X337634063Y-157041323D01*
X337711396Y-156790615D01*
X337750500Y-156531182D01*
X337750500Y-156268818D01*
X337711396Y-156009385D01*
X337637305Y-155769187D01*
X337635430Y-155763108D01*
X337635428Y-155763105D01*
X337634063Y-155758677D01*
X337520228Y-155522296D01*
X337474950Y-155455885D01*
X339261245Y-155455885D01*
X339279181Y-155580643D01*
X339284128Y-155597489D01*
X339336949Y-155713150D01*
X339345038Y-155726245D01*
X339375673Y-155764261D01*
X339380098Y-155769187D01*
X341210812Y-157599901D01*
X341215738Y-157604326D01*
X341253754Y-157634961D01*
X341266849Y-157643050D01*
X341382510Y-157695871D01*
X341399356Y-157700818D01*
X341524115Y-157718755D01*
X341541671Y-157718755D01*
X341666429Y-157700818D01*
X341683275Y-157695871D01*
X341798936Y-157643050D01*
X341812031Y-157634961D01*
X341850047Y-157604326D01*
X341854973Y-157599901D01*
X341981361Y-157473513D01*
X341987756Y-157463942D01*
X341990000Y-157452664D01*
X341990000Y-156950199D01*
X342490000Y-156950199D01*
X342492230Y-156959489D01*
X342500377Y-156954497D01*
X344454497Y-155000377D01*
X344459489Y-154992230D01*
X344450199Y-154990000D01*
X342506326Y-154990000D01*
X342493450Y-154993450D01*
X342490000Y-155006326D01*
X342490000Y-156950199D01*
X341990000Y-156950199D01*
X341990000Y-155006326D01*
X341986549Y-154993450D01*
X341973674Y-154990000D01*
X339527336Y-154990000D01*
X339516057Y-154992243D01*
X339506486Y-154998638D01*
X339380098Y-155125026D01*
X339375673Y-155129952D01*
X339345038Y-155167968D01*
X339336949Y-155181063D01*
X339284128Y-155296724D01*
X339279181Y-155313570D01*
X339261245Y-155438329D01*
X339261245Y-155455885D01*
X337474950Y-155455885D01*
X337372433Y-155305521D01*
X337193981Y-155113195D01*
X336988857Y-154949614D01*
X336894216Y-154894973D01*
X336765664Y-154820753D01*
X336765658Y-154820750D01*
X336761643Y-154818432D01*
X336757324Y-154816737D01*
X336757318Y-154816734D01*
X336521738Y-154724276D01*
X336521734Y-154724275D01*
X336517416Y-154722580D01*
X336512893Y-154721547D01*
X336512891Y-154721547D01*
X336266149Y-154665229D01*
X336266143Y-154665228D01*
X336261630Y-154664198D01*
X336257008Y-154663851D01*
X336257004Y-154663851D01*
X336067808Y-154649673D01*
X336067797Y-154649672D01*
X336065494Y-154649500D01*
X333934506Y-154649500D01*
X333932203Y-154649672D01*
X333932191Y-154649673D01*
X333742995Y-154663851D01*
X333742989Y-154663851D01*
X333738370Y-154664198D01*
X333733858Y-154665227D01*
X333733850Y-154665229D01*
X333487108Y-154721547D01*
X333487102Y-154721548D01*
X333482584Y-154722580D01*
X333478268Y-154724273D01*
X333478261Y-154724276D01*
X333242681Y-154816734D01*
X333242670Y-154816739D01*
X333238357Y-154818432D01*
X333234346Y-154820747D01*
X333234335Y-154820753D01*
X333015161Y-154947294D01*
X333011143Y-154949614D01*
X333007519Y-154952503D01*
X333007516Y-154952506D01*
X332809646Y-155110302D01*
X332809641Y-155110306D01*
X332806019Y-155113195D01*
X332802865Y-155116593D01*
X332802863Y-155116596D01*
X332630719Y-155302123D01*
X332630713Y-155302129D01*
X332627567Y-155305521D01*
X332479772Y-155522296D01*
X332477759Y-155526474D01*
X332477756Y-155526481D01*
X332367949Y-155754497D01*
X332367944Y-155754508D01*
X332365937Y-155758677D01*
X332364574Y-155763093D01*
X332364569Y-155763108D01*
X332289971Y-156004951D01*
X332289968Y-156004959D01*
X332288604Y-156009385D01*
X332287914Y-156013961D01*
X332287912Y-156013971D01*
X332250190Y-156264234D01*
X332250189Y-156264246D01*
X332249500Y-156268818D01*
X332249500Y-156531182D01*
X330578408Y-156531182D01*
X332621821Y-154487769D01*
X340020510Y-154487769D01*
X340029801Y-154490000D01*
X341973674Y-154490000D01*
X341986549Y-154486549D01*
X341990000Y-154473674D01*
X342490000Y-154473674D01*
X342493450Y-154486549D01*
X342506326Y-154490000D01*
X344952664Y-154490000D01*
X344963942Y-154487756D01*
X344973513Y-154481361D01*
X345099901Y-154354973D01*
X345104326Y-154350047D01*
X345134961Y-154312031D01*
X345143050Y-154298936D01*
X345195871Y-154183275D01*
X345200818Y-154166429D01*
X345218755Y-154041671D01*
X345218755Y-154024115D01*
X345200818Y-153899356D01*
X345195871Y-153882510D01*
X345143050Y-153766849D01*
X345134961Y-153753754D01*
X345104326Y-153715738D01*
X345099901Y-153710812D01*
X343269187Y-151880098D01*
X343264261Y-151875673D01*
X343226245Y-151845038D01*
X343213150Y-151836949D01*
X343097489Y-151784128D01*
X343080643Y-151779181D01*
X342955885Y-151761245D01*
X342938329Y-151761245D01*
X342813570Y-151779181D01*
X342796724Y-151784128D01*
X342681063Y-151836949D01*
X342667968Y-151845038D01*
X342629952Y-151875673D01*
X342625026Y-151880098D01*
X342498638Y-152006486D01*
X342492243Y-152016057D01*
X342490000Y-152027336D01*
X342490000Y-154473674D01*
X341990000Y-154473674D01*
X341990000Y-152529801D01*
X341987769Y-152520510D01*
X341979622Y-152525502D01*
X340025502Y-154479622D01*
X340020510Y-154487769D01*
X332621821Y-154487769D01*
X338131329Y-148978261D01*
X338544096Y-148565494D01*
X342149500Y-148565494D01*
X342149672Y-148567797D01*
X342149673Y-148567808D01*
X342162454Y-148738357D01*
X342164198Y-148761630D01*
X342222580Y-149017416D01*
X342224275Y-149021734D01*
X342224276Y-149021738D01*
X342316734Y-149257318D01*
X342316737Y-149257324D01*
X342318432Y-149261643D01*
X342320750Y-149265658D01*
X342320753Y-149265664D01*
X342394973Y-149394216D01*
X342449614Y-149488857D01*
X342613195Y-149693981D01*
X342805521Y-149872433D01*
X343022296Y-150020228D01*
X343258677Y-150134063D01*
X343263105Y-150135428D01*
X343263108Y-150135430D01*
X343293926Y-150144936D01*
X343509385Y-150211396D01*
X343768818Y-150250500D01*
X344026547Y-150250500D01*
X344031182Y-150250500D01*
X344290615Y-150211396D01*
X344541323Y-150134063D01*
X344777704Y-150020228D01*
X344994479Y-149872433D01*
X345186805Y-149693981D01*
X345350386Y-149488857D01*
X345481568Y-149261643D01*
X345577420Y-149017416D01*
X345635802Y-148761630D01*
X345650500Y-148565494D01*
X345650500Y-146434506D01*
X345635802Y-146238370D01*
X345577420Y-145982584D01*
X345481568Y-145738357D01*
X345350386Y-145511143D01*
X345186805Y-145306019D01*
X344994479Y-145127567D01*
X344777704Y-144979772D01*
X344773518Y-144977756D01*
X344545502Y-144867949D01*
X344545496Y-144867946D01*
X344541323Y-144865937D01*
X344536901Y-144864573D01*
X344536891Y-144864569D01*
X344295048Y-144789971D01*
X344295043Y-144789969D01*
X344290615Y-144788604D01*
X344286035Y-144787913D01*
X344286028Y-144787912D01*
X344035765Y-144750190D01*
X344035754Y-144750189D01*
X344031182Y-144749500D01*
X343768818Y-144749500D01*
X343764246Y-144750189D01*
X343764234Y-144750190D01*
X343513971Y-144787912D01*
X343513961Y-144787914D01*
X343509385Y-144788604D01*
X343504959Y-144789968D01*
X343504951Y-144789971D01*
X343263108Y-144864569D01*
X343263093Y-144864574D01*
X343258677Y-144865937D01*
X343254508Y-144867944D01*
X343254497Y-144867949D01*
X343026481Y-144977756D01*
X343026474Y-144977759D01*
X343022296Y-144979772D01*
X343018463Y-144982385D01*
X343018460Y-144982387D01*
X342918724Y-145050386D01*
X342805521Y-145127567D01*
X342802129Y-145130713D01*
X342802123Y-145130719D01*
X342645846Y-145275723D01*
X342613195Y-145306019D01*
X342610306Y-145309641D01*
X342610302Y-145309646D01*
X342452506Y-145507516D01*
X342449614Y-145511143D01*
X342447295Y-145515159D01*
X342447294Y-145515161D01*
X342320753Y-145734335D01*
X342320747Y-145734346D01*
X342318432Y-145738357D01*
X342316739Y-145742670D01*
X342316734Y-145742681D01*
X342224276Y-145978261D01*
X342224273Y-145978268D01*
X342222580Y-145982584D01*
X342221548Y-145987102D01*
X342221547Y-145987108D01*
X342165229Y-146233850D01*
X342165227Y-146233858D01*
X342164198Y-146238370D01*
X342149500Y-146434506D01*
X342149500Y-148565494D01*
X338544096Y-148565494D01*
X348269354Y-138840235D01*
X348324940Y-138808143D01*
X348389124Y-138808143D01*
X348489592Y-138835063D01*
X348725000Y-138855659D01*
X348960408Y-138835063D01*
X349188663Y-138773903D01*
X349402830Y-138674035D01*
X349596401Y-138538495D01*
X349763495Y-138371401D01*
X349893424Y-138185842D01*
X349937743Y-138146976D01*
X349995000Y-138132965D01*
X350052257Y-138146976D01*
X350096575Y-138185842D01*
X350223395Y-138366961D01*
X350223401Y-138366968D01*
X350226505Y-138371401D01*
X350393599Y-138538495D01*
X350398031Y-138541598D01*
X350398033Y-138541600D01*
X350586624Y-138673653D01*
X350625489Y-138717971D01*
X350639500Y-138775228D01*
X350639500Y-161267225D01*
X350638978Y-161278280D01*
X350637327Y-161285667D01*
X350637571Y-161293453D01*
X350637571Y-161293461D01*
X350639439Y-161352873D01*
X350639500Y-161356768D01*
X350639500Y-161384350D01*
X350639988Y-161388219D01*
X350639989Y-161388225D01*
X350640004Y-161388343D01*
X350640918Y-161399966D01*
X350642045Y-161435830D01*
X350642046Y-161435837D01*
X350642291Y-161443627D01*
X350644467Y-161451119D01*
X350644468Y-161451121D01*
X350647879Y-161462862D01*
X350651825Y-161481915D01*
X350654336Y-161501792D01*
X350657206Y-161509042D01*
X350657208Y-161509048D01*
X350670414Y-161542404D01*
X350674197Y-161553451D01*
X350686382Y-161595390D01*
X350690353Y-161602105D01*
X350690354Y-161602107D01*
X350696581Y-161612637D01*
X350705136Y-161630099D01*
X350709642Y-161641480D01*
X350709643Y-161641483D01*
X350712514Y-161648732D01*
X350734440Y-161678912D01*
X350738181Y-161684060D01*
X350744593Y-161693822D01*
X350762856Y-161724702D01*
X350762859Y-161724707D01*
X350766830Y-161731420D01*
X350772345Y-161736935D01*
X350780990Y-161745580D01*
X350793626Y-161760374D01*
X350800819Y-161770275D01*
X350800823Y-161770279D01*
X350805406Y-161776587D01*
X350811415Y-161781558D01*
X350811416Y-161781559D01*
X350839058Y-161804426D01*
X350847699Y-161812289D01*
X351120586Y-162085176D01*
X351152679Y-162140762D01*
X351152681Y-162204948D01*
X351134365Y-162273308D01*
X351114532Y-162500000D01*
X351115004Y-162505395D01*
X351133892Y-162721293D01*
X351134365Y-162726692D01*
X351135762Y-162731907D01*
X351135764Y-162731916D01*
X351191858Y-162941263D01*
X351191861Y-162941271D01*
X351193261Y-162946496D01*
X351195549Y-162951403D01*
X351195550Y-162951405D01*
X351259313Y-163088145D01*
X351289432Y-163152734D01*
X351419953Y-163339139D01*
X351580861Y-163500047D01*
X351623843Y-163530143D01*
X351741623Y-163612613D01*
X351780489Y-163656931D01*
X351794500Y-163714188D01*
X351794500Y-171742225D01*
X351793978Y-171753280D01*
X351792327Y-171760667D01*
X351792571Y-171768453D01*
X351792571Y-171768461D01*
X351794439Y-171827873D01*
X351794500Y-171831768D01*
X351794500Y-171859350D01*
X351794988Y-171863219D01*
X351794989Y-171863225D01*
X351795004Y-171863343D01*
X351795918Y-171874966D01*
X351797045Y-171910830D01*
X351797046Y-171910837D01*
X351797291Y-171918627D01*
X351799467Y-171926119D01*
X351799468Y-171926121D01*
X351802879Y-171937862D01*
X351806825Y-171956915D01*
X351809336Y-171976792D01*
X351812206Y-171984042D01*
X351812208Y-171984048D01*
X351825414Y-172017404D01*
X351829197Y-172028451D01*
X351841382Y-172070390D01*
X351845353Y-172077105D01*
X351845354Y-172077107D01*
X351851581Y-172087637D01*
X351860136Y-172105099D01*
X351864642Y-172116480D01*
X351864643Y-172116483D01*
X351867514Y-172123732D01*
X351889440Y-172153912D01*
X351893181Y-172159060D01*
X351899593Y-172168822D01*
X351917856Y-172199702D01*
X351917859Y-172199707D01*
X351921830Y-172206420D01*
X351927345Y-172211935D01*
X351935990Y-172220580D01*
X351948626Y-172235374D01*
X351955819Y-172245275D01*
X351955823Y-172245279D01*
X351960406Y-172251587D01*
X351966415Y-172256558D01*
X351966416Y-172256559D01*
X351994058Y-172279426D01*
X352002699Y-172287289D01*
X354313181Y-174597772D01*
X354340061Y-174638000D01*
X354349500Y-174685453D01*
X354349500Y-176565494D01*
X354364198Y-176761630D01*
X354365228Y-176766143D01*
X354365229Y-176766149D01*
X354420085Y-177006486D01*
X354422580Y-177017416D01*
X354424275Y-177021734D01*
X354424276Y-177021738D01*
X354516734Y-177257318D01*
X354516737Y-177257324D01*
X354518432Y-177261643D01*
X354520750Y-177265658D01*
X354520753Y-177265664D01*
X354594973Y-177394216D01*
X354649614Y-177488857D01*
X354813195Y-177693981D01*
X355005521Y-177872433D01*
X355222296Y-178020228D01*
X355458677Y-178134063D01*
X355463105Y-178135428D01*
X355463108Y-178135430D01*
X355566537Y-178167333D01*
X355709385Y-178211396D01*
X355968818Y-178250500D01*
X356226547Y-178250500D01*
X356231182Y-178250500D01*
X356490615Y-178211396D01*
X356741323Y-178134063D01*
X356977704Y-178020228D01*
X357194479Y-177872433D01*
X357386805Y-177693981D01*
X357550386Y-177488857D01*
X357681568Y-177261643D01*
X357777420Y-177017416D01*
X357835802Y-176761630D01*
X357850500Y-176565494D01*
X379349500Y-176565494D01*
X379364198Y-176761630D01*
X379365228Y-176766143D01*
X379365229Y-176766149D01*
X379420085Y-177006486D01*
X379422580Y-177017416D01*
X379424275Y-177021734D01*
X379424276Y-177021738D01*
X379516734Y-177257318D01*
X379516737Y-177257324D01*
X379518432Y-177261643D01*
X379520750Y-177265658D01*
X379520753Y-177265664D01*
X379594973Y-177394216D01*
X379649614Y-177488857D01*
X379813195Y-177693981D01*
X380005521Y-177872433D01*
X380222296Y-178020228D01*
X380458677Y-178134063D01*
X380463105Y-178135428D01*
X380463108Y-178135430D01*
X380566537Y-178167333D01*
X380709385Y-178211396D01*
X380968818Y-178250500D01*
X381226547Y-178250500D01*
X381231182Y-178250500D01*
X381490615Y-178211396D01*
X381741323Y-178134063D01*
X381977704Y-178020228D01*
X382194479Y-177872433D01*
X382386805Y-177693981D01*
X382550386Y-177488857D01*
X382681568Y-177261643D01*
X382777420Y-177017416D01*
X382835802Y-176761630D01*
X382850500Y-176565494D01*
X382850500Y-174434506D01*
X382835802Y-174238370D01*
X382777420Y-173982584D01*
X382681568Y-173738357D01*
X382581766Y-173565494D01*
X392149500Y-173565494D01*
X392149672Y-173567797D01*
X392149673Y-173567808D01*
X392162454Y-173738357D01*
X392164198Y-173761630D01*
X392222580Y-174017416D01*
X392224275Y-174021734D01*
X392224276Y-174021738D01*
X392316734Y-174257318D01*
X392316737Y-174257324D01*
X392318432Y-174261643D01*
X392320750Y-174265658D01*
X392320753Y-174265664D01*
X392394973Y-174394216D01*
X392449614Y-174488857D01*
X392613195Y-174693981D01*
X392805521Y-174872433D01*
X393022296Y-175020228D01*
X393258677Y-175134063D01*
X393263105Y-175135428D01*
X393263108Y-175135430D01*
X393366537Y-175167333D01*
X393509385Y-175211396D01*
X393768818Y-175250500D01*
X394026547Y-175250500D01*
X394031182Y-175250500D01*
X394290615Y-175211396D01*
X394541323Y-175134063D01*
X394777704Y-175020228D01*
X394994479Y-174872433D01*
X395186805Y-174693981D01*
X395350386Y-174488857D01*
X395481568Y-174261643D01*
X395577420Y-174017416D01*
X395635802Y-173761630D01*
X395650500Y-173565494D01*
X395650500Y-171434506D01*
X395635802Y-171238370D01*
X395577420Y-170982584D01*
X395481568Y-170738357D01*
X395350386Y-170511143D01*
X395186805Y-170306019D01*
X394994479Y-170127567D01*
X394777704Y-169979772D01*
X394722037Y-169952964D01*
X394545502Y-169867949D01*
X394545496Y-169867946D01*
X394541323Y-169865937D01*
X394536901Y-169864573D01*
X394536891Y-169864569D01*
X394295048Y-169789971D01*
X394295043Y-169789969D01*
X394290615Y-169788604D01*
X394286035Y-169787913D01*
X394286028Y-169787912D01*
X394035765Y-169750190D01*
X394035754Y-169750189D01*
X394031182Y-169749500D01*
X393768818Y-169749500D01*
X393764246Y-169750189D01*
X393764234Y-169750190D01*
X393513971Y-169787912D01*
X393513961Y-169787914D01*
X393509385Y-169788604D01*
X393504959Y-169789968D01*
X393504951Y-169789971D01*
X393263108Y-169864569D01*
X393263093Y-169864574D01*
X393258677Y-169865937D01*
X393254508Y-169867944D01*
X393254497Y-169867949D01*
X393026481Y-169977756D01*
X393026474Y-169977759D01*
X393022296Y-169979772D01*
X393018463Y-169982385D01*
X393018460Y-169982387D01*
X392918724Y-170050386D01*
X392805521Y-170127567D01*
X392802129Y-170130713D01*
X392802123Y-170130719D01*
X392646138Y-170275452D01*
X392613195Y-170306019D01*
X392610306Y-170309641D01*
X392610302Y-170309646D01*
X392452506Y-170507516D01*
X392449614Y-170511143D01*
X392447295Y-170515159D01*
X392447294Y-170515161D01*
X392320753Y-170734335D01*
X392320747Y-170734346D01*
X392318432Y-170738357D01*
X392316739Y-170742670D01*
X392316734Y-170742681D01*
X392224276Y-170978261D01*
X392224273Y-170978268D01*
X392222580Y-170982584D01*
X392221548Y-170987102D01*
X392221547Y-170987108D01*
X392165229Y-171233850D01*
X392165227Y-171233858D01*
X392164198Y-171238370D01*
X392149500Y-171434506D01*
X392149500Y-173565494D01*
X382581766Y-173565494D01*
X382550386Y-173511143D01*
X382386805Y-173306019D01*
X382194479Y-173127567D01*
X381977704Y-172979772D01*
X381973518Y-172977756D01*
X381745502Y-172867949D01*
X381745496Y-172867946D01*
X381741323Y-172865937D01*
X381736901Y-172864573D01*
X381736891Y-172864569D01*
X381495048Y-172789971D01*
X381495043Y-172789969D01*
X381490615Y-172788604D01*
X381486035Y-172787913D01*
X381486028Y-172787912D01*
X381235765Y-172750190D01*
X381235754Y-172750189D01*
X381231182Y-172749500D01*
X380968818Y-172749500D01*
X380964246Y-172750189D01*
X380964234Y-172750190D01*
X380713971Y-172787912D01*
X380713961Y-172787914D01*
X380709385Y-172788604D01*
X380704959Y-172789968D01*
X380704951Y-172789971D01*
X380463108Y-172864569D01*
X380463093Y-172864574D01*
X380458677Y-172865937D01*
X380454508Y-172867944D01*
X380454497Y-172867949D01*
X380226481Y-172977756D01*
X380226474Y-172977759D01*
X380222296Y-172979772D01*
X380218463Y-172982385D01*
X380218460Y-172982387D01*
X380009349Y-173124957D01*
X380005521Y-173127567D01*
X380002129Y-173130713D01*
X380002123Y-173130719D01*
X379889040Y-173235645D01*
X379813195Y-173306019D01*
X379810306Y-173309641D01*
X379810302Y-173309646D01*
X379652506Y-173507516D01*
X379649614Y-173511143D01*
X379647295Y-173515159D01*
X379647294Y-173515161D01*
X379520753Y-173734335D01*
X379520747Y-173734346D01*
X379518432Y-173738357D01*
X379516739Y-173742670D01*
X379516734Y-173742681D01*
X379424276Y-173978261D01*
X379424273Y-173978268D01*
X379422580Y-173982584D01*
X379421548Y-173987102D01*
X379421547Y-173987108D01*
X379365229Y-174233850D01*
X379365227Y-174233858D01*
X379364198Y-174238370D01*
X379363851Y-174242989D01*
X379363851Y-174242995D01*
X379362153Y-174265664D01*
X379349500Y-174434506D01*
X379349500Y-176565494D01*
X357850500Y-176565494D01*
X357850500Y-174434506D01*
X357835802Y-174238370D01*
X357777420Y-173982584D01*
X357681568Y-173738357D01*
X357581766Y-173565494D01*
X367149500Y-173565494D01*
X367149672Y-173567797D01*
X367149673Y-173567808D01*
X367162454Y-173738357D01*
X367164198Y-173761630D01*
X367222580Y-174017416D01*
X367224275Y-174021734D01*
X367224276Y-174021738D01*
X367316734Y-174257318D01*
X367316737Y-174257324D01*
X367318432Y-174261643D01*
X367320750Y-174265658D01*
X367320753Y-174265664D01*
X367394973Y-174394216D01*
X367449614Y-174488857D01*
X367613195Y-174693981D01*
X367805521Y-174872433D01*
X368022296Y-175020228D01*
X368258677Y-175134063D01*
X368263105Y-175135428D01*
X368263108Y-175135430D01*
X368366537Y-175167333D01*
X368509385Y-175211396D01*
X368768818Y-175250500D01*
X369026547Y-175250500D01*
X369031182Y-175250500D01*
X369290615Y-175211396D01*
X369541323Y-175134063D01*
X369777704Y-175020228D01*
X369994479Y-174872433D01*
X370186805Y-174693981D01*
X370350386Y-174488857D01*
X370481568Y-174261643D01*
X370577420Y-174017416D01*
X370635802Y-173761630D01*
X370650500Y-173565494D01*
X370650500Y-171434506D01*
X370635802Y-171238370D01*
X370577420Y-170982584D01*
X370481568Y-170738357D01*
X370350386Y-170511143D01*
X370186805Y-170306019D01*
X369994479Y-170127567D01*
X369777704Y-169979772D01*
X369722037Y-169952964D01*
X369545502Y-169867949D01*
X369545496Y-169867946D01*
X369541323Y-169865937D01*
X369536901Y-169864573D01*
X369536891Y-169864569D01*
X369295048Y-169789971D01*
X369295043Y-169789969D01*
X369290615Y-169788604D01*
X369286035Y-169787913D01*
X369286028Y-169787912D01*
X369035765Y-169750190D01*
X369035754Y-169750189D01*
X369031182Y-169749500D01*
X368768818Y-169749500D01*
X368764246Y-169750189D01*
X368764234Y-169750190D01*
X368513971Y-169787912D01*
X368513961Y-169787914D01*
X368509385Y-169788604D01*
X368504959Y-169789968D01*
X368504951Y-169789971D01*
X368263108Y-169864569D01*
X368263093Y-169864574D01*
X368258677Y-169865937D01*
X368254508Y-169867944D01*
X368254497Y-169867949D01*
X368026481Y-169977756D01*
X368026474Y-169977759D01*
X368022296Y-169979772D01*
X368018463Y-169982385D01*
X368018460Y-169982387D01*
X367918724Y-170050386D01*
X367805521Y-170127567D01*
X367802129Y-170130713D01*
X367802123Y-170130719D01*
X367646138Y-170275452D01*
X367613195Y-170306019D01*
X367610306Y-170309641D01*
X367610302Y-170309646D01*
X367452506Y-170507516D01*
X367449614Y-170511143D01*
X367447295Y-170515159D01*
X367447294Y-170515161D01*
X367320753Y-170734335D01*
X367320747Y-170734346D01*
X367318432Y-170738357D01*
X367316739Y-170742670D01*
X367316734Y-170742681D01*
X367224276Y-170978261D01*
X367224273Y-170978268D01*
X367222580Y-170982584D01*
X367221548Y-170987102D01*
X367221547Y-170987108D01*
X367165229Y-171233850D01*
X367165227Y-171233858D01*
X367164198Y-171238370D01*
X367149500Y-171434506D01*
X367149500Y-173565494D01*
X357581766Y-173565494D01*
X357550386Y-173511143D01*
X357386805Y-173306019D01*
X357194479Y-173127567D01*
X356977704Y-172979772D01*
X356973518Y-172977756D01*
X356745502Y-172867949D01*
X356745496Y-172867946D01*
X356741323Y-172865937D01*
X356736901Y-172864573D01*
X356736891Y-172864569D01*
X356495048Y-172789971D01*
X356495043Y-172789969D01*
X356490615Y-172788604D01*
X356486035Y-172787913D01*
X356486028Y-172787912D01*
X356235765Y-172750190D01*
X356235754Y-172750189D01*
X356231182Y-172749500D01*
X355968818Y-172749500D01*
X355964246Y-172750189D01*
X355964234Y-172750190D01*
X355713971Y-172787912D01*
X355713961Y-172787914D01*
X355709385Y-172788604D01*
X355704959Y-172789968D01*
X355704951Y-172789971D01*
X355463108Y-172864569D01*
X355463093Y-172864574D01*
X355458677Y-172865937D01*
X355454508Y-172867944D01*
X355454497Y-172867949D01*
X355226481Y-172977756D01*
X355226474Y-172977759D01*
X355222296Y-172979772D01*
X355218463Y-172982385D01*
X355218460Y-172982387D01*
X355009349Y-173124957D01*
X355005521Y-173127567D01*
X355002128Y-173130715D01*
X355002122Y-173130720D01*
X354889039Y-173235645D01*
X354833795Y-173265284D01*
X354771113Y-173264111D01*
X354717017Y-173232427D01*
X353081819Y-171597228D01*
X353054939Y-171557000D01*
X353045500Y-171509547D01*
X353045500Y-168731182D01*
X360249500Y-168731182D01*
X360250189Y-168735754D01*
X360250190Y-168735765D01*
X360287912Y-168986028D01*
X360287913Y-168986035D01*
X360288604Y-168990615D01*
X360289969Y-168995043D01*
X360289971Y-168995048D01*
X360364569Y-169236891D01*
X360364573Y-169236901D01*
X360365937Y-169241323D01*
X360367946Y-169245496D01*
X360367949Y-169245502D01*
X360477756Y-169473518D01*
X360479772Y-169477704D01*
X360627567Y-169694479D01*
X360806019Y-169886805D01*
X361011143Y-170050386D01*
X361238357Y-170181568D01*
X361482584Y-170277420D01*
X361738370Y-170335802D01*
X361934506Y-170350500D01*
X364063177Y-170350500D01*
X364065494Y-170350500D01*
X364261630Y-170335802D01*
X364517416Y-170277420D01*
X364761643Y-170181568D01*
X364988857Y-170050386D01*
X365193981Y-169886805D01*
X365372433Y-169694479D01*
X365520228Y-169477704D01*
X365634063Y-169241323D01*
X365711396Y-168990615D01*
X365750500Y-168731182D01*
X385249500Y-168731182D01*
X385250189Y-168735754D01*
X385250190Y-168735765D01*
X385287912Y-168986028D01*
X385287913Y-168986035D01*
X385288604Y-168990615D01*
X385289969Y-168995043D01*
X385289971Y-168995048D01*
X385364569Y-169236891D01*
X385364573Y-169236901D01*
X385365937Y-169241323D01*
X385367946Y-169245496D01*
X385367949Y-169245502D01*
X385477756Y-169473518D01*
X385479772Y-169477704D01*
X385627567Y-169694479D01*
X385806019Y-169886805D01*
X386011143Y-170050386D01*
X386238357Y-170181568D01*
X386482584Y-170277420D01*
X386738370Y-170335802D01*
X386934506Y-170350500D01*
X389063177Y-170350500D01*
X389065494Y-170350500D01*
X389261630Y-170335802D01*
X389517416Y-170277420D01*
X389761643Y-170181568D01*
X389988857Y-170050386D01*
X390193981Y-169886805D01*
X390372433Y-169694479D01*
X390520228Y-169477704D01*
X390634063Y-169241323D01*
X390711396Y-168990615D01*
X390750500Y-168731182D01*
X390750500Y-168468818D01*
X390711396Y-168209385D01*
X390634063Y-167958677D01*
X390520228Y-167722296D01*
X390372433Y-167505521D01*
X390193981Y-167313195D01*
X389988857Y-167149614D01*
X389894216Y-167094973D01*
X389765664Y-167020753D01*
X389765658Y-167020750D01*
X389761643Y-167018432D01*
X389757324Y-167016737D01*
X389757318Y-167016734D01*
X389521738Y-166924276D01*
X389521734Y-166924275D01*
X389517416Y-166922580D01*
X389512893Y-166921547D01*
X389512891Y-166921547D01*
X389266149Y-166865229D01*
X389266143Y-166865228D01*
X389261630Y-166864198D01*
X389257008Y-166863851D01*
X389257004Y-166863851D01*
X389067808Y-166849673D01*
X389067797Y-166849672D01*
X389065494Y-166849500D01*
X386934506Y-166849500D01*
X386932203Y-166849672D01*
X386932191Y-166849673D01*
X386742995Y-166863851D01*
X386742989Y-166863851D01*
X386738370Y-166864198D01*
X386733858Y-166865227D01*
X386733850Y-166865229D01*
X386487108Y-166921547D01*
X386487102Y-166921548D01*
X386482584Y-166922580D01*
X386478268Y-166924273D01*
X386478261Y-166924276D01*
X386242681Y-167016734D01*
X386242670Y-167016739D01*
X386238357Y-167018432D01*
X386234346Y-167020747D01*
X386234335Y-167020753D01*
X386015161Y-167147294D01*
X386011143Y-167149614D01*
X386007519Y-167152503D01*
X386007516Y-167152506D01*
X385809646Y-167310302D01*
X385809641Y-167310306D01*
X385806019Y-167313195D01*
X385802865Y-167316593D01*
X385802863Y-167316596D01*
X385630719Y-167502123D01*
X385630713Y-167502129D01*
X385627567Y-167505521D01*
X385479772Y-167722296D01*
X385477759Y-167726474D01*
X385477756Y-167726481D01*
X385367949Y-167954497D01*
X385367944Y-167954508D01*
X385365937Y-167958677D01*
X385364574Y-167963093D01*
X385364569Y-167963108D01*
X385289971Y-168204951D01*
X385289968Y-168204959D01*
X385288604Y-168209385D01*
X385287914Y-168213961D01*
X385287912Y-168213971D01*
X385250190Y-168464234D01*
X385250189Y-168464246D01*
X385249500Y-168468818D01*
X385249500Y-168731182D01*
X365750500Y-168731182D01*
X365750500Y-168468818D01*
X365711396Y-168209385D01*
X365634063Y-167958677D01*
X365520228Y-167722296D01*
X365372433Y-167505521D01*
X365193981Y-167313195D01*
X364988857Y-167149614D01*
X364894216Y-167094973D01*
X364765664Y-167020753D01*
X364765658Y-167020750D01*
X364761643Y-167018432D01*
X364757324Y-167016737D01*
X364757318Y-167016734D01*
X364521738Y-166924276D01*
X364521734Y-166924275D01*
X364517416Y-166922580D01*
X364512893Y-166921547D01*
X364512891Y-166921547D01*
X364266149Y-166865229D01*
X364266143Y-166865228D01*
X364261630Y-166864198D01*
X364257008Y-166863851D01*
X364257004Y-166863851D01*
X364067808Y-166849673D01*
X364067797Y-166849672D01*
X364065494Y-166849500D01*
X361934506Y-166849500D01*
X361932203Y-166849672D01*
X361932191Y-166849673D01*
X361742995Y-166863851D01*
X361742989Y-166863851D01*
X361738370Y-166864198D01*
X361733858Y-166865227D01*
X361733850Y-166865229D01*
X361487108Y-166921547D01*
X361487102Y-166921548D01*
X361482584Y-166922580D01*
X361478268Y-166924273D01*
X361478261Y-166924276D01*
X361242681Y-167016734D01*
X361242670Y-167016739D01*
X361238357Y-167018432D01*
X361234346Y-167020747D01*
X361234335Y-167020753D01*
X361015161Y-167147294D01*
X361011143Y-167149614D01*
X361007519Y-167152503D01*
X361007516Y-167152506D01*
X360809646Y-167310302D01*
X360809641Y-167310306D01*
X360806019Y-167313195D01*
X360802865Y-167316593D01*
X360802863Y-167316596D01*
X360630719Y-167502123D01*
X360630713Y-167502129D01*
X360627567Y-167505521D01*
X360479772Y-167722296D01*
X360477759Y-167726474D01*
X360477756Y-167726481D01*
X360367949Y-167954497D01*
X360367944Y-167954508D01*
X360365937Y-167958677D01*
X360364574Y-167963093D01*
X360364569Y-167963108D01*
X360289971Y-168204951D01*
X360289968Y-168204959D01*
X360288604Y-168209385D01*
X360287914Y-168213961D01*
X360287912Y-168213971D01*
X360250190Y-168464234D01*
X360250189Y-168464246D01*
X360249500Y-168468818D01*
X360249500Y-168731182D01*
X353045500Y-168731182D01*
X353045500Y-163714188D01*
X353059511Y-163656931D01*
X353098377Y-163612613D01*
X353166261Y-163565080D01*
X353259139Y-163500047D01*
X353420047Y-163339139D01*
X353550568Y-163152734D01*
X353646739Y-162946496D01*
X353705635Y-162726692D01*
X353725468Y-162500000D01*
X361274532Y-162500000D01*
X361275004Y-162505395D01*
X361293892Y-162721293D01*
X361294365Y-162726692D01*
X361295762Y-162731907D01*
X361295764Y-162731916D01*
X361351858Y-162941263D01*
X361351861Y-162941271D01*
X361353261Y-162946496D01*
X361355549Y-162951403D01*
X361355550Y-162951405D01*
X361419313Y-163088145D01*
X361449432Y-163152734D01*
X361579953Y-163339139D01*
X361740861Y-163500047D01*
X361927266Y-163630568D01*
X362133504Y-163726739D01*
X362138734Y-163728140D01*
X362138736Y-163728141D01*
X362284951Y-163767319D01*
X362353308Y-163785635D01*
X362580000Y-163805468D01*
X362806692Y-163785635D01*
X363026496Y-163726739D01*
X363232734Y-163630568D01*
X363419139Y-163500047D01*
X363580047Y-163339139D01*
X363692612Y-163178377D01*
X363736931Y-163139511D01*
X363794188Y-163125500D01*
X364903649Y-163125500D01*
X364962667Y-163140445D01*
X365007458Y-163181679D01*
X365123215Y-163358860D01*
X365123222Y-163358869D01*
X365126021Y-163363153D01*
X365283216Y-163533913D01*
X365287262Y-163537062D01*
X365287263Y-163537063D01*
X365374794Y-163605191D01*
X365466374Y-163676470D01*
X365670497Y-163786936D01*
X365890019Y-163862298D01*
X366118951Y-163900500D01*
X366345916Y-163900500D01*
X366351049Y-163900500D01*
X366579981Y-163862298D01*
X366799503Y-163786936D01*
X367003626Y-163676470D01*
X367186784Y-163533913D01*
X367195510Y-163524433D01*
X367248132Y-163490578D01*
X367310587Y-163486728D01*
X367366970Y-163513866D01*
X367402924Y-163565080D01*
X367428548Y-163633779D01*
X367436962Y-163649189D01*
X367512498Y-163750092D01*
X367524907Y-163762501D01*
X367625810Y-163838037D01*
X367641222Y-163846452D01*
X367760358Y-163890888D01*
X367775332Y-163894426D01*
X367823885Y-163899646D01*
X367830482Y-163900000D01*
X368508674Y-163900000D01*
X368521549Y-163896549D01*
X368525000Y-163883674D01*
X369025000Y-163883674D01*
X369028450Y-163896549D01*
X369041326Y-163900000D01*
X369719518Y-163900000D01*
X369726114Y-163899646D01*
X369774667Y-163894426D01*
X369789641Y-163890888D01*
X369908777Y-163846452D01*
X369924189Y-163838037D01*
X370025092Y-163762501D01*
X370037501Y-163750092D01*
X370113037Y-163649189D01*
X370121452Y-163633777D01*
X370165888Y-163514641D01*
X370169426Y-163499667D01*
X370174646Y-163451114D01*
X370175000Y-163444518D01*
X370175000Y-162766326D01*
X370171549Y-162753450D01*
X370158674Y-162750000D01*
X369041326Y-162750000D01*
X369028450Y-162753450D01*
X369025000Y-162766326D01*
X369025000Y-163883674D01*
X368525000Y-163883674D01*
X368525000Y-162233674D01*
X369025000Y-162233674D01*
X369028450Y-162246549D01*
X369041326Y-162250000D01*
X370158674Y-162250000D01*
X370171549Y-162246549D01*
X370175000Y-162233674D01*
X370175000Y-161555482D01*
X370174646Y-161548885D01*
X370169426Y-161500332D01*
X370165888Y-161485358D01*
X370121452Y-161366222D01*
X370113037Y-161350810D01*
X370037501Y-161249907D01*
X370025092Y-161237498D01*
X369924189Y-161161962D01*
X369908777Y-161153547D01*
X369789641Y-161109111D01*
X369774667Y-161105573D01*
X369726114Y-161100353D01*
X369719518Y-161100000D01*
X369041326Y-161100000D01*
X369028450Y-161103450D01*
X369025000Y-161116326D01*
X369025000Y-162233674D01*
X368525000Y-162233674D01*
X368525000Y-161116326D01*
X368521549Y-161103450D01*
X368508674Y-161100000D01*
X367830482Y-161100000D01*
X367823885Y-161100353D01*
X367775332Y-161105573D01*
X367760358Y-161109111D01*
X367641222Y-161153547D01*
X367625810Y-161161962D01*
X367524907Y-161237498D01*
X367512498Y-161249907D01*
X367436962Y-161350810D01*
X367428545Y-161366224D01*
X367402923Y-161434920D01*
X367366971Y-161486133D01*
X367310590Y-161513270D01*
X367248136Y-161509422D01*
X367195513Y-161475569D01*
X367190258Y-161469861D01*
X367190257Y-161469860D01*
X367186784Y-161466087D01*
X367157927Y-161443627D01*
X367007672Y-161326679D01*
X367007671Y-161326678D01*
X367003626Y-161323530D01*
X366867583Y-161249907D01*
X366804007Y-161215501D01*
X366804002Y-161215499D01*
X366799503Y-161213064D01*
X366794657Y-161211400D01*
X366794654Y-161211399D01*
X366584834Y-161139368D01*
X366584833Y-161139367D01*
X366579981Y-161137702D01*
X366574931Y-161136859D01*
X366574922Y-161136857D01*
X366356111Y-161100344D01*
X366356102Y-161100343D01*
X366351049Y-161099500D01*
X366118951Y-161099500D01*
X366113898Y-161100343D01*
X366113888Y-161100344D01*
X365895077Y-161136857D01*
X365895065Y-161136859D01*
X365890019Y-161137702D01*
X365885169Y-161139366D01*
X365885165Y-161139368D01*
X365675345Y-161211399D01*
X365675337Y-161211402D01*
X365670497Y-161213064D01*
X365666001Y-161215496D01*
X365665992Y-161215501D01*
X365470882Y-161321090D01*
X365470878Y-161321092D01*
X365466374Y-161323530D01*
X365462334Y-161326674D01*
X365462327Y-161326679D01*
X365287263Y-161462936D01*
X365287255Y-161462943D01*
X365283216Y-161466087D01*
X365279746Y-161469855D01*
X365279742Y-161469860D01*
X365129491Y-161633077D01*
X365129488Y-161633080D01*
X365126021Y-161636847D01*
X365123226Y-161641123D01*
X365123215Y-161641139D01*
X365007458Y-161818321D01*
X364962667Y-161859555D01*
X364903649Y-161874500D01*
X363794188Y-161874500D01*
X363736931Y-161860489D01*
X363692613Y-161821623D01*
X363629452Y-161731420D01*
X363580047Y-161660861D01*
X363419139Y-161499953D01*
X363325672Y-161434507D01*
X363237173Y-161372540D01*
X363237171Y-161372539D01*
X363232734Y-161369432D01*
X363141051Y-161326679D01*
X363031405Y-161275550D01*
X363031403Y-161275549D01*
X363026496Y-161273261D01*
X363021271Y-161271861D01*
X363021263Y-161271858D01*
X362811916Y-161215764D01*
X362811907Y-161215762D01*
X362806692Y-161214365D01*
X362801304Y-161213893D01*
X362801301Y-161213893D01*
X362585395Y-161195004D01*
X362580000Y-161194532D01*
X362574605Y-161195004D01*
X362358698Y-161213893D01*
X362358693Y-161213893D01*
X362353308Y-161214365D01*
X362348094Y-161215762D01*
X362348083Y-161215764D01*
X362138736Y-161271858D01*
X362138724Y-161271862D01*
X362133504Y-161273261D01*
X362128599Y-161275547D01*
X362128594Y-161275550D01*
X361932176Y-161367142D01*
X361932172Y-161367144D01*
X361927266Y-161369432D01*
X361922833Y-161372535D01*
X361922826Y-161372540D01*
X361745296Y-161496847D01*
X361745291Y-161496850D01*
X361740861Y-161499953D01*
X361737037Y-161503776D01*
X361737031Y-161503782D01*
X361583782Y-161657031D01*
X361583776Y-161657037D01*
X361579953Y-161660861D01*
X361576850Y-161665291D01*
X361576847Y-161665296D01*
X361452540Y-161842826D01*
X361452535Y-161842833D01*
X361449432Y-161847266D01*
X361447144Y-161852172D01*
X361447142Y-161852176D01*
X361355550Y-162048594D01*
X361355547Y-162048599D01*
X361353261Y-162053504D01*
X361351862Y-162058724D01*
X361351858Y-162058736D01*
X361295764Y-162268083D01*
X361295762Y-162268094D01*
X361294365Y-162273308D01*
X361274532Y-162500000D01*
X353725468Y-162500000D01*
X353705635Y-162273308D01*
X353664921Y-162121362D01*
X353648141Y-162058736D01*
X353648140Y-162058734D01*
X353646739Y-162053504D01*
X353550568Y-161847266D01*
X353420047Y-161660861D01*
X353259139Y-161499953D01*
X353165672Y-161434507D01*
X353077173Y-161372540D01*
X353077171Y-161372539D01*
X353072734Y-161369432D01*
X352981051Y-161326679D01*
X352871405Y-161275550D01*
X352871403Y-161275549D01*
X352866496Y-161273261D01*
X352861271Y-161271861D01*
X352861263Y-161271858D01*
X352651916Y-161215764D01*
X352651907Y-161215762D01*
X352646692Y-161214365D01*
X352641304Y-161213893D01*
X352641301Y-161213893D01*
X352425395Y-161195004D01*
X352420000Y-161194532D01*
X352414605Y-161195004D01*
X352198698Y-161213893D01*
X352198693Y-161213893D01*
X352193308Y-161214365D01*
X352188090Y-161215762D01*
X352188079Y-161215765D01*
X352124950Y-161232680D01*
X352060763Y-161232680D01*
X352005177Y-161200586D01*
X351926819Y-161122228D01*
X351899939Y-161082000D01*
X351890500Y-161034547D01*
X351890500Y-156531182D01*
X357249500Y-156531182D01*
X357250189Y-156535754D01*
X357250190Y-156535765D01*
X357287912Y-156786028D01*
X357287913Y-156786035D01*
X357288604Y-156790615D01*
X357289969Y-156795043D01*
X357289971Y-156795048D01*
X357364569Y-157036891D01*
X357364573Y-157036901D01*
X357365937Y-157041323D01*
X357479772Y-157277704D01*
X357627567Y-157494479D01*
X357806019Y-157686805D01*
X358011143Y-157850386D01*
X358238357Y-157981568D01*
X358482584Y-158077420D01*
X358738370Y-158135802D01*
X358934506Y-158150500D01*
X361063177Y-158150500D01*
X361065494Y-158150500D01*
X361261630Y-158135802D01*
X361517416Y-158077420D01*
X361761643Y-157981568D01*
X361988857Y-157850386D01*
X362193981Y-157686805D01*
X362372433Y-157494479D01*
X362520228Y-157277704D01*
X362634063Y-157041323D01*
X362711396Y-156790615D01*
X362750500Y-156531182D01*
X362750500Y-156268818D01*
X362711396Y-156009385D01*
X362637305Y-155769187D01*
X362635430Y-155763108D01*
X362635428Y-155763105D01*
X362634063Y-155758677D01*
X362520228Y-155522296D01*
X362474950Y-155455885D01*
X364261245Y-155455885D01*
X364279181Y-155580643D01*
X364284128Y-155597489D01*
X364336949Y-155713150D01*
X364345038Y-155726245D01*
X364375673Y-155764261D01*
X364380098Y-155769187D01*
X366210812Y-157599901D01*
X366215738Y-157604326D01*
X366253754Y-157634961D01*
X366266849Y-157643050D01*
X366382510Y-157695871D01*
X366399356Y-157700818D01*
X366524115Y-157718755D01*
X366541671Y-157718755D01*
X366666429Y-157700818D01*
X366683275Y-157695871D01*
X366798936Y-157643050D01*
X366812031Y-157634961D01*
X366850047Y-157604326D01*
X366854973Y-157599901D01*
X366981361Y-157473513D01*
X366987756Y-157463942D01*
X366990000Y-157452664D01*
X366990000Y-156950199D01*
X367490000Y-156950199D01*
X367492230Y-156959489D01*
X367500377Y-156954497D01*
X369454497Y-155000377D01*
X369459489Y-154992230D01*
X369450199Y-154990000D01*
X367506326Y-154990000D01*
X367493450Y-154993450D01*
X367490000Y-155006326D01*
X367490000Y-156950199D01*
X366990000Y-156950199D01*
X366990000Y-155006326D01*
X366986549Y-154993450D01*
X366973674Y-154990000D01*
X364527336Y-154990000D01*
X364516057Y-154992243D01*
X364506486Y-154998638D01*
X364380098Y-155125026D01*
X364375673Y-155129952D01*
X364345038Y-155167968D01*
X364336949Y-155181063D01*
X364284128Y-155296724D01*
X364279181Y-155313570D01*
X364261245Y-155438329D01*
X364261245Y-155455885D01*
X362474950Y-155455885D01*
X362372433Y-155305521D01*
X362193981Y-155113195D01*
X361988857Y-154949614D01*
X361894216Y-154894973D01*
X361765664Y-154820753D01*
X361765658Y-154820750D01*
X361761643Y-154818432D01*
X361757324Y-154816737D01*
X361757318Y-154816734D01*
X361521738Y-154724276D01*
X361521734Y-154724275D01*
X361517416Y-154722580D01*
X361512893Y-154721547D01*
X361512891Y-154721547D01*
X361266149Y-154665229D01*
X361266143Y-154665228D01*
X361261630Y-154664198D01*
X361257008Y-154663851D01*
X361257004Y-154663851D01*
X361067808Y-154649673D01*
X361067797Y-154649672D01*
X361065494Y-154649500D01*
X358934506Y-154649500D01*
X358932203Y-154649672D01*
X358932191Y-154649673D01*
X358742995Y-154663851D01*
X358742989Y-154663851D01*
X358738370Y-154664198D01*
X358733858Y-154665227D01*
X358733850Y-154665229D01*
X358487108Y-154721547D01*
X358487102Y-154721548D01*
X358482584Y-154722580D01*
X358478268Y-154724273D01*
X358478261Y-154724276D01*
X358242681Y-154816734D01*
X358242670Y-154816739D01*
X358238357Y-154818432D01*
X358234346Y-154820747D01*
X358234335Y-154820753D01*
X358015161Y-154947294D01*
X358011143Y-154949614D01*
X358007519Y-154952503D01*
X358007516Y-154952506D01*
X357809646Y-155110302D01*
X357809641Y-155110306D01*
X357806019Y-155113195D01*
X357802865Y-155116593D01*
X357802863Y-155116596D01*
X357630719Y-155302123D01*
X357630713Y-155302129D01*
X357627567Y-155305521D01*
X357479772Y-155522296D01*
X357477759Y-155526474D01*
X357477756Y-155526481D01*
X357367949Y-155754497D01*
X357367944Y-155754508D01*
X357365937Y-155758677D01*
X357364574Y-155763093D01*
X357364569Y-155763108D01*
X357289971Y-156004951D01*
X357289968Y-156004959D01*
X357288604Y-156009385D01*
X357287914Y-156013961D01*
X357287912Y-156013971D01*
X357250190Y-156264234D01*
X357250189Y-156264246D01*
X357249500Y-156268818D01*
X357249500Y-156531182D01*
X351890500Y-156531182D01*
X351890500Y-154487769D01*
X365020510Y-154487769D01*
X365029801Y-154490000D01*
X366973674Y-154490000D01*
X366986549Y-154486549D01*
X366990000Y-154473674D01*
X367490000Y-154473674D01*
X367493450Y-154486549D01*
X367506326Y-154490000D01*
X369952664Y-154490000D01*
X369963942Y-154487756D01*
X369973513Y-154481361D01*
X370099901Y-154354973D01*
X370104326Y-154350047D01*
X370134961Y-154312031D01*
X370143050Y-154298936D01*
X370195871Y-154183275D01*
X370200818Y-154166429D01*
X370218755Y-154041671D01*
X370218755Y-154024115D01*
X370200818Y-153899356D01*
X370195871Y-153882510D01*
X370143050Y-153766849D01*
X370134961Y-153753754D01*
X370104326Y-153715738D01*
X370099901Y-153710812D01*
X368269187Y-151880098D01*
X368264261Y-151875673D01*
X368226245Y-151845038D01*
X368213150Y-151836949D01*
X368097489Y-151784128D01*
X368080643Y-151779181D01*
X368032346Y-151772238D01*
X367975682Y-151748767D01*
X367947107Y-151713308D01*
X367918532Y-151748767D01*
X367861868Y-151772238D01*
X367813570Y-151779181D01*
X367796724Y-151784128D01*
X367681063Y-151836949D01*
X367667968Y-151845038D01*
X367629952Y-151875673D01*
X367625026Y-151880098D01*
X367498638Y-152006486D01*
X367492243Y-152016057D01*
X367490000Y-152027336D01*
X367490000Y-154473674D01*
X366990000Y-154473674D01*
X366990000Y-152529801D01*
X366987769Y-152520510D01*
X366979622Y-152525502D01*
X365025502Y-154479622D01*
X365020510Y-154487769D01*
X351890500Y-154487769D01*
X351890500Y-151565494D01*
X354349500Y-151565494D01*
X354349672Y-151567797D01*
X354349673Y-151567808D01*
X354360577Y-151713308D01*
X354364198Y-151761630D01*
X354365228Y-151766143D01*
X354365229Y-151766149D01*
X354420085Y-152006486D01*
X354422580Y-152017416D01*
X354424275Y-152021734D01*
X354424276Y-152021738D01*
X354516734Y-152257318D01*
X354516737Y-152257324D01*
X354518432Y-152261643D01*
X354520750Y-152265658D01*
X354520753Y-152265664D01*
X354590078Y-152385738D01*
X354649614Y-152488857D01*
X354813195Y-152693981D01*
X355005521Y-152872433D01*
X355222296Y-153020228D01*
X355458677Y-153134063D01*
X355463105Y-153135428D01*
X355463108Y-153135430D01*
X355565641Y-153167057D01*
X355709385Y-153211396D01*
X355968818Y-153250500D01*
X356226547Y-153250500D01*
X356231182Y-153250500D01*
X356490615Y-153211396D01*
X356741323Y-153134063D01*
X356977704Y-153020228D01*
X357194479Y-152872433D01*
X357386805Y-152693981D01*
X357550386Y-152488857D01*
X357681568Y-152261643D01*
X357777420Y-152017416D01*
X357835802Y-151761630D01*
X357850500Y-151565494D01*
X357850500Y-149434506D01*
X357835802Y-149238370D01*
X357777420Y-148982584D01*
X357681568Y-148738357D01*
X357550386Y-148511143D01*
X357386805Y-148306019D01*
X357194479Y-148127567D01*
X356977704Y-147979772D01*
X356973518Y-147977756D01*
X356745502Y-147867949D01*
X356745496Y-147867946D01*
X356741323Y-147865937D01*
X356736901Y-147864573D01*
X356736891Y-147864569D01*
X356495048Y-147789971D01*
X356495043Y-147789969D01*
X356490615Y-147788604D01*
X356486035Y-147787913D01*
X356486028Y-147787912D01*
X356235765Y-147750190D01*
X356235754Y-147750189D01*
X356231182Y-147749500D01*
X355968818Y-147749500D01*
X355964246Y-147750189D01*
X355964234Y-147750190D01*
X355713971Y-147787912D01*
X355713961Y-147787914D01*
X355709385Y-147788604D01*
X355704959Y-147789968D01*
X355704951Y-147789971D01*
X355463108Y-147864569D01*
X355463093Y-147864574D01*
X355458677Y-147865937D01*
X355454508Y-147867944D01*
X355454497Y-147867949D01*
X355226481Y-147977756D01*
X355226474Y-147977759D01*
X355222296Y-147979772D01*
X355218463Y-147982385D01*
X355218460Y-147982387D01*
X355009349Y-148124957D01*
X355005521Y-148127567D01*
X355002129Y-148130713D01*
X355002123Y-148130719D01*
X354816596Y-148302863D01*
X354813195Y-148306019D01*
X354810306Y-148309641D01*
X354810302Y-148309646D01*
X354652506Y-148507516D01*
X354649614Y-148511143D01*
X354647295Y-148515159D01*
X354647294Y-148515161D01*
X354520753Y-148734335D01*
X354520747Y-148734346D01*
X354518432Y-148738357D01*
X354516739Y-148742670D01*
X354516734Y-148742681D01*
X354424276Y-148978261D01*
X354424273Y-148978268D01*
X354422580Y-148982584D01*
X354421548Y-148987102D01*
X354421547Y-148987108D01*
X354365229Y-149233850D01*
X354365227Y-149233858D01*
X354364198Y-149238370D01*
X354363851Y-149242989D01*
X354363851Y-149242995D01*
X354362153Y-149265664D01*
X354349500Y-149434506D01*
X354349500Y-151565494D01*
X351890500Y-151565494D01*
X351890500Y-138775228D01*
X351904511Y-138717971D01*
X351943376Y-138673653D01*
X352049721Y-138599189D01*
X352136401Y-138538495D01*
X352303495Y-138371401D01*
X352433424Y-138185842D01*
X352477743Y-138146976D01*
X352535000Y-138132965D01*
X352592257Y-138146976D01*
X352636575Y-138185842D01*
X352763395Y-138366961D01*
X352763401Y-138366968D01*
X352766505Y-138371401D01*
X352933599Y-138538495D01*
X353127170Y-138674035D01*
X353166002Y-138692142D01*
X353202493Y-138718075D01*
X353225544Y-138752509D01*
X353226382Y-138755390D01*
X353230352Y-138762103D01*
X353236581Y-138772637D01*
X353245136Y-138790099D01*
X353249642Y-138801480D01*
X353249643Y-138801483D01*
X353252514Y-138808732D01*
X353271987Y-138835534D01*
X353278181Y-138844060D01*
X353284593Y-138853822D01*
X353302856Y-138884702D01*
X353302859Y-138884707D01*
X353306830Y-138891420D01*
X353312344Y-138896934D01*
X353312345Y-138896935D01*
X353320990Y-138905580D01*
X353333626Y-138920374D01*
X353340819Y-138930275D01*
X353340823Y-138930279D01*
X353345406Y-138936587D01*
X353351415Y-138941558D01*
X353351416Y-138941559D01*
X353379058Y-138964426D01*
X353387699Y-138972289D01*
X365702707Y-151287298D01*
X365710159Y-151295487D01*
X365714214Y-151301877D01*
X365751809Y-151337181D01*
X365763223Y-151347900D01*
X365766019Y-151350610D01*
X365785529Y-151370120D01*
X365788709Y-151372587D01*
X365797571Y-151380155D01*
X365811020Y-151392785D01*
X365823732Y-151404723D01*
X365823734Y-151404724D01*
X365829418Y-151410062D01*
X365836251Y-151413818D01*
X365836252Y-151413819D01*
X365846973Y-151419713D01*
X365863234Y-151430394D01*
X365879064Y-151442673D01*
X365919155Y-151460021D01*
X365929635Y-151465155D01*
X365967908Y-151486197D01*
X365987316Y-151491180D01*
X366005719Y-151497481D01*
X366016944Y-151502339D01*
X366016946Y-151502339D01*
X366024104Y-151505437D01*
X366067258Y-151512271D01*
X366078644Y-151514629D01*
X366120981Y-151525500D01*
X366141017Y-151525500D01*
X366160415Y-151527027D01*
X366172486Y-151528939D01*
X366172487Y-151528939D01*
X366180196Y-151530160D01*
X366218276Y-151526560D01*
X366223676Y-151526050D01*
X366235345Y-151525500D01*
X367844222Y-151525500D01*
X367903649Y-151540668D01*
X367947107Y-151581128D01*
X367990565Y-151540668D01*
X368049992Y-151525500D01*
X369589548Y-151525500D01*
X369637001Y-151534939D01*
X369677228Y-151561818D01*
X376593305Y-158477896D01*
X383502707Y-165387298D01*
X383510159Y-165395487D01*
X383514214Y-165401877D01*
X383563223Y-165447900D01*
X383566019Y-165450610D01*
X383585529Y-165470120D01*
X383588709Y-165472587D01*
X383597571Y-165480155D01*
X383610880Y-165492654D01*
X383623732Y-165504723D01*
X383623734Y-165504724D01*
X383629418Y-165510062D01*
X383636251Y-165513818D01*
X383636252Y-165513819D01*
X383646973Y-165519713D01*
X383663234Y-165530394D01*
X383679064Y-165542673D01*
X383719155Y-165560021D01*
X383729635Y-165565155D01*
X383767908Y-165586197D01*
X383787316Y-165591180D01*
X383805719Y-165597481D01*
X383816944Y-165602339D01*
X383816946Y-165602339D01*
X383824104Y-165605437D01*
X383867258Y-165612271D01*
X383878644Y-165614629D01*
X383920981Y-165625500D01*
X383941017Y-165625500D01*
X383960415Y-165627027D01*
X383972486Y-165628939D01*
X383972487Y-165628939D01*
X383980196Y-165630160D01*
X384018276Y-165626560D01*
X384023676Y-165626050D01*
X384035345Y-165625500D01*
X391422225Y-165625500D01*
X391433280Y-165626021D01*
X391440667Y-165627673D01*
X391507872Y-165625561D01*
X391511768Y-165625500D01*
X391535448Y-165625500D01*
X391539350Y-165625500D01*
X391543313Y-165624999D01*
X391554963Y-165624080D01*
X391598627Y-165622709D01*
X391617861Y-165617119D01*
X391636917Y-165613174D01*
X391656792Y-165610664D01*
X391697395Y-165594587D01*
X391708450Y-165590802D01*
X391750390Y-165578618D01*
X391767629Y-165568422D01*
X391785103Y-165559862D01*
X391796474Y-165555360D01*
X391796476Y-165555358D01*
X391803732Y-165552486D01*
X391839069Y-165526811D01*
X391848824Y-165520403D01*
X391886420Y-165498170D01*
X391900584Y-165484005D01*
X391915379Y-165471368D01*
X391931587Y-165459594D01*
X391959428Y-165425938D01*
X391967279Y-165417309D01*
X393447771Y-163936818D01*
X393488000Y-163909938D01*
X393535453Y-163900499D01*
X394719561Y-163900499D01*
X394722872Y-163900499D01*
X394782483Y-163894091D01*
X394917331Y-163843796D01*
X395032546Y-163757546D01*
X395118796Y-163642331D01*
X395169091Y-163507483D01*
X395175500Y-163447873D01*
X395175499Y-161552128D01*
X395169091Y-161492517D01*
X395118796Y-161357669D01*
X395032546Y-161242454D01*
X394996541Y-161215501D01*
X394924431Y-161161519D01*
X394924430Y-161161518D01*
X394917331Y-161156204D01*
X394826237Y-161122228D01*
X394789752Y-161108620D01*
X394789750Y-161108619D01*
X394782483Y-161105909D01*
X394774770Y-161105079D01*
X394774767Y-161105079D01*
X394726180Y-161099855D01*
X394726169Y-161099854D01*
X394722873Y-161099500D01*
X394719550Y-161099500D01*
X392830439Y-161099500D01*
X392830420Y-161099500D01*
X392827128Y-161099501D01*
X392823850Y-161099853D01*
X392823838Y-161099854D01*
X392775231Y-161105079D01*
X392775225Y-161105080D01*
X392767517Y-161105909D01*
X392760252Y-161108618D01*
X392760246Y-161108620D01*
X392640980Y-161153104D01*
X392640978Y-161153104D01*
X392632669Y-161156204D01*
X392625572Y-161161516D01*
X392625568Y-161161519D01*
X392524550Y-161237141D01*
X392524546Y-161237144D01*
X392517454Y-161242454D01*
X392512144Y-161249546D01*
X392512141Y-161249550D01*
X392436519Y-161350568D01*
X392436516Y-161350572D01*
X392431204Y-161357669D01*
X392424334Y-161376087D01*
X392402545Y-161434507D01*
X392366593Y-161485720D01*
X392310213Y-161512858D01*
X392247759Y-161509011D01*
X392195135Y-161475158D01*
X392190259Y-161469862D01*
X392190257Y-161469860D01*
X392186784Y-161466087D01*
X392157927Y-161443627D01*
X392007672Y-161326679D01*
X392007671Y-161326678D01*
X392003626Y-161323530D01*
X391867583Y-161249907D01*
X391804007Y-161215501D01*
X391804002Y-161215499D01*
X391799503Y-161213064D01*
X391794657Y-161211400D01*
X391794654Y-161211399D01*
X391584834Y-161139368D01*
X391584833Y-161139367D01*
X391579981Y-161137702D01*
X391574931Y-161136859D01*
X391574922Y-161136857D01*
X391356111Y-161100344D01*
X391356102Y-161100343D01*
X391351049Y-161099500D01*
X391118951Y-161099500D01*
X391113898Y-161100343D01*
X391113888Y-161100344D01*
X390895074Y-161136858D01*
X390895068Y-161136859D01*
X390890019Y-161137702D01*
X390885174Y-161139365D01*
X390885159Y-161139369D01*
X390864418Y-161146489D01*
X390796208Y-161150016D01*
X390736478Y-161116888D01*
X379755020Y-150135430D01*
X368732286Y-139112695D01*
X368724842Y-139104514D01*
X368720786Y-139098123D01*
X368671775Y-139052098D01*
X368668978Y-139049387D01*
X368652227Y-139032636D01*
X368649471Y-139029880D01*
X368646290Y-139027412D01*
X368637414Y-139019830D01*
X368611269Y-138995278D01*
X368611267Y-138995276D01*
X368605582Y-138989938D01*
X368598749Y-138986182D01*
X368598743Y-138986177D01*
X368588025Y-138980285D01*
X368571766Y-138969606D01*
X368562095Y-138962104D01*
X368562092Y-138962102D01*
X368555936Y-138957327D01*
X368548779Y-138954229D01*
X368548776Y-138954228D01*
X368515849Y-138939978D01*
X368505363Y-138934841D01*
X368473932Y-138917562D01*
X368473923Y-138917558D01*
X368467092Y-138913803D01*
X368459535Y-138911862D01*
X368459531Y-138911861D01*
X368447688Y-138908820D01*
X368429284Y-138902519D01*
X368418057Y-138897660D01*
X368418050Y-138897658D01*
X368410896Y-138894562D01*
X368403192Y-138893341D01*
X368403190Y-138893341D01*
X368367759Y-138887729D01*
X368356324Y-138885361D01*
X368321571Y-138876438D01*
X368321563Y-138876437D01*
X368314019Y-138874500D01*
X368306223Y-138874500D01*
X368293983Y-138874500D01*
X368274597Y-138872974D01*
X368254804Y-138869840D01*
X368247038Y-138870574D01*
X368247035Y-138870574D01*
X368211324Y-138873950D01*
X368199655Y-138874500D01*
X364748942Y-138874500D01*
X364688826Y-138858953D01*
X364643784Y-138816210D01*
X364625112Y-138756990D01*
X364637492Y-138696142D01*
X364677818Y-138648925D01*
X364831643Y-138541215D01*
X364839909Y-138534278D01*
X364999278Y-138374909D01*
X365006215Y-138366643D01*
X365135498Y-138182008D01*
X365140886Y-138172676D01*
X365236143Y-137968397D01*
X365239831Y-137958263D01*
X365291943Y-137763780D01*
X365292311Y-137752551D01*
X365281369Y-137750000D01*
X361299000Y-137750000D01*
X361237000Y-137733387D01*
X361191613Y-137688000D01*
X361175000Y-137626000D01*
X361175000Y-137233674D01*
X361675000Y-137233674D01*
X361678450Y-137246549D01*
X361691326Y-137250000D01*
X363698674Y-137250000D01*
X363711549Y-137246549D01*
X363715000Y-137233674D01*
X364215000Y-137233674D01*
X364218450Y-137246549D01*
X364231326Y-137250000D01*
X365281369Y-137250000D01*
X365292311Y-137247448D01*
X365291943Y-137236219D01*
X365239831Y-137041736D01*
X365236143Y-137031602D01*
X365140889Y-136827332D01*
X365135491Y-136817982D01*
X365006215Y-136633357D01*
X364999280Y-136625092D01*
X364839909Y-136465721D01*
X364831643Y-136458784D01*
X364647008Y-136329501D01*
X364637676Y-136324113D01*
X364433397Y-136228856D01*
X364423263Y-136225168D01*
X364228780Y-136173056D01*
X364217551Y-136172688D01*
X364215000Y-136183631D01*
X364215000Y-137233674D01*
X363715000Y-137233674D01*
X363715000Y-136183631D01*
X363712448Y-136172688D01*
X363701219Y-136173056D01*
X363506736Y-136225168D01*
X363496602Y-136228856D01*
X363292332Y-136324110D01*
X363282982Y-136329508D01*
X363098357Y-136458784D01*
X363090092Y-136465719D01*
X362930719Y-136625092D01*
X362923788Y-136633352D01*
X362796575Y-136815032D01*
X362752257Y-136853897D01*
X362695000Y-136867908D01*
X362637743Y-136853897D01*
X362593425Y-136815032D01*
X362466211Y-136633352D01*
X362459280Y-136625092D01*
X362299909Y-136465721D01*
X362291643Y-136458784D01*
X362107008Y-136329501D01*
X362097676Y-136324113D01*
X361893397Y-136228856D01*
X361883263Y-136225168D01*
X361688780Y-136173056D01*
X361677551Y-136172688D01*
X361675000Y-136183631D01*
X361675000Y-137233674D01*
X361175000Y-137233674D01*
X361175000Y-136183631D01*
X361172448Y-136172688D01*
X361161219Y-136173056D01*
X360966736Y-136225168D01*
X360956602Y-136228856D01*
X360752332Y-136324110D01*
X360742982Y-136329508D01*
X360558357Y-136458784D01*
X360550092Y-136465719D01*
X360390719Y-136625092D01*
X360383788Y-136633352D01*
X360256880Y-136814596D01*
X360212562Y-136853461D01*
X360155305Y-136867472D01*
X360098048Y-136853461D01*
X360053730Y-136814595D01*
X360053425Y-136814159D01*
X359923495Y-136628599D01*
X359756401Y-136461505D01*
X359751970Y-136458402D01*
X359751966Y-136458399D01*
X359567259Y-136329066D01*
X359567257Y-136329064D01*
X359562830Y-136325965D01*
X359557933Y-136323681D01*
X359557927Y-136323678D01*
X359353572Y-136228386D01*
X359353570Y-136228385D01*
X359348663Y-136226097D01*
X359343438Y-136224697D01*
X359343430Y-136224694D01*
X359125634Y-136166337D01*
X359125630Y-136166336D01*
X359120408Y-136164937D01*
X359115020Y-136164465D01*
X359115017Y-136164465D01*
X358890395Y-136144813D01*
X358885000Y-136144341D01*
X358879605Y-136144813D01*
X358654982Y-136164465D01*
X358654977Y-136164465D01*
X358649592Y-136164937D01*
X358644371Y-136166335D01*
X358644365Y-136166337D01*
X358426569Y-136224694D01*
X358426557Y-136224698D01*
X358421337Y-136226097D01*
X358416432Y-136228383D01*
X358416427Y-136228386D01*
X358212081Y-136323675D01*
X358212077Y-136323677D01*
X358207171Y-136325965D01*
X358202738Y-136329068D01*
X358202731Y-136329073D01*
X358018034Y-136458399D01*
X358018029Y-136458402D01*
X358013599Y-136461505D01*
X358009775Y-136465328D01*
X358009769Y-136465334D01*
X357850334Y-136624769D01*
X357850328Y-136624775D01*
X357846505Y-136628599D01*
X357843402Y-136633029D01*
X357843399Y-136633034D01*
X357716575Y-136814159D01*
X357672257Y-136853025D01*
X357615000Y-136867036D01*
X357557743Y-136853025D01*
X357513425Y-136814159D01*
X357502327Y-136798310D01*
X357383495Y-136628599D01*
X357216401Y-136461505D01*
X357211970Y-136458402D01*
X357211966Y-136458399D01*
X357027259Y-136329066D01*
X357027257Y-136329064D01*
X357022830Y-136325965D01*
X357017933Y-136323681D01*
X357017927Y-136323678D01*
X356813572Y-136228386D01*
X356813570Y-136228385D01*
X356808663Y-136226097D01*
X356803438Y-136224697D01*
X356803430Y-136224694D01*
X356585634Y-136166337D01*
X356585630Y-136166336D01*
X356580408Y-136164937D01*
X356575020Y-136164465D01*
X356575017Y-136164465D01*
X356350395Y-136144813D01*
X356345000Y-136144341D01*
X356339605Y-136144813D01*
X356114982Y-136164465D01*
X356114977Y-136164465D01*
X356109592Y-136164937D01*
X356104371Y-136166335D01*
X356104365Y-136166337D01*
X355886569Y-136224694D01*
X355886557Y-136224698D01*
X355881337Y-136226097D01*
X355876432Y-136228383D01*
X355876427Y-136228386D01*
X355672081Y-136323675D01*
X355672077Y-136323677D01*
X355667171Y-136325965D01*
X355662738Y-136329068D01*
X355662731Y-136329073D01*
X355478034Y-136458399D01*
X355478029Y-136458402D01*
X355473599Y-136461505D01*
X355469775Y-136465328D01*
X355469769Y-136465334D01*
X355310334Y-136624769D01*
X355310328Y-136624775D01*
X355306505Y-136628599D01*
X355303402Y-136633029D01*
X355303399Y-136633034D01*
X355176575Y-136814159D01*
X355132257Y-136853025D01*
X355075000Y-136867036D01*
X355017743Y-136853025D01*
X354973425Y-136814159D01*
X354962327Y-136798310D01*
X354843495Y-136628599D01*
X354676401Y-136461505D01*
X354671970Y-136458402D01*
X354671966Y-136458399D01*
X354487259Y-136329066D01*
X354487257Y-136329064D01*
X354482830Y-136325965D01*
X354477933Y-136323681D01*
X354477927Y-136323678D01*
X354273572Y-136228386D01*
X354273570Y-136228385D01*
X354268663Y-136226097D01*
X354263438Y-136224697D01*
X354263430Y-136224694D01*
X354045634Y-136166337D01*
X354045630Y-136166336D01*
X354040408Y-136164937D01*
X354035020Y-136164465D01*
X354035017Y-136164465D01*
X353810395Y-136144813D01*
X353805000Y-136144341D01*
X353799605Y-136144813D01*
X353574982Y-136164465D01*
X353574977Y-136164465D01*
X353569592Y-136164937D01*
X353564371Y-136166335D01*
X353564365Y-136166337D01*
X353346569Y-136224694D01*
X353346557Y-136224698D01*
X353341337Y-136226097D01*
X353336432Y-136228383D01*
X353336427Y-136228386D01*
X353132081Y-136323675D01*
X353132077Y-136323677D01*
X353127171Y-136325965D01*
X353122738Y-136329068D01*
X353122731Y-136329073D01*
X352938034Y-136458399D01*
X352938029Y-136458402D01*
X352933599Y-136461505D01*
X352929775Y-136465328D01*
X352929769Y-136465334D01*
X352770334Y-136624769D01*
X352770328Y-136624775D01*
X352766505Y-136628599D01*
X352763402Y-136633029D01*
X352763399Y-136633034D01*
X352636575Y-136814159D01*
X352592257Y-136853025D01*
X352535000Y-136867036D01*
X352477743Y-136853025D01*
X352433425Y-136814159D01*
X352422327Y-136798310D01*
X352303495Y-136628599D01*
X352136401Y-136461505D01*
X352131970Y-136458402D01*
X352131966Y-136458399D01*
X351947259Y-136329066D01*
X351947257Y-136329064D01*
X351942830Y-136325965D01*
X351937933Y-136323681D01*
X351937927Y-136323678D01*
X351733572Y-136228386D01*
X351733570Y-136228385D01*
X351728663Y-136226097D01*
X351723438Y-136224697D01*
X351723430Y-136224694D01*
X351505634Y-136166337D01*
X351505630Y-136166336D01*
X351500408Y-136164937D01*
X351495020Y-136164465D01*
X351495017Y-136164465D01*
X351270395Y-136144813D01*
X351265000Y-136144341D01*
X351259605Y-136144813D01*
X351034982Y-136164465D01*
X351034977Y-136164465D01*
X351029592Y-136164937D01*
X351024371Y-136166335D01*
X351024365Y-136166337D01*
X350806569Y-136224694D01*
X350806557Y-136224698D01*
X350801337Y-136226097D01*
X350796432Y-136228383D01*
X350796427Y-136228386D01*
X350592081Y-136323675D01*
X350592077Y-136323677D01*
X350587171Y-136325965D01*
X350582738Y-136329068D01*
X350582731Y-136329073D01*
X350398034Y-136458399D01*
X350398029Y-136458402D01*
X350393599Y-136461505D01*
X350389775Y-136465328D01*
X350389769Y-136465334D01*
X350230334Y-136624769D01*
X350230328Y-136624775D01*
X350226505Y-136628599D01*
X350223402Y-136633029D01*
X350223399Y-136633034D01*
X350096575Y-136814159D01*
X350052257Y-136853025D01*
X349995000Y-136867036D01*
X349937743Y-136853025D01*
X349893425Y-136814159D01*
X349882327Y-136798310D01*
X349763495Y-136628599D01*
X349596401Y-136461505D01*
X349591970Y-136458402D01*
X349591966Y-136458399D01*
X349407259Y-136329066D01*
X349407257Y-136329064D01*
X349402830Y-136325965D01*
X349397933Y-136323681D01*
X349397927Y-136323678D01*
X349193572Y-136228386D01*
X349193570Y-136228385D01*
X349188663Y-136226097D01*
X349183438Y-136224697D01*
X349183430Y-136224694D01*
X348965634Y-136166337D01*
X348965630Y-136166336D01*
X348960408Y-136164937D01*
X348955020Y-136164465D01*
X348955017Y-136164465D01*
X348730395Y-136144813D01*
X348725000Y-136144341D01*
X348719605Y-136144813D01*
X348494982Y-136164465D01*
X348494977Y-136164465D01*
X348489592Y-136164937D01*
X348484371Y-136166335D01*
X348484365Y-136166337D01*
X348266569Y-136224694D01*
X348266557Y-136224698D01*
X348261337Y-136226097D01*
X348256432Y-136228383D01*
X348256427Y-136228386D01*
X348052081Y-136323675D01*
X348052077Y-136323677D01*
X348047171Y-136325965D01*
X348042738Y-136329068D01*
X348042731Y-136329073D01*
X347858034Y-136458399D01*
X347858029Y-136458402D01*
X347853599Y-136461505D01*
X347849775Y-136465328D01*
X347849769Y-136465334D01*
X347690334Y-136624769D01*
X347690328Y-136624775D01*
X347686505Y-136628599D01*
X347683402Y-136633029D01*
X347683399Y-136633034D01*
X347556575Y-136814159D01*
X347512257Y-136853025D01*
X347455000Y-136867036D01*
X347397743Y-136853025D01*
X347353425Y-136814159D01*
X347342327Y-136798310D01*
X347223495Y-136628599D01*
X347056401Y-136461505D01*
X347051970Y-136458402D01*
X347051966Y-136458399D01*
X346867259Y-136329066D01*
X346867257Y-136329064D01*
X346862830Y-136325965D01*
X346857933Y-136323681D01*
X346857927Y-136323678D01*
X346653572Y-136228386D01*
X346653570Y-136228385D01*
X346648663Y-136226097D01*
X346643438Y-136224697D01*
X346643430Y-136224694D01*
X346425634Y-136166337D01*
X346425630Y-136166336D01*
X346420408Y-136164937D01*
X346415020Y-136164465D01*
X346415017Y-136164465D01*
X346190395Y-136144813D01*
X346185000Y-136144341D01*
X346179605Y-136144813D01*
X345954982Y-136164465D01*
X345954977Y-136164465D01*
X345949592Y-136164937D01*
X345944371Y-136166335D01*
X345944365Y-136166337D01*
X345726569Y-136224694D01*
X345726557Y-136224698D01*
X345721337Y-136226097D01*
X345716432Y-136228383D01*
X345716427Y-136228386D01*
X345512081Y-136323675D01*
X345512077Y-136323677D01*
X345507171Y-136325965D01*
X345502738Y-136329068D01*
X345502731Y-136329073D01*
X345318034Y-136458399D01*
X345318029Y-136458402D01*
X345313599Y-136461505D01*
X345309775Y-136465328D01*
X345309769Y-136465334D01*
X345150334Y-136624769D01*
X345150328Y-136624775D01*
X345146505Y-136628599D01*
X345143402Y-136633029D01*
X345143399Y-136633034D01*
X345016575Y-136814159D01*
X344972257Y-136853025D01*
X344915000Y-136867036D01*
X344857743Y-136853025D01*
X344813425Y-136814159D01*
X344802327Y-136798310D01*
X344683495Y-136628599D01*
X344516401Y-136461505D01*
X344511970Y-136458402D01*
X344511966Y-136458399D01*
X344327259Y-136329066D01*
X344327257Y-136329064D01*
X344322830Y-136325965D01*
X344317933Y-136323681D01*
X344317927Y-136323678D01*
X344113572Y-136228386D01*
X344113570Y-136228385D01*
X344108663Y-136226097D01*
X344103438Y-136224697D01*
X344103430Y-136224694D01*
X343885634Y-136166337D01*
X343885630Y-136166336D01*
X343880408Y-136164937D01*
X343875020Y-136164465D01*
X343875017Y-136164465D01*
X343650395Y-136144813D01*
X343645000Y-136144341D01*
X343639605Y-136144813D01*
X343414982Y-136164465D01*
X343414977Y-136164465D01*
X343409592Y-136164937D01*
X343404371Y-136166335D01*
X343404365Y-136166337D01*
X343186569Y-136224694D01*
X343186557Y-136224698D01*
X343181337Y-136226097D01*
X343176432Y-136228383D01*
X343176427Y-136228386D01*
X342972081Y-136323675D01*
X342972077Y-136323677D01*
X342967171Y-136325965D01*
X342962738Y-136329068D01*
X342962731Y-136329073D01*
X342778034Y-136458399D01*
X342778029Y-136458402D01*
X342773599Y-136461505D01*
X342769775Y-136465328D01*
X342769769Y-136465334D01*
X342610334Y-136624769D01*
X342610328Y-136624775D01*
X342606505Y-136628599D01*
X342603402Y-136633029D01*
X342603399Y-136633034D01*
X342476575Y-136814159D01*
X342432257Y-136853025D01*
X342375000Y-136867036D01*
X342317743Y-136853025D01*
X342273425Y-136814159D01*
X342262327Y-136798310D01*
X342143495Y-136628599D01*
X341976401Y-136461505D01*
X341971970Y-136458402D01*
X341971966Y-136458399D01*
X341787259Y-136329066D01*
X341787257Y-136329064D01*
X341782830Y-136325965D01*
X341777933Y-136323681D01*
X341777927Y-136323678D01*
X341573572Y-136228386D01*
X341573570Y-136228385D01*
X341568663Y-136226097D01*
X341563438Y-136224697D01*
X341563430Y-136224694D01*
X341345634Y-136166337D01*
X341345630Y-136166336D01*
X341340408Y-136164937D01*
X341335020Y-136164465D01*
X341335017Y-136164465D01*
X341110395Y-136144813D01*
X341105000Y-136144341D01*
X341099605Y-136144813D01*
X340874982Y-136164465D01*
X340874977Y-136164465D01*
X340869592Y-136164937D01*
X340864371Y-136166335D01*
X340864365Y-136166337D01*
X340646569Y-136224694D01*
X340646557Y-136224698D01*
X340641337Y-136226097D01*
X340636432Y-136228383D01*
X340636427Y-136228386D01*
X340432081Y-136323675D01*
X340432077Y-136323677D01*
X340427171Y-136325965D01*
X340422738Y-136329068D01*
X340422731Y-136329073D01*
X340238034Y-136458399D01*
X340238029Y-136458402D01*
X340233599Y-136461505D01*
X340229775Y-136465328D01*
X340229769Y-136465334D01*
X340070334Y-136624769D01*
X340070328Y-136624775D01*
X340066505Y-136628599D01*
X340063402Y-136633029D01*
X340063399Y-136633034D01*
X339936575Y-136814159D01*
X339892257Y-136853025D01*
X339835000Y-136867036D01*
X339777743Y-136853025D01*
X339733425Y-136814159D01*
X339722327Y-136798310D01*
X339603495Y-136628599D01*
X339436401Y-136461505D01*
X339431970Y-136458402D01*
X339431966Y-136458399D01*
X339247259Y-136329066D01*
X339247257Y-136329064D01*
X339242830Y-136325965D01*
X339237933Y-136323681D01*
X339237927Y-136323678D01*
X339033572Y-136228386D01*
X339033570Y-136228385D01*
X339028663Y-136226097D01*
X339023438Y-136224697D01*
X339023430Y-136224694D01*
X338805634Y-136166337D01*
X338805630Y-136166336D01*
X338800408Y-136164937D01*
X338795020Y-136164465D01*
X338795017Y-136164465D01*
X338570395Y-136144813D01*
X338565000Y-136144341D01*
X338559605Y-136144813D01*
X338334982Y-136164465D01*
X338334977Y-136164465D01*
X338329592Y-136164937D01*
X338324371Y-136166335D01*
X338324365Y-136166337D01*
X338106569Y-136224694D01*
X338106557Y-136224698D01*
X338101337Y-136226097D01*
X338096432Y-136228383D01*
X338096427Y-136228386D01*
X337892081Y-136323675D01*
X337892077Y-136323677D01*
X337887171Y-136325965D01*
X337882738Y-136329068D01*
X337882731Y-136329073D01*
X337698034Y-136458399D01*
X337698029Y-136458402D01*
X337693599Y-136461505D01*
X337689774Y-136465329D01*
X337689775Y-136465329D01*
X337571285Y-136583819D01*
X337518538Y-136615114D01*
X337457246Y-136617303D01*
X337402401Y-136589850D01*
X337367422Y-136539471D01*
X337321451Y-136416220D01*
X337313037Y-136400810D01*
X337237501Y-136299907D01*
X337225092Y-136287498D01*
X337124189Y-136211962D01*
X337108777Y-136203547D01*
X336989641Y-136159111D01*
X336974667Y-136155573D01*
X336926114Y-136150353D01*
X336919518Y-136150000D01*
X336291326Y-136150000D01*
X336278450Y-136153450D01*
X336275000Y-136166326D01*
X336275000Y-138850000D01*
X336271629Y-138850000D01*
X336271631Y-138885279D01*
X336239536Y-138940871D01*
X305712696Y-169467711D01*
X305704511Y-169475159D01*
X305698123Y-169479214D01*
X305692788Y-169484894D01*
X305692783Y-169484899D01*
X305652096Y-169528225D01*
X305649392Y-169531016D01*
X305632628Y-169547780D01*
X305632621Y-169547787D01*
X305629880Y-169550529D01*
X305627500Y-169553596D01*
X305627489Y-169553609D01*
X305627400Y-169553725D01*
X305619842Y-169562570D01*
X305595280Y-169588727D01*
X305595273Y-169588736D01*
X305589938Y-169594418D01*
X305586182Y-169601249D01*
X305586179Y-169601254D01*
X305580285Y-169611975D01*
X305569609Y-169628227D01*
X305562109Y-169637896D01*
X305562101Y-169637907D01*
X305557327Y-169644064D01*
X305554234Y-169651208D01*
X305554229Y-169651219D01*
X305539974Y-169684160D01*
X305534838Y-169694643D01*
X305513803Y-169732908D01*
X305511864Y-169740456D01*
X305511863Y-169740461D01*
X305508822Y-169752307D01*
X305502521Y-169770711D01*
X305497658Y-169781948D01*
X305497656Y-169781952D01*
X305494562Y-169789104D01*
X305493342Y-169796803D01*
X305493342Y-169796805D01*
X305487729Y-169832241D01*
X305485361Y-169843676D01*
X305476438Y-169878428D01*
X305476436Y-169878436D01*
X305474500Y-169885981D01*
X305474500Y-169893777D01*
X305474500Y-169906017D01*
X305472974Y-169925402D01*
X305469840Y-169945196D01*
X305470574Y-169952961D01*
X305470574Y-169952964D01*
X305473950Y-169988676D01*
X305474500Y-170000345D01*
X305474500Y-172780403D01*
X305455494Y-172846375D01*
X305404301Y-172892123D01*
X305226486Y-172977753D01*
X305226473Y-172977760D01*
X305222296Y-172979772D01*
X305218463Y-172982385D01*
X305218460Y-172982387D01*
X305009349Y-173124957D01*
X305005521Y-173127567D01*
X305002129Y-173130713D01*
X305002123Y-173130719D01*
X304889040Y-173235645D01*
X304813195Y-173306019D01*
X304810306Y-173309641D01*
X304810302Y-173309646D01*
X304652506Y-173507516D01*
X304649614Y-173511143D01*
X304647295Y-173515159D01*
X304647294Y-173515161D01*
X304520753Y-173734335D01*
X304520747Y-173734346D01*
X304518432Y-173738357D01*
X304516739Y-173742670D01*
X304516734Y-173742681D01*
X304424276Y-173978261D01*
X304424273Y-173978268D01*
X304422580Y-173982584D01*
X304421548Y-173987102D01*
X304421547Y-173987108D01*
X304365229Y-174233850D01*
X304365227Y-174233858D01*
X304364198Y-174238370D01*
X304363851Y-174242989D01*
X304363851Y-174242995D01*
X304362153Y-174265664D01*
X304349500Y-174434506D01*
X304349500Y-176565494D01*
X302500500Y-176565494D01*
X302500500Y-156531182D01*
X307249500Y-156531182D01*
X307250189Y-156535754D01*
X307250190Y-156535765D01*
X307287912Y-156786028D01*
X307287913Y-156786035D01*
X307288604Y-156790615D01*
X307289969Y-156795043D01*
X307289971Y-156795048D01*
X307364569Y-157036891D01*
X307364573Y-157036901D01*
X307365937Y-157041323D01*
X307479772Y-157277704D01*
X307627567Y-157494479D01*
X307806019Y-157686805D01*
X308011143Y-157850386D01*
X308238357Y-157981568D01*
X308482584Y-158077420D01*
X308738370Y-158135802D01*
X308934506Y-158150500D01*
X311063177Y-158150500D01*
X311065494Y-158150500D01*
X311261630Y-158135802D01*
X311517416Y-158077420D01*
X311761643Y-157981568D01*
X311988857Y-157850386D01*
X312193981Y-157686805D01*
X312372433Y-157494479D01*
X312520228Y-157277704D01*
X312634063Y-157041323D01*
X312711396Y-156790615D01*
X312750500Y-156531182D01*
X312750500Y-156268818D01*
X312711396Y-156009385D01*
X312637305Y-155769187D01*
X312635430Y-155763108D01*
X312635428Y-155763105D01*
X312634063Y-155758677D01*
X312520228Y-155522296D01*
X312474950Y-155455885D01*
X314261245Y-155455885D01*
X314279181Y-155580643D01*
X314284128Y-155597489D01*
X314336949Y-155713150D01*
X314345038Y-155726245D01*
X314375673Y-155764261D01*
X314380098Y-155769187D01*
X316210812Y-157599901D01*
X316215738Y-157604326D01*
X316253754Y-157634961D01*
X316266849Y-157643050D01*
X316382510Y-157695871D01*
X316399356Y-157700818D01*
X316524115Y-157718755D01*
X316541671Y-157718755D01*
X316666429Y-157700818D01*
X316683275Y-157695871D01*
X316798936Y-157643050D01*
X316812031Y-157634961D01*
X316850047Y-157604326D01*
X316854973Y-157599901D01*
X316981361Y-157473513D01*
X316987756Y-157463942D01*
X316990000Y-157452664D01*
X316990000Y-156950199D01*
X317490000Y-156950199D01*
X317492230Y-156959489D01*
X317500377Y-156954497D01*
X319454497Y-155000377D01*
X319459489Y-154992230D01*
X319450199Y-154990000D01*
X317506326Y-154990000D01*
X317493450Y-154993450D01*
X317490000Y-155006326D01*
X317490000Y-156950199D01*
X316990000Y-156950199D01*
X316990000Y-155006326D01*
X316986549Y-154993450D01*
X316973674Y-154990000D01*
X314527336Y-154990000D01*
X314516057Y-154992243D01*
X314506486Y-154998638D01*
X314380098Y-155125026D01*
X314375673Y-155129952D01*
X314345038Y-155167968D01*
X314336949Y-155181063D01*
X314284128Y-155296724D01*
X314279181Y-155313570D01*
X314261245Y-155438329D01*
X314261245Y-155455885D01*
X312474950Y-155455885D01*
X312372433Y-155305521D01*
X312193981Y-155113195D01*
X311988857Y-154949614D01*
X311894216Y-154894973D01*
X311765664Y-154820753D01*
X311765658Y-154820750D01*
X311761643Y-154818432D01*
X311757324Y-154816737D01*
X311757318Y-154816734D01*
X311521738Y-154724276D01*
X311521734Y-154724275D01*
X311517416Y-154722580D01*
X311512893Y-154721547D01*
X311512891Y-154721547D01*
X311266149Y-154665229D01*
X311266143Y-154665228D01*
X311261630Y-154664198D01*
X311257008Y-154663851D01*
X311257004Y-154663851D01*
X311067808Y-154649673D01*
X311067797Y-154649672D01*
X311065494Y-154649500D01*
X308934506Y-154649500D01*
X308932203Y-154649672D01*
X308932191Y-154649673D01*
X308742995Y-154663851D01*
X308742989Y-154663851D01*
X308738370Y-154664198D01*
X308733858Y-154665227D01*
X308733850Y-154665229D01*
X308487108Y-154721547D01*
X308487102Y-154721548D01*
X308482584Y-154722580D01*
X308478268Y-154724273D01*
X308478261Y-154724276D01*
X308242681Y-154816734D01*
X308242670Y-154816739D01*
X308238357Y-154818432D01*
X308234346Y-154820747D01*
X308234335Y-154820753D01*
X308015161Y-154947294D01*
X308011143Y-154949614D01*
X308007519Y-154952503D01*
X308007516Y-154952506D01*
X307809646Y-155110302D01*
X307809641Y-155110306D01*
X307806019Y-155113195D01*
X307802865Y-155116593D01*
X307802863Y-155116596D01*
X307630719Y-155302123D01*
X307630713Y-155302129D01*
X307627567Y-155305521D01*
X307479772Y-155522296D01*
X307477759Y-155526474D01*
X307477756Y-155526481D01*
X307367949Y-155754497D01*
X307367944Y-155754508D01*
X307365937Y-155758677D01*
X307364574Y-155763093D01*
X307364569Y-155763108D01*
X307289971Y-156004951D01*
X307289968Y-156004959D01*
X307288604Y-156009385D01*
X307287914Y-156013961D01*
X307287912Y-156013971D01*
X307250190Y-156264234D01*
X307250189Y-156264246D01*
X307249500Y-156268818D01*
X307249500Y-156531182D01*
X302500500Y-156531182D01*
X302500500Y-154487769D01*
X315020510Y-154487769D01*
X315029801Y-154490000D01*
X316973674Y-154490000D01*
X316986549Y-154486549D01*
X316990000Y-154473674D01*
X317490000Y-154473674D01*
X317493450Y-154486549D01*
X317506326Y-154490000D01*
X319952664Y-154490000D01*
X319963942Y-154487756D01*
X319973513Y-154481361D01*
X320099901Y-154354973D01*
X320104326Y-154350047D01*
X320134961Y-154312031D01*
X320143050Y-154298936D01*
X320195871Y-154183275D01*
X320200818Y-154166429D01*
X320218755Y-154041671D01*
X320218755Y-154024115D01*
X320200818Y-153899356D01*
X320195871Y-153882510D01*
X320143050Y-153766849D01*
X320134961Y-153753754D01*
X320104326Y-153715738D01*
X320099901Y-153710812D01*
X318269187Y-151880098D01*
X318264261Y-151875673D01*
X318226245Y-151845038D01*
X318213150Y-151836949D01*
X318097489Y-151784128D01*
X318080643Y-151779181D01*
X317955885Y-151761245D01*
X317938329Y-151761245D01*
X317813570Y-151779181D01*
X317796724Y-151784128D01*
X317681063Y-151836949D01*
X317667968Y-151845038D01*
X317629952Y-151875673D01*
X317625026Y-151880098D01*
X317498638Y-152006486D01*
X317492243Y-152016057D01*
X317490000Y-152027336D01*
X317490000Y-154473674D01*
X316990000Y-154473674D01*
X316990000Y-152529801D01*
X316987769Y-152520510D01*
X316979622Y-152525502D01*
X315025502Y-154479622D01*
X315020510Y-154487769D01*
X302500500Y-154487769D01*
X302500500Y-151565494D01*
X304349500Y-151565494D01*
X304349672Y-151567797D01*
X304349673Y-151567808D01*
X304360577Y-151713308D01*
X304364198Y-151761630D01*
X304365228Y-151766143D01*
X304365229Y-151766149D01*
X304420085Y-152006486D01*
X304422580Y-152017416D01*
X304424275Y-152021734D01*
X304424276Y-152021738D01*
X304516734Y-152257318D01*
X304516737Y-152257324D01*
X304518432Y-152261643D01*
X304520750Y-152265658D01*
X304520753Y-152265664D01*
X304590078Y-152385738D01*
X304649614Y-152488857D01*
X304813195Y-152693981D01*
X305005521Y-152872433D01*
X305222296Y-153020228D01*
X305458677Y-153134063D01*
X305463105Y-153135428D01*
X305463108Y-153135430D01*
X305565641Y-153167057D01*
X305709385Y-153211396D01*
X305968818Y-153250500D01*
X306226547Y-153250500D01*
X306231182Y-153250500D01*
X306490615Y-153211396D01*
X306741323Y-153134063D01*
X306977704Y-153020228D01*
X307194479Y-152872433D01*
X307386805Y-152693981D01*
X307550386Y-152488857D01*
X307681568Y-152261643D01*
X307777420Y-152017416D01*
X307835802Y-151761630D01*
X307850500Y-151565494D01*
X307850500Y-149434506D01*
X307835802Y-149238370D01*
X307777420Y-148982584D01*
X307681568Y-148738357D01*
X307581766Y-148565494D01*
X317149500Y-148565494D01*
X317149672Y-148567797D01*
X317149673Y-148567808D01*
X317162454Y-148738357D01*
X317164198Y-148761630D01*
X317222580Y-149017416D01*
X317224275Y-149021734D01*
X317224276Y-149021738D01*
X317316734Y-149257318D01*
X317316737Y-149257324D01*
X317318432Y-149261643D01*
X317320750Y-149265658D01*
X317320753Y-149265664D01*
X317394973Y-149394216D01*
X317449614Y-149488857D01*
X317613195Y-149693981D01*
X317805521Y-149872433D01*
X318022296Y-150020228D01*
X318258677Y-150134063D01*
X318263105Y-150135428D01*
X318263108Y-150135430D01*
X318293926Y-150144936D01*
X318509385Y-150211396D01*
X318768818Y-150250500D01*
X319026547Y-150250500D01*
X319031182Y-150250500D01*
X319290615Y-150211396D01*
X319541323Y-150134063D01*
X319777704Y-150020228D01*
X319994479Y-149872433D01*
X320186805Y-149693981D01*
X320350386Y-149488857D01*
X320481568Y-149261643D01*
X320577420Y-149017416D01*
X320635802Y-148761630D01*
X320650500Y-148565494D01*
X320650500Y-146434506D01*
X320635802Y-146238370D01*
X320577420Y-145982584D01*
X320481568Y-145738357D01*
X320350386Y-145511143D01*
X320186805Y-145306019D01*
X319994479Y-145127567D01*
X319777704Y-144979772D01*
X319773518Y-144977756D01*
X319545502Y-144867949D01*
X319545496Y-144867946D01*
X319541323Y-144865937D01*
X319536901Y-144864573D01*
X319536891Y-144864569D01*
X319295048Y-144789971D01*
X319295043Y-144789969D01*
X319290615Y-144788604D01*
X319286035Y-144787913D01*
X319286028Y-144787912D01*
X319035765Y-144750190D01*
X319035754Y-144750189D01*
X319031182Y-144749500D01*
X318768818Y-144749500D01*
X318764246Y-144750189D01*
X318764234Y-144750190D01*
X318513971Y-144787912D01*
X318513961Y-144787914D01*
X318509385Y-144788604D01*
X318504959Y-144789968D01*
X318504951Y-144789971D01*
X318263108Y-144864569D01*
X318263093Y-144864574D01*
X318258677Y-144865937D01*
X318254508Y-144867944D01*
X318254497Y-144867949D01*
X318026481Y-144977756D01*
X318026474Y-144977759D01*
X318022296Y-144979772D01*
X318018463Y-144982385D01*
X318018460Y-144982387D01*
X317918724Y-145050386D01*
X317805521Y-145127567D01*
X317802129Y-145130713D01*
X317802123Y-145130719D01*
X317645846Y-145275723D01*
X317613195Y-145306019D01*
X317610306Y-145309641D01*
X317610302Y-145309646D01*
X317452506Y-145507516D01*
X317449614Y-145511143D01*
X317447295Y-145515159D01*
X317447294Y-145515161D01*
X317320753Y-145734335D01*
X317320747Y-145734346D01*
X317318432Y-145738357D01*
X317316739Y-145742670D01*
X317316734Y-145742681D01*
X317224276Y-145978261D01*
X317224273Y-145978268D01*
X317222580Y-145982584D01*
X317221548Y-145987102D01*
X317221547Y-145987108D01*
X317165229Y-146233850D01*
X317165227Y-146233858D01*
X317164198Y-146238370D01*
X317149500Y-146434506D01*
X317149500Y-148565494D01*
X307581766Y-148565494D01*
X307550386Y-148511143D01*
X307386805Y-148306019D01*
X307194479Y-148127567D01*
X306977704Y-147979772D01*
X306973518Y-147977756D01*
X306745502Y-147867949D01*
X306745496Y-147867946D01*
X306741323Y-147865937D01*
X306736901Y-147864573D01*
X306736891Y-147864569D01*
X306495048Y-147789971D01*
X306495043Y-147789969D01*
X306490615Y-147788604D01*
X306486035Y-147787913D01*
X306486028Y-147787912D01*
X306235765Y-147750190D01*
X306235754Y-147750189D01*
X306231182Y-147749500D01*
X305968818Y-147749500D01*
X305964246Y-147750189D01*
X305964234Y-147750190D01*
X305713971Y-147787912D01*
X305713961Y-147787914D01*
X305709385Y-147788604D01*
X305704959Y-147789968D01*
X305704951Y-147789971D01*
X305463108Y-147864569D01*
X305463093Y-147864574D01*
X305458677Y-147865937D01*
X305454508Y-147867944D01*
X305454497Y-147867949D01*
X305226481Y-147977756D01*
X305226474Y-147977759D01*
X305222296Y-147979772D01*
X305218463Y-147982385D01*
X305218460Y-147982387D01*
X305009349Y-148124957D01*
X305005521Y-148127567D01*
X305002129Y-148130713D01*
X305002123Y-148130719D01*
X304816596Y-148302863D01*
X304813195Y-148306019D01*
X304810306Y-148309641D01*
X304810302Y-148309646D01*
X304652506Y-148507516D01*
X304649614Y-148511143D01*
X304647295Y-148515159D01*
X304647294Y-148515161D01*
X304520753Y-148734335D01*
X304520747Y-148734346D01*
X304518432Y-148738357D01*
X304516739Y-148742670D01*
X304516734Y-148742681D01*
X304424276Y-148978261D01*
X304424273Y-148978268D01*
X304422580Y-148982584D01*
X304421548Y-148987102D01*
X304421547Y-148987108D01*
X304365229Y-149233850D01*
X304365227Y-149233858D01*
X304364198Y-149238370D01*
X304363851Y-149242989D01*
X304363851Y-149242995D01*
X304362153Y-149265664D01*
X304349500Y-149434506D01*
X304349500Y-151565494D01*
X302500500Y-151565494D01*
X302500500Y-143731182D01*
X310249500Y-143731182D01*
X310250189Y-143735754D01*
X310250190Y-143735765D01*
X310287912Y-143986028D01*
X310287913Y-143986035D01*
X310288604Y-143990615D01*
X310289969Y-143995043D01*
X310289971Y-143995048D01*
X310364569Y-144236891D01*
X310364573Y-144236901D01*
X310365937Y-144241323D01*
X310479772Y-144477704D01*
X310627567Y-144694479D01*
X310806019Y-144886805D01*
X311011143Y-145050386D01*
X311238357Y-145181568D01*
X311482584Y-145277420D01*
X311738370Y-145335802D01*
X311934506Y-145350500D01*
X314063177Y-145350500D01*
X314065494Y-145350500D01*
X314261630Y-145335802D01*
X314517416Y-145277420D01*
X314761643Y-145181568D01*
X314988857Y-145050386D01*
X315193981Y-144886805D01*
X315372433Y-144694479D01*
X315520228Y-144477704D01*
X315634063Y-144241323D01*
X315711396Y-143990615D01*
X315750500Y-143731182D01*
X315750500Y-143468818D01*
X315711396Y-143209385D01*
X315634063Y-142958677D01*
X315520228Y-142722296D01*
X315372433Y-142505521D01*
X315193981Y-142313195D01*
X314988857Y-142149614D01*
X314894216Y-142094973D01*
X314765664Y-142020753D01*
X314765658Y-142020750D01*
X314761643Y-142018432D01*
X314757324Y-142016737D01*
X314757318Y-142016734D01*
X314521738Y-141924276D01*
X314521734Y-141924275D01*
X314517416Y-141922580D01*
X314512893Y-141921547D01*
X314512891Y-141921547D01*
X314266149Y-141865229D01*
X314266143Y-141865228D01*
X314261630Y-141864198D01*
X314257008Y-141863851D01*
X314257004Y-141863851D01*
X314067808Y-141849673D01*
X314067797Y-141849672D01*
X314065494Y-141849500D01*
X311934506Y-141849500D01*
X311932203Y-141849672D01*
X311932191Y-141849673D01*
X311742995Y-141863851D01*
X311742989Y-141863851D01*
X311738370Y-141864198D01*
X311733858Y-141865227D01*
X311733850Y-141865229D01*
X311487108Y-141921547D01*
X311487102Y-141921548D01*
X311482584Y-141922580D01*
X311478268Y-141924273D01*
X311478261Y-141924276D01*
X311242681Y-142016734D01*
X311242670Y-142016739D01*
X311238357Y-142018432D01*
X311234346Y-142020747D01*
X311234335Y-142020753D01*
X311015161Y-142147294D01*
X311011143Y-142149614D01*
X311007519Y-142152503D01*
X311007516Y-142152506D01*
X310809646Y-142310302D01*
X310809641Y-142310306D01*
X310806019Y-142313195D01*
X310802865Y-142316593D01*
X310802863Y-142316596D01*
X310630719Y-142502123D01*
X310630713Y-142502129D01*
X310627567Y-142505521D01*
X310479772Y-142722296D01*
X310477759Y-142726474D01*
X310477756Y-142726481D01*
X310367949Y-142954497D01*
X310367944Y-142954508D01*
X310365937Y-142958677D01*
X310364574Y-142963093D01*
X310364569Y-142963108D01*
X310289971Y-143204951D01*
X310289968Y-143204959D01*
X310288604Y-143209385D01*
X310287914Y-143213961D01*
X310287912Y-143213971D01*
X310250190Y-143464234D01*
X310250189Y-143464246D01*
X310249500Y-143468818D01*
X310249500Y-143731182D01*
X302500500Y-143731182D01*
X302500500Y-138394518D01*
X334675000Y-138394518D01*
X334675353Y-138401114D01*
X334680573Y-138449667D01*
X334684111Y-138464641D01*
X334728547Y-138583777D01*
X334736962Y-138599189D01*
X334812498Y-138700092D01*
X334824907Y-138712501D01*
X334925810Y-138788037D01*
X334941222Y-138796452D01*
X335060358Y-138840888D01*
X335075332Y-138844426D01*
X335123885Y-138849646D01*
X335130482Y-138850000D01*
X335758674Y-138850000D01*
X335771549Y-138846549D01*
X335775000Y-138833674D01*
X335775000Y-137766326D01*
X335771549Y-137753450D01*
X335758674Y-137750000D01*
X334691326Y-137750000D01*
X334678450Y-137753450D01*
X334675000Y-137766326D01*
X334675000Y-138394518D01*
X302500500Y-138394518D01*
X302500500Y-137233674D01*
X334675000Y-137233674D01*
X334678450Y-137246549D01*
X334691326Y-137250000D01*
X335758674Y-137250000D01*
X335771549Y-137246549D01*
X335775000Y-137233674D01*
X335775000Y-136166326D01*
X335771549Y-136153450D01*
X335758674Y-136150000D01*
X335130482Y-136150000D01*
X335123885Y-136150353D01*
X335075332Y-136155573D01*
X335060358Y-136159111D01*
X334941222Y-136203547D01*
X334925810Y-136211962D01*
X334824907Y-136287498D01*
X334812498Y-136299907D01*
X334736962Y-136400810D01*
X334728547Y-136416222D01*
X334684111Y-136535358D01*
X334680573Y-136550332D01*
X334675353Y-136598885D01*
X334675000Y-136605482D01*
X334675000Y-137233674D01*
X302500500Y-137233674D01*
X302500500Y-135124500D01*
X302517113Y-135062500D01*
X302562500Y-135017113D01*
X302624500Y-135000500D01*
X397375500Y-135000500D01*
X397437500Y-135017113D01*
G37*
G04 #@! TD.AperFunction*
M02*
